<?xml version="1.0" encoding="utf-8"?>
<!-- Generator: Adobe Illustrator 27.3.1, SVG Export Plug-In . SVG Version: 6.00 Build 0)  -->
<svg version="1.1" id="Layer_1" xmlns="http://www.w3.org/2000/svg" xmlns:xlink="http://www.w3.org/1999/xlink" x="0px" y="0px"
	 viewBox="0 0 1920 1080" style="enable-background:new 0 0 1920 1080;" xml:space="preserve">
<style type="text/css">
	.st0{fill:#FFFFFF;}
	.st1{fill:#E69C44;}
	.st2{fill:#F3E7C5;}
	.st3{fill:#EFEFEF;}
	.st4{fill:#6C9167;}
	.st5{fill:#658AAC;}
	.st6{fill:#2D2B28;}
	.st7{enable-background:new    ;}
	.st8{fill:none;}
</style>
<rect class="st0" width="1920" height="1080"/>
<g>
	
		<image style="overflow:visible;opacity:0.75;" width="1225" height="1277" xlink:href="36CED839E213968.png"  transform="matrix(0.24 0 0 0.24 123.72 56.04)">
	</image>
	<g>
		<g>
			
				<image style="overflow:visible;opacity:0.75;enable-background:new    ;" width="305" height="319" xlink:href="36CED839E213976.png"  transform="matrix(0.8825 0 0 0.8825 128.2673 60.7426)">
			</image>
			<g>
				<rect x="135.1" y="67.5" class="st1" width="244.3" height="256.5"/>
			</g>
		</g>
	</g>
</g>
<g>
	
		<image style="overflow:visible;opacity:0.75;" width="1225" height="1277" xlink:href="36CED839E213977.png"  transform="matrix(0.24 0 0 0.24 606.12 56.04)">
	</image>
	<g>
		<g>
			
				<image style="overflow:visible;opacity:0.75;enable-background:new    ;" width="305" height="319" xlink:href="36CED839E213970.png"  transform="matrix(0.8825 0 0 0.8825 610.7085 60.7426)">
			</image>
			<g>
				<rect x="617.1" y="67.5" class="st2" width="244.3" height="256.5"/>
			</g>
		</g>
	</g>
</g>
<g>
	
		<image style="overflow:visible;opacity:0.75;" width="1225" height="1277" xlink:href="36CED839E213971.png"  transform="matrix(0.24 0 0 0.24 1551 59.64)">
	</image>
	<g>
		<g>
			
				<image style="overflow:visible;opacity:0.75;enable-background:new    ;" width="305" height="319" xlink:href="36CED839E21394A.png"  transform="matrix(0.8825 0 0 0.8825 1556.3639 64.2365)">
			</image>
			<g>
				<rect x="1563.3" y="71" class="st3" width="244.3" height="256.5"/>
			</g>
		</g>
	</g>
</g>
<g>
	
		<image style="overflow:visible;opacity:0.75;" width="3124" height="1817" xlink:href="36CED839E21394B.png"  transform="matrix(0.24 0 0 0.24 128.7794 521.8994)">
	</image>
	<g>
		<g>
			
				<image style="overflow:visible;opacity:0.75;enable-background:new    ;" width="755" height="431" xlink:href="36CED839E21394C.png"  transform="matrix(0.9564 0 0 0.9494 135.0698 525.7864)">
			</image>
			<g>
				<rect x="141.2" y="533.8" class="st4" width="696.3" height="380.6"/>
			</g>
		</g>
	</g>
</g>
<g>
	
		<image style="overflow:visible;opacity:0.75;" width="3216" height="1855" xlink:href="36CED839E21394D.png"  transform="matrix(0.24 0 0 0.24 1082.605 513.565)">
	</image>
	<g>
		<g>
			
				<image style="overflow:visible;opacity:0.75;enable-background:new    ;" width="755" height="431" xlink:href="7EBE5405DACD4BD9.png"  transform="matrix(0.9862 0 0 0.9684 1089.1093 517.5949)">
			</image>
			<g>
				<rect x="1095.9" y="525.8" class="st5" width="716.6" height="388.3"/>
			</g>
		</g>
	</g>
</g>
<g>
	
		<image style="overflow:visible;opacity:0.75;" width="1225" height="1277" xlink:href="7EBE5405DACD4BD8.png"  transform="matrix(0.24 0 0 0.24 1059.96 56.04)">
	</image>
	<g>
		<g>
			
				<image style="overflow:visible;opacity:0.75;enable-background:new    ;" width="305" height="319" xlink:href="7EBE5405DACD4BDF.png"  transform="matrix(0.8825 0 0 0.8825 1066.2648 60.7426)">
			</image>
			<g>
				<rect x="1073.1" y="67.5" class="st6" width="244.3" height="256.5"/>
			</g>
		</g>
	</g>
</g>
<g>
	<g class="st7">
		<path d="M1591.5,394.7h-0.8l-6.8-16.8c-0.5-1.3-1-2.3-1.5-2.7c-0.5-0.5-1.2-0.7-2.1-0.8v-1h8.5v1c-0.8,0-1.4,0.1-1.7,0.3
			c-0.3,0.2-0.5,0.4-0.5,0.8c0,0.4,0.2,1,0.5,1.8l3.8,9.4l1,2.7h0.2l3.9-9.8l1.5,2.5h-1L1591.5,394.7z M1602.4,394.7h-0.9l-5.1-13.2
			l-0.5-1.1l-1.1-2.9c-0.4-0.9-0.7-1.6-1-2.1c-0.3-0.4-0.6-0.7-1-0.8c-0.4-0.1-0.9-0.2-1.5-0.2v-1h8.6v1c-1.7,0-2.5,0.4-2.5,1.1
			c0,0.3,0.1,0.6,0.2,0.9c0.1,0.3,0.3,0.7,0.4,1l3.4,8.7l1.1,3.2h0.2l3.7-10.6c0.1-0.3,0.2-0.7,0.3-1c0.1-0.3,0.2-0.6,0.2-0.9
			c0.1-0.3,0.1-0.6,0.1-0.8c0-0.5-0.2-0.8-0.5-1s-0.9-0.3-1.7-0.3v-1h6.8v1c-0.8,0-1.3,0.2-1.7,0.5c-0.4,0.3-0.7,0.9-1,1.7
			L1602.4,394.7z"/>
		<path d="M1622.1,394.5h-9.4v-1c1,0,1.7-0.1,2.1-0.2c0.4-0.1,0.7-0.4,0.9-0.9c0.1-0.5,0.2-1.2,0.2-2.1v-12.6c0-0.8-0.1-1.5-0.2-2
			c-0.1-0.5-0.4-0.8-0.8-1c-0.4-0.2-1.2-0.3-2.2-0.3v-1h9.4v1c-1,0-1.8,0.1-2.2,0.3c-0.5,0.2-0.7,0.5-0.8,1c-0.1,0.5-0.1,1.1-0.1,2
			v5.4h10.8v-5.4c0-0.8-0.1-1.5-0.2-2c-0.1-0.5-0.4-0.8-0.8-1c-0.4-0.2-1.2-0.3-2.2-0.3v-1h9.4v1c-1,0-1.8,0.1-2.2,0.3
			s-0.7,0.5-0.8,1c-0.1,0.5-0.1,1.1-0.1,2v12.6c0,0.9,0.1,1.6,0.2,2.1c0.1,0.5,0.4,0.8,0.9,0.9c0.5,0.1,1.2,0.2,2.2,0.2v1h-9.4v-1
			c1,0,1.7-0.1,2.1-0.2c0.4-0.1,0.7-0.5,0.9-0.9c0.1-0.5,0.2-1.2,0.2-2.1v-6h-10.8v6c0,0.9,0.1,1.6,0.2,2.1c0.1,0.5,0.4,0.8,0.9,0.9
			c0.5,0.1,1.2,0.2,2.2,0.2V394.5z"/>
		<path d="M1647.6,394.5h-9.4v-1c1,0,1.7-0.1,2.2-0.2s0.8-0.5,0.9-0.9c0.1-0.5,0.2-1.1,0.2-2.1v-12.6c0-0.8-0.1-1.5-0.2-2
			c-0.1-0.5-0.4-0.8-0.8-1c-0.4-0.2-1.2-0.3-2.2-0.3v-1h9.4v1c-1,0-1.8,0.1-2.2,0.3s-0.7,0.5-0.8,1c-0.1,0.5-0.1,1.1-0.1,2v12.6
			c0,0.9,0.1,1.6,0.2,2.1c0.1,0.5,0.4,0.8,0.9,0.9s1.2,0.2,2.1,0.2V394.5z"/>
		<path d="M1663.4,394.5h-9.5v-1c0.9,0,1.6-0.1,2.1-0.2c0.5-0.1,0.8-0.4,0.9-0.9c0.2-0.5,0.2-1.2,0.2-2.1v-15.4h-2.1
			c-1.2,0-2.1,0.1-2.7,0.4c-0.6,0.2-1,0.7-1.3,1.3c-0.3,0.6-0.5,1.5-0.8,2.7h-1l0.4-5.8h18.1l0.3,5.8h-1c-0.2-1.2-0.5-2.1-0.8-2.7
			c-0.3-0.6-0.7-1-1.3-1.3c-0.6-0.2-1.5-0.4-2.7-0.4h-2.1v15.4c0,1,0.1,1.7,0.2,2.1c0.2,0.5,0.5,0.8,0.9,0.9
			c0.5,0.1,1.2,0.2,2.1,0.2V394.5z"/>
		<path d="M1687.2,394.5h-17.5v-1c0.9,0,1.6-0.1,2-0.2c0.4-0.1,0.8-0.4,0.9-0.8c0.2-0.4,0.2-1,0.2-1.9v-13.4c0-0.8-0.1-1.4-0.2-1.9
			c-0.2-0.4-0.5-0.7-0.9-0.9c-0.4-0.1-1.1-0.2-2-0.2v-1h17.2l0.2,5.3h-1c-0.2-1.1-0.4-1.9-0.7-2.4c-0.3-0.5-0.8-0.9-1.5-1.1
			c-0.7-0.2-1.7-0.3-3.1-0.3h-4.8v8.1h3.8c1,0,1.8-0.1,2.3-0.3c0.5-0.2,0.9-0.5,1.1-1c0.2-0.5,0.3-1.1,0.3-2h1v7.4h-1
			c0-0.9-0.1-1.5-0.3-2c-0.2-0.4-0.6-0.7-1.1-0.8c-0.5-0.1-1.3-0.2-2.3-0.2h-3.8v8.8h4.2c1.3,0,2.3-0.1,3.1-0.2
			c0.8-0.1,1.4-0.3,1.8-0.7c0.4-0.3,0.8-0.8,1.1-1.4c0.3-0.6,0.6-1.4,0.9-2.3h1L1687.2,394.5z"/>
		<path d="M1699.2,395h-1l-0.3-6.9h1c0.4,1.5,0.9,2.6,1.4,3.4c0.5,0.8,1.2,1.3,2,1.6c0.8,0.3,1.7,0.4,2.8,0.4c0.8,0,1.5-0.1,2.1-0.3
			c0.6-0.2,1-0.6,1.4-1.1c0.3-0.5,0.5-1.2,0.5-2c0-0.9-0.3-1.7-0.8-2.3c-0.5-0.6-1.2-1.2-2-1.7c-0.8-0.5-1.7-1-2.6-1.5
			c-0.9-0.5-1.7-1-2.5-1.6s-1.5-1.2-2-2c-0.5-0.8-0.8-1.7-0.8-2.8c0-1.1,0.3-2.1,0.9-2.8c0.6-0.8,1.3-1.3,2.3-1.7
			c0.9-0.4,2-0.6,3.1-0.6c1,0,1.8,0.1,2.3,0.2c0.5,0.2,1,0.3,1.3,0.5c0.3,0.2,0.6,0.3,0.9,0.3c0.3,0,0.5-0.1,0.6-0.2
			c0.2-0.1,0.3-0.4,0.4-0.7h0.9l0.2,6.4h-1c-0.5-1.8-1.1-3.1-1.8-3.9c-0.8-0.9-2-1.3-3.6-1.2c-1.1,0-2,0.3-2.6,0.8
			c-0.6,0.5-0.9,1.3-0.9,2.3c0,0.8,0.2,1.5,0.7,2c0.5,0.6,1.1,1.1,1.8,1.5c0.7,0.4,1.5,0.9,2.3,1.4c0.7,0.4,1.4,0.8,2.2,1.2
			c0.7,0.4,1.4,0.9,2,1.4c0.6,0.5,1.1,1.1,1.4,1.8c0.4,0.7,0.5,1.5,0.5,2.5c0,1.2-0.3,2.3-0.9,3.1c-0.6,0.9-1.4,1.5-2.4,1.9
			c-1,0.4-2.1,0.7-3.4,0.7c-1.1,0-2.1-0.1-2.8-0.2c-0.7-0.2-1.3-0.3-1.7-0.5c-0.4-0.2-0.7-0.2-1-0.2c-0.2,0-0.4,0.1-0.6,0.3
			C1699.3,394.4,1699.2,394.6,1699.2,395z"/>
		<path d="M1721.9,394.5h-7.7v-1c0.9,0,1.6-0.1,2-0.2c0.4-0.2,0.7-0.5,0.9-1c0.2-0.5,0.2-1.3,0.2-2.4v-12.5c0-0.8-0.1-1.4-0.2-1.8
			c-0.2-0.4-0.4-0.7-0.9-0.9c-0.4-0.2-1.1-0.2-2-0.2v-1h6.7l6.9,16.1h0.1l6.9-16.1h6.2v1c-0.8,0-1.4,0.1-1.8,0.2
			c-0.4,0.2-0.7,0.4-0.9,0.9c-0.2,0.4-0.2,1-0.2,1.8v13.4c0,0.8,0.1,1.4,0.2,1.8c0.2,0.4,0.4,0.7,0.9,0.8c0.4,0.1,1,0.2,1.8,0.2v1
			h-8.7v-1c0.9,0,1.5-0.1,1.9-0.2c0.4-0.1,0.7-0.4,0.8-0.8c0.1-0.4,0.2-1,0.2-1.8v-13.8h-0.1l-7.6,17.6h-0.8l-7.7-17.6h-0.1v12.9
			c0,1.1,0.1,1.9,0.2,2.4c0.2,0.5,0.4,0.9,0.9,1c0.4,0.2,1.1,0.2,1.9,0.2V394.5z"/>
		<path d="M1754.7,394.9c-2.2,0-4-0.4-5.6-1.3c-1.6-0.9-2.8-2.1-3.6-3.8c-0.8-1.6-1.3-3.6-1.3-5.9c0-2.2,0.4-4.1,1.3-5.7
			c0.8-1.6,2-2.9,3.6-3.8c1.6-0.9,3.4-1.4,5.6-1.4c2.2,0,4.1,0.4,5.6,1.3c1.6,0.9,2.7,2.1,3.6,3.7c0.8,1.6,1.2,3.4,1.2,5.6
			c0,2.2-0.4,4.2-1.3,5.9c-0.8,1.7-2,3-3.6,3.9C1758.7,394.4,1756.9,394.9,1754.7,394.9z M1754.7,393.5c2.3,0,4.1-0.8,5.2-2.5
			s1.7-4.1,1.7-7.3c0-1.9-0.3-3.6-0.9-5c-0.6-1.4-1.4-2.5-2.5-3.2c-1.1-0.8-2.3-1.1-3.7-1.1c-2.1,0-3.8,0.8-5,2.5
			c-1.2,1.7-1.9,3.9-1.9,6.9c0,3,0.6,5.4,1.8,7.1C1750.6,392.6,1752.4,393.5,1754.7,393.5z"/>
		<path d="M1777.3,394.5h-9.4v-1c1,0,1.7-0.1,2.2-0.2c0.4-0.1,0.7-0.5,0.9-0.9c0.1-0.5,0.2-1.2,0.2-2.1v-12.6c0-0.8-0.1-1.5-0.2-2
			c-0.1-0.5-0.4-0.8-0.8-1c-0.4-0.2-1.2-0.3-2.2-0.3v-1h9.4v1c-1,0-1.8,0.1-2.2,0.3s-0.7,0.5-0.8,1c-0.1,0.5-0.1,1.1-0.1,2v6h0.2
			l5.3-5.1c0.8-0.7,1.3-1.3,1.7-1.8c0.4-0.5,0.6-1,0.6-1.4c0-0.3-0.1-0.6-0.3-0.8c-0.2-0.2-0.5-0.2-1-0.2h-0.5v-1h8v1
			c-0.6,0-1.1,0.1-1.6,0.3c-0.4,0.1-0.8,0.4-1.2,0.7c-0.4,0.3-0.9,0.7-1.5,1.3l-7.1,6.5l9.4,9c0.5,0.5,1,0.8,1.5,1.1
			c0.5,0.2,1.1,0.3,1.9,0.3v1h-9.5v-1h0.7c0.5,0,0.8,0,1-0.1c0.2-0.1,0.3-0.3,0.3-0.5c0-0.4-0.2-0.8-0.5-1.2s-0.8-1-1.5-1.7
			c-0.7-0.7-1.6-1.6-2.7-2.6l-2.9-2.8h-0.3v5.8c0,0.9,0.1,1.6,0.2,2s0.4,0.8,0.9,0.9c0.5,0.2,1.2,0.3,2.1,0.3V394.5z"/>
		<path d="M1808.5,394.5H1791v-1c0.9,0,1.6-0.1,2-0.2c0.4-0.1,0.8-0.4,0.9-0.8c0.2-0.4,0.2-1,0.2-1.9v-13.4c0-0.8-0.1-1.4-0.2-1.9
			c-0.2-0.4-0.5-0.7-0.9-0.9c-0.4-0.1-1.1-0.2-2-0.2v-1h17.2l0.2,5.3h-1c-0.2-1.1-0.4-1.9-0.7-2.4c-0.3-0.5-0.8-0.9-1.5-1.1
			c-0.7-0.2-1.7-0.3-3.1-0.3h-4.8v8.1h3.8c1,0,1.8-0.1,2.3-0.3c0.5-0.2,0.9-0.5,1.1-1c0.2-0.5,0.3-1.1,0.3-2h1v7.4h-1
			c0-0.9-0.1-1.5-0.3-2c-0.2-0.4-0.6-0.7-1.1-0.8c-0.5-0.1-1.3-0.2-2.3-0.2h-3.8v8.8h4.2c1.3,0,2.3-0.1,3.1-0.2
			c0.8-0.1,1.4-0.3,1.8-0.7c0.4-0.3,0.8-0.8,1.1-1.4c0.3-0.6,0.6-1.4,0.9-2.3h1L1808.5,394.5z"/>
		<path d="M1600.4,431.3h-18.6v-1.5h18.6V431.3z M1601.2,424.5h-18.5V423h18.5V424.5z M1586.7,438.1h-1.8l3.6-22l1.8,0L1586.7,438.1
			z M1594.6,438.1h-1.8l3.4-22h1.8L1594.6,438.1z"/>
		<path d="M1611.9,439.6c-1.5,0-2.9-0.4-4.1-1.1c-1.2-0.7-2.2-1.8-2.9-3.1c-0.7-1.4-1.1-3.1-1.1-5.1c0-2.1,0.4-3.8,1.1-5.2
			c0.7-1.4,1.7-2.4,2.9-3c1.2-0.7,2.6-1,4-1c2.1,0,3.8,0.7,5,2.1c1.3,1.4,2,3.4,2.1,6h-12.4l0-1.4h8.9c0-0.9-0.2-1.8-0.5-2.6
			c-0.3-0.8-0.8-1.5-1.3-2c-0.6-0.5-1.3-0.7-2.3-0.7c-1.5,0-2.6,0.6-3.3,1.7c-0.7,1.1-1.1,2.7-1.1,4.8c0,1.7,0.3,3.1,0.8,4.3
			c0.6,1.1,1.3,2,2.2,2.6c0.9,0.6,1.9,0.8,2.9,0.8s1.9-0.1,2.5-0.4c0.6-0.3,1.2-0.6,1.7-1.1c0.5-0.4,0.9-0.9,1.3-1.4l0.7,0.5
			c-0.3,0.7-0.7,1.4-1.1,2c-0.4,0.6-0.9,1.2-1.5,1.7c-0.5,0.5-1.2,0.8-1.9,1.1C1613.7,439.5,1612.9,439.6,1611.9,439.6z"/>
		<path d="M1631.1,439.3h-10.3v-1.1c0.9,0,1.6-0.1,2.1-0.2c0.4-0.2,0.7-0.5,0.9-1c0.2-0.5,0.2-1.2,0.2-2.2v-11.9
			c0-1.4,0-2.6,0.1-3.5c0.1-0.9,0.2-1.7,0.4-2.3c0.2-0.6,0.4-1.2,0.8-1.8c0.5-0.9,1.2-1.5,1.9-2c0.8-0.5,1.8-0.7,3.2-0.7
			c0.8,0,1.6,0.1,2.2,0.3c0.6,0.2,1.1,0.5,1.5,0.9c0.4,0.4,0.6,0.9,0.6,1.4c0,0.5-0.2,1-0.5,1.2c-0.3,0.3-0.7,0.4-1.1,0.4
			c-0.5,0-0.9-0.2-1.2-0.5c-0.3-0.3-0.6-0.6-0.9-1c-0.3-0.3-0.5-0.7-0.8-1c-0.3-0.3-0.7-0.4-1.1-0.4c-0.7,0-1.2,0.3-1.5,1
			c-0.3,0.6-0.4,1.7-0.4,3.3v16.5c0,1,0.1,1.7,0.3,2.2c0.2,0.5,0.6,0.8,1.1,1c0.6,0.2,1.4,0.2,2.4,0.2V439.3z M1631.9,423.4h-10.7
			v-1.6h10.7V423.4z"/>
		<path d="M1641.3,439.6c-1.5,0-2.9-0.4-4.1-1.1c-1.2-0.7-2.2-1.8-2.9-3.1c-0.7-1.4-1.1-3.1-1.1-5.1c0-2.1,0.4-3.8,1.1-5.2
			c0.7-1.4,1.7-2.4,2.9-3c1.2-0.7,2.6-1,4-1c2.1,0,3.8,0.7,5,2.1c1.3,1.4,2,3.4,2.1,6h-12.4l0-1.4h8.9c0-0.9-0.2-1.8-0.5-2.6
			c-0.3-0.8-0.8-1.5-1.3-2c-0.6-0.5-1.3-0.7-2.3-0.7c-1.5,0-2.6,0.6-3.3,1.7c-0.7,1.1-1.1,2.7-1.1,4.8c0,1.7,0.3,3.1,0.8,4.3
			c0.6,1.1,1.3,2,2.2,2.6c0.9,0.6,1.9,0.8,2.9,0.8s1.9-0.1,2.5-0.4c0.6-0.3,1.2-0.6,1.7-1.1c0.5-0.4,0.9-0.9,1.3-1.4l0.7,0.5
			c-0.3,0.7-0.7,1.4-1.1,2c-0.4,0.6-0.9,1.2-1.5,1.7c-0.5,0.5-1.2,0.8-1.9,1.1C1643.2,439.5,1642.3,439.6,1641.3,439.6z"/>
		<path d="M1660.6,439.3h-10.3v-1.1c0.9,0,1.6-0.1,2.1-0.2c0.4-0.2,0.7-0.5,0.9-1c0.2-0.5,0.2-1.2,0.2-2.2v-11.9
			c0-1.4,0-2.6,0.1-3.5c0.1-0.9,0.2-1.7,0.4-2.3c0.2-0.6,0.4-1.2,0.8-1.8c0.5-0.9,1.2-1.5,1.9-2c0.8-0.5,1.8-0.7,3.2-0.7
			c0.8,0,1.6,0.1,2.2,0.3c0.6,0.2,1.1,0.5,1.5,0.9c0.4,0.4,0.6,0.9,0.6,1.4c0,0.5-0.2,1-0.5,1.2c-0.3,0.3-0.7,0.4-1.1,0.4
			c-0.5,0-0.9-0.2-1.2-0.5c-0.3-0.3-0.6-0.6-0.9-1c-0.3-0.3-0.5-0.7-0.8-1c-0.3-0.3-0.7-0.4-1.1-0.4c-0.7,0-1.2,0.3-1.5,1
			c-0.3,0.6-0.4,1.7-0.4,3.3v16.5c0,1,0.1,1.7,0.3,2.2c0.2,0.5,0.6,0.8,1.1,1c0.6,0.2,1.4,0.2,2.4,0.2V439.3z M1661.3,423.4h-10.7
			v-1.6h10.7V423.4z"/>
		<path d="M1670.8,439.6c-1.5,0-2.9-0.4-4.1-1.1c-1.2-0.7-2.2-1.8-2.9-3.1c-0.7-1.4-1.1-3.1-1.1-5.1c0-2.1,0.4-3.8,1.1-5.2
			c0.7-1.4,1.7-2.4,2.9-3c1.2-0.7,2.6-1,4-1c2.1,0,3.8,0.7,5,2.1c1.3,1.4,2,3.4,2.1,6h-12.4l0-1.4h8.9c0-0.9-0.2-1.8-0.5-2.6
			c-0.3-0.8-0.8-1.5-1.3-2c-0.6-0.5-1.3-0.7-2.3-0.7c-1.5,0-2.6,0.6-3.3,1.7c-0.7,1.1-1.1,2.7-1.1,4.8c0,1.7,0.3,3.1,0.8,4.3
			c0.6,1.1,1.3,2,2.2,2.6c0.9,0.6,1.9,0.8,2.9,0.8s1.9-0.1,2.5-0.4c0.6-0.3,1.2-0.6,1.7-1.1c0.5-0.4,0.9-0.9,1.3-1.4l0.7,0.5
			c-0.3,0.7-0.7,1.4-1.1,2c-0.4,0.6-0.9,1.2-1.5,1.7c-0.5,0.5-1.2,0.8-1.9,1.1C1672.6,439.5,1671.8,439.6,1670.8,439.6z"/>
		<path d="M1690,439.3h-10.3v-1.1c0.9,0,1.6-0.1,2.1-0.2c0.4-0.2,0.7-0.5,0.9-1c0.2-0.5,0.2-1.2,0.2-2.2v-11.9c0-1.4,0-2.6,0.1-3.5
			c0.1-0.9,0.2-1.7,0.4-2.3c0.2-0.6,0.4-1.2,0.8-1.8c0.5-0.9,1.2-1.5,1.9-2c0.8-0.5,1.8-0.7,3.2-0.7c0.8,0,1.6,0.1,2.2,0.3
			c0.6,0.2,1.1,0.5,1.5,0.9c0.4,0.4,0.6,0.9,0.6,1.4c0,0.5-0.2,1-0.5,1.2c-0.3,0.3-0.7,0.4-1.1,0.4c-0.5,0-0.9-0.2-1.2-0.5
			c-0.3-0.3-0.6-0.6-0.9-1c-0.3-0.3-0.5-0.7-0.8-1c-0.3-0.3-0.7-0.4-1.1-0.4c-0.7,0-1.2,0.3-1.5,1c-0.3,0.6-0.4,1.7-0.4,3.3v16.5
			c0,1,0.1,1.7,0.3,2.2c0.2,0.5,0.6,0.8,1.1,1c0.6,0.2,1.4,0.2,2.4,0.2V439.3z M1690.8,423.4H1680v-1.6h10.7V423.4z"/>
	</g>
</g>
<rect x="922.2" y="-829" class="st8" width="3" height="0"/>
<rect x="1765.9" y="387.4" class="st8" width="4.3" height="0"/>
<g>
	<g class="st7">
		<path d="M1201.1,977.5h-6.9v-1c0.6,0,1.1-0.1,1.5-0.3c0.4-0.2,0.7-0.6,1.1-1.2s0.8-1.5,1.3-2.7l7-16.1h1.3l7.8,17.4
			c0.5,1,0.9,1.8,1.4,2.2c0.4,0.4,1.1,0.6,2,0.6v1h-8.8v-1c0.3,0,0.7,0,1-0.1s0.6-0.1,0.9-0.3c0.2-0.2,0.4-0.4,0.4-0.8
			c0-0.2,0-0.5-0.1-0.8c-0.1-0.3-0.2-0.7-0.4-1.2l-1.4-3.2l-0.2-0.6l-3.7-9.3h-0.1l-3.8,9.3l-0.2,0.6l-1.6,3.7
			c-0.1,0.3-0.2,0.5-0.2,0.8c-0.1,0.2-0.1,0.5-0.1,0.8c0,0.4,0.2,0.7,0.5,0.9c0.3,0.1,0.9,0.2,1.7,0.2V977.5z M1209.5,970.5h-9.1
			l0.5-1.3h8.1L1209.5,970.5z"/>
		<path d="M1228.2,977.5h-9.4v-1c1,0,1.7-0.1,2.2-0.2s0.8-0.5,0.9-0.9c0.1-0.5,0.2-1.1,0.2-2.1v-12.6c0-0.8-0.1-1.5-0.2-2
			c-0.1-0.5-0.4-0.8-0.8-1c-0.4-0.2-1.2-0.3-2.2-0.3v-1h9.4v1c-1,0-1.8,0.1-2.2,0.3s-0.7,0.5-0.8,1c-0.1,0.5-0.1,1.1-0.1,2v12.6
			c0,0.9,0.1,1.6,0.2,2.1c0.1,0.5,0.4,0.8,0.9,0.9s1.2,0.2,2.1,0.2V977.5z"/>
		<path d="M1240,977.5h-9.2v-1c0.8,0,1.5-0.1,1.9-0.2c0.4-0.1,0.7-0.4,0.8-0.8c0.1-0.4,0.2-1.1,0.2-2v-13.8c0-0.6-0.1-1.1-0.2-1.4
			c-0.1-0.3-0.4-0.6-0.8-0.7c-0.4-0.1-1.1-0.2-1.9-0.2v-1h8.1c1.6,0,3.1,0.2,4.4,0.5s2.3,0.8,3,1.6c0.7,0.8,1.1,1.8,1.1,3.2
			c0,1.2-0.3,2.2-0.8,2.9s-1.3,1.3-2.1,1.7c-0.8,0.4-1.7,0.7-2.6,0.9v0.1c0.4,0.2,0.8,0.6,1.3,1.1c0.5,0.5,1.1,1.3,1.8,2.3
			c0.7,1,1.7,2.4,2.9,4.1c0.5,0.7,1,1.2,1.5,1.3s1.1,0.3,1.9,0.3v1h-5.4c-0.9-1.3-1.6-2.4-2.2-3.3c-0.6-0.9-1.1-1.6-1.5-2.2
			s-0.8-1.1-1.1-1.6c-0.3-0.5-0.7-0.9-1-1.4c-0.3-0.5-0.6-0.8-0.9-0.9c-0.3-0.1-0.7-0.2-1.3-0.2h-0.9v5.7c0,0.9,0.1,1.5,0.2,2
			c0.2,0.4,0.5,0.7,0.9,0.8c0.5,0.1,1.2,0.2,2.1,0.2V977.5z M1236.7,966.6l1.2,0c1.2-0.1,2.3-0.3,3.1-0.6c0.9-0.3,1.6-0.8,2.1-1.5
			c0.5-0.7,0.8-1.6,0.8-2.7c0-1.3-0.4-2.3-1.2-3c-0.8-0.7-2.1-1.1-3.9-1.1c-0.3,0-0.7,0-1.1,0c-0.4,0-0.7,0-1.1,0.1V966.6z"/>
		<path d="M1261.1,978h-1l-0.3-6.9h1c0.4,1.5,0.9,2.6,1.4,3.4c0.5,0.8,1.2,1.3,2,1.6c0.8,0.3,1.7,0.4,2.8,0.4c0.8,0,1.5-0.1,2.1-0.3
			c0.6-0.2,1-0.6,1.4-1.1s0.5-1.2,0.5-2c0-0.9-0.3-1.7-0.8-2.3c-0.5-0.6-1.2-1.2-2-1.7c-0.8-0.5-1.7-1-2.6-1.5
			c-0.9-0.5-1.7-1-2.5-1.6s-1.5-1.2-2-2s-0.8-1.7-0.8-2.8c0-1.1,0.3-2.1,0.9-2.8c0.6-0.8,1.3-1.3,2.3-1.7c0.9-0.4,2-0.6,3.1-0.6
			c1,0,1.8,0.1,2.3,0.2c0.5,0.2,1,0.3,1.3,0.5c0.3,0.2,0.6,0.3,0.9,0.3c0.3,0,0.5-0.1,0.6-0.2c0.2-0.1,0.3-0.4,0.4-0.7h0.9l0.2,6.4
			h-1c-0.5-1.8-1.1-3.1-1.8-3.9c-0.8-0.9-2-1.3-3.6-1.2c-1.1,0-2,0.3-2.6,0.8c-0.6,0.5-0.9,1.3-0.9,2.3c0,0.8,0.2,1.5,0.7,2
			s1.1,1.1,1.8,1.5c0.7,0.4,1.5,0.9,2.3,1.4c0.7,0.4,1.4,0.8,2.2,1.2c0.7,0.4,1.4,0.9,2,1.4s1.1,1.1,1.4,1.8
			c0.4,0.7,0.5,1.5,0.5,2.5c0,1.2-0.3,2.3-0.9,3.1c-0.6,0.9-1.4,1.5-2.4,1.9s-2.1,0.7-3.4,0.7c-1.1,0-2.1-0.1-2.8-0.2
			c-0.7-0.2-1.3-0.3-1.7-0.5s-0.7-0.2-1-0.2c-0.2,0-0.4,0.1-0.6,0.3C1261.2,977.4,1261.1,977.7,1261.1,978z"/>
		<path d="M1287.4,977.9c-2.9,0-5-0.7-6.4-2c-1.3-1.3-2-3.5-2-6.4v-9.3c0-0.7-0.1-1.3-0.3-1.7c-0.2-0.4-0.5-0.7-1-0.8
			s-1.1-0.2-2-0.2v-1h9.4v1c-0.9,0-1.6,0.1-2.1,0.2s-0.8,0.5-0.9,0.9c-0.2,0.4-0.2,1-0.2,1.9v9.1c0,1.4,0.2,2.6,0.6,3.5
			c0.4,1,1,1.7,1.9,2.2c0.9,0.5,2.1,0.7,3.7,0.7c2.1,0,3.7-0.5,4.6-1.5c1-1,1.4-2.6,1.4-4.8v-8.1c0-1.1-0.1-2-0.2-2.6
			s-0.4-1-0.9-1.2c-0.4-0.2-1.1-0.3-2-0.3v-1h8v1c-0.9,0-1.6,0.1-2.1,0.3s-0.7,0.6-0.8,1.2s-0.2,1.4-0.2,2.5v7.7
			c0,2.9-0.7,5.1-2,6.6C1292.8,977.2,1290.5,977.9,1287.4,977.9z"/>
		<path d="M1310.5,977.5h-9.2v-1c0.9,0,1.5-0.1,1.9-0.2s0.7-0.4,0.8-0.9c0.1-0.4,0.2-1.1,0.2-2v-13.8c0-0.9-0.2-1.5-0.6-1.8
			c-0.4-0.3-1.1-0.4-2.2-0.4v-1h8.2c1,0,2.1,0.1,3,0.2s1.8,0.4,2.6,0.8c0.8,0.4,1.4,0.9,1.8,1.6s0.7,1.6,0.7,2.6
			c0,1.2-0.2,2.3-0.7,3.1c-0.5,0.8-1.1,1.5-2,2c-0.8,0.5-1.7,0.9-2.8,1.1c-1,0.2-2.1,0.3-3.1,0.3c-0.3,0-0.7,0-1-0.1
			c-0.4,0-0.6-0.1-0.8-0.2v5.5c0,0.9,0.1,1.5,0.3,2c0.2,0.4,0.5,0.7,1,0.8c0.5,0.1,1.2,0.2,2,0.2V977.5z M1309,967
			c1.2,0,2.2-0.1,3-0.4c0.8-0.3,1.4-0.8,1.8-1.5c0.4-0.7,0.6-1.7,0.6-2.9c0-1.5-0.4-2.6-1.3-3.3s-2.2-1.2-4-1.2c-0.3,0-0.7,0-1,0
			c-0.3,0-0.7,0.1-1,0.1v9.1c0.2,0,0.4,0,0.8,0.1C1308.3,967,1308.7,967,1309,967z"/>
		<path d="M1337.2,977.5h-17.5v-1c0.9,0,1.6-0.1,2-0.2c0.4-0.1,0.8-0.4,0.9-0.8s0.2-1,0.2-1.9v-13.4c0-0.8-0.1-1.4-0.2-1.9
			c-0.2-0.4-0.5-0.7-0.9-0.9c-0.4-0.1-1.1-0.2-2-0.2v-1h17.2l0.2,5.3h-1c-0.2-1.1-0.4-1.9-0.7-2.4c-0.3-0.5-0.8-0.9-1.5-1.1
			c-0.7-0.2-1.7-0.3-3.1-0.3h-4.8v8.1h3.8c1,0,1.8-0.1,2.3-0.3c0.5-0.2,0.9-0.5,1.1-1c0.2-0.5,0.3-1.1,0.3-2h1v7.4h-1
			c0-0.9-0.1-1.5-0.3-2c-0.2-0.4-0.6-0.7-1.1-0.8c-0.5-0.1-1.3-0.2-2.3-0.2h-3.8v8.8h4.2c1.3,0,2.3-0.1,3.1-0.2
			c0.8-0.1,1.4-0.3,1.8-0.7c0.4-0.3,0.8-0.8,1.1-1.4c0.3-0.6,0.6-1.4,0.9-2.3h1L1337.2,977.5z"/>
		<path d="M1349.7,977.5h-9.2v-1c0.8,0,1.5-0.1,1.9-0.2c0.4-0.1,0.7-0.4,0.8-0.8c0.1-0.4,0.2-1.1,0.2-2v-13.8c0-0.6-0.1-1.1-0.2-1.4
			c-0.1-0.3-0.4-0.6-0.8-0.7c-0.4-0.1-1.1-0.2-1.9-0.2v-1h8.1c1.6,0,3.1,0.2,4.4,0.5s2.3,0.8,3,1.6c0.7,0.8,1.1,1.8,1.1,3.2
			c0,1.2-0.3,2.2-0.8,2.9s-1.3,1.3-2.1,1.7c-0.8,0.4-1.7,0.7-2.6,0.9v0.1c0.4,0.2,0.8,0.6,1.3,1.1c0.5,0.5,1.1,1.3,1.8,2.3
			c0.7,1,1.7,2.4,2.9,4.1c0.5,0.7,1,1.2,1.5,1.3s1.1,0.3,1.9,0.3v1h-5.4c-0.9-1.3-1.6-2.4-2.2-3.3c-0.6-0.9-1.1-1.6-1.5-2.2
			s-0.8-1.1-1.1-1.6c-0.3-0.5-0.7-0.9-1-1.4c-0.3-0.5-0.6-0.8-0.9-0.9c-0.3-0.1-0.7-0.2-1.3-0.2h-0.9v5.7c0,0.9,0.1,1.5,0.2,2
			c0.2,0.4,0.5,0.7,0.9,0.8c0.5,0.1,1.2,0.2,2.1,0.2V977.5z M1346.4,966.6l1.2,0c1.2-0.1,2.3-0.3,3.1-0.6c0.9-0.3,1.6-0.8,2.1-1.5
			c0.5-0.7,0.8-1.6,0.8-2.7c0-1.3-0.4-2.3-1.2-3c-0.8-0.7-2.1-1.1-3.9-1.1c-0.3,0-0.7,0-1.1,0c-0.4,0-0.7,0-1.1,0.1V966.6z"/>
		<path d="M1371.2,977.5h-9.4v-1c1,0,1.7-0.1,2.2-0.2s0.8-0.5,0.9-0.9c0.1-0.5,0.2-1.1,0.2-2.1v-12.6c0-0.8-0.1-1.5-0.2-2
			c-0.1-0.5-0.4-0.8-0.8-1c-0.4-0.2-1.2-0.3-2.2-0.3v-1h9.4v1c-1,0-1.8,0.1-2.2,0.3s-0.7,0.5-0.8,1c-0.1,0.5-0.1,1.1-0.1,2v12.6
			c0,0.9,0.1,1.6,0.2,2.1c0.1,0.5,0.4,0.8,0.9,0.9s1.2,0.2,2.1,0.2V977.5z"/>
		<path d="M1384.4,977.9c-2.2,0-4-0.4-5.6-1.3c-1.6-0.9-2.8-2.1-3.6-3.8c-0.8-1.6-1.3-3.6-1.3-5.8c0-2.2,0.4-4.1,1.3-5.7
			c0.8-1.6,2-2.9,3.6-3.8c1.6-0.9,3.4-1.4,5.6-1.4c2.2,0,4.1,0.4,5.6,1.3c1.6,0.9,2.7,2.1,3.6,3.7c0.8,1.6,1.2,3.4,1.2,5.6
			c0,2.2-0.4,4.2-1.3,5.9c-0.8,1.7-2,3-3.6,3.9C1388.5,977.4,1386.6,977.9,1384.4,977.9z M1384.5,976.5c2.3,0,4.1-0.8,5.2-2.5
			s1.7-4.1,1.7-7.3c0-1.9-0.3-3.6-0.9-5c-0.6-1.4-1.4-2.5-2.5-3.2s-2.3-1.1-3.7-1.1c-2.1,0-3.8,0.8-5,2.5c-1.2,1.7-1.9,3.9-1.9,6.9
			c0,3,0.6,5.4,1.8,7.1C1380.3,975.7,1382.1,976.5,1384.5,976.5z"/>
		<path d="M1407.1,977.5h-9.2v-1c0.8,0,1.5-0.1,1.9-0.2c0.4-0.1,0.7-0.4,0.8-0.8c0.1-0.4,0.2-1.1,0.2-2v-13.8c0-0.6-0.1-1.1-0.2-1.4
			c-0.1-0.3-0.4-0.6-0.8-0.7c-0.4-0.1-1.1-0.2-1.9-0.2v-1h8.1c1.6,0,3.1,0.2,4.4,0.5s2.3,0.8,3,1.6c0.7,0.8,1.1,1.8,1.1,3.2
			c0,1.2-0.3,2.2-0.8,2.9s-1.3,1.3-2.1,1.7c-0.8,0.4-1.7,0.7-2.6,0.9v0.1c0.4,0.2,0.8,0.6,1.3,1.1c0.5,0.5,1.1,1.3,1.8,2.3
			c0.7,1,1.7,2.4,2.9,4.1c0.5,0.7,1,1.2,1.5,1.3s1.1,0.3,1.9,0.3v1h-5.4c-0.9-1.3-1.6-2.4-2.2-3.3c-0.6-0.9-1.1-1.6-1.5-2.2
			s-0.8-1.1-1.1-1.6c-0.3-0.5-0.7-0.9-1-1.4c-0.3-0.5-0.6-0.8-0.9-0.9c-0.3-0.1-0.7-0.2-1.3-0.2h-0.9v5.7c0,0.9,0.1,1.5,0.2,2
			c0.2,0.4,0.5,0.7,0.9,0.8c0.5,0.1,1.2,0.2,2.1,0.2V977.5z M1403.9,966.6l1.2,0c1.2-0.1,2.3-0.3,3.1-0.6c0.9-0.3,1.6-0.8,2.1-1.5
			c0.5-0.7,0.8-1.6,0.8-2.7c0-1.3-0.4-2.3-1.2-3c-0.8-0.7-2.1-1.1-3.9-1.1c-0.3,0-0.7,0-1.1,0c-0.4,0-0.7,0-1.1,0.1V966.6z"/>
		<path d="M1428.7,977.5h-9.4v-1c1,0,1.7-0.1,2.2-0.2s0.8-0.5,0.9-0.9c0.1-0.5,0.2-1.1,0.2-2.1v-12.6c0-0.8-0.1-1.5-0.2-2
			c-0.1-0.5-0.4-0.8-0.8-1c-0.4-0.2-1.2-0.3-2.2-0.3v-1h9.4v1c-1,0-1.8,0.1-2.2,0.3s-0.7,0.5-0.8,1c-0.1,0.5-0.1,1.1-0.1,2v12.6
			c0,0.9,0.1,1.6,0.2,2.1c0.1,0.5,0.4,0.8,0.9,0.9s1.2,0.2,2.1,0.2V977.5z"/>
		<path d="M1444.5,977.5h-9.5v-1c0.9,0,1.6-0.1,2.1-0.2c0.5-0.1,0.8-0.4,0.9-0.9c0.2-0.5,0.2-1.2,0.2-2.1v-15.4h-2.1
			c-1.2,0-2.1,0.1-2.7,0.4s-1,0.7-1.3,1.3s-0.5,1.5-0.8,2.7h-1l0.4-5.8h18.1l0.3,5.8h-1c-0.2-1.2-0.5-2.1-0.8-2.7
			c-0.3-0.6-0.7-1-1.3-1.3c-0.6-0.2-1.5-0.4-2.7-0.4h-2.1v15.4c0,1,0.1,1.7,0.2,2.1c0.2,0.5,0.5,0.8,0.9,0.9
			c0.5,0.1,1.2,0.2,2.1,0.2V977.5z"/>
		<path d="M1465.2,977.5h-9.7v-1c1,0,1.7-0.1,2.1-0.2c0.5-0.1,0.8-0.4,0.9-0.9c0.1-0.5,0.2-1.2,0.2-2.1v-4.6l-4.2-6.6
			c-0.7-1.1-1.3-1.9-1.7-2.6c-0.5-0.6-0.9-1.1-1.3-1.4c-0.4-0.3-0.7-0.5-1.1-0.6s-0.7-0.1-1.1-0.1v-1h8.8v1c-0.9,0-1.5,0.1-1.8,0.2
			c-0.3,0.1-0.4,0.3-0.4,0.5c0,0.4,0.2,0.9,0.6,1.5l3,4.6l1.4,2.5h0.2l4.3-7.2c0.1-0.2,0.2-0.4,0.3-0.6c0.1-0.2,0.1-0.4,0.1-0.7
			c0-0.3-0.1-0.5-0.4-0.7c-0.3-0.1-0.8-0.2-1.7-0.2v-1h7.1v1c-0.6,0-1.2,0.2-1.6,0.3s-0.9,0.5-1.3,0.9c-0.4,0.4-0.9,1.1-1.4,2
			l-4.9,7.9v4.8c0,0.9,0.1,1.6,0.3,2.1c0.2,0.5,0.5,0.8,1,0.9c0.5,0.1,1.2,0.2,2.1,0.2V977.5z"/>
		<path d="M1489.8,977.5h-10.1v-1c0.9,0,1.6-0.1,2-0.2c0.4-0.1,0.8-0.4,0.9-0.9c0.2-0.4,0.2-1.1,0.2-2v-13.1c0-0.9-0.1-1.5-0.2-1.9
			c-0.2-0.4-0.5-0.7-0.9-0.8c-0.4-0.1-1.1-0.2-2-0.2v-1h8.9c1.9,0,3.5,0.2,4.7,0.6s2,1,2.6,1.7s0.8,1.6,0.8,2.7
			c0,1.4-0.4,2.5-1.3,3.2c-0.9,0.7-2,1.3-3.3,1.6v0.1c0.9,0.1,1.8,0.4,2.7,0.8c0.9,0.4,1.6,1,2.1,1.7c0.6,0.7,0.9,1.7,0.9,2.9
			c0,1.8-0.7,3.2-2.1,4.2C1494.2,977,1492.2,977.5,1489.8,977.5z M1485.9,957.8v8.1h2.2c2,0,3.4-0.3,4.1-1s1.1-1.7,1.1-3.2
			c0-1.3-0.4-2.2-1.2-2.9c-0.8-0.7-2.2-1.1-4.2-1.1c-0.3,0-0.6,0-1,0C1486.6,957.7,1486.2,957.7,1485.9,957.8z M1488.3,976.3
			c0.7,0,1.4,0,2.1-0.1c0.7-0.1,1.3-0.3,1.9-0.6c0.6-0.3,1-0.7,1.4-1.3s0.5-1.4,0.5-2.4c0-1.2-0.3-2.2-0.9-2.8
			c-0.6-0.7-1.3-1.1-2.2-1.4s-1.9-0.4-2.9-0.4h-2.3v9c0.4,0,0.8,0,1.2,0.1S1487.9,976.3,1488.3,976.3z"/>
		<path d="M1516.4,977.5h-16.3v-1c0.9,0,1.5-0.1,2-0.2c0.4-0.1,0.7-0.4,0.8-0.9c0.1-0.4,0.2-1.1,0.2-1.9v-13c0-0.8-0.1-1.5-0.2-1.9
			c-0.1-0.4-0.4-0.8-0.8-0.9c-0.4-0.2-1.1-0.3-2-0.3v-1h9.2v1c-0.9,0-1.5,0.1-2,0.3c-0.5,0.2-0.8,0.5-1,0.9
			c-0.2,0.4-0.2,1.1-0.2,1.9v13.9c0,0.7,0.2,1.2,0.5,1.4c0.3,0.2,1,0.3,2,0.3h1.5c1.1,0,2-0.1,2.7-0.2c0.7-0.2,1.2-0.4,1.6-0.8
			c0.4-0.4,0.7-0.9,1-1.5c0.3-0.6,0.6-1.4,0.9-2.3h1L1516.4,977.5z"/>
		<path d="M1530.2,977.9c-2.9,0-5-0.7-6.4-2c-1.3-1.3-2-3.5-2-6.4v-9.3c0-0.7-0.1-1.3-0.3-1.7c-0.2-0.4-0.5-0.7-1-0.8
			s-1.1-0.2-2-0.2v-1h9.4v1c-0.9,0-1.6,0.1-2.1,0.2s-0.8,0.5-0.9,0.9c-0.2,0.4-0.2,1-0.2,1.9v9.1c0,1.4,0.2,2.6,0.6,3.5
			c0.4,1,1,1.7,1.9,2.2c0.9,0.5,2.1,0.7,3.7,0.7c2.1,0,3.7-0.5,4.6-1.5c1-1,1.4-2.6,1.4-4.8v-8.1c0-1.1-0.1-2-0.2-2.6
			s-0.4-1-0.9-1.2c-0.4-0.2-1.1-0.3-2-0.3v-1h8v1c-0.9,0-1.6,0.1-2.1,0.3s-0.7,0.6-0.8,1.2s-0.2,1.4-0.2,2.5v7.7
			c0,2.9-0.7,5.1-2,6.6C1535.5,977.2,1533.3,977.9,1530.2,977.9z"/>
		<path d="M1561.3,977.5h-17.5v-1c0.9,0,1.6-0.1,2-0.2c0.4-0.1,0.8-0.4,0.9-0.8s0.2-1,0.2-1.9v-13.4c0-0.8-0.1-1.4-0.2-1.9
			c-0.2-0.4-0.5-0.7-0.9-0.9c-0.4-0.1-1.1-0.2-2-0.2v-1h17.2l0.2,5.3h-1c-0.2-1.1-0.4-1.9-0.7-2.4c-0.3-0.5-0.8-0.9-1.5-1.1
			c-0.7-0.2-1.7-0.3-3.1-0.3h-4.8v8.1h3.8c1,0,1.8-0.1,2.3-0.3c0.5-0.2,0.9-0.5,1.1-1c0.2-0.5,0.3-1.1,0.3-2h1v7.4h-1
			c0-0.9-0.1-1.5-0.3-2c-0.2-0.4-0.6-0.7-1.1-0.8c-0.5-0.1-1.3-0.2-2.3-0.2h-3.8v8.8h4.2c1.3,0,2.3-0.1,3.1-0.2
			c0.8-0.1,1.4-0.3,1.8-0.7c0.4-0.3,0.8-0.8,1.1-1.4c0.3-0.6,0.6-1.4,0.9-2.3h1L1561.3,977.5z"/>
		<path d="M1213.9,1014.4h-18.6v-1.5h18.6V1014.4z M1214.7,1007.5h-18.5v-1.5h18.5V1007.5z M1200.2,1021.1h-1.8l3.6-22l1.8,0
			L1200.2,1021.1z M1208.1,1021.1h-1.8l3.4-22h1.8L1208.1,1021.1z"/>
		<path d="M1225.9,1022.7c-1.9,0-3.4-0.5-4.6-1.4c-1.2-0.9-2.1-2.1-2.7-3.7s-0.9-3.2-0.9-5c0-2.2,0.3-4.2,1.1-6
			c0.7-1.8,1.7-3.3,2.9-4.5s2.7-2.2,4.5-2.9c1.7-0.7,3.6-1.1,5.7-1.1l0.1,1.1c-1.8,0.2-3.4,0.8-4.9,1.7c-1.5,0.9-2.7,2-3.7,3.4
			c-1,1.4-1.7,3-2,4.8l0.3,0c0.8-0.7,1.6-1.3,2.3-1.7c0.8-0.4,1.6-0.6,2.6-0.6c2.1,0,3.8,0.7,5,2.1c1.2,1.4,1.9,3.3,1.9,5.7
			c0,2.5-0.7,4.5-2,5.9C1230.1,1022,1228.3,1022.7,1225.9,1022.7z M1226,1021.4c1.3,0,2.3-0.5,3-1.4c0.7-1,1.1-2.6,1.1-5
			c0-1.7-0.4-3.1-1.2-4.3s-2-1.7-3.5-1.7c-0.7,0-1.4,0.1-2.1,0.4c-0.6,0.3-1.2,0.8-1.6,1.4c-0.4,0.6-0.6,1.5-0.6,2.6
			c0,1.5,0.2,2.9,0.5,4.1s0.9,2.1,1.6,2.8C1224,1021.1,1224.9,1021.4,1226,1021.4z"/>
		<path d="M1241.5,1022.8c-1.5,0-2.6-0.2-3.3-0.5c-0.7-0.3-1.1-0.9-1.1-1.6c0-0.4,0.1-0.8,0.4-1.1c0.3-0.3,0.6-0.5,1.1-0.5
			c0.4,0,0.8,0.1,1.1,0.3c0.4,0.2,0.8,0.4,1.1,0.6c0.4,0.2,0.8,0.4,1.3,0.6c0.5,0.2,1,0.3,1.6,0.3c0.9,0,1.8-0.2,2.5-0.5
			c0.8-0.3,1.4-0.9,1.9-1.7c0.5-0.8,0.7-1.8,0.7-3.1c0-1.4-0.3-2.5-0.8-3.4c-0.6-0.8-1.3-1.5-2.3-1.9c-0.9-0.4-2-0.8-3.2-0.9
			s-2.4-0.3-3.7-0.3l-0.5-0.6l2.4-9.7h10.5l-0.6,3h-9l-1,4.3c1.3,0.1,2.5,0.3,3.6,0.5c1.1,0.2,2.1,0.5,3,0.9s1.7,0.9,2.3,1.5
			c0.7,0.6,1.2,1.3,1.5,2.2s0.5,1.9,0.5,3c0,1.4-0.2,2.7-0.7,3.8c-0.5,1.1-1.2,2-2.1,2.7c-0.9,0.7-2,1.3-3.2,1.6
			S1243,1022.8,1241.5,1022.8z"/>
		<path d="M1263.2,1022.7c-1.5,0-2.8-0.2-3.9-0.6s-2-1.1-2.7-1.9c-0.7-0.9-1-1.9-1-3.2c0-1,0.2-1.8,0.6-2.5c0.4-0.7,1-1.3,1.7-1.9
			c0.8-0.6,1.8-1.3,2.9-2.1v-0.4l1.5,0.8c-0.8,0.6-1.5,1.2-2,1.8c-0.6,0.5-1,1.1-1.3,1.8c-0.3,0.6-0.4,1.4-0.4,2.3
			c0,1.7,0.4,2.9,1.3,3.7c0.9,0.8,2,1.2,3.5,1.2c0.8,0,1.5-0.1,2.2-0.4c0.7-0.3,1.2-0.7,1.6-1.3s0.6-1.3,0.6-2.1
			c0-0.8-0.2-1.6-0.5-2.2s-1-1.4-1.9-2.1c-0.9-0.7-2.2-1.6-3.9-2.7l-0.2-0.1c-1.4-0.9-2.5-1.8-3.3-2.5s-1.3-1.4-1.5-2.1
			c-0.3-0.7-0.4-1.5-0.4-2.4c0-1.1,0.3-2.1,0.9-2.9c0.6-0.8,1.5-1.5,2.6-1.9c1.1-0.4,2.3-0.7,3.7-0.7c1.3,0,2.4,0.2,3.4,0.7
			c1,0.4,1.8,1.1,2.4,1.8c0.6,0.8,0.9,1.7,0.9,2.6c0,0.9-0.2,1.7-0.5,2.3c-0.3,0.6-0.9,1.2-1.6,1.8c-0.7,0.5-1.7,1.1-2.9,1.8v0.4
			l-1.6-0.8c1.4-0.8,2.4-1.6,2.9-2.4c0.5-0.8,0.8-1.9,0.8-3.1s-0.4-2.2-1-2.9c-0.7-0.7-1.7-1-2.9-1c-1.3,0-2.3,0.3-3.1,1
			c-0.8,0.6-1.1,1.5-1.1,2.7s0.4,2.1,1.3,2.9c0.8,0.8,2.2,1.8,4,2.9l0.3,0.2c1.6,0.9,2.9,1.8,3.8,2.6c0.9,0.8,1.6,1.6,1.9,2.4
			c0.4,0.8,0.6,1.7,0.6,2.8c0,1.3-0.3,2.4-1,3.3c-0.6,0.9-1.6,1.6-2.7,2.1C1266,1022.5,1264.7,1022.7,1263.2,1022.7z"/>
		<path d="M1278.7,1022.6c-1.5,0-2.6-0.4-3.4-1.2c-0.8-0.8-1.2-1.8-1.2-3c0-1,0.2-1.8,0.7-2.5c0.5-0.7,1.1-1.3,1.9-1.7
			c0.8-0.5,1.6-0.9,2.5-1.2c0.9-0.3,1.8-0.6,2.7-0.8c0.9-0.2,1.6-0.4,2.3-0.6v-1.6c0-1.6-0.3-2.8-0.9-3.5c-0.6-0.7-1.4-1-2.6-1
			c-1.1,0-1.8,0.2-2.1,0.7c-0.3,0.4-0.5,1.2-0.5,2.4c0,0.6-0.1,1-0.4,1.3c-0.3,0.3-0.7,0.4-1.2,0.4c-0.4,0-0.7-0.1-1.1-0.4
			c-0.3-0.3-0.5-0.7-0.5-1.4c0-0.7,0.3-1.4,0.8-2c0.5-0.6,1.3-1.1,2.3-1.5c1-0.4,2.2-0.6,3.6-0.6c2.1,0,3.6,0.5,4.4,1.4
			c0.9,0.9,1.3,2.4,1.3,4.3v8.5c0,0.8,0.1,1.3,0.3,1.5c0.2,0.2,0.5,0.3,0.9,0.3c0.4,0,0.7-0.1,1-0.3c0.3-0.2,0.6-0.4,0.8-0.7
			l0.6,0.6c-0.6,0.9-1.2,1.5-1.8,2c-0.6,0.4-1.3,0.6-2.3,0.6c-0.9,0-1.5-0.2-1.7-0.7c-0.3-0.5-0.5-1.2-0.6-2.1l-0.2-0.4v-6.5
			c-1.1,0.3-2.2,0.6-3.2,1c-1,0.4-1.8,0.9-2.5,1.5c-0.6,0.6-1,1.4-1,2.4c0,0.9,0.3,1.7,0.8,2.2c0.5,0.5,1.2,0.8,2,0.8
			c0.7,0,1.4-0.2,2.1-0.5s1.4-0.8,2.1-1.4l0.3,1.3h-0.5c-0.6,0.5-1.2,0.9-1.7,1.3c-0.5,0.4-1.1,0.7-1.8,0.9
			C1280.2,1022.4,1279.5,1022.6,1278.7,1022.6z"/>
		<path d="M1297,1022.6c-1.5,0-2.6-0.4-3.4-1.2c-0.8-0.8-1.2-1.8-1.2-3c0-1,0.2-1.8,0.7-2.5c0.5-0.7,1.1-1.3,1.9-1.7
			c0.8-0.5,1.6-0.9,2.5-1.2c0.9-0.3,1.8-0.6,2.7-0.8c0.9-0.2,1.6-0.4,2.3-0.6v-1.6c0-1.6-0.3-2.8-0.9-3.5c-0.6-0.7-1.4-1-2.6-1
			c-1.1,0-1.8,0.2-2.1,0.7c-0.3,0.4-0.5,1.2-0.5,2.4c0,0.6-0.1,1-0.4,1.3c-0.3,0.3-0.7,0.4-1.2,0.4c-0.4,0-0.7-0.1-1.1-0.4
			c-0.3-0.3-0.5-0.7-0.5-1.4c0-0.7,0.3-1.4,0.8-2c0.5-0.6,1.3-1.1,2.3-1.5c1-0.4,2.2-0.6,3.6-0.6c2.1,0,3.6,0.5,4.4,1.4
			c0.9,0.9,1.3,2.4,1.3,4.3v8.5c0,0.8,0.1,1.3,0.3,1.5c0.2,0.2,0.5,0.3,0.9,0.3c0.4,0,0.7-0.1,1-0.3c0.3-0.2,0.6-0.4,0.8-0.7
			l0.6,0.6c-0.6,0.9-1.2,1.5-1.8,2c-0.6,0.4-1.3,0.6-2.3,0.6c-0.9,0-1.5-0.2-1.7-0.7c-0.3-0.5-0.5-1.2-0.6-2.1l-0.2-0.4v-6.5
			c-1.1,0.3-2.2,0.6-3.2,1c-1,0.4-1.8,0.9-2.5,1.5c-0.6,0.6-1,1.4-1,2.4c0,0.9,0.3,1.7,0.8,2.2c0.5,0.5,1.2,0.8,2,0.8
			c0.7,0,1.4-0.2,2.1-0.5s1.4-0.8,2.1-1.4l0.3,1.3h-0.5c-0.6,0.5-1.2,0.9-1.7,1.3c-0.5,0.4-1.1,0.7-1.8,0.9
			C1298.5,1022.4,1297.8,1022.6,1297,1022.6z"/>
		<path d="M1324.9,1016.8l0.7,0.5c-0.5,1-1,1.9-1.7,2.7c-0.6,0.8-1.4,1.5-2.3,1.9c-0.9,0.5-2.1,0.7-3.4,0.7c-1.6,0-2.9-0.4-4.1-1.1
			c-1.1-0.7-2-1.8-2.6-3.1c-0.6-1.3-0.9-2.9-0.9-4.6c0-2,0.3-3.7,1-5.1c0.7-1.4,1.7-2.6,2.9-3.4c1.3-0.8,2.8-1.2,4.7-1.2
			c1.8,0,3.2,0.4,4.3,1.2c1,0.8,1.5,1.7,1.5,2.8c0,0.5-0.1,1-0.4,1.2s-0.7,0.4-1.2,0.4c-0.6,0-1-0.1-1.3-0.4
			c-0.3-0.3-0.5-0.6-0.7-1.1c-0.2-0.4-0.4-0.8-0.6-1.3c-0.2-0.4-0.5-0.8-0.8-1.1s-0.8-0.4-1.5-0.4c-1.6,0-2.8,0.6-3.6,1.7
			c-0.9,1.1-1.3,2.7-1.3,4.9c0,2.3,0.5,4.1,1.4,5.6c1,1.5,2.4,2.2,4.4,2.2c1.2,0,2.3-0.2,3-0.7
			C1323.2,1018.6,1324,1017.8,1324.9,1016.8z"/>
	</g>
</g>
<g>
	<g class="st7">
		<path d="M1093,391.4c-0.7,0-1.4-0.1-2-0.3c-0.6-0.2-1.1-0.5-1.4-0.8c-0.3-0.4-0.5-0.8-0.5-1.4c0-0.5,0.1-0.9,0.4-1.2
			c0.3-0.3,0.6-0.4,1.1-0.4c0.4,0,0.7,0.1,1,0.3s0.4,0.4,0.6,0.7c0.2,0.3,0.3,0.6,0.5,0.9s0.3,0.6,0.5,0.8c0.2,0.2,0.4,0.3,0.7,0.3
			c0.6,0,1-0.3,1.2-0.8c0.2-0.5,0.3-1.3,0.3-2.4v-12.9c0-0.8,0-1.5-0.1-2c-0.1-0.5-0.4-0.8-0.8-1s-1.2-0.3-2.2-0.3v-1h9.2v1
			c-0.9,0-1.6,0.1-2,0.3c-0.4,0.2-0.7,0.5-0.8,1c-0.1,0.5-0.2,1.1-0.2,2v12c0,1-0.1,1.9-0.4,2.6c-0.3,0.7-0.6,1.2-1.1,1.6
			c-0.5,0.4-1,0.7-1.7,0.8S1093.8,391.4,1093,391.4z"/>
		<path d="M1120.8,391h-17.5v-1c0.9,0,1.6-0.1,2-0.2c0.4-0.1,0.8-0.4,0.9-0.8c0.2-0.4,0.2-1,0.2-1.9v-13.4c0-0.8-0.1-1.4-0.2-1.9
			c-0.2-0.4-0.5-0.7-0.9-0.9c-0.4-0.1-1.1-0.2-2-0.2v-1h17.2l0.2,5.3h-1c-0.2-1.1-0.4-1.9-0.7-2.4c-0.3-0.5-0.8-0.9-1.5-1.1
			c-0.7-0.2-1.7-0.3-3.1-0.3h-4.8v8.1h3.8c1,0,1.8-0.1,2.3-0.3c0.5-0.2,0.9-0.5,1.1-1c0.2-0.5,0.3-1.1,0.3-2h1v7.4h-1
			c0-0.9-0.1-1.5-0.3-2c-0.2-0.4-0.6-0.7-1.1-0.8c-0.5-0.1-1.3-0.2-2.3-0.2h-3.8v8.8h4.2c1.3,0,2.3-0.1,3.1-0.2
			c0.8-0.1,1.4-0.3,1.8-0.7c0.4-0.3,0.8-0.8,1.1-1.4c0.3-0.6,0.6-1.4,0.9-2.3h1L1120.8,391z"/>
		<path d="M1137.3,391h-9.5v-1c0.9,0,1.6-0.1,2.1-0.2c0.5-0.1,0.8-0.4,0.9-0.9c0.2-0.5,0.2-1.2,0.2-2.1v-15.4h-2.1
			c-1.2,0-2.1,0.1-2.7,0.4c-0.6,0.2-1,0.7-1.3,1.3c-0.3,0.6-0.5,1.5-0.8,2.7h-1l0.4-5.8h18.1l0.3,5.8h-1c-0.2-1.2-0.5-2.1-0.8-2.7
			c-0.3-0.6-0.7-1-1.3-1.3c-0.6-0.2-1.5-0.4-2.7-0.4h-2.1v15.4c0,1,0.1,1.7,0.2,2.1c0.2,0.5,0.5,0.8,0.9,0.9
			c0.5,0.1,1.2,0.2,2.1,0.2V391z"/>
		<path d="M1108.9,427.9h-18.6v-1.5h18.6V427.9z M1109.7,421h-18.5v-1.5h18.5V421z M1095.2,434.6h-1.8l3.6-22l1.8,0L1095.2,434.6z
			 M1103.1,434.6h-1.8l3.4-22h1.8L1103.1,434.6z"/>
		<path d="M1127.5,435.8h-15v-1.3l5.8-5.7c1.3-1.3,2.3-2.4,3.2-3.5c0.8-1,1.5-2.1,1.9-3.1c0.4-1,0.6-2.2,0.6-3.5
			c0-1.4-0.4-2.5-1.3-3.3c-0.9-0.8-2-1.3-3.5-1.3c-1.2,0-2.3,0.3-3.2,0.8s-1.7,1.5-2.4,2.9l-0.9-0.4c0.6-1.8,1.5-3.2,2.8-4.2
			c1.3-1,2.8-1.5,4.7-1.5c1.5,0,2.7,0.3,3.8,0.8c1.1,0.5,2,1.3,2.6,2.2c0.6,1,0.9,2.1,0.9,3.4c0,1.1-0.2,2.1-0.7,3.2s-1.2,2-2.1,3.1
			c-0.9,1.1-2.1,2.3-3.4,3.6l-5,4.7v0.2l2.7-0.1h5.3c1,0,1.7-0.2,2.1-0.7c0.4-0.4,0.8-1.2,1.3-2.4h1.1L1127.5,435.8z"/>
		<path d="M1137.7,436.1c-1.4,0-2.6-0.4-3.6-1.1c-1-0.7-1.7-1.8-2.2-3c-0.5-1.3-0.7-2.7-0.7-4.3c0-2.1,0.4-3.8,1.2-5.3
			c0.8-1.5,1.9-2.6,3.2-3.4c1.3-0.8,2.8-1.2,4.4-1.2c0.6,0,1.2,0.1,1.8,0.2c0.6,0.1,1.2,0.4,1.7,0.7h0.2v-4.9c0-0.8-0.1-1.4-0.3-1.6
			c-0.2-0.2-0.7-0.4-1.4-0.4c-0.2,0-0.5,0-1,0.1v-1l4.8-1.3h1v22.4c0,1,0.1,1.6,0.4,1.9c0.3,0.3,0.8,0.4,1.5,0.4h0.8v1l-4.9,0.9
			h-0.9v-2.6h-0.2c-0.7,0.6-1.6,1.2-2.5,1.8C1140.1,435.8,1138.9,436.1,1137.7,436.1z M1139.5,433.4c0.9,0,1.6-0.1,2.3-0.4
			c0.6-0.2,1.2-0.6,1.9-1v-9.9c-0.2-0.8-0.5-1.5-1.1-2.1c-0.6-0.6-1.5-0.9-2.7-0.9c-1.6,0-2.9,0.6-3.9,1.7c-1,1.1-1.5,2.9-1.5,5.3
			c0,2.6,0.4,4.4,1.3,5.5C1136.6,432.8,1137.8,433.4,1139.5,433.4z"/>
		<path d="M1167,435.8h-15v-1.3l5.8-5.7c1.3-1.3,2.3-2.4,3.2-3.5c0.8-1,1.5-2.1,1.9-3.1c0.4-1,0.6-2.2,0.6-3.5
			c0-1.4-0.4-2.5-1.3-3.3c-0.9-0.8-2-1.3-3.5-1.3c-1.2,0-2.3,0.3-3.2,0.8s-1.7,1.5-2.4,2.9l-0.9-0.4c0.6-1.8,1.5-3.2,2.8-4.2
			c1.3-1,2.8-1.5,4.7-1.5c1.5,0,2.7,0.3,3.8,0.8c1.1,0.5,2,1.3,2.6,2.2c0.6,1,0.9,2.1,0.9,3.4c0,1.1-0.2,2.1-0.7,3.2s-1.2,2-2.1,3.1
			c-0.9,1.1-2.1,2.3-3.4,3.6l-5,4.7v0.2l2.7-0.1h5.3c1,0,1.7-0.2,2.1-0.7c0.4-0.4,0.8-1.2,1.3-2.4h1.1L1167,435.8z"/>
		<path d="M1174.6,409.4h1v11.4h0.1c0.7-0.8,1.5-1.5,2.5-2.2c1-0.7,2.1-1,3.4-1c1.3,0,2.4,0.4,3.3,1.1c1,0.7,1.7,1.7,2.2,2.9
			s0.8,2.7,0.8,4.3c0,2.2-0.4,4.1-1.2,5.6c-0.8,1.5-1.9,2.7-3.2,3.4c-1.4,0.8-3,1.2-4.7,1.2c-1.6,0-3-0.2-4.1-0.6
			c-1.1-0.4-1.9-0.7-2.3-0.9v-21c0-0.8-0.1-1.4-0.3-1.6c-0.2-0.2-0.7-0.4-1.4-0.4c-0.3,0-0.7,0-1.1,0.1v-1L1174.6,409.4z
			 M1175.6,422.5v10.4c0.4,0.4,0.8,0.8,1.5,1.2c0.6,0.4,1.4,0.6,2.4,0.6c1.2,0,2.2-0.3,2.9-1c0.7-0.7,1.3-1.6,1.6-2.7
			c0.3-1.1,0.5-2.4,0.5-3.8c0-1.2-0.1-2.3-0.4-3.4c-0.3-1.1-0.7-1.9-1.4-2.6c-0.7-0.7-1.6-1-2.8-1c-1,0-1.8,0.3-2.6,0.8
			C1176.5,421.5,1175.9,422,1175.6,422.5z"/>
		<path d="M1205.8,435.8h-15v-1.3l5.8-5.7c1.3-1.3,2.3-2.4,3.2-3.5c0.8-1,1.5-2.1,1.9-3.1c0.4-1,0.6-2.2,0.6-3.5
			c0-1.4-0.4-2.5-1.3-3.3c-0.9-0.8-2-1.3-3.5-1.3c-1.2,0-2.3,0.3-3.2,0.8s-1.7,1.5-2.4,2.9l-0.9-0.4c0.6-1.8,1.5-3.2,2.8-4.2
			c1.3-1,2.8-1.5,4.7-1.5c1.5,0,2.7,0.3,3.8,0.8c1.1,0.5,2,1.3,2.6,2.2c0.6,1,0.9,2.1,0.9,3.4c0,1.1-0.2,2.1-0.7,3.2s-1.2,2-2.1,3.1
			c-0.9,1.1-2.1,2.3-3.4,3.6l-5,4.7v0.2l2.7-0.1h5.3c1,0,1.7-0.2,2.1-0.7c0.4-0.4,0.8-1.2,1.3-2.4h1.1L1205.8,435.8z"/>
		<path d="M1217.6,436.2c-1.5,0-2.8-0.2-3.9-0.6s-2-1.1-2.7-1.9c-0.7-0.9-1-1.9-1-3.2c0-1,0.2-1.8,0.6-2.5c0.4-0.7,1-1.3,1.7-1.9
			c0.8-0.6,1.8-1.3,2.9-2.1v-0.4l1.5,0.8c-0.8,0.6-1.5,1.2-2,1.8c-0.6,0.5-1,1.1-1.3,1.8c-0.3,0.6-0.4,1.4-0.4,2.3
			c0,1.7,0.4,2.9,1.3,3.7c0.9,0.8,2,1.2,3.5,1.2c0.8,0,1.5-0.1,2.2-0.4c0.7-0.3,1.2-0.7,1.6-1.3c0.4-0.6,0.6-1.3,0.6-2.1
			c0-0.8-0.2-1.6-0.5-2.2s-1-1.4-1.9-2.1c-0.9-0.7-2.2-1.6-3.9-2.7l-0.2-0.1c-1.4-0.9-2.5-1.8-3.3-2.5s-1.3-1.4-1.5-2.1
			c-0.3-0.7-0.4-1.5-0.4-2.4c0-1.1,0.3-2.1,0.9-2.9c0.6-0.8,1.5-1.5,2.6-1.9c1.1-0.4,2.3-0.7,3.7-0.7c1.3,0,2.4,0.2,3.4,0.7
			c1,0.4,1.8,1.1,2.4,1.8c0.6,0.8,0.9,1.7,0.9,2.6c0,0.9-0.2,1.7-0.5,2.3c-0.3,0.6-0.9,1.2-1.6,1.8c-0.7,0.5-1.7,1.1-2.9,1.8v0.4
			l-1.6-0.8c1.4-0.8,2.4-1.6,2.9-2.4c0.5-0.8,0.8-1.9,0.8-3.1s-0.4-2.2-1-2.9c-0.7-0.7-1.7-1-2.9-1c-1.3,0-2.3,0.3-3.1,1
			c-0.8,0.6-1.1,1.5-1.1,2.7c0,1.1,0.4,2.1,1.3,2.9c0.8,0.8,2.2,1.8,4,2.9l0.3,0.2c1.6,0.9,2.9,1.8,3.8,2.6s1.6,1.6,1.9,2.4
			s0.6,1.7,0.6,2.8c0,1.3-0.3,2.4-1,3.3c-0.6,0.9-1.6,1.6-2.7,2.1S1219.1,436.2,1217.6,436.2z"/>
	</g>
</g>
<g>
	<g class="st7">
		<path d="M637.6,391h-9.4v-1c1,0,1.7-0.1,2.1-0.2c0.5-0.1,0.8-0.4,0.9-0.9c0.1-0.4,0.2-1.1,0.2-1.9v-13.4c0-0.8-0.1-1.4-0.3-1.7
			c-0.2-0.4-0.5-0.6-1-0.8c-0.5-0.1-1.1-0.2-1.9-0.2v-1h9c1.7,0,3.3,0.2,4.8,0.5s2.8,0.9,3.9,1.7c1.1,0.8,2,1.9,2.6,3.2
			c0.6,1.3,0.9,3,0.9,4.9c0,1.8-0.3,3.4-0.8,4.8c-0.6,1.3-1.4,2.5-2.4,3.3c-1,0.9-2.3,1.5-3.7,1.9C641,390.8,639.4,391,637.6,391z
			 M636.4,389.8c2,0,3.7-0.3,5.1-0.8c1.4-0.5,2.5-1.4,3.3-2.8c0.8-1.3,1.1-3.2,1.1-5.6c0-3.1-0.8-5.4-2.4-7
			c-1.6-1.6-4.1-2.4-7.5-2.4c-0.3,0-0.5,0-0.8,0c-0.3,0-0.5,0-0.8,0.1v18.4c0.3,0,0.7,0,1,0.1C635.7,389.8,636,389.8,636.4,389.8z"
			/>
		<path d="M663.2,391.4c-2.9,0-5-0.7-6.4-2c-1.3-1.3-2-3.5-2-6.4v-9.3c0-0.7-0.1-1.3-0.3-1.7c-0.2-0.4-0.5-0.7-1-0.8
			c-0.5-0.2-1.1-0.2-2-0.2v-1h9.4v1c-0.9,0-1.6,0.1-2.1,0.2c-0.5,0.2-0.8,0.5-0.9,0.9c-0.2,0.4-0.2,1-0.2,1.9v9.1
			c0,1.4,0.2,2.6,0.6,3.5c0.4,1,1,1.7,1.9,2.2c0.9,0.5,2.1,0.7,3.7,0.7c2.1,0,3.7-0.5,4.6-1.5c1-1,1.4-2.6,1.4-4.8V375
			c0-1.1-0.1-2-0.2-2.6c-0.1-0.6-0.4-1-0.9-1.2c-0.4-0.2-1.1-0.3-2-0.3v-1h8v1c-0.9,0-1.6,0.1-2.1,0.3c-0.4,0.2-0.7,0.6-0.8,1.2
			s-0.2,1.4-0.2,2.5v7.7c0,2.9-0.7,5.1-2,6.6C668.6,390.6,666.3,391.4,663.2,391.4z"/>
		<path d="M690.3,391h-9.5v-1c0.9,0,1.6-0.1,2.1-0.2c0.5-0.1,0.8-0.4,0.9-0.9c0.2-0.5,0.2-1.2,0.2-2.1v-15.4h-2.1
			c-1.2,0-2.1,0.1-2.7,0.4c-0.6,0.2-1,0.7-1.3,1.3c-0.3,0.6-0.5,1.5-0.8,2.7h-1l0.4-5.8h18.1l0.3,5.8h-1c-0.2-1.2-0.5-2.1-0.8-2.7
			c-0.3-0.6-0.7-1-1.3-1.3c-0.6-0.2-1.5-0.4-2.7-0.4h-2.1v15.4c0,1,0.1,1.7,0.2,2.1c0.2,0.5,0.5,0.8,0.9,0.9
			c0.5,0.1,1.2,0.2,2.1,0.2V391z"/>
		<path d="M707.4,391.3c-2.3,0-4.1-0.5-5.7-1.4c-1.5-0.9-2.7-2.2-3.5-3.9c-0.8-1.6-1.2-3.5-1.2-5.6c0-2.3,0.5-4.3,1.4-5.9
			c0.9-1.6,2.2-2.9,3.8-3.7c1.6-0.9,3.5-1.3,5.6-1.3c1.2,0,2.1,0.1,2.8,0.3c0.7,0.2,1.3,0.4,1.7,0.6c0.4,0.2,0.8,0.3,1,0.3
			s0.5-0.1,0.6-0.3c0.1-0.2,0.3-0.5,0.5-0.8h1v7.3h-1.1c-0.4-2.1-1.1-3.6-2.2-4.6c-1.1-0.9-2.5-1.4-4.2-1.4c-2.4,0-4.2,0.8-5.5,2.5
			c-1.3,1.6-1.9,3.9-1.9,6.8c0,2.1,0.3,3.9,1,5.2c0.7,1.3,1.6,2.3,2.8,3c1.2,0.6,2.5,1,4.1,1c1.5,0,2.8-0.3,4-0.8
			c1.1-0.5,2.2-1.3,3.1-2.3l0.8,0.7c-0.6,0.9-1.3,1.6-2.1,2.3s-1.8,1.2-2.9,1.6C710.1,391.1,708.8,391.3,707.4,391.3z"/>
		<path d="M728,391h-9.4v-1c1,0,1.7-0.1,2.1-0.2c0.4-0.1,0.7-0.4,0.9-0.9c0.1-0.5,0.2-1.2,0.2-2.1v-12.6c0-0.8-0.1-1.5-0.2-2
			c-0.1-0.5-0.4-0.8-0.8-1c-0.4-0.2-1.2-0.3-2.2-0.3v-1h9.4v1c-1,0-1.8,0.1-2.2,0.3s-0.7,0.5-0.8,1c-0.1,0.5-0.1,1.1-0.1,2v5.4h10.8
			v-5.4c0-0.8-0.1-1.5-0.2-2c-0.1-0.5-0.4-0.8-0.8-1c-0.4-0.2-1.2-0.3-2.2-0.3v-1h9.4v1c-1,0-1.8,0.1-2.2,0.3s-0.7,0.5-0.8,1
			c-0.1,0.5-0.1,1.1-0.1,2v12.6c0,0.9,0.1,1.6,0.2,2.1c0.1,0.5,0.4,0.8,0.9,0.9c0.5,0.1,1.2,0.2,2.2,0.2v1h-9.4v-1
			c1,0,1.7-0.1,2.1-0.2c0.4-0.1,0.7-0.5,0.9-0.9c0.1-0.5,0.2-1.2,0.2-2.1v-6h-10.8v6c0,0.9,0.1,1.6,0.2,2.1c0.1,0.5,0.4,0.8,0.9,0.9
			c0.5,0.1,1.2,0.2,2.2,0.2V391z"/>
		<path d="M761.5,391.2h-0.8l-6.8-16.8c-0.5-1.3-1-2.3-1.5-2.7c-0.5-0.5-1.2-0.7-2.1-0.8v-1h8.5v1c-0.8,0-1.4,0.1-1.7,0.3
			c-0.3,0.2-0.5,0.4-0.5,0.8c0,0.4,0.2,1,0.5,1.8l3.8,9.4l1,2.7h0.2l3.9-9.8l1.5,2.5h-1L761.5,391.2z M772.4,391.2h-0.9l-5.1-13.2
			l-0.5-1.1l-1.1-2.9c-0.4-0.9-0.7-1.6-1-2.1c-0.3-0.4-0.6-0.7-1-0.8c-0.4-0.1-0.9-0.2-1.5-0.2v-1h8.6v1c-1.7,0-2.5,0.4-2.5,1.1
			c0,0.3,0.1,0.6,0.2,0.9c0.1,0.3,0.3,0.7,0.4,1l3.4,8.7l1.1,3.2h0.2l3.7-10.6c0.1-0.3,0.2-0.7,0.3-1c0.1-0.3,0.2-0.6,0.2-0.9
			c0.1-0.3,0.1-0.6,0.1-0.8c0-0.5-0.2-0.8-0.5-1c-0.4-0.2-0.9-0.3-1.7-0.3v-1h6.8v1c-0.8,0-1.3,0.2-1.7,0.5c-0.4,0.3-0.7,0.9-1,1.7
			L772.4,391.2z"/>
		<path d="M792.1,391h-9.4v-1c1,0,1.7-0.1,2.1-0.2c0.4-0.1,0.7-0.4,0.9-0.9c0.1-0.5,0.2-1.2,0.2-2.1v-12.6c0-0.8-0.1-1.5-0.2-2
			c-0.1-0.5-0.4-0.8-0.8-1c-0.4-0.2-1.2-0.3-2.2-0.3v-1h9.4v1c-1,0-1.8,0.1-2.2,0.3s-0.7,0.5-0.8,1c-0.1,0.5-0.1,1.1-0.1,2v5.4h10.8
			v-5.4c0-0.8-0.1-1.5-0.2-2c-0.1-0.5-0.4-0.8-0.8-1c-0.4-0.2-1.2-0.3-2.2-0.3v-1h9.4v1c-1,0-1.8,0.1-2.2,0.3s-0.7,0.5-0.8,1
			c-0.1,0.5-0.1,1.1-0.1,2v12.6c0,0.9,0.1,1.6,0.2,2.1c0.1,0.5,0.4,0.8,0.9,0.9c0.5,0.1,1.2,0.2,2.2,0.2v1h-9.4v-1
			c1,0,1.7-0.1,2.1-0.2c0.4-0.1,0.7-0.5,0.9-0.9c0.1-0.5,0.2-1.2,0.2-2.1v-6h-10.8v6c0,0.9,0.1,1.6,0.2,2.1c0.1,0.5,0.4,0.8,0.9,0.9
			c0.5,0.1,1.2,0.2,2.2,0.2V391z"/>
		<path d="M817.6,391h-9.4v-1c1,0,1.7-0.1,2.2-0.2s0.8-0.5,0.9-0.9c0.1-0.5,0.2-1.1,0.2-2.1v-12.6c0-0.8-0.1-1.5-0.2-2
			c-0.1-0.5-0.4-0.8-0.8-1c-0.4-0.2-1.2-0.3-2.2-0.3v-1h9.4v1c-1,0-1.8,0.1-2.2,0.3s-0.7,0.5-0.8,1c-0.1,0.5-0.1,1.1-0.1,2v12.6
			c0,0.9,0.1,1.6,0.2,2.1c0.1,0.5,0.4,0.8,0.9,0.9c0.5,0.2,1.2,0.2,2.1,0.2V391z"/>
		<path d="M833.4,391h-9.5v-1c0.9,0,1.6-0.1,2.1-0.2c0.5-0.1,0.8-0.4,0.9-0.9c0.2-0.5,0.2-1.2,0.2-2.1v-15.4H825
			c-1.2,0-2.1,0.1-2.7,0.4c-0.6,0.2-1,0.7-1.3,1.3c-0.3,0.6-0.5,1.5-0.8,2.7h-1l0.4-5.8h18.1l0.3,5.8h-1c-0.2-1.2-0.5-2.1-0.8-2.7
			c-0.3-0.6-0.7-1-1.3-1.3c-0.6-0.2-1.5-0.4-2.7-0.4h-2.1v15.4c0,1,0.1,1.7,0.2,2.1c0.2,0.5,0.5,0.8,0.9,0.9
			c0.5,0.1,1.2,0.2,2.1,0.2V391z"/>
		<path d="M857.2,391h-17.5v-1c0.9,0,1.6-0.1,2-0.2c0.4-0.1,0.8-0.4,0.9-0.8c0.2-0.4,0.2-1,0.2-1.9v-13.4c0-0.8-0.1-1.4-0.2-1.9
			c-0.2-0.4-0.5-0.7-0.9-0.9c-0.4-0.1-1.1-0.2-2-0.2v-1h17.2l0.2,5.3h-1c-0.2-1.1-0.4-1.9-0.7-2.4s-0.8-0.9-1.5-1.1
			c-0.7-0.2-1.7-0.3-3.1-0.3h-4.8v8.1h3.8c1,0,1.8-0.1,2.3-0.3c0.5-0.2,0.9-0.5,1.1-1s0.3-1.1,0.3-2h1v7.4h-1c0-0.9-0.1-1.5-0.3-2
			c-0.2-0.4-0.6-0.7-1.1-0.8c-0.5-0.1-1.3-0.2-2.3-0.2h-3.8v8.8h4.2c1.3,0,2.3-0.1,3.1-0.2c0.8-0.1,1.4-0.3,1.8-0.7
			c0.4-0.3,0.8-0.8,1.1-1.4c0.3-0.6,0.6-1.4,0.9-2.3h1L857.2,391z"/>
		<path d="M646.9,427.9h-18.6v-1.5h18.6V427.9z M647.7,421h-18.5v-1.5h18.5V421z M633.2,434.6h-1.8l3.6-22l1.8,0L633.2,434.6z
			 M641.1,434.6h-1.8l3.4-22h1.8L641.1,434.6z"/>
		<path d="M659.9,435.8h-10.3v-1.1c0.9,0,1.6-0.1,2.1-0.2c0.4-0.2,0.7-0.5,0.9-1c0.2-0.5,0.2-1.2,0.2-2.2v-11.9c0-1.4,0-2.6,0.1-3.5
			c0.1-0.9,0.2-1.7,0.4-2.3c0.2-0.6,0.4-1.2,0.8-1.8c0.5-0.9,1.2-1.5,1.9-2c0.8-0.5,1.8-0.7,3.1-0.7c0.8,0,1.6,0.1,2.2,0.3
			c0.6,0.2,1.1,0.5,1.5,0.9c0.4,0.4,0.6,0.9,0.6,1.4c0,0.5-0.2,1-0.5,1.2c-0.3,0.3-0.7,0.4-1.1,0.4c-0.5,0-0.9-0.2-1.2-0.5
			c-0.3-0.3-0.6-0.6-0.9-1c-0.3-0.3-0.5-0.7-0.8-1c-0.3-0.3-0.7-0.4-1.1-0.4c-0.7,0-1.2,0.3-1.5,1c-0.3,0.6-0.4,1.7-0.4,3.3v16.5
			c0,1,0.1,1.7,0.3,2.2c0.2,0.5,0.6,0.8,1.1,1c0.6,0.2,1.4,0.2,2.4,0.2V435.8z M660.7,419.9h-10.7v-1.6h10.7V419.9z"/>
		<path d="M667.2,436.3c-1.1,0-2-0.1-2.6-0.3s-1-0.5-1.3-0.8c-0.2-0.3-0.4-0.6-0.4-1c0-0.4,0.1-0.8,0.4-1.1c0.3-0.3,0.6-0.5,1.1-0.5
			c0.4,0,0.8,0.1,1.2,0.3s0.9,0.4,1.3,0.6c0.5,0.2,0.9,0.4,1.4,0.6c0.5,0.2,0.9,0.3,1.4,0.3c0.8,0,1.6-0.1,2.3-0.4
			c0.7-0.3,1.3-0.8,1.8-1.5c0.5-0.7,0.7-1.6,0.7-2.9c0-1.1-0.3-2.1-1-2.9c-0.6-0.8-1.5-1.5-2.5-1.9c-1.1-0.5-2.2-0.7-3.4-0.7h-0.8
			v-1.4h0.7c0.9,0,1.7-0.2,2.5-0.6c0.8-0.4,1.5-1,2-1.8c0.5-0.8,0.8-1.7,0.8-2.6c0-1.1-0.4-1.9-1.1-2.6c-0.7-0.6-1.6-0.9-2.8-0.9
			c-1.1,0-2.1,0.3-2.9,0.8c-0.8,0.5-1.5,1.3-2.1,2.3l-0.9-0.5c0.7-1.6,1.7-2.8,2.8-3.7c1.2-0.8,2.5-1.3,4.1-1.3c2,0,3.5,0.5,4.5,1.4
			c1.1,1,1.6,2.1,1.6,3.6c0,1.3-0.4,2.3-1.2,3.1s-1.8,1.6-3,2.3v0.1c1,0.3,2,0.7,2.8,1.3c0.9,0.6,1.5,1.2,2,2.1
			c0.5,0.8,0.8,1.8,0.8,2.9c0,1.7-0.5,3.1-1.5,4.3c-1,1.2-2.2,2-3.8,2.6C670.8,436,669,436.3,667.2,436.3z"/>
		<path d="M689,436.1c-1.5,0-2.9-0.4-4.1-1.1c-1.2-0.7-2.2-1.8-2.9-3.1c-0.7-1.4-1.1-3.1-1.1-5.1c0-2.1,0.4-3.8,1.1-5.2
			c0.7-1.4,1.7-2.4,2.9-3s2.6-1,4-1c2.1,0,3.8,0.7,5,2.1c1.3,1.4,2,3.4,2.1,6h-12.4l0-1.4h8.9c0-0.9-0.2-1.8-0.5-2.6
			c-0.3-0.8-0.8-1.5-1.3-2c-0.6-0.5-1.3-0.7-2.3-0.7c-1.5,0-2.6,0.6-3.3,1.7c-0.7,1.1-1.1,2.7-1.1,4.8c0,1.7,0.3,3.1,0.8,4.3
			c0.6,1.1,1.3,2,2.2,2.6c0.9,0.6,1.9,0.8,2.9,0.8c1,0,1.9-0.1,2.5-0.4c0.6-0.3,1.2-0.6,1.7-1.1c0.5-0.4,0.9-0.9,1.3-1.4l0.7,0.5
			c-0.3,0.7-0.7,1.4-1.1,2c-0.4,0.6-0.9,1.2-1.5,1.7c-0.5,0.5-1.2,0.8-1.9,1.1C690.8,436,690,436.1,689,436.1z"/>
		<path d="M706.1,436.1h-3l9-20.8h-8.5c-0.7,0-1.3,0.1-1.6,0.2c-0.4,0.1-0.7,0.4-0.9,0.8c-0.2,0.4-0.5,1-0.9,1.8l-1.2-0.1l1.5-5.7
			H715v1.2L706.1,436.1z"/>
		<path d="M731.7,430.2l0.7,0.5c-0.5,1-1,1.9-1.7,2.7c-0.6,0.8-1.4,1.5-2.3,1.9c-0.9,0.5-2.1,0.7-3.4,0.7c-1.6,0-2.9-0.4-4.1-1.1
			c-1.1-0.7-2-1.8-2.6-3.1c-0.6-1.3-0.9-2.9-0.9-4.6c0-2,0.3-3.7,1-5.1c0.7-1.4,1.7-2.6,2.9-3.4c1.3-0.8,2.8-1.2,4.7-1.2
			c1.8,0,3.2,0.4,4.3,1.2c1,0.8,1.5,1.7,1.5,2.8c0,0.5-0.1,1-0.4,1.3c-0.3,0.3-0.7,0.4-1.2,0.4c-0.6,0-1-0.1-1.3-0.4
			c-0.3-0.3-0.5-0.6-0.7-1.1c-0.2-0.4-0.4-0.8-0.6-1.3c-0.2-0.4-0.5-0.8-0.8-1.1c-0.3-0.3-0.8-0.4-1.5-0.4c-1.6,0-2.8,0.6-3.6,1.7
			c-0.9,1.1-1.3,2.7-1.3,4.9c0,2.3,0.5,4.1,1.4,5.6s2.4,2.2,4.4,2.2c1.2,0,2.3-0.2,3-0.7C730.1,432.1,730.9,431.3,731.7,430.2z"/>
		<path d="M739.8,436.3c-1.5,0-2.6-0.2-3.3-0.5s-1.1-0.9-1.1-1.6c0-0.4,0.1-0.8,0.4-1.1c0.3-0.3,0.6-0.5,1.1-0.5
			c0.4,0,0.8,0.1,1.1,0.3c0.4,0.2,0.8,0.4,1.1,0.6c0.4,0.2,0.8,0.4,1.3,0.6c0.5,0.2,1,0.3,1.6,0.3c0.9,0,1.8-0.2,2.5-0.5
			c0.8-0.3,1.4-0.9,1.9-1.7c0.5-0.8,0.7-1.8,0.7-3.1c0-1.4-0.3-2.5-0.8-3.4c-0.6-0.8-1.3-1.5-2.3-1.9c-0.9-0.4-2-0.8-3.2-0.9
			c-1.2-0.2-2.4-0.3-3.7-0.3l-0.5-0.6l2.4-9.7h10.5l-0.6,3h-9l-1,4.3c1.3,0.1,2.5,0.3,3.6,0.5c1.1,0.2,2.1,0.5,3,0.9
			c0.9,0.4,1.7,0.9,2.3,1.5c0.7,0.6,1.2,1.3,1.5,2.2c0.4,0.9,0.5,1.9,0.5,3c0,1.4-0.2,2.7-0.7,3.8c-0.5,1.1-1.2,2-2.1,2.7
			c-0.9,0.7-2,1.3-3.2,1.6C742.8,436.1,741.4,436.3,739.8,436.3z"/>
	</g>
</g>
<g>
	<g class="st7">
		<path d="M152.8,391.4c-2.2,0-4-0.4-5.6-1.3c-1.6-0.9-2.8-2.1-3.6-3.8c-0.8-1.6-1.3-3.6-1.3-5.9c0-2.2,0.4-4.1,1.3-5.7
			c0.8-1.6,2-2.9,3.6-3.8c1.6-0.9,3.4-1.4,5.6-1.4c2.2,0,4.1,0.4,5.6,1.3c1.6,0.9,2.7,2.1,3.6,3.7c0.8,1.6,1.2,3.4,1.2,5.6
			c0,2.2-0.4,4.2-1.3,5.9c-0.8,1.7-2,3-3.6,3.9C156.8,390.9,155,391.4,152.8,391.4z M152.8,390c2.3,0,4.1-0.8,5.2-2.5
			c1.1-1.6,1.7-4.1,1.7-7.3c0-1.9-0.3-3.6-0.9-5c-0.6-1.4-1.4-2.5-2.5-3.2c-1.1-0.8-2.3-1.1-3.7-1.1c-2.1,0-3.8,0.8-5.1,2.5
			c-1.2,1.7-1.9,3.9-1.9,6.9c0,3,0.6,5.4,1.8,7.1C148.7,389.1,150.5,390,152.8,390z"/>
		<path d="M175.5,391h-9.2v-1c0.8,0,1.5-0.1,1.9-0.2c0.4-0.1,0.7-0.4,0.8-0.8c0.1-0.4,0.2-1.1,0.2-2v-13.8c0-0.6-0.1-1.1-0.2-1.4
			c-0.1-0.3-0.4-0.6-0.8-0.7c-0.4-0.1-1.1-0.2-1.9-0.2v-1h8.1c1.6,0,3.1,0.2,4.4,0.5c1.3,0.3,2.3,0.8,3,1.6c0.7,0.8,1.1,1.8,1.1,3.2
			c0,1.2-0.3,2.2-0.8,2.9c-0.6,0.7-1.3,1.3-2.1,1.7c-0.8,0.4-1.7,0.7-2.6,0.9v0.1c0.4,0.2,0.8,0.6,1.3,1.1c0.5,0.5,1.1,1.3,1.8,2.3
			c0.7,1,1.7,2.4,2.9,4.1c0.5,0.7,1,1.2,1.5,1.3c0.5,0.2,1.1,0.3,1.9,0.3v1h-5.4c-0.9-1.3-1.6-2.4-2.2-3.3c-0.6-0.9-1.1-1.6-1.5-2.2
			c-0.4-0.6-0.8-1.1-1.1-1.6c-0.3-0.5-0.7-0.9-1-1.4c-0.3-0.5-0.6-0.8-0.9-0.9c-0.3-0.1-0.7-0.2-1.3-0.2h-0.9v5.7
			c0,0.9,0.1,1.5,0.2,2c0.2,0.4,0.5,0.7,0.9,0.8c0.5,0.1,1.2,0.2,2.1,0.2V391z M172.2,380.1l1.2,0c1.2-0.1,2.3-0.3,3.1-0.6
			c0.9-0.3,1.6-0.8,2.1-1.5c0.5-0.7,0.8-1.6,0.8-2.7c0-1.3-0.4-2.3-1.2-3s-2.1-1.1-3.9-1.1c-0.4,0-0.7,0-1.1,0c-0.4,0-0.7,0-1.1,0.1
			V380.1z"/>
		<path d="M193.5,391h-6.9v-1c0.6,0,1.1-0.1,1.5-0.3c0.4-0.2,0.7-0.6,1.1-1.2c0.3-0.6,0.8-1.5,1.3-2.7l7-16.1h1.3l7.8,17.4
			c0.5,1,0.9,1.8,1.4,2.2c0.4,0.4,1.1,0.6,2,0.6v1h-8.8v-1c0.3,0,0.7,0,1-0.1c0.3,0,0.6-0.1,0.9-0.3c0.2-0.2,0.4-0.4,0.4-0.8
			c0-0.2,0-0.5-0.1-0.8c-0.1-0.3-0.2-0.7-0.4-1.2l-1.4-3.2l-0.2-0.6l-3.7-9.3h-0.1l-3.8,9.3l-0.2,0.6l-1.6,3.7
			c-0.1,0.3-0.2,0.5-0.2,0.8c-0.1,0.2-0.1,0.5-0.1,0.8c0,0.4,0.2,0.7,0.5,0.9c0.3,0.1,0.9,0.2,1.7,0.2V391z M201.8,384h-9.1l0.5-1.3
			h8.1L201.8,384z"/>
		<path d="M230.5,391.2h-1.1l-13.6-17.1h-0.9l-0.6-1.3c-0.4-0.6-0.8-1-1.1-1.2c-0.3-0.3-0.6-0.5-1-0.6c-0.3-0.1-0.8-0.1-1.3-0.1v-1
			h5.6l12.1,15.5h0.2V375c0-1-0.1-1.8-0.2-2.4c-0.1-0.6-0.4-1-0.9-1.3c-0.4-0.3-1.1-0.4-2.1-0.4v-1h7.7v1c-0.8,0-1.5,0.1-1.9,0.4
			s-0.7,0.7-0.9,1.4c-0.1,0.6-0.2,1.5-0.2,2.5V391.2z M218.6,391H211v-1c0.9,0,1.5-0.1,2-0.3c0.4-0.2,0.7-0.6,0.9-1.1
			s0.2-1.4,0.2-2.4v-14.4h1.6v14.4c0,1.1,0.1,1.9,0.2,2.4c0.2,0.5,0.4,0.9,0.9,1.1s1.1,0.3,1.9,0.3V391z"/>
		<path d="M246.5,391.3c-3.5,0-6.1-0.9-7.9-2.8c-1.8-1.9-2.6-4.5-2.6-8c0-2.4,0.5-4.4,1.4-6s2.2-2.9,3.8-3.7
			c1.6-0.8,3.4-1.3,5.5-1.3c1.2,0,2.2,0.1,2.9,0.3c0.7,0.2,1.3,0.4,1.7,0.6c0.4,0.2,0.7,0.3,1,0.3c0.3,0,0.5-0.1,0.6-0.3
			c0.1-0.2,0.3-0.5,0.5-0.8h1v7.3h-1.1c-0.4-2.1-1.1-3.7-2.2-4.6c-1.1-0.9-2.5-1.4-4.3-1.4c-2.3,0-4.1,0.8-5.4,2.5
			c-1.3,1.7-1.9,3.9-1.9,6.7c0,3.3,0.7,5.7,2,7.3c1.3,1.6,3.2,2.4,5.5,2.4c1,0,1.9-0.1,2.6-0.4c0.7-0.3,1.4-0.7,2-1.2v-3.5
			c0-0.8-0.1-1.4-0.2-1.7c-0.1-0.4-0.4-0.7-0.8-0.8c-0.4-0.1-1-0.2-1.9-0.2v-1h8.1v1c-0.9,0-1.5,0.2-1.8,0.5c-0.3,0.3-0.4,1-0.4,2
			v4.6c-1.2,0.7-2.4,1.2-3.6,1.6C249.8,391.1,248.3,391.3,246.5,391.3z"/>
		<path d="M276.6,391h-17.5v-1c0.9,0,1.6-0.1,2-0.2c0.4-0.1,0.8-0.4,0.9-0.8c0.2-0.4,0.2-1,0.2-1.9v-13.4c0-0.8-0.1-1.4-0.2-1.9
			c-0.2-0.4-0.5-0.7-0.9-0.9c-0.4-0.1-1.1-0.2-2-0.2v-1h17.2l0.2,5.3h-1c-0.2-1.1-0.4-1.9-0.7-2.4s-0.8-0.9-1.5-1.1
			c-0.7-0.2-1.7-0.3-3.1-0.3h-4.8v8.1h3.8c1,0,1.8-0.1,2.3-0.3c0.5-0.2,0.9-0.5,1.1-1s0.3-1.1,0.3-2h1v7.4h-1c0-0.9-0.1-1.5-0.3-2
			c-0.2-0.4-0.6-0.7-1.1-0.8c-0.5-0.1-1.3-0.2-2.3-0.2h-3.8v8.8h4.2c1.3,0,2.3-0.1,3.1-0.2c0.8-0.1,1.4-0.3,1.8-0.7
			c0.4-0.3,0.8-0.8,1.1-1.4c0.3-0.6,0.6-1.4,0.9-2.3h1L276.6,391z"/>
		<path d="M296.9,391h-9.2v-1c0.9,0,1.5-0.1,1.9-0.2c0.4-0.1,0.7-0.4,0.8-0.9s0.2-1.1,0.2-2v-13.8c0-0.9-0.2-1.5-0.6-1.8
			c-0.4-0.3-1.1-0.4-2.2-0.4v-1h8.2c1,0,2.1,0.1,3,0.2c1,0.2,1.8,0.4,2.6,0.8c0.8,0.4,1.4,0.9,1.8,1.6c0.4,0.7,0.7,1.6,0.7,2.6
			c0,1.2-0.2,2.3-0.7,3.1c-0.5,0.8-1.1,1.5-2,2c-0.8,0.5-1.7,0.9-2.8,1.1c-1,0.2-2.1,0.3-3.1,0.3c-0.3,0-0.7,0-1-0.1
			s-0.6-0.1-0.8-0.2v5.5c0,0.9,0.1,1.5,0.3,2c0.2,0.4,0.5,0.7,1,0.8c0.5,0.1,1.2,0.2,2,0.2V391z M295.3,380.5c1.2,0,2.2-0.1,3-0.4
			c0.8-0.3,1.4-0.8,1.8-1.5c0.4-0.7,0.6-1.7,0.6-2.9c0-1.5-0.4-2.6-1.3-3.3c-0.9-0.8-2.2-1.2-4-1.2c-0.3,0-0.7,0-1,0
			c-0.3,0-0.7,0.1-1,0.1v9.1c0.2,0,0.4,0,0.8,0.1C294.7,380.5,295,380.5,295.3,380.5z"/>
		<path d="M323.5,391H306v-1c0.9,0,1.6-0.1,2-0.2c0.4-0.1,0.8-0.4,0.9-0.8c0.2-0.4,0.2-1,0.2-1.9v-13.4c0-0.8-0.1-1.4-0.2-1.9
			c-0.2-0.4-0.5-0.7-0.9-0.9c-0.4-0.1-1.1-0.2-2-0.2v-1h17.2l0.2,5.3h-1c-0.2-1.1-0.4-1.9-0.7-2.4s-0.8-0.9-1.5-1.1
			c-0.7-0.2-1.7-0.3-3.1-0.3h-4.8v8.1h3.8c1,0,1.8-0.1,2.3-0.3c0.5-0.2,0.9-0.5,1.1-1s0.3-1.1,0.3-2h1v7.4h-1c0-0.9-0.1-1.5-0.3-2
			c-0.2-0.4-0.6-0.7-1.1-0.8c-0.5-0.1-1.3-0.2-2.3-0.2h-3.8v8.8h4.2c1.3,0,2.3-0.1,3.1-0.2c0.8-0.1,1.4-0.3,1.8-0.7
			c0.4-0.3,0.8-0.8,1.1-1.4c0.3-0.6,0.6-1.4,0.9-2.3h1L323.5,391z"/>
		<path d="M344.1,391h-17.5v-1c0.9,0,1.6-0.1,2-0.2c0.4-0.1,0.8-0.4,0.9-0.8c0.2-0.4,0.2-1,0.2-1.9v-13.4c0-0.8-0.1-1.4-0.2-1.9
			c-0.2-0.4-0.5-0.7-0.9-0.9c-0.4-0.1-1.1-0.2-2-0.2v-1h17.2l0.2,5.3h-1c-0.2-1.1-0.4-1.9-0.7-2.4s-0.8-0.9-1.5-1.1
			c-0.7-0.2-1.7-0.3-3.1-0.3h-4.8v8.1h3.8c1,0,1.8-0.1,2.3-0.3c0.5-0.2,0.9-0.5,1.1-1s0.3-1.1,0.3-2h1v7.4h-1c0-0.9-0.1-1.5-0.3-2
			c-0.2-0.4-0.6-0.7-1.1-0.8c-0.5-0.1-1.3-0.2-2.3-0.2h-3.8v8.8h4.2c1.3,0,2.3-0.1,3.1-0.2c0.8-0.1,1.4-0.3,1.8-0.7
			c0.4-0.3,0.8-0.8,1.1-1.4c0.3-0.6,0.6-1.4,0.9-2.3h1L344.1,391z"/>
		<path d="M363.5,391h-16.3v-1c0.9,0,1.5-0.1,2-0.2c0.4-0.1,0.7-0.4,0.8-0.9c0.1-0.4,0.2-1.1,0.2-1.9v-13c0-0.8-0.1-1.5-0.2-1.9
			s-0.4-0.8-0.8-0.9c-0.4-0.2-1.1-0.3-2-0.3v-1h9.2v1c-0.9,0-1.5,0.1-2,0.3c-0.5,0.2-0.8,0.5-1,0.9s-0.2,1.1-0.2,1.9v13.9
			c0,0.7,0.2,1.2,0.5,1.4c0.3,0.2,1,0.3,2,0.3h1.5c1.1,0,2-0.1,2.7-0.2c0.7-0.2,1.2-0.4,1.6-0.8c0.4-0.4,0.7-0.9,1-1.5
			c0.3-0.6,0.6-1.4,0.9-2.3h1L363.5,391z"/>
		<path d="M160.5,427.9h-18.6v-1.5h18.6V427.9z M161.3,421h-18.5v-1.5h18.5V421z M146.8,434.6H145l3.6-22l1.8,0L146.8,434.6z
			 M154.7,434.6h-1.8l3.4-22h1.8L154.7,434.6z"/>
		<path d="M172,436.1c-1.5,0-2.9-0.4-4.1-1.1c-1.2-0.7-2.2-1.8-2.9-3.1c-0.7-1.4-1.1-3.1-1.1-5.1c0-2.1,0.4-3.8,1.1-5.2
			c0.7-1.4,1.7-2.4,2.9-3s2.6-1,4-1c2.1,0,3.8,0.7,5,2.1c1.3,1.4,2,3.4,2.1,6h-12.4l0-1.4h8.9c0-0.9-0.2-1.8-0.5-2.6
			c-0.3-0.8-0.8-1.5-1.3-2c-0.6-0.5-1.3-0.7-2.3-0.7c-1.5,0-2.6,0.6-3.3,1.7c-0.7,1.1-1.1,2.7-1.1,4.8c0,1.7,0.3,3.1,0.8,4.3
			c0.6,1.1,1.3,2,2.2,2.6c0.9,0.6,1.9,0.8,2.9,0.8c1,0,1.9-0.1,2.5-0.4c0.6-0.3,1.2-0.6,1.7-1.1c0.5-0.4,0.9-0.9,1.3-1.4l0.7,0.5
			c-0.3,0.7-0.7,1.4-1.1,2c-0.4,0.6-0.9,1.2-1.5,1.7c-0.5,0.5-1.2,0.8-1.9,1.1C173.9,436,173,436.1,172,436.1z"/>
		<path d="M190.2,436.2c-1.9,0-3.4-0.5-4.6-1.4c-1.2-0.9-2.1-2.1-2.7-3.7s-0.9-3.2-0.9-5c0-2.2,0.3-4.2,1-6c0.7-1.8,1.7-3.3,2.9-4.5
			c1.3-1.2,2.7-2.2,4.5-2.9c1.7-0.7,3.6-1.1,5.7-1.1l0.1,1.1c-1.8,0.2-3.4,0.8-4.9,1.7c-1.5,0.9-2.7,2-3.7,3.4c-1,1.4-1.7,3-2,4.8
			l0.3,0c0.8-0.7,1.6-1.3,2.3-1.7c0.8-0.4,1.6-0.6,2.6-0.6c2.1,0,3.8,0.7,5,2.1c1.2,1.4,1.9,3.3,1.9,5.7c0,2.5-0.7,4.5-2,5.9
			S192.6,436.2,190.2,436.2z M190.3,434.9c1.3,0,2.3-0.5,3-1.4c0.7-1,1.1-2.6,1.1-5c0-1.7-0.4-3.1-1.2-4.3c-0.8-1.1-2-1.7-3.5-1.7
			c-0.7,0-1.4,0.1-2.1,0.4s-1.2,0.8-1.6,1.4c-0.4,0.6-0.6,1.5-0.6,2.6c0,1.5,0.2,2.9,0.5,4.1c0.4,1.2,0.9,2.1,1.6,2.8
			C188.3,434.6,189.2,434.9,190.3,434.9z"/>
		<path d="M202.4,436.3l-0.1-1.1c1.8-0.2,3.4-0.7,4.8-1.5c1.5-0.8,2.7-1.9,3.7-3.3c1-1.4,1.6-3.1,1.9-5.1l-0.2,0
			c-0.9,0.8-1.7,1.4-2.4,1.7c-0.8,0.4-1.6,0.6-2.6,0.6c-2.1,0-3.8-0.7-5-2.1c-1.2-1.4-1.9-3.3-1.9-5.8c0-2.5,0.7-4.5,2-5.9
			c1.4-1.4,3.2-2.1,5.6-2.1c1.9,0,3.4,0.5,4.6,1.4c1.2,0.9,2,2.2,2.6,3.7c0.5,1.5,0.8,3.2,0.8,5.1c0,2.4-0.3,4.5-1,6.3
			c-0.7,1.8-1.6,3.3-2.8,4.5c-1.2,1.2-2.7,2.1-4.4,2.7C206.4,435.9,204.5,436.2,202.4,436.3z M208.7,425.3c1.1,0,2.1-0.3,3-1
			c0.9-0.7,1.3-1.8,1.3-3.4c0-1.6-0.2-2.9-0.5-4.1c-0.3-1.2-0.8-2.1-1.5-2.8c-0.7-0.7-1.6-1-2.7-1c-1.2,0-2.3,0.5-3,1.5
			c-0.8,1-1.2,2.6-1.2,5c0,1.7,0.4,3.2,1.2,4.2C205.9,424.7,207.1,425.3,208.7,425.3z"/>
		<path d="M233.7,430.2l0.7,0.5c-0.5,1-1,1.9-1.7,2.7c-0.6,0.8-1.4,1.5-2.3,1.9c-0.9,0.5-2.1,0.7-3.4,0.7c-1.6,0-2.9-0.4-4.1-1.1
			c-1.1-0.7-2-1.8-2.6-3.1c-0.6-1.3-0.9-2.9-0.9-4.6c0-2,0.3-3.7,1-5.1c0.7-1.4,1.7-2.6,2.9-3.4c1.3-0.8,2.8-1.2,4.7-1.2
			c1.8,0,3.2,0.4,4.3,1.2c1,0.8,1.5,1.7,1.5,2.8c0,0.5-0.1,1-0.4,1.3c-0.3,0.3-0.7,0.4-1.2,0.4c-0.6,0-1-0.1-1.3-0.4
			c-0.3-0.3-0.5-0.6-0.7-1.1c-0.2-0.4-0.4-0.8-0.6-1.3c-0.2-0.4-0.5-0.8-0.8-1.1c-0.3-0.3-0.8-0.4-1.5-0.4c-1.6,0-2.8,0.6-3.6,1.7
			c-0.9,1.1-1.3,2.7-1.3,4.9c0,2.3,0.5,4.1,1.4,5.6s2.4,2.2,4.4,2.2c1.2,0,2.3-0.2,3-0.7C232,432.1,232.8,431.3,233.7,430.2z"/>
		<path d="M249.6,435.8h-3.4v-5.9h-10.6v-2.4l11.6-15.8h2.3v15.6h3.9v2.6h-3.9V435.8z M237.7,427.1v0.1h8.5v-11.5H246L237.7,427.1z"
			/>
		<path d="M268.5,435.8h-3.4v-5.9h-10.6v-2.4l11.6-15.8h2.3v15.6h3.9v2.6h-3.9V435.8z M256.6,427.1v0.1h8.5v-11.5h-0.2L256.6,427.1z
			"/>
	</g>
</g>
<g>
	<g class="st7">
		<path d="M166.7,977.5h-6.9v-1c0.6,0,1.1-0.1,1.5-0.3c0.4-0.2,0.7-0.6,1.1-1.2c0.3-0.6,0.8-1.5,1.3-2.7l7-16.1h1.3l7.8,17.4
			c0.5,1,0.9,1.8,1.4,2.2s1.1,0.6,2,0.6v1h-8.8v-1c0.3,0,0.7,0,1-0.1c0.3,0,0.6-0.1,0.9-0.3c0.2-0.2,0.4-0.4,0.4-0.8
			c0-0.2,0-0.5-0.1-0.8c-0.1-0.3-0.2-0.7-0.4-1.2l-1.4-3.2l-0.2-0.6l-3.7-9.3h-0.1l-3.8,9.3l-0.2,0.6l-1.6,3.7
			c-0.1,0.3-0.2,0.5-0.2,0.8c-0.1,0.2-0.1,0.5-0.1,0.8c0,0.4,0.2,0.7,0.5,0.9c0.3,0.1,0.9,0.2,1.7,0.2V977.5z M175.1,970.5H166
			l0.5-1.3h8.1L175.1,970.5z"/>
		<path d="M185.7,978h-1l-0.3-6.9h1c0.4,1.5,0.9,2.6,1.4,3.4c0.5,0.8,1.2,1.3,2,1.6c0.8,0.3,1.7,0.4,2.8,0.4c0.8,0,1.5-0.1,2.1-0.3
			s1-0.6,1.4-1.1c0.3-0.5,0.5-1.2,0.5-2c0-0.9-0.3-1.7-0.8-2.3c-0.5-0.6-1.2-1.2-2-1.7c-0.8-0.5-1.7-1-2.6-1.5
			c-0.9-0.5-1.7-1-2.5-1.6c-0.8-0.6-1.5-1.2-2-2c-0.5-0.8-0.8-1.7-0.8-2.8c0-1.1,0.3-2.1,0.9-2.8c0.6-0.8,1.3-1.3,2.3-1.7
			c0.9-0.4,2-0.6,3.1-0.6c1,0,1.8,0.1,2.3,0.2c0.5,0.2,1,0.3,1.3,0.5c0.3,0.2,0.6,0.3,0.9,0.3s0.5-0.1,0.6-0.2
			c0.2-0.1,0.3-0.4,0.4-0.7h0.9l0.2,6.4h-1c-0.5-1.8-1.1-3.1-1.8-3.9c-0.8-0.9-2-1.3-3.6-1.2c-1.1,0-2,0.3-2.6,0.8
			c-0.6,0.5-0.9,1.3-0.9,2.3c0,0.8,0.2,1.5,0.7,2s1.1,1.1,1.8,1.5c0.7,0.4,1.5,0.9,2.3,1.4c0.7,0.4,1.4,0.8,2.2,1.2
			c0.7,0.4,1.4,0.9,2,1.4c0.6,0.5,1.1,1.1,1.4,1.8c0.4,0.7,0.5,1.5,0.5,2.5c0,1.2-0.3,2.3-0.9,3.1c-0.6,0.9-1.4,1.5-2.4,1.9
			c-1,0.4-2.1,0.7-3.4,0.7c-1.1,0-2.1-0.1-2.8-0.2s-1.3-0.3-1.7-0.5c-0.4-0.2-0.7-0.2-1-0.2c-0.2,0-0.4,0.1-0.6,0.3
			C185.8,977.4,185.8,977.7,185.7,978z"/>
		<path d="M210.5,977.5h-9.2v-1c0.9,0,1.5-0.1,1.9-0.2c0.4-0.1,0.7-0.4,0.8-0.9c0.1-0.4,0.2-1.1,0.2-2v-13.8c0-0.9-0.2-1.5-0.6-1.8
			c-0.4-0.3-1.1-0.4-2.2-0.4v-1h8.2c1,0,2.1,0.1,3,0.2c1,0.2,1.8,0.4,2.6,0.8c0.8,0.4,1.4,0.9,1.8,1.6c0.4,0.7,0.7,1.6,0.7,2.6
			c0,1.2-0.2,2.3-0.7,3.1c-0.5,0.8-1.1,1.5-2,2s-1.7,0.9-2.8,1.1c-1,0.2-2.1,0.3-3.1,0.3c-0.3,0-0.7,0-1-0.1s-0.6-0.1-0.8-0.2v5.5
			c0,0.9,0.1,1.5,0.3,2c0.2,0.4,0.5,0.7,1,0.8c0.5,0.1,1.2,0.2,2,0.2V977.5z M208.9,967c1.2,0,2.2-0.1,3-0.4
			c0.8-0.3,1.4-0.8,1.8-1.5c0.4-0.7,0.6-1.7,0.6-2.9c0-1.5-0.4-2.6-1.3-3.3c-0.9-0.8-2.2-1.2-4-1.2c-0.3,0-0.7,0-1,0
			c-0.3,0-0.7,0.1-1,0.1v9.1c0.2,0,0.4,0,0.8,0.1C208.3,967,208.6,967,208.9,967z"/>
		<path d="M225.4,977.5h-6.9v-1c0.6,0,1.1-0.1,1.5-0.3c0.4-0.2,0.7-0.6,1.1-1.2c0.3-0.6,0.8-1.5,1.3-2.7l7-16.1h1.3l7.8,17.4
			c0.5,1,0.9,1.8,1.4,2.2s1.1,0.6,2,0.6v1H233v-1c0.3,0,0.7,0,1-0.1c0.3,0,0.6-0.1,0.9-0.3c0.2-0.2,0.4-0.4,0.4-0.8
			c0-0.2,0-0.5-0.1-0.8c-0.1-0.3-0.2-0.7-0.4-1.2l-1.4-3.2l-0.2-0.6l-3.7-9.3h-0.1l-3.8,9.3l-0.2,0.6l-1.6,3.7
			c-0.1,0.3-0.2,0.5-0.2,0.8c-0.1,0.2-0.1,0.5-0.1,0.8c0,0.4,0.2,0.7,0.5,0.9c0.3,0.1,0.9,0.2,1.7,0.2V977.5z M233.8,970.5h-9.1
			l0.5-1.3h8.1L233.8,970.5z"/>
		<path d="M252.6,977.5h-9.2v-1c0.8,0,1.5-0.1,1.9-0.2c0.4-0.1,0.7-0.4,0.8-0.8s0.2-1.1,0.2-2v-13.8c0-0.6-0.1-1.1-0.2-1.4
			s-0.4-0.6-0.8-0.7c-0.4-0.1-1.1-0.2-1.9-0.2v-1h8.1c1.6,0,3.1,0.2,4.4,0.5s2.3,0.8,3,1.6c0.7,0.8,1.1,1.8,1.1,3.2
			c0,1.2-0.3,2.2-0.8,2.9c-0.6,0.7-1.3,1.3-2.1,1.7c-0.8,0.4-1.7,0.7-2.6,0.9v0.1c0.4,0.2,0.8,0.6,1.3,1.1c0.5,0.5,1.1,1.3,1.8,2.3
			c0.7,1,1.7,2.4,2.9,4.1c0.5,0.7,1,1.2,1.5,1.3c0.5,0.2,1.1,0.3,1.9,0.3v1h-5.4c-0.9-1.3-1.6-2.4-2.2-3.3c-0.6-0.9-1.1-1.6-1.5-2.2
			c-0.4-0.6-0.8-1.1-1.1-1.6c-0.3-0.5-0.7-0.9-1-1.4c-0.3-0.5-0.6-0.8-0.9-0.9c-0.3-0.1-0.7-0.2-1.3-0.2h-0.9v5.7
			c0,0.9,0.1,1.5,0.2,2c0.2,0.4,0.5,0.7,0.9,0.8c0.5,0.1,1.2,0.2,2.1,0.2V977.5z M249.4,966.6l1.2,0c1.2-0.1,2.3-0.3,3.1-0.6
			c0.9-0.3,1.6-0.8,2.1-1.5c0.5-0.7,0.8-1.6,0.8-2.7c0-1.3-0.4-2.3-1.2-3s-2.1-1.1-3.9-1.1c-0.4,0-0.7,0-1.1,0c-0.4,0-0.7,0-1.1,0.1
			V966.6z"/>
		<path d="M270.6,977.5h-6.9v-1c0.6,0,1.1-0.1,1.5-0.3c0.4-0.2,0.7-0.6,1.1-1.2c0.3-0.6,0.8-1.5,1.3-2.7l7-16.1h1.3l7.8,17.4
			c0.5,1,0.9,1.8,1.4,2.2s1.1,0.6,2,0.6v1h-8.8v-1c0.3,0,0.7,0,1-0.1c0.3,0,0.6-0.1,0.9-0.3c0.2-0.2,0.4-0.4,0.4-0.8
			c0-0.2,0-0.5-0.1-0.8c-0.1-0.3-0.2-0.7-0.4-1.2l-1.4-3.2l-0.2-0.6l-3.7-9.3h-0.1l-3.8,9.3l-0.2,0.6l-1.6,3.7
			c-0.1,0.3-0.2,0.5-0.2,0.8c-0.1,0.2-0.1,0.5-0.1,0.8c0,0.4,0.2,0.7,0.5,0.9c0.3,0.1,0.9,0.2,1.7,0.2V977.5z M279,970.5h-9.1
			l0.5-1.3h8.1L279,970.5z"/>
		<path d="M299.3,977.9c-3.5,0-6.1-0.9-7.9-2.8c-1.8-1.9-2.6-4.5-2.6-8c0-2.4,0.5-4.4,1.4-6s2.2-2.9,3.8-3.7
			c1.6-0.8,3.4-1.3,5.5-1.3c1.2,0,2.2,0.1,2.9,0.3s1.3,0.4,1.7,0.6c0.4,0.2,0.7,0.3,1,0.3c0.3,0,0.5-0.1,0.6-0.3
			c0.1-0.2,0.3-0.5,0.5-0.8h1v7.3H306c-0.4-2.1-1.1-3.7-2.2-4.6s-2.5-1.4-4.3-1.4c-2.3,0-4.1,0.8-5.4,2.5c-1.3,1.7-1.9,3.9-1.9,6.7
			c0,3.3,0.7,5.7,2,7.3c1.3,1.6,3.2,2.4,5.5,2.4c1,0,1.9-0.1,2.6-0.4c0.7-0.3,1.4-0.7,2-1.2v-3.5c0-0.8-0.1-1.4-0.2-1.7
			s-0.4-0.7-0.8-0.8c-0.4-0.1-1-0.2-1.9-0.2v-1h8.1v1c-0.9,0-1.5,0.2-1.8,0.5s-0.4,1-0.4,2v4.6c-1.2,0.7-2.4,1.2-3.6,1.6
			C302.6,977.7,301.1,977.9,299.3,977.9z"/>
		<path d="M323,977.9c-2.9,0-5-0.7-6.4-2s-2-3.5-2-6.4v-9.3c0-0.7-0.1-1.3-0.3-1.7c-0.2-0.4-0.5-0.7-1-0.8s-1.1-0.2-2-0.2v-1h9.4v1
			c-0.9,0-1.6,0.1-2.1,0.2c-0.5,0.2-0.8,0.5-0.9,0.9c-0.2,0.4-0.2,1-0.2,1.9v9.1c0,1.4,0.2,2.6,0.6,3.5c0.4,1,1,1.7,1.9,2.2
			c0.9,0.5,2.1,0.7,3.7,0.7c2.1,0,3.7-0.5,4.6-1.5c1-1,1.4-2.6,1.4-4.8v-8.1c0-1.1-0.1-2-0.2-2.6c-0.1-0.6-0.4-1-0.9-1.2
			c-0.4-0.2-1.1-0.3-2-0.3v-1h8v1c-0.9,0-1.6,0.1-2.1,0.3c-0.4,0.2-0.7,0.6-0.8,1.2s-0.2,1.4-0.2,2.5v7.7c0,2.9-0.7,5.1-2,6.6
			C328.3,977.2,326.1,977.9,323,977.9z"/>
		<path d="M337.9,978h-1l-0.3-6.9h1c0.4,1.5,0.9,2.6,1.4,3.4c0.5,0.8,1.2,1.3,2,1.6c0.8,0.3,1.7,0.4,2.8,0.4c0.8,0,1.5-0.1,2.1-0.3
			s1-0.6,1.4-1.1c0.3-0.5,0.5-1.2,0.5-2c0-0.9-0.3-1.7-0.8-2.3c-0.5-0.6-1.2-1.2-2-1.7c-0.8-0.5-1.7-1-2.6-1.5
			c-0.9-0.5-1.7-1-2.5-1.6c-0.8-0.6-1.5-1.2-2-2c-0.5-0.8-0.8-1.7-0.8-2.8c0-1.1,0.3-2.1,0.9-2.8c0.6-0.8,1.3-1.3,2.3-1.7
			c0.9-0.4,2-0.6,3.1-0.6c1,0,1.8,0.1,2.3,0.2c0.5,0.2,1,0.3,1.3,0.5c0.3,0.2,0.6,0.3,0.9,0.3s0.5-0.1,0.6-0.2
			c0.2-0.1,0.3-0.4,0.4-0.7h0.9l0.2,6.4h-1c-0.5-1.8-1.1-3.1-1.8-3.9c-0.8-0.9-2-1.3-3.6-1.2c-1.1,0-2,0.3-2.6,0.8
			c-0.6,0.5-0.9,1.3-0.9,2.3c0,0.8,0.2,1.5,0.7,2s1.1,1.1,1.8,1.5c0.7,0.4,1.5,0.9,2.3,1.4c0.7,0.4,1.4,0.8,2.2,1.2
			c0.7,0.4,1.4,0.9,2,1.4c0.6,0.5,1.1,1.1,1.4,1.8c0.4,0.7,0.5,1.5,0.5,2.5c0,1.2-0.3,2.3-0.9,3.1c-0.6,0.9-1.4,1.5-2.4,1.9
			c-1,0.4-2.1,0.7-3.4,0.7c-1.1,0-2.1-0.1-2.8-0.2s-1.3-0.3-1.7-0.5c-0.4-0.2-0.7-0.2-1-0.2c-0.2,0-0.4,0.1-0.6,0.3
			C338,977.4,337.9,977.7,337.9,978z"/>
		<path d="M179.5,1014.4h-18.6v-1.5h18.6V1014.4z M180.3,1007.5h-18.5v-1.5h18.5V1007.5z M165.8,1021.1H164l3.6-22l1.8,0
			L165.8,1021.1z M173.7,1021.1h-1.8l3.4-22h1.8L173.7,1021.1z"/>
		<path d="M191.5,1022.7c-1.9,0-3.4-0.5-4.6-1.4c-1.2-0.9-2.1-2.1-2.7-3.7s-0.9-3.2-0.9-5c0-2.2,0.3-4.2,1-6
			c0.7-1.8,1.7-3.3,2.9-4.5c1.3-1.2,2.7-2.2,4.5-2.9c1.7-0.7,3.6-1.1,5.7-1.1l0.1,1.1c-1.8,0.2-3.4,0.8-4.9,1.7
			c-1.5,0.9-2.7,2-3.7,3.4c-1,1.4-1.7,3-2,4.8l0.3,0c0.8-0.7,1.6-1.3,2.3-1.7c0.8-0.4,1.6-0.6,2.6-0.6c2.1,0,3.8,0.7,5,2.1
			c1.2,1.4,1.9,3.3,1.9,5.7c0,2.5-0.7,4.5-2,5.9C195.8,1022,193.9,1022.7,191.5,1022.7z M191.6,1021.4c1.3,0,2.3-0.5,3-1.4
			s1.1-2.6,1.1-5c0-1.7-0.4-3.1-1.2-4.3c-0.8-1.1-2-1.7-3.5-1.7c-0.7,0-1.4,0.1-2.1,0.4c-0.6,0.3-1.2,0.8-1.6,1.4
			c-0.4,0.6-0.6,1.5-0.6,2.6c0,1.5,0.2,2.9,0.5,4.1c0.4,1.2,0.9,2.1,1.6,2.8C189.6,1021.1,190.6,1021.4,191.6,1021.4z"/>
		<path d="M216.1,1016.8l0.7,0.5c-0.5,1-1,1.9-1.7,2.7c-0.6,0.8-1.4,1.5-2.3,1.9c-0.9,0.5-2.1,0.7-3.4,0.7c-1.6,0-2.9-0.4-4.1-1.1
			c-1.1-0.7-2-1.8-2.6-3.1c-0.6-1.3-0.9-2.9-0.9-4.6c0-2,0.3-3.7,1-5.1c0.7-1.4,1.7-2.6,2.9-3.4c1.3-0.8,2.8-1.2,4.7-1.2
			c1.8,0,3.2,0.4,4.3,1.2c1,0.8,1.5,1.7,1.5,2.8c0,0.5-0.1,1-0.4,1.2c-0.3,0.3-0.7,0.4-1.2,0.4c-0.6,0-1-0.1-1.3-0.4
			c-0.3-0.3-0.5-0.6-0.7-1.1c-0.2-0.4-0.4-0.8-0.6-1.3c-0.2-0.4-0.5-0.8-0.8-1.1c-0.3-0.3-0.8-0.4-1.5-0.4c-1.6,0-2.8,0.6-3.6,1.7
			c-0.9,1.1-1.3,2.7-1.3,4.9c0,2.3,0.5,4.1,1.4,5.6c1,1.5,2.4,2.2,4.4,2.2c1.2,0,2.3-0.2,3-0.7
			C214.4,1018.6,215.2,1017.8,216.1,1016.8z"/>
		<path d="M220.8,1022.8l-0.1-1.1c1.8-0.2,3.4-0.7,4.8-1.5c1.5-0.8,2.7-1.9,3.7-3.3c1-1.4,1.6-3.1,1.9-5.1l-0.2,0
			c-0.9,0.8-1.7,1.4-2.4,1.7c-0.8,0.4-1.6,0.6-2.6,0.6c-2.1,0-3.8-0.7-5-2.1c-1.2-1.4-1.9-3.3-1.9-5.8c0-2.5,0.7-4.5,2-5.9
			c1.4-1.4,3.2-2.1,5.6-2.1c1.9,0,3.4,0.5,4.6,1.4c1.2,0.9,2,2.2,2.6,3.7c0.5,1.5,0.8,3.2,0.8,5.1c0,2.4-0.3,4.5-1,6.3
			c-0.7,1.8-1.6,3.3-2.8,4.5c-1.2,1.2-2.7,2.1-4.4,2.7C224.8,1022.4,222.9,1022.8,220.8,1022.8z M227,1011.8c1.1,0,2.1-0.3,3-1
			c0.9-0.7,1.3-1.8,1.3-3.4c0-1.6-0.2-2.9-0.5-4.1c-0.3-1.2-0.8-2.1-1.5-2.8s-1.6-1-2.7-1c-1.2,0-2.3,0.5-3,1.5
			c-0.8,1-1.2,2.7-1.2,5c0,1.7,0.4,3.2,1.2,4.2C224.3,1011.3,225.5,1011.8,227,1011.8z"/>
		<path d="M252.7,1022.3h-13.2v-1c1.8,0,3.1-0.2,3.8-0.6c0.7-0.4,1.1-1,1.1-1.9V1003c0-0.6-0.1-1.1-0.3-1.4c-0.2-0.3-0.5-0.4-1-0.4
			c-0.3,0-0.6,0-1.1,0.1c-0.5,0-0.9,0.1-1.5,0.2c-0.5,0.1-1,0.2-1.4,0.3v-1.2l7.4-2.1h1.1v20.3c0,0.9,0.4,1.6,1.1,1.9
			c0.8,0.4,2,0.6,3.8,0.6V1022.3z"/>
		<path d="M265.2,1022.7c-1.9,0-3.4-0.5-4.6-1.4c-1.2-0.9-2.1-2.1-2.7-3.7s-0.9-3.2-0.9-5c0-2.2,0.3-4.2,1-6
			c0.7-1.8,1.7-3.3,2.9-4.5c1.3-1.2,2.7-2.2,4.5-2.9c1.7-0.7,3.6-1.1,5.7-1.1l0.1,1.1c-1.8,0.2-3.4,0.8-4.9,1.7
			c-1.5,0.9-2.7,2-3.7,3.4c-1,1.4-1.7,3-2,4.8l0.3,0c0.8-0.7,1.6-1.3,2.3-1.7c0.8-0.4,1.6-0.6,2.6-0.6c2.1,0,3.8,0.7,5,2.1
			c1.2,1.4,1.9,3.3,1.9,5.7c0,2.5-0.7,4.5-2,5.9C269.5,1022,267.6,1022.7,265.2,1022.7z M265.4,1021.4c1.3,0,2.3-0.5,3-1.4
			s1.1-2.6,1.1-5c0-1.7-0.4-3.1-1.2-4.3c-0.8-1.1-2-1.7-3.5-1.7c-0.7,0-1.4,0.1-2.1,0.4c-0.6,0.3-1.2,0.8-1.6,1.4
			c-0.4,0.6-0.6,1.5-0.6,2.6c0,1.5,0.2,2.9,0.5,4.1c0.4,1.2,0.9,2.1,1.6,2.8C263.4,1021.1,264.3,1021.4,265.4,1021.4z"/>
		<path d="M283,1022.6h-3l9-20.8h-8.5c-0.7,0-1.3,0.1-1.6,0.2c-0.4,0.1-0.7,0.4-0.9,0.8c-0.2,0.4-0.5,1-0.9,1.8l-1.2-0.1l1.5-5.7
			h14.6v1.2L283,1022.6z"/>
	</g>
</g>
</svg>
