<?xml version="1.0" encoding="utf-8"?>
<!-- Generator: Adobe Illustrator 27.3.1, SVG Export Plug-In . SVG Version: 6.00 Build 0)  -->
<svg version="1.1" id="Layer_1" xmlns="http://www.w3.org/2000/svg" xmlns:xlink="http://www.w3.org/1999/xlink" x="0px" y="0px"
	 viewBox="0 0 1920 1080" style="enable-background:new 0 0 1920 1080;" xml:space="preserve">
<style type="text/css">
	.st0{fill:#EFEFEF;}
	.st1{fill:#2D2B28;}
	.st2{fill:#F3E7C5;}
</style>
<rect x="484.7" y="41.9" class="st0" width="950.6" height="207.9"/>
<rect x="585.7" y="91" transform="matrix(-1.836970e-16 1 -1 -1.836970e-16 786.3892 -494.6822)" class="st1" width="109.7" height="109.7"/>
<g>
	<g>
		<path d="M791,135.8c-2,0-3.7-0.4-5-1.2s-2.4-2-3.1-3.4c-0.7-1.5-1-3.1-1-4.9c0-2.1,0.4-3.8,1.2-5.3c0.8-1.4,1.9-2.5,3.4-3.3
			c1.4-0.8,3.1-1.1,4.9-1.1c1,0,1.8,0.1,2.5,0.3s1.1,0.3,1.5,0.5c0.4,0.2,0.7,0.3,0.9,0.3s0.4-0.1,0.5-0.3c0.1-0.2,0.3-0.4,0.5-0.7
			h0.9v6.5h-1c-0.3-1.9-1-3.2-2-4c-1-0.8-2.2-1.2-3.7-1.2c-2.1,0-3.7,0.7-4.8,2.2c-1.1,1.5-1.7,3.5-1.7,6c0,1.9,0.3,3.4,0.9,4.6
			c0.6,1.2,1.4,2.1,2.5,2.6c1,0.6,2.2,0.9,3.6,0.9c1.3,0,2.5-0.2,3.5-0.7c1-0.5,1.9-1.2,2.7-2l0.7,0.6c-0.5,0.8-1.1,1.4-1.9,2
			c-0.7,0.6-1.6,1.1-2.5,1.4C793.4,135.6,792.3,135.8,791,135.8z"/>
		<path d="M807.4,135.7c-2,0-3.6-0.6-4.8-1.9c-1.2-1.2-1.7-3-1.7-5.3c0-1.4,0.3-2.6,0.8-3.6c0.5-1,1.3-1.8,2.3-2.4
			c1-0.6,2.1-0.9,3.4-0.9c2,0,3.6,0.6,4.7,1.8c1.2,1.2,1.7,2.9,1.7,5c0,1.6-0.3,2.9-0.8,4c-0.6,1.1-1.3,1.9-2.3,2.4
			C809.8,135.5,808.6,135.7,807.4,135.7z M807.5,134.6c0.8,0,1.5-0.2,2-0.5c0.5-0.4,1-1,1.2-1.8c0.3-0.9,0.4-2.1,0.4-3.6
			c0-1.7-0.3-3.2-1-4.2s-1.6-1.6-2.9-1.6c-1.1,0-2,0.5-2.7,1.4c-0.7,0.9-1,2.3-1,4.1c0,2.3,0.3,3.9,1,4.9
			C805.3,134.1,806.3,134.6,807.5,134.6z"/>
		<path d="M822.4,135.5h-6.7v-0.8c0.7,0,1.1-0.1,1.4-0.2c0.3-0.1,0.5-0.3,0.5-0.6s0.1-0.7,0.1-1.2v-8c0-0.5-0.1-0.8-0.3-1
			c-0.2-0.2-0.5-0.2-0.9-0.2c-0.3,0-0.5,0-0.8,0.1v-0.8l3.7-0.8h0.7l0,2.6l0.1,0.6v7.6c0,0.5,0,0.9,0.1,1.2c0.1,0.3,0.3,0.5,0.6,0.6
			c0.3,0.1,0.8,0.2,1.5,0.2V135.5z M830.9,135.5h-6.7v-0.8c0.7,0,1.2-0.1,1.5-0.2c0.3-0.1,0.5-0.3,0.6-0.6s0.1-0.7,0.1-1.2v-5.1
			c0-1.1-0.1-2-0.4-2.6c-0.3-0.6-0.6-0.9-1-1.1c-0.4-0.2-0.8-0.3-1.3-0.3c-0.6,0-1.1,0.1-1.5,0.3c-0.4,0.2-0.8,0.5-1.2,0.8
			c-0.4,0.3-0.7,0.6-1,0.9l-0.2-1.4h0.4c0.8-0.7,1.5-1.2,2.3-1.7c0.7-0.5,1.5-0.7,2.4-0.7c1.3,0,2.3,0.4,2.9,1.3
			c0.6,0.9,1,2.1,1,3.7v5.9c0,0.5,0,0.9,0.1,1.2c0.1,0.3,0.3,0.5,0.6,0.6c0.3,0.1,0.8,0.2,1.4,0.2V135.5z"/>
		<path d="M840.1,132.9l0.6,0.5c-0.4,0.5-0.7,0.9-1,1.3c-0.3,0.4-0.7,0.6-1.1,0.8c-0.4,0.2-0.9,0.3-1.5,0.3c-1,0-1.7-0.3-2.1-0.8
			c-0.4-0.6-0.7-1.5-0.7-2.7v-8.8h-1.6v-0.7c0.7-0.4,1.3-1,1.8-1.7c0.5-0.7,1-1.7,1.5-2.9h0.7v4h3.3v1.2h-3.3v8c0,1,0.1,1.7,0.3,2.1
			c0.2,0.4,0.6,0.6,1.1,0.6c0.5,0,0.8-0.1,1.1-0.3C839.4,133.6,839.7,133.3,840.1,132.9z"/>
		<path d="M848.8,135.5h-7.3v-0.8c0.6,0,1.1-0.1,1.4-0.2c0.3-0.1,0.5-0.3,0.6-0.6c0.1-0.3,0.1-0.7,0.1-1.2v-7.8c0-0.5,0-0.9-0.1-1.2
			c-0.1-0.3-0.4-0.4-0.9-0.4c-0.3,0-0.6,0-0.9,0.1v-0.8l3.6-0.9h0.7v2.9h0.1c0.5-0.7,0.9-1.3,1.3-1.7c0.4-0.5,0.8-0.8,1.1-1
			c0.4-0.2,0.8-0.3,1.3-0.3c0.6,0,1,0.1,1.3,0.4c0.3,0.3,0.4,0.7,0.4,1.2c0,0.5-0.1,0.9-0.4,1.2c-0.3,0.2-0.6,0.4-0.9,0.4
			c-0.3,0-0.6-0.1-0.8-0.2c-0.2-0.2-0.5-0.3-0.6-0.5c-0.2-0.2-0.3-0.2-0.4-0.2c-0.3,0-0.7,0.2-1.1,0.7c-0.4,0.5-0.8,1-1.2,1.6v6.5
			c0,0.6,0.1,1,0.2,1.3c0.2,0.3,0.4,0.5,0.8,0.6c0.4,0.1,1,0.1,1.7,0.1V135.5z"/>
		<path d="M856.3,135.7c-1.1,0-2-0.3-2.6-0.9s-0.9-1.4-0.9-2.3c0-0.8,0.2-1.4,0.5-1.9c0.4-0.5,0.8-1,1.4-1.3
			c0.6-0.4,1.2-0.7,1.9-0.9c0.7-0.2,1.4-0.5,2-0.6c0.7-0.2,1.2-0.3,1.7-0.5V126c0-1.2-0.2-2.1-0.7-2.6c-0.4-0.5-1.1-0.8-2-0.8
			c-0.8,0-1.4,0.2-1.6,0.5s-0.3,0.9-0.3,1.8c0,0.4-0.1,0.8-0.3,1s-0.5,0.3-0.9,0.3c-0.3,0-0.6-0.1-0.8-0.3c-0.3-0.2-0.4-0.6-0.4-1
			c0-0.5,0.2-1,0.6-1.5c0.4-0.5,1-0.9,1.8-1.2c0.8-0.3,1.7-0.5,2.7-0.5c1.6,0,2.7,0.4,3.4,1.1s1,1.8,1,3.3v6.4c0,0.6,0.1,1,0.2,1.1
			c0.1,0.2,0.4,0.3,0.7,0.3c0.3,0,0.5-0.1,0.7-0.2s0.4-0.3,0.6-0.5l0.4,0.5c-0.5,0.7-0.9,1.2-1.4,1.5c-0.4,0.3-1,0.5-1.8,0.5
			c-0.7,0-1.1-0.2-1.3-0.6c-0.2-0.4-0.4-0.9-0.5-1.6l-0.2-0.3v-4.9c-0.9,0.2-1.7,0.5-2.5,0.7c-0.8,0.3-1.4,0.7-1.9,1.1
			c-0.5,0.5-0.7,1.1-0.7,1.8c0,0.7,0.2,1.3,0.6,1.7c0.4,0.4,0.9,0.6,1.5,0.6c0.5,0,1-0.1,1.6-0.4c0.6-0.2,1.1-0.6,1.6-1.1l0.2,1
			h-0.3c-0.4,0.4-0.9,0.7-1.3,1s-0.9,0.5-1.3,0.7S856.9,135.7,856.3,135.7z"/>
		<path d="M866.9,135.7l-0.1-4.9h0.8c0.3,1.5,0.8,2.5,1.4,3.1s1.4,0.9,2.5,0.9c0.7,0,1.3-0.1,1.8-0.4c0.5-0.3,0.7-0.8,0.7-1.4
			c0-0.5-0.1-0.8-0.2-1.1c-0.2-0.3-0.5-0.6-0.9-0.9c-0.5-0.3-1.2-0.7-2.1-1.1c-0.9-0.4-1.6-0.9-2.2-1.3c-0.6-0.4-1-0.9-1.2-1.3
			c-0.3-0.5-0.4-1.1-0.4-1.8c0-1.2,0.4-2.1,1.3-2.7s1.9-0.9,3.2-0.9c0.7,0,1.3,0.1,1.8,0.2c0.5,0.2,0.9,0.3,1.2,0.5h0l0.5-0.6h0.6
			l0.1,4.3h-0.8c-0.3-1.3-0.7-2.3-1.3-2.8c-0.6-0.5-1.3-0.8-2.2-0.8c-0.7,0-1.2,0.2-1.7,0.5s-0.7,0.8-0.7,1.4c0,0.5,0.3,1,0.8,1.5
			s1.4,1,2.6,1.6c0.9,0.5,1.6,0.9,2.2,1.3c0.6,0.4,1.1,0.9,1.4,1.4c0.3,0.5,0.5,1.1,0.5,1.8c0,0.9-0.2,1.6-0.7,2.1
			c-0.4,0.5-1,0.9-1.8,1.2c-0.7,0.2-1.6,0.4-2.4,0.4c-0.8,0-1.5-0.1-2-0.3c-0.5-0.2-0.9-0.3-1.3-0.5h-0.1l-0.6,0.7H866.9z"/>
		<path d="M885.7,132.9l0.6,0.5c-0.4,0.5-0.7,0.9-1,1.3c-0.3,0.4-0.7,0.6-1.1,0.8c-0.4,0.2-0.9,0.3-1.5,0.3c-1,0-1.7-0.3-2.1-0.8
			c-0.4-0.6-0.7-1.5-0.7-2.7v-8.8h-1.6v-0.7c0.7-0.4,1.3-1,1.8-1.7c0.5-0.7,1-1.7,1.5-2.9h0.7v4h3.3v1.2h-3.3v8c0,1,0.1,1.7,0.3,2.1
			c0.2,0.4,0.6,0.6,1.1,0.6c0.5,0,0.8-0.1,1.1-0.3C885,133.6,885.3,133.3,885.7,132.9z"/>
		<path d="M897,125.3c-0.6,0-1-0.2-1.3-0.5c-0.3-0.3-0.4-0.7-0.4-1.2c0-0.5,0.2-0.9,0.5-1.3c0.3-0.4,0.7-0.5,1.3-0.5
			c0.6,0,1,0.2,1.3,0.5c0.3,0.4,0.5,0.8,0.5,1.3c0,0.4-0.2,0.8-0.5,1.2C898,125.2,897.5,125.3,897,125.3z M897,135.7
			c-0.6,0-1-0.2-1.3-0.5c-0.3-0.3-0.4-0.7-0.4-1.2c0-0.5,0.2-0.9,0.5-1.3c0.3-0.4,0.7-0.5,1.3-0.5c0.6,0,1,0.2,1.3,0.5
			c0.3,0.4,0.5,0.8,0.5,1.3c0,0.4-0.2,0.8-0.5,1.1C898,135.5,897.5,135.7,897,135.7z"/>
		<path d="M919.5,135.5h-10.1v-0.8c1.4,0,2.3-0.1,2.9-0.4c0.6-0.3,0.8-0.8,0.8-1.5v-12c0-0.5-0.1-0.8-0.2-1.1
			c-0.1-0.2-0.4-0.3-0.8-0.3c-0.2,0-0.5,0-0.8,0.1c-0.3,0-0.7,0.1-1.1,0.2s-0.7,0.1-1,0.2v-0.9l5.6-1.6h0.8v15.5
			c0,0.7,0.3,1.2,0.9,1.5s1.5,0.4,2.9,0.4V135.5z"/>
		<path d="M934,135.5h-11.4v-1l4.4-4.3c1-1,1.8-1.8,2.4-2.6s1.1-1.6,1.4-2.4c0.3-0.8,0.5-1.7,0.5-2.7c0-1.1-0.3-1.9-1-2.5
			c-0.6-0.6-1.5-1-2.7-1c-0.9,0-1.8,0.2-2.4,0.6c-0.7,0.4-1.3,1.1-1.8,2.2l-0.7-0.3c0.4-1.4,1.2-2.5,2.1-3.2c1-0.8,2.2-1.1,3.6-1.1
			c1.1,0,2.1,0.2,2.9,0.6c0.8,0.4,1.5,1,2,1.7c0.5,0.7,0.7,1.6,0.7,2.6c0,0.8-0.2,1.6-0.5,2.4c-0.4,0.8-0.9,1.6-1.6,2.4
			s-1.6,1.7-2.6,2.8l-3.8,3.6v0.1l2-0.1h4c0.8,0,1.3-0.2,1.6-0.5c0.3-0.3,0.6-0.9,1-1.8h0.8L934,135.5z"/>
		<path d="M939.4,135.7c-0.6,0-1-0.2-1.3-0.5c-0.3-0.3-0.4-0.7-0.4-1.2c0-0.5,0.2-0.9,0.5-1.3c0.3-0.4,0.7-0.5,1.3-0.5
			c0.6,0,1,0.2,1.3,0.5c0.3,0.4,0.5,0.8,0.5,1.3c0,0.4-0.2,0.8-0.5,1.1C940.4,135.5,940,135.7,939.4,135.7z"/>
		<path d="M948,135.8c-1.1,0-2-0.1-2.5-0.4c-0.6-0.3-0.8-0.7-0.8-1.2c0-0.3,0.1-0.6,0.3-0.9c0.2-0.2,0.5-0.4,0.9-0.4
			c0.3,0,0.6,0.1,0.9,0.2s0.6,0.3,0.9,0.5c0.3,0.2,0.6,0.3,1,0.5c0.4,0.1,0.8,0.2,1.2,0.2c0.7,0,1.3-0.1,1.9-0.4s1.1-0.7,1.4-1.3
			c0.4-0.6,0.5-1.4,0.5-2.4c0-1.1-0.2-1.9-0.6-2.6c-0.4-0.6-1-1.1-1.7-1.5c-0.7-0.3-1.5-0.6-2.4-0.7c-0.9-0.1-1.8-0.2-2.8-0.2
			l-0.3-0.4l1.8-7.4h8l-0.5,2.3h-6.8l-0.8,3.2c1,0.1,1.9,0.2,2.7,0.4c0.8,0.2,1.6,0.4,2.3,0.7c0.7,0.3,1.3,0.7,1.8,1.1
			c0.5,0.5,0.9,1,1.2,1.7c0.3,0.7,0.4,1.4,0.4,2.3c0,1.1-0.2,2.1-0.6,2.9c-0.4,0.8-0.9,1.5-1.6,2.1c-0.7,0.5-1.5,1-2.5,1.2
			C950.2,135.7,949.2,135.8,948,135.8z"/>
		<path d="M790.4,169.5h-8.9v-0.9c0.8,0,1.4-0.1,1.8-0.2c0.4-0.1,0.7-0.4,0.8-0.8c0.1-0.4,0.2-1,0.2-1.8v-11.6
			c0-0.8-0.1-1.3-0.2-1.7c-0.1-0.4-0.4-0.6-0.8-0.7c-0.4-0.1-1-0.2-1.8-0.2v-0.9h7.8c1.7,0,3.1,0.2,4.2,0.5c1,0.4,1.8,0.9,2.3,1.5
			c0.5,0.7,0.7,1.5,0.7,2.4c0,1.3-0.4,2.2-1.2,2.9c-0.8,0.6-1.8,1.1-3,1.4v0.1c0.8,0.1,1.6,0.4,2.4,0.7c0.8,0.4,1.4,0.9,1.9,1.5
			c0.5,0.7,0.8,1.5,0.8,2.5c0,1.6-0.6,2.8-1.8,3.7C794.3,169.1,792.6,169.5,790.4,169.5z M787,152.1v7.2h2c1.8,0,3-0.3,3.6-0.9
			c0.7-0.6,1-1.5,1-2.8c0-1.1-0.4-2-1.1-2.6c-0.7-0.6-2-0.9-3.8-0.9c-0.3,0-0.6,0-0.9,0C787.5,152,787.2,152,787,152.1z M789,168.5
			c0.6,0,1.2,0,1.9-0.1c0.6-0.1,1.2-0.2,1.7-0.5c0.5-0.3,0.9-0.6,1.2-1.2c0.3-0.5,0.5-1.2,0.5-2.1c0-1.1-0.3-1.9-0.8-2.5
			c-0.5-0.6-1.2-1-2-1.2c-0.8-0.2-1.7-0.4-2.6-0.4h-2v8c0.3,0,0.7,0,1,0.1C788.3,168.5,788.7,168.5,789,168.5z"/>
		<path d="M805.5,169.8c-1.2,0-2.2-0.3-3.2-0.8s-1.7-1.3-2.2-2.4c-0.5-1.1-0.8-2.3-0.8-3.8c0-1.6,0.3-2.9,0.8-3.9
			c0.6-1,1.3-1.8,2.2-2.3s2-0.8,3.1-0.8c1.6,0,2.9,0.5,3.8,1.6c1,1.1,1.5,2.6,1.6,4.6h-9.4l0-1.1h6.7c0-0.7-0.1-1.4-0.4-2
			c-0.2-0.6-0.6-1.1-1-1.5c-0.4-0.4-1-0.6-1.7-0.6c-1.1,0-2,0.4-2.5,1.3c-0.6,0.9-0.8,2.1-0.8,3.6c0,1.3,0.2,2.4,0.6,3.3
			c0.4,0.9,1,1.5,1.7,1.9c0.7,0.4,1.4,0.6,2.2,0.6c0.8,0,1.4-0.1,1.9-0.3c0.5-0.2,0.9-0.5,1.3-0.8c0.3-0.3,0.7-0.7,1-1.1l0.6,0.4
			c-0.3,0.5-0.5,1-0.9,1.5c-0.3,0.5-0.7,0.9-1.1,1.3c-0.4,0.4-0.9,0.6-1.5,0.9C807,169.7,806.3,169.8,805.5,169.8z"/>
		<path d="M813.1,169.8l-0.1-4.9h0.8c0.3,1.5,0.8,2.5,1.4,3.1s1.4,0.9,2.5,0.9c0.7,0,1.3-0.1,1.8-0.4c0.5-0.3,0.7-0.8,0.7-1.4
			c0-0.5-0.1-0.8-0.2-1.1c-0.2-0.3-0.5-0.6-0.9-0.9c-0.5-0.3-1.2-0.7-2.1-1.1c-0.9-0.4-1.6-0.9-2.2-1.3c-0.6-0.4-1-0.9-1.2-1.3
			c-0.3-0.5-0.4-1.1-0.4-1.8c0-1.2,0.4-2.1,1.3-2.7s1.9-0.9,3.2-0.9c0.7,0,1.3,0.1,1.8,0.2c0.5,0.2,0.9,0.3,1.2,0.5h0l0.5-0.6h0.6
			l0.1,4.3h-0.8c-0.3-1.3-0.7-2.3-1.3-2.8c-0.6-0.5-1.3-0.8-2.2-0.8c-0.7,0-1.2,0.2-1.7,0.5s-0.7,0.8-0.7,1.4c0,0.5,0.3,1,0.8,1.5
			s1.4,1,2.6,1.6c0.9,0.5,1.6,0.9,2.2,1.3c0.6,0.4,1.1,0.9,1.4,1.4c0.3,0.5,0.5,1.1,0.5,1.8c0,0.9-0.2,1.6-0.7,2.1
			c-0.4,0.5-1,0.9-1.8,1.2c-0.7,0.2-1.6,0.4-2.4,0.4c-0.8,0-1.5-0.1-2-0.3c-0.5-0.2-0.9-0.3-1.3-0.5h-0.1l-0.6,0.7H813.1z"/>
		<path d="M831.8,167l0.6,0.5c-0.4,0.5-0.7,0.9-1,1.3c-0.3,0.4-0.7,0.6-1.1,0.8c-0.4,0.2-0.9,0.3-1.5,0.3c-1,0-1.7-0.3-2.1-0.8
			c-0.4-0.6-0.7-1.5-0.7-2.7v-8.8h-1.6v-0.7c0.7-0.4,1.3-1,1.8-1.7c0.5-0.7,1-1.7,1.5-2.9h0.7v4h3.3v1.2h-3.3v8c0,1,0.1,1.7,0.3,2.1
			c0.2,0.4,0.6,0.6,1.1,0.6c0.5,0,0.8-0.1,1.1-0.3C831.2,167.7,831.5,167.4,831.8,167z"/>
		<path d="M848.9,169.5h-8.5v-0.9c0.8,0,1.4-0.1,1.8-0.2c0.4-0.1,0.7-0.3,0.8-0.7c0.1-0.4,0.2-0.9,0.2-1.6v-12.2
			c0-0.7-0.1-1.2-0.3-1.5c-0.2-0.3-0.5-0.6-0.9-0.7c-0.4-0.1-1-0.2-1.7-0.2v-0.9h15.5l0.2,4.7h-0.9c-0.1-0.7-0.3-1.2-0.4-1.7
			c-0.1-0.4-0.4-0.8-0.7-1c-0.3-0.2-0.7-0.4-1.3-0.5c-0.6-0.1-1.3-0.2-2.3-0.2h-4.6v7.2h3.4c0.8,0,1.5-0.1,1.9-0.2
			c0.4-0.2,0.8-0.4,0.9-0.8c0.2-0.4,0.2-1,0.2-1.7h1v6.6h-1c0-0.8-0.1-1.4-0.2-1.7c-0.2-0.4-0.5-0.6-0.9-0.8
			c-0.4-0.1-1.1-0.2-1.9-0.2h-3.4v6c0,0.6,0.1,1.1,0.3,1.4c0.2,0.3,0.5,0.5,0.9,0.7c0.4,0.1,1,0.2,1.8,0.2V169.5z"/>
		<path d="M863.9,169.8c-2,0-3.6-0.6-4.8-1.9c-1.2-1.2-1.7-3-1.7-5.3c0-1.4,0.3-2.6,0.8-3.6c0.5-1,1.3-1.8,2.3-2.4
			c1-0.6,2.1-0.9,3.4-0.9c2,0,3.6,0.6,4.7,1.8c1.2,1.2,1.7,2.9,1.7,5c0,1.6-0.3,2.9-0.8,4c-0.6,1.1-1.3,1.9-2.3,2.4
			C866.3,169.5,865.1,169.8,863.9,169.8z M864,168.7c0.8,0,1.5-0.2,2-0.5c0.5-0.4,1-1,1.2-1.8c0.3-0.9,0.4-2.1,0.4-3.6
			c0-1.7-0.3-3.2-1-4.2s-1.6-1.6-2.9-1.6c-1.1,0-2,0.5-2.7,1.4c-0.7,0.9-1,2.3-1,4.1c0,2.3,0.3,3.9,1,4.9
			C861.8,168.2,862.8,168.7,864,168.7z"/>
		<path d="M879.4,169.5h-7.3v-0.8c0.6,0,1.1-0.1,1.4-0.2c0.3-0.1,0.5-0.3,0.6-0.6c0.1-0.3,0.1-0.7,0.1-1.2V159c0-0.5,0-0.9-0.1-1.2
			c-0.1-0.3-0.4-0.4-0.9-0.4c-0.3,0-0.6,0-0.9,0.1v-0.8l3.6-0.9h0.7v2.9h0.1c0.5-0.7,0.9-1.3,1.3-1.7c0.4-0.5,0.8-0.8,1.1-1
			c0.4-0.2,0.8-0.3,1.3-0.3c0.6,0,1,0.1,1.3,0.4c0.3,0.3,0.4,0.7,0.4,1.2c0,0.5-0.1,0.9-0.4,1.2c-0.3,0.2-0.6,0.4-0.9,0.4
			c-0.3,0-0.6-0.1-0.8-0.2c-0.2-0.2-0.5-0.3-0.6-0.5c-0.2-0.2-0.3-0.2-0.4-0.2c-0.3,0-0.7,0.2-1.1,0.7c-0.4,0.5-0.8,1-1.2,1.6v6.5
			c0,0.6,0.1,1,0.2,1.3c0.2,0.3,0.4,0.5,0.8,0.6c0.4,0.1,1,0.1,1.7,0.1V169.5z"/>
		<path d="M891.4,170h-0.9l-0.3-6.1h0.9c0.3,1.3,0.8,2.3,1.2,3c0.5,0.7,1,1.2,1.7,1.4c0.7,0.3,1.5,0.4,2.5,0.4
			c0.7,0,1.4-0.1,1.9-0.3s0.9-0.5,1.2-1c0.3-0.4,0.4-1,0.4-1.7c0-0.8-0.2-1.5-0.7-2.1c-0.5-0.5-1.1-1-1.8-1.5
			c-0.7-0.4-1.5-0.9-2.3-1.3c-0.8-0.4-1.5-0.9-2.2-1.4c-0.7-0.5-1.3-1.1-1.8-1.8s-0.7-1.5-0.7-2.5c0-1,0.3-1.8,0.8-2.5
			c0.5-0.7,1.2-1.2,2-1.5c0.8-0.4,1.8-0.5,2.8-0.5c0.9,0,1.6,0.1,2.1,0.2c0.5,0.1,0.9,0.3,1.1,0.4c0.3,0.2,0.5,0.2,0.8,0.2
			s0.4-0.1,0.6-0.2c0.1-0.1,0.3-0.3,0.3-0.6h0.8l0.2,5.7h-0.9c-0.4-1.6-0.9-2.7-1.6-3.5c-0.7-0.8-1.8-1.1-3.2-1.1
			c-1,0-1.8,0.2-2.3,0.7c-0.5,0.4-0.8,1.1-0.8,2c0,0.7,0.2,1.3,0.6,1.8s0.9,1,1.6,1.3c0.7,0.4,1.3,0.8,2.1,1.2
			c0.6,0.4,1.3,0.7,1.9,1.1c0.6,0.4,1.2,0.8,1.8,1.2s1,1,1.3,1.6c0.3,0.6,0.5,1.3,0.5,2.2c0,1.1-0.3,2-0.8,2.8
			c-0.5,0.8-1.2,1.3-2.1,1.7c-0.9,0.4-1.9,0.6-3,0.6c-1,0-1.8-0.1-2.5-0.2c-0.6-0.1-1.1-0.3-1.5-0.4s-0.7-0.2-0.9-0.2
			c-0.2,0-0.4,0.1-0.5,0.3C891.5,169.5,891.4,169.7,891.4,170z"/>
		<path d="M911.4,169.5h-6.6v-0.8c0.6,0,1.1-0.1,1.4-0.2c0.3-0.1,0.5-0.3,0.6-0.6c0.1-0.3,0.1-0.7,0.1-1.3v-8c0-0.5-0.1-0.9-0.3-1
			c-0.2-0.2-0.5-0.3-0.9-0.3c-0.2,0-0.5,0-0.8,0.1v-0.8l3.6-0.8h0.7v2.6l0.1,0.6v7.7c0,0.5,0.1,0.9,0.2,1.2c0.1,0.3,0.3,0.5,0.6,0.6
			c0.3,0.1,0.8,0.2,1.4,0.2V169.5z M919.8,169.5h-6.9v-0.8c0.7,0,1.2-0.1,1.5-0.2c0.3-0.1,0.5-0.4,0.6-0.7c0.1-0.4,0.1-0.9,0.1-1.5
			v-5.6c0-1.2-0.2-2-0.7-2.4c-0.4-0.4-1-0.6-1.7-0.6c-0.5,0-1.1,0.1-1.5,0.3s-0.9,0.5-1.3,0.8c-0.4,0.3-0.7,0.6-1,0.9l-0.2-1.4h0.4
			c0.8-0.7,1.6-1.2,2.3-1.7c0.7-0.5,1.6-0.7,2.6-0.7c0.9,0,1.6,0.2,2.1,0.7c0.5,0.5,0.9,1.1,1.2,1.8c0,0.1,0.1,0.1,0.1,0.2
			c0,0.1,0,0.1,0.1,0.2v7.5c0,0.6,0,1.1,0.1,1.5c0.1,0.4,0.3,0.6,0.6,0.8c0.3,0.1,0.8,0.2,1.5,0.2V169.5z M927.9,169.5h-6.6v-0.8
			c0.7,0,1.1-0.1,1.4-0.3s0.5-0.4,0.5-0.8c0.1-0.4,0.1-0.8,0.1-1.4v-5.5c0-0.9-0.1-1.5-0.3-2c-0.2-0.5-0.5-0.8-0.9-1
			c-0.4-0.2-0.8-0.3-1.3-0.3c-0.6,0-1.3,0.2-1.9,0.7c-0.6,0.4-1.2,0.9-1.7,1.3l-0.3-1.4h0.4c0.8-0.8,1.6-1.4,2.3-1.8
			c0.8-0.4,1.5-0.6,2.3-0.6c1.1,0,2.1,0.4,2.7,1.1c0.7,0.7,1,1.9,1,3.6v5.8c0,0.6,0,1.1,0.1,1.4s0.3,0.6,0.6,0.8
			c0.3,0.2,0.8,0.2,1.4,0.2V169.5z"/>
		<path d="M933.2,169.7c-1.1,0-2-0.3-2.6-0.9s-0.9-1.4-0.9-2.3c0-0.8,0.2-1.4,0.5-1.9c0.4-0.5,0.8-1,1.4-1.3
			c0.6-0.4,1.2-0.7,1.9-0.9c0.7-0.2,1.4-0.5,2-0.6c0.7-0.2,1.2-0.3,1.7-0.5v-1.2c0-1.2-0.2-2.1-0.7-2.6c-0.4-0.5-1.1-0.8-2-0.8
			c-0.8,0-1.4,0.2-1.6,0.5s-0.3,0.9-0.3,1.8c0,0.4-0.1,0.8-0.3,1s-0.5,0.3-0.9,0.3c-0.3,0-0.6-0.1-0.8-0.3c-0.3-0.2-0.4-0.6-0.4-1
			c0-0.5,0.2-1,0.6-1.5c0.4-0.5,1-0.9,1.8-1.2c0.8-0.3,1.7-0.5,2.7-0.5c1.6,0,2.7,0.4,3.4,1.1s1,1.8,1,3.3v6.4c0,0.6,0.1,1,0.2,1.1
			c0.1,0.2,0.4,0.3,0.7,0.3c0.3,0,0.5-0.1,0.7-0.2s0.4-0.3,0.6-0.5l0.4,0.5c-0.5,0.7-0.9,1.2-1.4,1.5c-0.4,0.3-1,0.5-1.8,0.5
			c-0.7,0-1.1-0.2-1.3-0.6c-0.2-0.4-0.4-0.9-0.5-1.6l-0.2-0.3v-4.9c-0.9,0.2-1.7,0.5-2.5,0.7c-0.8,0.3-1.4,0.7-1.9,1.1
			c-0.5,0.5-0.7,1.1-0.7,1.8c0,0.7,0.2,1.3,0.6,1.7c0.4,0.4,0.9,0.6,1.5,0.6c0.5,0,1-0.1,1.6-0.4c0.6-0.2,1.1-0.6,1.6-1.1l0.2,1
			h-0.3c-0.4,0.4-0.9,0.7-1.3,1s-0.9,0.5-1.3,0.7S933.8,169.7,933.2,169.7z"/>
		<path d="M950.1,169.5h-6.7v-0.8c0.6,0,1.1-0.1,1.4-0.2c0.3-0.1,0.5-0.3,0.5-0.6c0.1-0.3,0.1-0.7,0.1-1.2v-14.3
			c0-0.6-0.1-0.9-0.3-1.1c-0.2-0.1-0.5-0.2-0.9-0.2c-0.3,0-0.6,0-0.9,0.1v-0.8l3.8-1h0.7v17.2c0,0.5,0,1,0.1,1.3
			c0.1,0.3,0.3,0.5,0.6,0.6c0.3,0.1,0.8,0.2,1.5,0.2V169.5z"/>
		<path d="M958.3,169.5h-6.7v-0.8c0.6,0,1.1-0.1,1.4-0.2c0.3-0.1,0.5-0.3,0.5-0.6c0.1-0.3,0.1-0.7,0.1-1.2v-14.3
			c0-0.6-0.1-0.9-0.3-1.1c-0.2-0.1-0.5-0.2-0.9-0.2c-0.3,0-0.6,0-0.9,0.1v-0.8l3.8-1h0.7v17.2c0,0.5,0,1,0.1,1.3
			c0.1,0.3,0.3,0.5,0.6,0.6c0.3,0.1,0.8,0.2,1.5,0.2V169.5z"/>
		<path d="M970.4,169.7c-1.1,0-2-0.3-2.6-0.9s-0.9-1.4-0.9-2.3c0-0.8,0.2-1.4,0.5-1.9c0.4-0.5,0.8-1,1.4-1.3s1.2-0.7,1.9-0.9
			c0.7-0.2,1.4-0.5,2-0.6c0.7-0.2,1.2-0.3,1.7-0.5v-1.2c0-1.2-0.2-2.1-0.7-2.6c-0.4-0.5-1.1-0.8-2-0.8c-0.8,0-1.4,0.2-1.6,0.5
			s-0.3,0.9-0.3,1.8c0,0.4-0.1,0.8-0.3,1s-0.5,0.3-0.9,0.3c-0.3,0-0.6-0.1-0.8-0.3c-0.3-0.2-0.4-0.6-0.4-1c0-0.5,0.2-1,0.6-1.5
			c0.4-0.5,1-0.9,1.8-1.2c0.8-0.3,1.7-0.5,2.7-0.5c1.6,0,2.7,0.4,3.4,1.1c0.7,0.7,1,1.8,1,3.3v6.4c0,0.6,0.1,1,0.2,1.1
			s0.4,0.3,0.7,0.3c0.3,0,0.5-0.1,0.7-0.2s0.4-0.3,0.6-0.5l0.4,0.5c-0.5,0.7-0.9,1.2-1.4,1.5s-1,0.5-1.8,0.5c-0.7,0-1.1-0.2-1.3-0.6
			c-0.2-0.4-0.4-0.9-0.5-1.6l-0.2-0.3v-4.9c-0.9,0.2-1.7,0.5-2.5,0.7c-0.8,0.3-1.4,0.7-1.9,1.1c-0.5,0.5-0.7,1.1-0.7,1.8
			c0,0.7,0.2,1.3,0.6,1.7c0.4,0.4,0.9,0.6,1.5,0.6c0.5,0,1-0.1,1.6-0.4c0.6-0.2,1.1-0.6,1.6-1.1l0.2,1h-0.3c-0.4,0.4-0.9,0.7-1.3,1
			c-0.4,0.3-0.9,0.5-1.3,0.7S971,169.7,970.4,169.7z"/>
		<path d="M987.3,169.5h-6.7v-0.8c0.7,0,1.1-0.1,1.4-0.2c0.3-0.1,0.5-0.3,0.5-0.6c0.1-0.3,0.1-0.7,0.1-1.2v-8c0-0.5-0.1-0.8-0.3-1
			c-0.2-0.2-0.5-0.2-0.9-0.2c-0.3,0-0.5,0-0.8,0.1v-0.8l3.7-0.8h0.7l0,2.6l0.1,0.6v7.6c0,0.5,0,0.9,0.1,1.2s0.3,0.5,0.6,0.6
			c0.3,0.1,0.8,0.2,1.5,0.2V169.5z M995.9,169.5h-6.7v-0.8c0.7,0,1.2-0.1,1.5-0.2c0.3-0.1,0.5-0.3,0.6-0.6c0.1-0.3,0.1-0.7,0.1-1.2
			v-5.1c0-1.1-0.1-2-0.4-2.6s-0.6-0.9-1-1.1c-0.4-0.2-0.8-0.3-1.3-0.3c-0.6,0-1.1,0.1-1.5,0.3c-0.4,0.2-0.8,0.5-1.2,0.8
			c-0.4,0.3-0.7,0.6-1,0.9l-0.2-1.4h0.4c0.8-0.7,1.5-1.2,2.3-1.7c0.7-0.5,1.5-0.7,2.4-0.7c1.3,0,2.3,0.4,2.9,1.3
			c0.6,0.9,1,2.1,1,3.7v5.9c0,0.5,0,0.9,0.1,1.2s0.3,0.5,0.6,0.6c0.3,0.1,0.8,0.2,1.4,0.2V169.5z"/>
		<path d="M1002.4,169.8c-1.1,0-2-0.3-2.7-0.9c-0.7-0.6-1.3-1.3-1.7-2.3s-0.6-2.1-0.6-3.3c0-1.6,0.3-2.9,0.9-4s1.4-2,2.4-2.6
			s2.1-0.9,3.4-0.9c0.5,0,0.9,0.1,1.4,0.2c0.5,0.1,0.9,0.3,1.3,0.5h0.1v-3.7c0-0.6-0.1-1-0.2-1.2c-0.1-0.2-0.5-0.3-1.1-0.3
			c-0.1,0-0.4,0-0.8,0.1v-0.8l3.7-1h0.8v17c0,0.7,0.1,1.2,0.3,1.4s0.6,0.3,1.1,0.3h0.6v0.8l-3.7,0.7h-0.7v-2h-0.1
			c-0.5,0.5-1.2,0.9-1.9,1.4C1004.2,169.5,1003.4,169.8,1002.4,169.8z M1003.8,167.7c0.7,0,1.2-0.1,1.7-0.3c0.5-0.2,0.9-0.4,1.5-0.8
			v-7.5c-0.1-0.6-0.4-1.1-0.8-1.6c-0.4-0.5-1.1-0.7-2-0.7c-1.2,0-2.2,0.4-3,1.3s-1.1,2.2-1.1,4c0,2,0.3,3.4,1,4.2
			C1001.6,167.3,1002.5,167.7,1003.8,167.7z"/>
		<path d="M1034.6,169.5h-14.4v-0.9c0.8,0,1.4-0.1,1.7-0.2c0.4-0.1,0.6-0.4,0.7-0.8c0.1-0.4,0.2-0.9,0.2-1.7v-11.6
			c0-0.7-0.1-1.3-0.2-1.7c-0.1-0.4-0.4-0.7-0.7-0.8c-0.4-0.2-1-0.2-1.7-0.2v-0.9h8.2v0.9c-0.8,0-1.4,0.1-1.8,0.2
			c-0.4,0.2-0.7,0.4-0.8,0.8c-0.1,0.4-0.2,1-0.2,1.7v12.3c0,0.6,0.2,1,0.5,1.2c0.3,0.2,0.9,0.3,1.7,0.3h1.3c1,0,1.8-0.1,2.4-0.2
			c0.6-0.1,1.1-0.4,1.4-0.7c0.4-0.3,0.7-0.8,0.9-1.3s0.5-1.2,0.8-2.1h0.9L1034.6,169.5z"/>
		<path d="M1040.5,169.7c-1.1,0-2-0.3-2.6-0.9s-0.9-1.4-0.9-2.3c0-0.8,0.2-1.4,0.5-1.9c0.4-0.5,0.8-1,1.4-1.3s1.2-0.7,1.9-0.9
			c0.7-0.2,1.4-0.5,2-0.6s1.2-0.3,1.7-0.5v-1.2c0-1.2-0.2-2.1-0.7-2.6c-0.4-0.5-1.1-0.8-2-0.8c-0.8,0-1.4,0.2-1.6,0.5
			s-0.3,0.9-0.3,1.8c0,0.4-0.1,0.8-0.3,1s-0.5,0.3-0.9,0.3c-0.3,0-0.6-0.1-0.8-0.3c-0.3-0.2-0.4-0.6-0.4-1c0-0.5,0.2-1,0.6-1.5
			c0.4-0.5,1-0.9,1.8-1.2c0.8-0.3,1.7-0.5,2.7-0.5c1.6,0,2.7,0.4,3.4,1.1s1,1.8,1,3.3v6.4c0,0.6,0.1,1,0.2,1.1s0.4,0.3,0.7,0.3
			c0.3,0,0.5-0.1,0.7-0.2s0.4-0.3,0.6-0.5l0.4,0.5c-0.5,0.7-0.9,1.2-1.4,1.5s-1,0.5-1.8,0.5c-0.7,0-1.1-0.2-1.3-0.6
			s-0.4-0.9-0.5-1.6l-0.2-0.3v-4.9c-0.9,0.2-1.7,0.5-2.5,0.7c-0.8,0.3-1.4,0.7-1.9,1.1c-0.5,0.5-0.7,1.1-0.7,1.8
			c0,0.7,0.2,1.3,0.6,1.7c0.4,0.4,0.9,0.6,1.5,0.6c0.5,0,1-0.1,1.6-0.4c0.6-0.2,1.1-0.6,1.6-1.1l0.2,1h-0.3c-0.4,0.4-0.9,0.7-1.3,1
			c-0.4,0.3-0.9,0.5-1.3,0.7S1041.2,169.7,1040.5,169.7z"/>
		<path d="M1058,169.5h-7.3v-0.8c0.6,0,1.1-0.1,1.4-0.2c0.3-0.1,0.5-0.3,0.6-0.6c0.1-0.3,0.1-0.7,0.1-1.2V159c0-0.5,0-0.9-0.1-1.2
			c-0.1-0.3-0.4-0.4-0.9-0.4c-0.3,0-0.6,0-0.9,0.1v-0.8l3.6-0.9h0.7v2.9h0.1c0.5-0.7,0.9-1.3,1.3-1.7c0.4-0.5,0.8-0.8,1.1-1
			c0.4-0.2,0.8-0.3,1.3-0.3c0.6,0,1,0.1,1.3,0.4c0.3,0.3,0.4,0.7,0.4,1.2c0,0.5-0.1,0.9-0.4,1.2s-0.6,0.4-0.9,0.4
			c-0.3,0-0.6-0.1-0.8-0.2c-0.2-0.2-0.5-0.3-0.6-0.5c-0.2-0.2-0.3-0.2-0.4-0.2c-0.3,0-0.7,0.2-1.1,0.7c-0.4,0.5-0.8,1-1.2,1.6v6.5
			c0,0.6,0.1,1,0.2,1.3c0.2,0.3,0.4,0.5,0.8,0.6c0.4,0.1,1,0.1,1.7,0.1V169.5z"/>
		<path d="M1066.5,176.2c-1.3,0-2.3-0.2-3-0.5s-1.2-0.7-1.5-1.2c-0.3-0.5-0.4-1-0.4-1.5c0-0.5,0.2-1,0.6-1.5c0.4-0.5,1-1.2,1.8-1.9
			v-0.3l0.9,0.2c-0.4,0.6-0.6,1.1-0.8,1.5c-0.1,0.4-0.2,0.7-0.2,1.1c0,0.8,0.4,1.4,1.1,1.8c0.7,0.4,1.8,0.6,3.3,0.6
			c1.1,0,2.1-0.1,2.8-0.4c0.7-0.3,1.2-0.6,1.5-1.1c0.3-0.4,0.5-0.8,0.5-1.2c0-0.5-0.2-0.9-0.5-1.2c-0.3-0.3-0.8-0.5-1.3-0.6
			c-0.5-0.1-1.1-0.2-1.7-0.2s-1.1,0-1.6,0c-0.9,0-1.5,0-2,0s-0.8,0-1,0c-0.2,0-0.4,0-0.5,0l-0.3-0.1c-0.3-0.1-0.6-0.2-0.9-0.5
			c-0.3-0.2-0.5-0.5-0.7-0.8s-0.3-0.6-0.3-0.9c0-0.3,0.1-0.7,0.3-1.1s0.5-0.7,0.9-1.1c0.4-0.4,0.8-0.7,1.2-1.1v-0.3l0.8,0.5
			c-0.1,0.1-0.2,0.3-0.3,0.5c-0.1,0.2-0.3,0.5-0.3,0.8c-0.1,0.3-0.1,0.5-0.1,0.7c0,0.3,0.1,0.5,0.3,0.7c0.2,0.2,0.6,0.3,1,0.4
			c0.5,0.1,1.2,0.1,2.1,0.1c1.2,0,2.3,0.1,3.3,0.2c1,0.1,1.7,0.4,2.3,0.9c0.6,0.5,0.8,1.2,0.8,2.3c0,0.9-0.2,1.7-0.7,2.4
			s-1.1,1.2-1.9,1.6c-0.8,0.4-1.6,0.7-2.6,0.9C1068.3,176.1,1067.4,176.2,1066.5,176.2z M1067.8,165.1c-0.5,0-1,0-1.4-0.1
			c-0.4-0.1-0.9-0.2-1.3-0.3l-0.3-0.3c-0.5-0.3-0.9-0.6-1.3-0.9c-0.4-0.4-0.6-0.8-0.8-1.3c-0.2-0.5-0.3-1.1-0.3-1.7
			c0-0.9,0.2-1.8,0.7-2.5c0.4-0.7,1.1-1.2,1.9-1.6c0.8-0.4,1.7-0.6,2.7-0.6c0.6,0,1.1,0.1,1.6,0.2c0.5,0.1,1,0.3,1.4,0.5
			c0.4,0.2,0.8,0.5,1.2,0.7v0.7c0.2,0.3,0.4,0.7,0.7,1.1c0.2,0.5,0.4,1.1,0.4,1.8c0,0.9-0.2,1.6-0.7,2.3s-1,1.2-1.8,1.5
			C1069.8,164.9,1068.9,165.1,1067.8,165.1z M1067.9,164.1c0.7,0,1.3-0.2,1.8-0.7c0.5-0.5,0.7-1.4,0.7-2.8c0-1.2-0.3-2.1-0.8-2.8
			c-0.5-0.7-1.2-1.1-2.2-1.1c-0.8,0-1.4,0.3-1.8,0.9c-0.5,0.6-0.7,1.4-0.7,2.6c0,1.2,0.2,2.2,0.7,2.8
			C1066.2,163.8,1066.9,164.1,1067.9,164.1z M1074.7,156.3v1.5l-3.1-0.1l-1-1.2L1074.7,156.3z"/>
		<path d="M1082.2,169.8c-1.2,0-2.2-0.3-3.2-0.8c-0.9-0.5-1.7-1.3-2.2-2.4c-0.5-1.1-0.8-2.3-0.8-3.8c0-1.6,0.3-2.9,0.8-3.9
			c0.6-1,1.3-1.8,2.2-2.3c0.9-0.5,2-0.8,3.1-0.8c1.6,0,2.9,0.5,3.8,1.6c1,1.1,1.5,2.6,1.6,4.6h-9.4l0-1.1h6.7c0-0.7-0.1-1.4-0.4-2
			c-0.2-0.6-0.6-1.1-1-1.5c-0.4-0.4-1-0.6-1.7-0.6c-1.1,0-2,0.4-2.5,1.3c-0.6,0.9-0.8,2.1-0.8,3.6c0,1.3,0.2,2.4,0.6,3.3
			c0.4,0.9,1,1.5,1.7,1.9c0.7,0.4,1.4,0.6,2.2,0.6c0.8,0,1.4-0.1,1.9-0.3c0.5-0.2,0.9-0.5,1.3-0.8c0.3-0.3,0.7-0.7,1-1.1l0.6,0.4
			c-0.3,0.5-0.5,1-0.9,1.5c-0.3,0.5-0.7,0.9-1.1,1.3c-0.4,0.4-0.9,0.6-1.5,0.9C1083.6,169.7,1083,169.8,1082.2,169.8z"/>
		<path d="M1103.8,167l0.6,0.5c-0.4,0.5-0.7,0.9-1,1.3c-0.3,0.4-0.7,0.6-1.1,0.8c-0.4,0.2-0.9,0.3-1.5,0.3c-1,0-1.7-0.3-2.1-0.8
			c-0.4-0.6-0.7-1.5-0.7-2.7v-8.8h-1.6v-0.7c0.7-0.4,1.3-1,1.8-1.7c0.5-0.7,1-1.7,1.5-2.9h0.7v4h3.3v1.2h-3.3v8c0,1,0.1,1.7,0.3,2.1
			c0.2,0.4,0.6,0.6,1.1,0.6c0.5,0,0.8-0.1,1.1-0.3C1103.2,167.7,1103.5,167.4,1103.8,167z"/>
		<path d="M1111.7,169.8c-1.2,0-2.2-0.3-3.2-0.8c-0.9-0.5-1.7-1.3-2.2-2.4c-0.5-1.1-0.8-2.3-0.8-3.8c0-1.6,0.3-2.9,0.8-3.9
			c0.6-1,1.3-1.8,2.2-2.3c0.9-0.5,2-0.8,3.1-0.8c1.6,0,2.9,0.5,3.8,1.6c1,1.1,1.5,2.6,1.6,4.6h-9.4l0-1.1h6.7c0-0.7-0.1-1.4-0.4-2
			c-0.2-0.6-0.6-1.1-1-1.5c-0.4-0.4-1-0.6-1.7-0.6c-1.1,0-2,0.4-2.5,1.3c-0.6,0.9-0.8,2.1-0.8,3.6c0,1.3,0.2,2.4,0.6,3.3
			c0.4,0.9,1,1.5,1.7,1.9c0.7,0.4,1.4,0.6,2.2,0.6c0.8,0,1.4-0.1,1.9-0.3c0.5-0.2,0.9-0.5,1.3-0.8c0.3-0.3,0.7-0.7,1-1.1l0.6,0.4
			c-0.3,0.5-0.5,1-0.9,1.5c-0.3,0.5-0.7,0.9-1.1,1.3c-0.4,0.4-0.9,0.6-1.5,0.9C1113.1,169.7,1112.4,169.8,1111.7,169.8z"/>
		<path d="M1122.8,169.5h-4.9v-0.8c0.5,0,0.9-0.1,1.2-0.3c0.3-0.2,0.7-0.6,1.2-1.1l3.7-4.7l0.9,1.1h-0.4l-2.4,3.4
			c-0.1,0.2-0.3,0.5-0.5,0.7c-0.2,0.2-0.2,0.4-0.2,0.5c0,0.2,0.1,0.3,0.3,0.3c0.2,0.1,0.5,0.1,1,0.1V169.5z M1132,169.5h-6.1v-0.8
			c0.5,0,0.9,0,1.1-0.1c0.2-0.1,0.3-0.3,0.3-0.5c0-0.2-0.1-0.4-0.2-0.6l-1.8-2.8l-0.7-1.2l-0.5-0.4l-3.2-4.5
			c-0.3-0.5-0.6-0.8-0.8-1.1s-0.5-0.4-0.7-0.5c-0.3-0.1-0.6-0.1-1-0.1v-0.8h6.2v0.8c-0.9,0-1.4,0.2-1.4,0.7c0,0.2,0.1,0.3,0.2,0.5
			c0.1,0.2,0.3,0.5,0.5,0.8c0.2,0.3,0.5,0.8,0.8,1.3l0.8,1.5l0.5,0.3l3.7,5.1c0.4,0.6,0.8,1,1.1,1.2c0.3,0.3,0.7,0.4,1.3,0.4V169.5z
			 M1129.2,158.3l-3.2,4.1l-0.8-0.9h0.4l1.4-1.9c0.4-0.5,0.7-0.9,0.8-1.2c0.2-0.3,0.2-0.5,0.2-0.7c0-0.2-0.1-0.4-0.2-0.5
			c-0.2-0.1-0.5-0.2-0.9-0.2v-0.8h4.8v0.8c-0.5,0-0.9,0.1-1.3,0.4C1129.8,157.5,1129.5,157.8,1129.2,158.3z"/>
		<path d="M1140.4,167l0.6,0.5c-0.4,0.5-0.7,0.9-1,1.3c-0.3,0.4-0.7,0.6-1.1,0.8c-0.4,0.2-0.9,0.3-1.5,0.3c-1,0-1.7-0.3-2.1-0.8
			c-0.4-0.6-0.7-1.5-0.7-2.7v-8.8h-1.6v-0.7c0.7-0.4,1.3-1,1.8-1.7c0.5-0.7,1-1.7,1.5-2.9h0.7v4h3.3v1.2h-3.3v8c0,1,0.1,1.7,0.3,2.1
			c0.2,0.4,0.6,0.6,1.1,0.6c0.5,0,0.8-0.1,1.1-0.3C1139.7,167.7,1140,167.4,1140.4,167z"/>
	</g>
</g>
<rect x="484.7" y="298.3" class="st1" width="950.6" height="207.9"/>
<rect x="582.7" y="347.4" transform="matrix(-1.836970e-16 1 -1 -1.836970e-16 1039.8602 -235.309)" class="st0" width="109.7" height="109.7"/>
<g>
	<g>
		<path class="st0" d="M791,392.2c-2,0-3.7-0.4-5-1.2s-2.4-2-3.1-3.4c-0.7-1.5-1-3.1-1-4.9c0-2.1,0.4-3.8,1.2-5.3
			c0.8-1.4,1.9-2.5,3.4-3.3c1.4-0.8,3.1-1.1,4.9-1.1c1,0,1.8,0.1,2.5,0.3s1.1,0.3,1.5,0.5c0.4,0.2,0.7,0.3,0.9,0.3s0.4-0.1,0.5-0.3
			c0.1-0.2,0.3-0.4,0.5-0.7h0.9v6.5h-1c-0.3-1.9-1-3.2-2-4c-1-0.8-2.2-1.2-3.7-1.2c-2.1,0-3.7,0.7-4.8,2.2c-1.1,1.5-1.7,3.5-1.7,6
			c0,1.9,0.3,3.4,0.9,4.6c0.6,1.2,1.4,2.1,2.5,2.6c1,0.6,2.2,0.9,3.6,0.9c1.3,0,2.5-0.2,3.5-0.7c1-0.5,1.9-1.2,2.7-2l0.7,0.6
			c-0.5,0.8-1.1,1.4-1.9,2c-0.7,0.6-1.6,1.1-2.5,1.4C793.4,392,792.3,392.2,791,392.2z"/>
		<path class="st0" d="M807.4,392.2c-2,0-3.6-0.6-4.8-1.9c-1.2-1.2-1.7-3-1.7-5.3c0-1.4,0.3-2.6,0.8-3.6c0.5-1,1.3-1.8,2.3-2.4
			c1-0.6,2.1-0.9,3.4-0.9c2,0,3.6,0.6,4.7,1.8c1.2,1.2,1.7,2.9,1.7,5c0,1.6-0.3,2.9-0.8,4c-0.6,1.1-1.3,1.9-2.3,2.4
			C809.8,391.9,808.6,392.2,807.4,392.2z M807.5,391c0.8,0,1.5-0.2,2-0.5c0.5-0.4,1-1,1.2-1.8c0.3-0.9,0.4-2.1,0.4-3.6
			c0-1.7-0.3-3.2-1-4.2s-1.6-1.6-2.9-1.6c-1.1,0-2,0.5-2.7,1.4c-0.7,0.9-1,2.3-1,4.1c0,2.3,0.3,3.9,1,4.9
			C805.3,390.5,806.3,391,807.5,391z"/>
		<path class="st0" d="M822.4,391.9h-6.7v-0.8c0.7,0,1.1-0.1,1.4-0.2c0.3-0.1,0.5-0.3,0.5-0.6s0.1-0.7,0.1-1.2v-8
			c0-0.5-0.1-0.8-0.3-1c-0.2-0.2-0.5-0.2-0.9-0.2c-0.3,0-0.5,0-0.8,0.1V379l3.7-0.8h0.7l0,2.6l0.1,0.6v7.6c0,0.5,0,0.9,0.1,1.2
			c0.1,0.3,0.3,0.5,0.6,0.6c0.3,0.1,0.8,0.2,1.5,0.2V391.9z M830.9,391.9h-6.7v-0.8c0.7,0,1.2-0.1,1.5-0.2c0.3-0.1,0.5-0.3,0.6-0.6
			s0.1-0.7,0.1-1.2v-5.1c0-1.1-0.1-2-0.4-2.6c-0.3-0.6-0.6-0.9-1-1.1c-0.4-0.2-0.8-0.3-1.3-0.3c-0.6,0-1.1,0.1-1.5,0.3
			c-0.4,0.2-0.8,0.5-1.2,0.8c-0.4,0.3-0.7,0.6-1,0.9l-0.2-1.4h0.4c0.8-0.7,1.5-1.2,2.3-1.7c0.7-0.5,1.5-0.7,2.4-0.7
			c1.3,0,2.3,0.4,2.9,1.3c0.6,0.9,1,2.1,1,3.7v5.9c0,0.5,0,0.9,0.1,1.2c0.1,0.3,0.3,0.5,0.6,0.6c0.3,0.1,0.8,0.2,1.4,0.2V391.9z"/>
		<path class="st0" d="M840.1,389.3l0.6,0.5c-0.4,0.5-0.7,0.9-1,1.3c-0.3,0.4-0.7,0.6-1.1,0.8c-0.4,0.2-0.9,0.3-1.5,0.3
			c-1,0-1.7-0.3-2.1-0.8c-0.4-0.6-0.7-1.5-0.7-2.7v-8.8h-1.6v-0.7c0.7-0.4,1.3-1,1.8-1.7c0.5-0.7,1-1.7,1.5-2.9h0.7v4h3.3v1.2h-3.3
			v8c0,1,0.1,1.7,0.3,2.1c0.2,0.4,0.6,0.6,1.1,0.6c0.5,0,0.8-0.1,1.1-0.3C839.4,390,839.7,389.7,840.1,389.3z"/>
		<path class="st0" d="M848.8,391.9h-7.3v-0.8c0.6,0,1.1-0.1,1.4-0.2c0.3-0.1,0.5-0.3,0.6-0.6c0.1-0.3,0.1-0.7,0.1-1.2v-7.8
			c0-0.5,0-0.9-0.1-1.2c-0.1-0.3-0.4-0.4-0.9-0.4c-0.3,0-0.6,0-0.9,0.1V379l3.6-0.9h0.7v2.9h0.1c0.5-0.7,0.9-1.3,1.3-1.7
			c0.4-0.5,0.8-0.8,1.1-1c0.4-0.2,0.8-0.3,1.3-0.3c0.6,0,1,0.1,1.3,0.4c0.3,0.3,0.4,0.7,0.4,1.2c0,0.5-0.1,0.9-0.4,1.2
			c-0.3,0.2-0.6,0.4-0.9,0.4c-0.3,0-0.6-0.1-0.8-0.2c-0.2-0.2-0.5-0.3-0.6-0.5c-0.2-0.2-0.3-0.2-0.4-0.2c-0.3,0-0.7,0.2-1.1,0.7
			c-0.4,0.5-0.8,1-1.2,1.6v6.5c0,0.6,0.1,1,0.2,1.3c0.2,0.3,0.4,0.5,0.8,0.6c0.4,0.1,1,0.1,1.7,0.1V391.9z"/>
		<path class="st0" d="M856.3,392.1c-1.1,0-2-0.3-2.6-0.9s-0.9-1.4-0.9-2.3c0-0.8,0.2-1.4,0.5-1.9c0.4-0.5,0.8-1,1.4-1.3
			c0.6-0.4,1.2-0.7,1.9-0.9c0.7-0.2,1.4-0.5,2-0.6c0.7-0.2,1.2-0.3,1.7-0.5v-1.2c0-1.2-0.2-2.1-0.7-2.6c-0.4-0.5-1.1-0.8-2-0.8
			c-0.8,0-1.4,0.2-1.6,0.5s-0.3,0.9-0.3,1.8c0,0.4-0.1,0.8-0.3,1s-0.5,0.3-0.9,0.3c-0.3,0-0.6-0.1-0.8-0.3c-0.3-0.2-0.4-0.6-0.4-1
			c0-0.5,0.2-1,0.6-1.5c0.4-0.5,1-0.9,1.8-1.2c0.8-0.3,1.7-0.5,2.7-0.5c1.6,0,2.7,0.4,3.4,1.1s1,1.8,1,3.3v6.4c0,0.6,0.1,1,0.2,1.1
			c0.1,0.2,0.4,0.3,0.7,0.3c0.3,0,0.5-0.1,0.7-0.2s0.4-0.3,0.6-0.5l0.4,0.5c-0.5,0.7-0.9,1.2-1.4,1.5c-0.4,0.3-1,0.5-1.8,0.5
			c-0.7,0-1.1-0.2-1.3-0.6c-0.2-0.4-0.4-0.9-0.5-1.6l-0.2-0.3v-4.9c-0.9,0.2-1.7,0.5-2.5,0.7c-0.8,0.3-1.4,0.7-1.9,1.1
			c-0.5,0.5-0.7,1.1-0.7,1.8c0,0.7,0.2,1.3,0.6,1.7c0.4,0.4,0.9,0.6,1.5,0.6c0.5,0,1-0.1,1.6-0.4c0.6-0.2,1.1-0.6,1.6-1.1l0.2,1
			h-0.3c-0.4,0.4-0.9,0.7-1.3,1s-0.9,0.5-1.3,0.7S856.9,392.1,856.3,392.1z"/>
		<path class="st0" d="M866.9,392.1l-0.1-4.9h0.8c0.3,1.5,0.8,2.5,1.4,3.1s1.4,0.9,2.5,0.9c0.7,0,1.3-0.1,1.8-0.4
			c0.5-0.3,0.7-0.8,0.7-1.4c0-0.5-0.1-0.8-0.2-1.1c-0.2-0.3-0.5-0.6-0.9-0.9c-0.5-0.3-1.2-0.7-2.1-1.1c-0.9-0.4-1.6-0.9-2.2-1.3
			c-0.6-0.4-1-0.9-1.2-1.3c-0.3-0.5-0.4-1.1-0.4-1.8c0-1.2,0.4-2.1,1.3-2.7s1.9-0.9,3.2-0.9c0.7,0,1.3,0.1,1.8,0.2
			c0.5,0.2,0.9,0.3,1.2,0.5h0l0.5-0.6h0.6l0.1,4.3h-0.8c-0.3-1.3-0.7-2.3-1.3-2.8c-0.6-0.5-1.3-0.8-2.2-0.8c-0.7,0-1.2,0.2-1.7,0.5
			s-0.7,0.8-0.7,1.4c0,0.5,0.3,1,0.8,1.5s1.4,1,2.6,1.6c0.9,0.5,1.6,0.9,2.2,1.3c0.6,0.4,1.1,0.9,1.4,1.4c0.3,0.5,0.5,1.1,0.5,1.8
			c0,0.9-0.2,1.6-0.7,2.1c-0.4,0.5-1,0.9-1.8,1.2c-0.7,0.2-1.6,0.4-2.4,0.4c-0.8,0-1.5-0.1-2-0.3c-0.5-0.2-0.9-0.3-1.3-0.5h-0.1
			l-0.6,0.7H866.9z"/>
		<path class="st0" d="M885.7,389.3l0.6,0.5c-0.4,0.5-0.7,0.9-1,1.3c-0.3,0.4-0.7,0.6-1.1,0.8c-0.4,0.2-0.9,0.3-1.5,0.3
			c-1,0-1.7-0.3-2.1-0.8c-0.4-0.6-0.7-1.5-0.7-2.7v-8.8h-1.6v-0.7c0.7-0.4,1.3-1,1.8-1.7c0.5-0.7,1-1.7,1.5-2.9h0.7v4h3.3v1.2h-3.3
			v8c0,1,0.1,1.7,0.3,2.1c0.2,0.4,0.6,0.6,1.1,0.6c0.5,0,0.8-0.1,1.1-0.3C885,390,885.3,389.7,885.7,389.3z"/>
		<path class="st0" d="M897,381.8c-0.6,0-1-0.2-1.3-0.5c-0.3-0.3-0.4-0.7-0.4-1.2c0-0.5,0.2-0.9,0.5-1.3c0.3-0.4,0.7-0.5,1.3-0.5
			c0.6,0,1,0.2,1.3,0.5c0.3,0.4,0.5,0.8,0.5,1.3c0,0.4-0.2,0.8-0.5,1.2C898,381.6,897.5,381.8,897,381.8z M897,392.1
			c-0.6,0-1-0.2-1.3-0.5c-0.3-0.3-0.4-0.7-0.4-1.2c0-0.5,0.2-0.9,0.5-1.3c0.3-0.4,0.7-0.5,1.3-0.5c0.6,0,1,0.2,1.3,0.5
			c0.3,0.4,0.5,0.8,0.5,1.3c0,0.4-0.2,0.8-0.5,1.1C898,391.9,897.5,392.1,897,392.1z"/>
		<path class="st0" d="M919.5,391.9h-10.1v-0.8c1.4,0,2.3-0.1,2.9-0.4c0.6-0.3,0.8-0.8,0.8-1.5v-12c0-0.5-0.1-0.8-0.2-1.1
			c-0.1-0.2-0.4-0.3-0.8-0.3c-0.2,0-0.5,0-0.8,0.1c-0.3,0-0.7,0.1-1.1,0.2s-0.7,0.1-1,0.2v-0.9l5.6-1.6h0.8v15.5
			c0,0.7,0.3,1.2,0.9,1.5s1.5,0.4,2.9,0.4V391.9z"/>
		<path class="st0" d="M934,391.9h-11.4v-1l4.4-4.3c1-1,1.8-1.8,2.4-2.6s1.1-1.6,1.4-2.4c0.3-0.8,0.5-1.7,0.5-2.7
			c0-1.1-0.3-1.9-1-2.5c-0.6-0.6-1.5-1-2.7-1c-0.9,0-1.8,0.2-2.4,0.6c-0.7,0.4-1.3,1.1-1.8,2.2l-0.7-0.3c0.4-1.4,1.2-2.5,2.1-3.2
			c1-0.8,2.2-1.1,3.6-1.1c1.1,0,2.1,0.2,2.9,0.6c0.8,0.4,1.5,1,2,1.7c0.5,0.7,0.7,1.6,0.7,2.6c0,0.8-0.2,1.6-0.5,2.4
			c-0.4,0.8-0.9,1.6-1.6,2.4s-1.6,1.7-2.6,2.8l-3.8,3.6v0.1l2-0.1h4c0.8,0,1.3-0.2,1.6-0.5c0.3-0.3,0.6-0.9,1-1.8h0.8L934,391.9z"/>
		<path class="st0" d="M939.4,392.1c-0.6,0-1-0.2-1.3-0.5c-0.3-0.3-0.4-0.7-0.4-1.2c0-0.5,0.2-0.9,0.5-1.3c0.3-0.4,0.7-0.5,1.3-0.5
			c0.6,0,1,0.2,1.3,0.5c0.3,0.4,0.5,0.8,0.5,1.3c0,0.4-0.2,0.8-0.5,1.1C940.4,391.9,940,392.1,939.4,392.1z"/>
		<path class="st0" d="M948,392.2c-1.1,0-2-0.1-2.5-0.4c-0.6-0.3-0.8-0.7-0.8-1.2c0-0.3,0.1-0.6,0.3-0.9c0.2-0.2,0.5-0.4,0.9-0.4
			c0.3,0,0.6,0.1,0.9,0.2s0.6,0.3,0.9,0.5c0.3,0.2,0.6,0.3,1,0.5c0.4,0.1,0.8,0.2,1.2,0.2c0.7,0,1.3-0.1,1.9-0.4s1.1-0.7,1.4-1.3
			c0.4-0.6,0.5-1.4,0.5-2.4c0-1.1-0.2-1.9-0.6-2.6c-0.4-0.6-1-1.1-1.7-1.5c-0.7-0.3-1.5-0.6-2.4-0.7c-0.9-0.1-1.8-0.2-2.8-0.2
			l-0.3-0.4l1.8-7.4h8l-0.5,2.3h-6.8l-0.8,3.2c1,0.1,1.9,0.2,2.7,0.4c0.8,0.2,1.6,0.4,2.3,0.7c0.7,0.3,1.3,0.7,1.8,1.1
			c0.5,0.5,0.9,1,1.2,1.7c0.3,0.7,0.4,1.4,0.4,2.3c0,1.1-0.2,2.1-0.6,2.9c-0.4,0.8-0.9,1.5-1.6,2.1c-0.7,0.5-1.5,1-2.5,1.2
			C950.2,392.1,949.2,392.2,948,392.2z"/>
		<path class="st0" d="M790.4,426h-8.9v-0.9c0.8,0,1.4-0.1,1.8-0.2c0.4-0.1,0.7-0.4,0.8-0.8c0.1-0.4,0.2-1,0.2-1.8v-11.6
			c0-0.8-0.1-1.3-0.2-1.7c-0.1-0.4-0.4-0.6-0.8-0.7c-0.4-0.1-1-0.2-1.8-0.2v-0.9h7.8c1.7,0,3.1,0.2,4.2,0.5c1,0.4,1.8,0.9,2.3,1.5
			c0.5,0.7,0.7,1.5,0.7,2.4c0,1.3-0.4,2.2-1.2,2.9c-0.8,0.6-1.8,1.1-3,1.4v0.1c0.8,0.1,1.6,0.4,2.4,0.7c0.8,0.4,1.4,0.9,1.9,1.5
			c0.5,0.7,0.8,1.5,0.8,2.5c0,1.6-0.6,2.8-1.8,3.7C794.3,425.5,792.6,426,790.4,426z M787,408.5v7.2h2c1.8,0,3-0.3,3.6-0.9
			c0.7-0.6,1-1.5,1-2.8c0-1.1-0.4-2-1.1-2.6c-0.7-0.6-2-0.9-3.8-0.9c-0.3,0-0.6,0-0.9,0C787.5,408.4,787.2,408.5,787,408.5z
			 M789,424.9c0.6,0,1.2,0,1.9-0.1c0.6-0.1,1.2-0.2,1.7-0.5c0.5-0.3,0.9-0.6,1.2-1.2c0.3-0.5,0.5-1.2,0.5-2.1c0-1.1-0.3-1.9-0.8-2.5
			c-0.5-0.6-1.2-1-2-1.2c-0.8-0.2-1.7-0.4-2.6-0.4h-2v8c0.3,0,0.7,0,1,0.1C788.3,424.9,788.7,424.9,789,424.9z"/>
		<path class="st0" d="M805.5,426.2c-1.2,0-2.2-0.3-3.2-0.8s-1.7-1.3-2.2-2.4c-0.5-1.1-0.8-2.3-0.8-3.8c0-1.6,0.3-2.9,0.8-3.9
			c0.6-1,1.3-1.8,2.2-2.3s2-0.8,3.1-0.8c1.6,0,2.9,0.5,3.8,1.6c1,1.1,1.5,2.6,1.6,4.6h-9.4l0-1.1h6.7c0-0.7-0.1-1.4-0.4-2
			c-0.2-0.6-0.6-1.1-1-1.5c-0.4-0.4-1-0.6-1.7-0.6c-1.1,0-2,0.4-2.5,1.3c-0.6,0.9-0.8,2.1-0.8,3.6c0,1.3,0.2,2.4,0.6,3.3
			c0.4,0.9,1,1.5,1.7,1.9c0.7,0.4,1.4,0.6,2.2,0.6c0.8,0,1.4-0.1,1.9-0.3c0.5-0.2,0.9-0.5,1.3-0.8c0.3-0.3,0.7-0.7,1-1.1l0.6,0.4
			c-0.3,0.5-0.5,1-0.9,1.5c-0.3,0.5-0.7,0.9-1.1,1.3c-0.4,0.4-0.9,0.6-1.5,0.9C807,426.1,806.3,426.2,805.5,426.2z"/>
		<path class="st0" d="M813.1,426.2l-0.1-4.9h0.8c0.3,1.5,0.8,2.5,1.4,3.1s1.4,0.9,2.5,0.9c0.7,0,1.3-0.1,1.8-0.4
			c0.5-0.3,0.7-0.8,0.7-1.4c0-0.5-0.1-0.8-0.2-1.1c-0.2-0.3-0.5-0.6-0.9-0.9c-0.5-0.3-1.2-0.7-2.1-1.1c-0.9-0.4-1.6-0.9-2.2-1.3
			c-0.6-0.4-1-0.9-1.2-1.3c-0.3-0.5-0.4-1.1-0.4-1.8c0-1.2,0.4-2.1,1.3-2.7s1.9-0.9,3.2-0.9c0.7,0,1.3,0.1,1.8,0.2
			c0.5,0.2,0.9,0.3,1.2,0.5h0l0.5-0.6h0.6l0.1,4.3h-0.8c-0.3-1.3-0.7-2.3-1.3-2.8c-0.6-0.5-1.3-0.8-2.2-0.8c-0.7,0-1.2,0.2-1.7,0.5
			s-0.7,0.8-0.7,1.4c0,0.5,0.3,1,0.8,1.5s1.4,1,2.6,1.6c0.9,0.5,1.6,0.9,2.2,1.3c0.6,0.4,1.1,0.9,1.4,1.4c0.3,0.5,0.5,1.1,0.5,1.8
			c0,0.9-0.2,1.6-0.7,2.1c-0.4,0.5-1,0.9-1.8,1.2c-0.7,0.2-1.6,0.4-2.4,0.4c-0.8,0-1.5-0.1-2-0.3c-0.5-0.2-0.9-0.3-1.3-0.5h-0.1
			l-0.6,0.7H813.1z"/>
		<path class="st0" d="M831.8,423.4l0.6,0.5c-0.4,0.5-0.7,0.9-1,1.3c-0.3,0.4-0.7,0.6-1.1,0.8c-0.4,0.2-0.9,0.3-1.5,0.3
			c-1,0-1.7-0.3-2.1-0.8c-0.4-0.6-0.7-1.5-0.7-2.7v-8.8h-1.6v-0.7c0.7-0.4,1.3-1,1.8-1.7c0.5-0.7,1-1.7,1.5-2.9h0.7v4h3.3v1.2h-3.3
			v8c0,1,0.1,1.7,0.3,2.1c0.2,0.4,0.6,0.6,1.1,0.6c0.5,0,0.8-0.1,1.1-0.3C831.2,424.1,831.5,423.8,831.8,423.4z"/>
		<path class="st0" d="M848.9,426h-8.5v-0.9c0.8,0,1.4-0.1,1.8-0.2c0.4-0.1,0.7-0.3,0.8-0.7c0.1-0.4,0.2-0.9,0.2-1.6v-12.2
			c0-0.7-0.1-1.2-0.3-1.5c-0.2-0.3-0.5-0.6-0.9-0.7c-0.4-0.1-1-0.2-1.7-0.2v-0.9h15.5l0.2,4.7h-0.9c-0.1-0.7-0.3-1.2-0.4-1.7
			c-0.1-0.4-0.4-0.8-0.7-1c-0.3-0.2-0.7-0.4-1.3-0.5c-0.6-0.1-1.3-0.2-2.3-0.2h-4.6v7.2h3.4c0.8,0,1.5-0.1,1.9-0.2
			c0.4-0.2,0.8-0.4,0.9-0.8c0.2-0.4,0.2-1,0.2-1.7h1v6.6h-1c0-0.8-0.1-1.4-0.2-1.7c-0.2-0.4-0.5-0.6-0.9-0.8
			c-0.4-0.1-1.1-0.2-1.9-0.2h-3.4v6c0,0.6,0.1,1.1,0.3,1.4c0.2,0.3,0.5,0.5,0.9,0.7c0.4,0.1,1,0.2,1.8,0.2V426z"/>
		<path class="st0" d="M863.9,426.2c-2,0-3.6-0.6-4.8-1.9c-1.2-1.2-1.7-3-1.7-5.3c0-1.4,0.3-2.6,0.8-3.6c0.5-1,1.3-1.8,2.3-2.4
			c1-0.6,2.1-0.9,3.4-0.9c2,0,3.6,0.6,4.7,1.8c1.2,1.2,1.7,2.9,1.7,5c0,1.6-0.3,2.9-0.8,4c-0.6,1.1-1.3,1.9-2.3,2.4
			C866.3,426,865.1,426.2,863.9,426.2z M864,425.1c0.8,0,1.5-0.2,2-0.5c0.5-0.4,1-1,1.2-1.8c0.3-0.9,0.4-2.1,0.4-3.6
			c0-1.7-0.3-3.2-1-4.2s-1.6-1.6-2.9-1.6c-1.1,0-2,0.5-2.7,1.4c-0.7,0.9-1,2.3-1,4.1c0,2.3,0.3,3.9,1,4.9
			C861.8,424.6,862.8,425.1,864,425.1z"/>
		<path class="st0" d="M879.4,426h-7.3v-0.8c0.6,0,1.1-0.1,1.4-0.2c0.3-0.1,0.5-0.3,0.6-0.6c0.1-0.3,0.1-0.7,0.1-1.2v-7.8
			c0-0.5,0-0.9-0.1-1.2c-0.1-0.3-0.4-0.4-0.9-0.4c-0.3,0-0.6,0-0.9,0.1v-0.8l3.6-0.9h0.7v2.9h0.1c0.5-0.7,0.9-1.3,1.3-1.7
			c0.4-0.5,0.8-0.8,1.1-1c0.4-0.2,0.8-0.3,1.3-0.3c0.6,0,1,0.1,1.3,0.4c0.3,0.3,0.4,0.7,0.4,1.2c0,0.5-0.1,0.9-0.4,1.2
			c-0.3,0.2-0.6,0.4-0.9,0.4c-0.3,0-0.6-0.1-0.8-0.2c-0.2-0.2-0.5-0.3-0.6-0.5c-0.2-0.2-0.3-0.2-0.4-0.2c-0.3,0-0.7,0.2-1.1,0.7
			c-0.4,0.5-0.8,1-1.2,1.6v6.5c0,0.6,0.1,1,0.2,1.3c0.2,0.3,0.4,0.5,0.8,0.6c0.4,0.1,1,0.1,1.7,0.1V426z"/>
		<path class="st0" d="M891.4,426.4h-0.9l-0.3-6.1h0.9c0.3,1.3,0.8,2.3,1.2,3c0.5,0.7,1,1.2,1.7,1.4c0.7,0.3,1.5,0.4,2.5,0.4
			c0.7,0,1.4-0.1,1.9-0.3s0.9-0.5,1.2-1c0.3-0.4,0.4-1,0.4-1.7c0-0.8-0.2-1.5-0.7-2.1c-0.5-0.5-1.1-1-1.8-1.5
			c-0.7-0.4-1.5-0.9-2.3-1.3c-0.8-0.4-1.5-0.9-2.2-1.4c-0.7-0.5-1.3-1.1-1.8-1.8s-0.7-1.5-0.7-2.5c0-1,0.3-1.8,0.8-2.5
			c0.5-0.7,1.2-1.2,2-1.5c0.8-0.4,1.8-0.5,2.8-0.5c0.9,0,1.6,0.1,2.1,0.2c0.5,0.1,0.9,0.3,1.1,0.4c0.3,0.2,0.5,0.2,0.8,0.2
			s0.4-0.1,0.6-0.2c0.1-0.1,0.3-0.3,0.3-0.6h0.8l0.2,5.7h-0.9c-0.4-1.6-0.9-2.7-1.6-3.5c-0.7-0.8-1.8-1.1-3.2-1.1
			c-1,0-1.8,0.2-2.3,0.7c-0.5,0.4-0.8,1.1-0.8,2c0,0.7,0.2,1.3,0.6,1.8s0.9,1,1.6,1.3c0.7,0.4,1.3,0.8,2.1,1.2
			c0.6,0.4,1.3,0.7,1.9,1.1c0.6,0.4,1.2,0.8,1.8,1.2s1,1,1.3,1.6c0.3,0.6,0.5,1.3,0.5,2.2c0,1.1-0.3,2-0.8,2.8
			c-0.5,0.8-1.2,1.3-2.1,1.7c-0.9,0.4-1.9,0.6-3,0.6c-1,0-1.8-0.1-2.5-0.2c-0.6-0.1-1.1-0.3-1.5-0.4s-0.7-0.2-0.9-0.2
			c-0.2,0-0.4,0.1-0.5,0.3C891.5,425.9,891.4,426.1,891.4,426.4z"/>
		<path class="st0" d="M911.4,426h-6.6v-0.8c0.6,0,1.1-0.1,1.4-0.2c0.3-0.1,0.5-0.3,0.6-0.6c0.1-0.3,0.1-0.7,0.1-1.3v-8
			c0-0.5-0.1-0.9-0.3-1c-0.2-0.2-0.5-0.3-0.9-0.3c-0.2,0-0.5,0-0.8,0.1v-0.8l3.6-0.8h0.7v2.6l0.1,0.6v7.7c0,0.5,0.1,0.9,0.2,1.2
			c0.1,0.3,0.3,0.5,0.6,0.6c0.3,0.1,0.8,0.2,1.4,0.2V426z M919.8,426h-6.9v-0.8c0.7,0,1.2-0.1,1.5-0.2c0.3-0.1,0.5-0.4,0.6-0.7
			c0.1-0.4,0.1-0.9,0.1-1.5V417c0-1.2-0.2-2-0.7-2.4c-0.4-0.4-1-0.6-1.7-0.6c-0.5,0-1.1,0.1-1.5,0.3s-0.9,0.5-1.3,0.8
			c-0.4,0.3-0.7,0.6-1,0.9l-0.2-1.4h0.4c0.8-0.7,1.6-1.2,2.3-1.7c0.7-0.5,1.6-0.7,2.6-0.7c0.9,0,1.6,0.2,2.1,0.7
			c0.5,0.5,0.9,1.1,1.2,1.8c0,0.1,0.1,0.1,0.1,0.2c0,0.1,0,0.1,0.1,0.2v7.5c0,0.6,0,1.1,0.1,1.5c0.1,0.4,0.3,0.6,0.6,0.8
			c0.3,0.1,0.8,0.2,1.5,0.2V426z M927.9,426h-6.6v-0.8c0.7,0,1.1-0.1,1.4-0.3s0.5-0.4,0.5-0.8c0.1-0.4,0.1-0.8,0.1-1.4v-5.5
			c0-0.9-0.1-1.5-0.3-2c-0.2-0.5-0.5-0.8-0.9-1c-0.4-0.2-0.8-0.3-1.3-0.3c-0.6,0-1.3,0.2-1.9,0.7c-0.6,0.4-1.2,0.9-1.7,1.3l-0.3-1.4
			h0.4c0.8-0.8,1.6-1.4,2.3-1.8c0.8-0.4,1.5-0.6,2.3-0.6c1.1,0,2.1,0.4,2.7,1.1c0.7,0.7,1,1.9,1,3.6v5.8c0,0.6,0,1.1,0.1,1.4
			s0.3,0.6,0.6,0.8c0.3,0.2,0.8,0.2,1.4,0.2V426z"/>
		<path class="st0" d="M933.2,426.2c-1.1,0-2-0.3-2.6-0.9s-0.9-1.4-0.9-2.3c0-0.8,0.2-1.4,0.5-1.9c0.4-0.5,0.8-1,1.4-1.3
			c0.6-0.4,1.2-0.7,1.9-0.9c0.7-0.2,1.4-0.5,2-0.6c0.7-0.2,1.2-0.3,1.7-0.5v-1.2c0-1.2-0.2-2.1-0.7-2.6c-0.4-0.5-1.1-0.8-2-0.8
			c-0.8,0-1.4,0.2-1.6,0.5s-0.3,0.9-0.3,1.8c0,0.4-0.1,0.8-0.3,1s-0.5,0.3-0.9,0.3c-0.3,0-0.6-0.1-0.8-0.3c-0.3-0.2-0.4-0.6-0.4-1
			c0-0.5,0.2-1,0.6-1.5c0.4-0.5,1-0.9,1.8-1.2c0.8-0.3,1.7-0.5,2.7-0.5c1.6,0,2.7,0.4,3.4,1.1s1,1.8,1,3.3v6.4c0,0.6,0.1,1,0.2,1.1
			c0.1,0.2,0.4,0.3,0.7,0.3c0.3,0,0.5-0.1,0.7-0.2s0.4-0.3,0.6-0.5l0.4,0.5c-0.5,0.7-0.9,1.2-1.4,1.5c-0.4,0.3-1,0.5-1.8,0.5
			c-0.7,0-1.1-0.2-1.3-0.6c-0.2-0.4-0.4-0.9-0.5-1.6l-0.2-0.3v-4.9c-0.9,0.2-1.7,0.5-2.5,0.7c-0.8,0.3-1.4,0.7-1.9,1.1
			c-0.5,0.5-0.7,1.1-0.7,1.8c0,0.7,0.2,1.3,0.6,1.7c0.4,0.4,0.9,0.6,1.5,0.6c0.5,0,1-0.1,1.6-0.4c0.6-0.2,1.1-0.6,1.6-1.1l0.2,1
			h-0.3c-0.4,0.4-0.9,0.7-1.3,1s-0.9,0.5-1.3,0.7S933.8,426.2,933.2,426.2z"/>
		<path class="st0" d="M950.1,426h-6.7v-0.8c0.6,0,1.1-0.1,1.4-0.2c0.3-0.1,0.5-0.3,0.5-0.6c0.1-0.3,0.1-0.7,0.1-1.2v-14.3
			c0-0.6-0.1-0.9-0.3-1.1c-0.2-0.1-0.5-0.2-0.9-0.2c-0.3,0-0.6,0-0.9,0.1v-0.8l3.8-1h0.7v17.2c0,0.5,0,1,0.1,1.3
			c0.1,0.3,0.3,0.5,0.6,0.6c0.3,0.1,0.8,0.2,1.5,0.2V426z"/>
		<path class="st0" d="M958.3,426h-6.7v-0.8c0.6,0,1.1-0.1,1.4-0.2c0.3-0.1,0.5-0.3,0.5-0.6c0.1-0.3,0.1-0.7,0.1-1.2v-14.3
			c0-0.6-0.1-0.9-0.3-1.1c-0.2-0.1-0.5-0.2-0.9-0.2c-0.3,0-0.6,0-0.9,0.1v-0.8l3.8-1h0.7v17.2c0,0.5,0,1,0.1,1.3
			c0.1,0.3,0.3,0.5,0.6,0.6c0.3,0.1,0.8,0.2,1.5,0.2V426z"/>
		<path class="st0" d="M970.4,426.2c-1.1,0-2-0.3-2.6-0.9s-0.9-1.4-0.9-2.3c0-0.8,0.2-1.4,0.5-1.9c0.4-0.5,0.8-1,1.4-1.3
			c0.6-0.4,1.2-0.7,1.9-0.9c0.7-0.2,1.4-0.5,2-0.6c0.7-0.2,1.2-0.3,1.7-0.5v-1.2c0-1.2-0.2-2.1-0.7-2.6c-0.4-0.5-1.1-0.8-2-0.8
			c-0.8,0-1.4,0.2-1.6,0.5s-0.3,0.9-0.3,1.8c0,0.4-0.1,0.8-0.3,1s-0.5,0.3-0.9,0.3c-0.3,0-0.6-0.1-0.8-0.3s-0.4-0.6-0.4-1
			c0-0.5,0.2-1,0.6-1.5c0.4-0.5,1-0.9,1.8-1.2c0.8-0.3,1.7-0.5,2.7-0.5c1.6,0,2.7,0.4,3.4,1.1c0.7,0.7,1,1.8,1,3.3v6.4
			c0,0.6,0.1,1,0.2,1.1c0.1,0.2,0.4,0.3,0.7,0.3c0.3,0,0.5-0.1,0.7-0.2s0.4-0.3,0.6-0.5l0.4,0.5c-0.5,0.7-0.9,1.2-1.4,1.5
			c-0.4,0.3-1,0.5-1.8,0.5c-0.7,0-1.1-0.2-1.3-0.6s-0.4-0.9-0.5-1.6l-0.2-0.3v-4.9c-0.9,0.2-1.7,0.5-2.5,0.7
			c-0.8,0.3-1.4,0.7-1.9,1.1s-0.7,1.1-0.7,1.8c0,0.7,0.2,1.3,0.6,1.7c0.4,0.4,0.9,0.6,1.5,0.6c0.5,0,1-0.1,1.6-0.4s1.1-0.6,1.6-1.1
			l0.2,1h-0.3c-0.4,0.4-0.9,0.7-1.3,1c-0.4,0.3-0.9,0.5-1.3,0.7S971,426.2,970.4,426.2z"/>
		<path class="st0" d="M987.3,426h-6.7v-0.8c0.7,0,1.1-0.1,1.4-0.2c0.3-0.1,0.5-0.3,0.5-0.6c0.1-0.3,0.1-0.7,0.1-1.2v-8
			c0-0.5-0.1-0.8-0.3-1s-0.5-0.2-0.9-0.2c-0.3,0-0.5,0-0.8,0.1v-0.8l3.7-0.8h0.7l0,2.6l0.1,0.6v7.6c0,0.5,0,0.9,0.1,1.2
			c0.1,0.3,0.3,0.5,0.6,0.6c0.3,0.1,0.8,0.2,1.5,0.2V426z M995.9,426h-6.7v-0.8c0.7,0,1.2-0.1,1.5-0.2c0.3-0.1,0.5-0.3,0.6-0.6
			c0.1-0.3,0.1-0.7,0.1-1.2V418c0-1.1-0.1-2-0.4-2.6c-0.3-0.6-0.6-0.9-1-1.1s-0.8-0.3-1.3-0.3c-0.6,0-1.1,0.1-1.5,0.3
			c-0.4,0.2-0.8,0.5-1.2,0.8c-0.4,0.3-0.7,0.6-1,0.9l-0.2-1.4h0.4c0.8-0.7,1.5-1.2,2.3-1.7c0.7-0.5,1.5-0.7,2.4-0.7
			c1.3,0,2.3,0.4,2.9,1.3c0.6,0.9,1,2.1,1,3.7v5.9c0,0.5,0,0.9,0.1,1.2c0.1,0.3,0.3,0.5,0.6,0.6c0.3,0.1,0.8,0.2,1.4,0.2V426z"/>
		<path class="st0" d="M1002.4,426.2c-1.1,0-2-0.3-2.7-0.9c-0.7-0.6-1.3-1.3-1.7-2.3c-0.4-1-0.6-2.1-0.6-3.3c0-1.6,0.3-2.9,0.9-4
			c0.6-1.1,1.4-2,2.4-2.6c1-0.6,2.1-0.9,3.4-0.9c0.5,0,0.9,0.1,1.4,0.2c0.5,0.1,0.9,0.3,1.3,0.5h0.1v-3.7c0-0.6-0.1-1-0.2-1.2
			c-0.1-0.2-0.5-0.3-1.1-0.3c-0.1,0-0.4,0-0.8,0.1v-0.8l3.7-1h0.8v17c0,0.7,0.1,1.2,0.3,1.4s0.6,0.3,1.1,0.3h0.6v0.8l-3.7,0.7h-0.7
			v-2h-0.1c-0.5,0.5-1.2,0.9-1.9,1.4C1004.2,426,1003.4,426.2,1002.4,426.2z M1003.8,424.1c0.7,0,1.2-0.1,1.7-0.3
			c0.5-0.2,0.9-0.4,1.5-0.8v-7.5c-0.1-0.6-0.4-1.1-0.8-1.6c-0.4-0.5-1.1-0.7-2-0.7c-1.2,0-2.2,0.4-3,1.3c-0.8,0.9-1.1,2.2-1.1,4
			c0,2,0.3,3.4,1,4.2C1001.6,423.7,1002.5,424.1,1003.8,424.1z"/>
		<path class="st0" d="M1034.6,426h-14.4v-0.9c0.8,0,1.4-0.1,1.7-0.2c0.4-0.1,0.6-0.4,0.7-0.8c0.1-0.4,0.2-0.9,0.2-1.7v-11.6
			c0-0.7-0.1-1.3-0.2-1.7c-0.1-0.4-0.4-0.7-0.7-0.8c-0.4-0.2-1-0.2-1.7-0.2v-0.9h8.2v0.9c-0.8,0-1.4,0.1-1.8,0.2
			c-0.4,0.2-0.7,0.4-0.8,0.8c-0.1,0.4-0.2,1-0.2,1.7v12.3c0,0.6,0.2,1,0.5,1.2c0.3,0.2,0.9,0.3,1.7,0.3h1.3c1,0,1.8-0.1,2.4-0.2
			c0.6-0.1,1.1-0.4,1.4-0.7c0.4-0.3,0.7-0.8,0.9-1.3s0.5-1.2,0.8-2.1h0.9L1034.6,426z"/>
		<path class="st0" d="M1040.5,426.2c-1.1,0-2-0.3-2.6-0.9s-0.9-1.4-0.9-2.3c0-0.8,0.2-1.4,0.5-1.9c0.4-0.5,0.8-1,1.4-1.3
			s1.2-0.7,1.9-0.9c0.7-0.2,1.4-0.5,2-0.6s1.2-0.3,1.7-0.5v-1.2c0-1.2-0.2-2.1-0.7-2.6c-0.4-0.5-1.1-0.8-2-0.8
			c-0.8,0-1.4,0.2-1.6,0.5s-0.3,0.9-0.3,1.8c0,0.4-0.1,0.8-0.3,1s-0.5,0.3-0.9,0.3c-0.3,0-0.6-0.1-0.8-0.3c-0.3-0.2-0.4-0.6-0.4-1
			c0-0.5,0.2-1,0.6-1.5c0.4-0.5,1-0.9,1.8-1.2c0.8-0.3,1.7-0.5,2.7-0.5c1.6,0,2.7,0.4,3.4,1.1s1,1.8,1,3.3v6.4c0,0.6,0.1,1,0.2,1.1
			s0.4,0.3,0.7,0.3c0.3,0,0.5-0.1,0.7-0.2s0.4-0.3,0.6-0.5l0.4,0.5c-0.5,0.7-0.9,1.2-1.4,1.5s-1,0.5-1.8,0.5c-0.7,0-1.1-0.2-1.3-0.6
			s-0.4-0.9-0.5-1.6l-0.2-0.3v-4.9c-0.9,0.2-1.7,0.5-2.5,0.7c-0.8,0.3-1.4,0.7-1.9,1.1c-0.5,0.5-0.7,1.1-0.7,1.8
			c0,0.7,0.2,1.3,0.6,1.7c0.4,0.4,0.9,0.6,1.5,0.6c0.5,0,1-0.1,1.6-0.4c0.6-0.2,1.1-0.6,1.6-1.1l0.2,1h-0.3c-0.4,0.4-0.9,0.7-1.3,1
			c-0.4,0.3-0.9,0.5-1.3,0.7S1041.2,426.2,1040.5,426.2z"/>
		<path class="st0" d="M1058,426h-7.3v-0.8c0.6,0,1.1-0.1,1.4-0.2c0.3-0.1,0.5-0.3,0.6-0.6c0.1-0.3,0.1-0.7,0.1-1.2v-7.8
			c0-0.5,0-0.9-0.1-1.2c-0.1-0.3-0.4-0.4-0.9-0.4c-0.3,0-0.6,0-0.9,0.1v-0.8l3.6-0.9h0.7v2.9h0.1c0.5-0.7,0.9-1.3,1.3-1.7
			c0.4-0.5,0.8-0.8,1.1-1c0.4-0.2,0.8-0.3,1.3-0.3c0.6,0,1,0.1,1.3,0.4c0.3,0.3,0.4,0.7,0.4,1.2c0,0.5-0.1,0.9-0.4,1.2
			s-0.6,0.4-0.9,0.4c-0.3,0-0.6-0.1-0.8-0.2c-0.2-0.2-0.5-0.3-0.6-0.5c-0.2-0.2-0.3-0.2-0.4-0.2c-0.3,0-0.7,0.2-1.1,0.7
			c-0.4,0.5-0.8,1-1.2,1.6v6.5c0,0.6,0.1,1,0.2,1.3c0.2,0.3,0.4,0.5,0.8,0.6c0.4,0.1,1,0.1,1.7,0.1V426z"/>
		<path class="st0" d="M1066.5,432.6c-1.3,0-2.3-0.2-3-0.5s-1.2-0.7-1.5-1.2c-0.3-0.5-0.4-1-0.4-1.5c0-0.5,0.2-1,0.6-1.5
			c0.4-0.5,1-1.2,1.8-1.9v-0.3l0.9,0.2c-0.4,0.6-0.6,1.1-0.8,1.5c-0.1,0.4-0.2,0.7-0.2,1.1c0,0.8,0.4,1.4,1.1,1.8
			c0.7,0.4,1.8,0.6,3.3,0.6c1.1,0,2.1-0.1,2.8-0.4c0.7-0.3,1.2-0.6,1.5-1.1c0.3-0.4,0.5-0.8,0.5-1.2c0-0.5-0.2-0.9-0.5-1.2
			c-0.3-0.3-0.8-0.5-1.3-0.6c-0.5-0.1-1.1-0.2-1.7-0.2s-1.1,0-1.6,0c-0.9,0-1.5,0-2,0s-0.8,0-1,0c-0.2,0-0.4,0-0.5,0l-0.3-0.1
			c-0.3-0.1-0.6-0.2-0.9-0.5c-0.3-0.2-0.5-0.5-0.7-0.8s-0.3-0.6-0.3-0.9c0-0.3,0.1-0.7,0.3-1.1s0.5-0.7,0.9-1.1
			c0.4-0.4,0.8-0.7,1.2-1.1v-0.3l0.8,0.5c-0.1,0.1-0.2,0.3-0.3,0.5c-0.1,0.2-0.3,0.5-0.3,0.8c-0.1,0.3-0.1,0.5-0.1,0.7
			c0,0.3,0.1,0.5,0.3,0.7c0.2,0.2,0.6,0.3,1,0.4c0.5,0.1,1.2,0.1,2.1,0.1c1.2,0,2.3,0.1,3.3,0.2c1,0.1,1.7,0.4,2.3,0.9
			c0.6,0.5,0.8,1.2,0.8,2.3c0,0.9-0.2,1.7-0.7,2.4s-1.1,1.2-1.9,1.6c-0.8,0.4-1.6,0.7-2.6,0.9
			C1068.3,432.5,1067.4,432.6,1066.5,432.6z M1067.8,421.5c-0.5,0-1,0-1.4-0.1c-0.4-0.1-0.9-0.2-1.3-0.3l-0.3-0.3
			c-0.5-0.3-0.9-0.6-1.3-0.9c-0.4-0.4-0.6-0.8-0.8-1.3c-0.2-0.5-0.3-1.1-0.3-1.7c0-0.9,0.2-1.8,0.7-2.5c0.4-0.7,1.1-1.2,1.9-1.6
			c0.8-0.4,1.7-0.6,2.7-0.6c0.6,0,1.1,0.1,1.6,0.2c0.5,0.1,1,0.3,1.4,0.5c0.4,0.2,0.8,0.5,1.2,0.7v0.7c0.2,0.3,0.4,0.7,0.7,1.1
			c0.2,0.5,0.4,1.1,0.4,1.8c0,0.9-0.2,1.6-0.7,2.3s-1,1.2-1.8,1.5C1069.8,421.4,1068.9,421.5,1067.8,421.5z M1067.9,420.5
			c0.7,0,1.3-0.2,1.8-0.7c0.5-0.5,0.7-1.4,0.7-2.8c0-1.2-0.3-2.1-0.8-2.8c-0.5-0.7-1.2-1.1-2.2-1.1c-0.8,0-1.4,0.3-1.8,0.9
			c-0.5,0.6-0.7,1.4-0.7,2.6c0,1.2,0.2,2.2,0.7,2.8C1066.2,420.2,1066.9,420.5,1067.9,420.5z M1074.7,412.7v1.5l-3.1-0.1l-1-1.2
			L1074.7,412.7z"/>
		<path class="st0" d="M1082.2,426.2c-1.2,0-2.2-0.3-3.2-0.8c-0.9-0.5-1.7-1.3-2.2-2.4c-0.5-1.1-0.8-2.3-0.8-3.8
			c0-1.6,0.3-2.9,0.8-3.9c0.6-1,1.3-1.8,2.2-2.3c0.9-0.5,2-0.8,3.1-0.8c1.6,0,2.9,0.5,3.8,1.6c1,1.1,1.5,2.6,1.6,4.6h-9.4l0-1.1h6.7
			c0-0.7-0.1-1.4-0.4-2c-0.2-0.6-0.6-1.1-1-1.5c-0.4-0.4-1-0.6-1.7-0.6c-1.1,0-2,0.4-2.5,1.3c-0.6,0.9-0.8,2.1-0.8,3.6
			c0,1.3,0.2,2.4,0.6,3.3c0.4,0.9,1,1.5,1.7,1.9c0.7,0.4,1.4,0.6,2.2,0.6c0.8,0,1.4-0.1,1.9-0.3c0.5-0.2,0.9-0.5,1.3-0.8
			c0.3-0.3,0.7-0.7,1-1.1l0.6,0.4c-0.3,0.5-0.5,1-0.9,1.5c-0.3,0.5-0.7,0.9-1.1,1.3c-0.4,0.4-0.9,0.6-1.5,0.9
			C1083.6,426.1,1083,426.2,1082.2,426.2z"/>
		<path class="st0" d="M1103.8,423.4l0.6,0.5c-0.4,0.5-0.7,0.9-1,1.3c-0.3,0.4-0.7,0.6-1.1,0.8c-0.4,0.2-0.9,0.3-1.5,0.3
			c-1,0-1.7-0.3-2.1-0.8c-0.4-0.6-0.7-1.5-0.7-2.7v-8.8h-1.6v-0.7c0.7-0.4,1.3-1,1.8-1.7c0.5-0.7,1-1.7,1.5-2.9h0.7v4h3.3v1.2h-3.3
			v8c0,1,0.1,1.7,0.3,2.1c0.2,0.4,0.6,0.6,1.1,0.6c0.5,0,0.8-0.1,1.1-0.3C1103.2,424.1,1103.5,423.8,1103.8,423.4z"/>
		<path class="st0" d="M1111.7,426.2c-1.2,0-2.2-0.3-3.2-0.8c-0.9-0.5-1.7-1.3-2.2-2.4c-0.5-1.1-0.8-2.3-0.8-3.8
			c0-1.6,0.3-2.9,0.8-3.9c0.6-1,1.3-1.8,2.2-2.3c0.9-0.5,2-0.8,3.1-0.8c1.6,0,2.9,0.5,3.8,1.6c1,1.1,1.5,2.6,1.6,4.6h-9.4l0-1.1h6.7
			c0-0.7-0.1-1.4-0.4-2c-0.2-0.6-0.6-1.1-1-1.5c-0.4-0.4-1-0.6-1.7-0.6c-1.1,0-2,0.4-2.5,1.3c-0.6,0.9-0.8,2.1-0.8,3.6
			c0,1.3,0.2,2.4,0.6,3.3c0.4,0.9,1,1.5,1.7,1.9c0.7,0.4,1.4,0.6,2.2,0.6c0.8,0,1.4-0.1,1.9-0.3c0.5-0.2,0.9-0.5,1.3-0.8
			c0.3-0.3,0.7-0.7,1-1.1l0.6,0.4c-0.3,0.5-0.5,1-0.9,1.5c-0.3,0.5-0.7,0.9-1.1,1.3c-0.4,0.4-0.9,0.6-1.5,0.9
			C1113.1,426.1,1112.4,426.2,1111.7,426.2z"/>
		<path class="st0" d="M1122.8,426h-4.9v-0.8c0.5,0,0.9-0.1,1.2-0.3c0.3-0.2,0.7-0.6,1.2-1.1l3.7-4.7l0.9,1.1h-0.4l-2.4,3.4
			c-0.1,0.2-0.3,0.5-0.5,0.7c-0.2,0.2-0.2,0.4-0.2,0.5c0,0.2,0.1,0.3,0.3,0.3c0.2,0.1,0.5,0.1,1,0.1V426z M1132,426h-6.1v-0.8
			c0.5,0,0.9,0,1.1-0.1c0.2-0.1,0.3-0.3,0.3-0.5c0-0.2-0.1-0.4-0.2-0.6l-1.8-2.8l-0.7-1.2l-0.5-0.4l-3.2-4.5
			c-0.3-0.5-0.6-0.8-0.8-1.1s-0.5-0.4-0.7-0.5c-0.3-0.1-0.6-0.1-1-0.1v-0.8h6.2v0.8c-0.9,0-1.4,0.2-1.4,0.7c0,0.2,0.1,0.3,0.2,0.5
			c0.1,0.2,0.3,0.5,0.5,0.8c0.2,0.3,0.5,0.8,0.8,1.3l0.8,1.5l0.5,0.3l3.7,5.1c0.4,0.6,0.8,1,1.1,1.2c0.3,0.3,0.7,0.4,1.3,0.4V426z
			 M1129.2,414.7l-3.2,4.1l-0.8-0.9h0.4l1.4-1.9c0.4-0.5,0.7-0.9,0.8-1.2c0.2-0.3,0.2-0.5,0.2-0.7c0-0.2-0.1-0.4-0.2-0.5
			c-0.2-0.1-0.5-0.2-0.9-0.2v-0.8h4.8v0.8c-0.5,0-0.9,0.1-1.3,0.4C1129.8,413.9,1129.5,414.3,1129.2,414.7z"/>
		<path class="st0" d="M1140.4,423.4l0.6,0.5c-0.4,0.5-0.7,0.9-1,1.3c-0.3,0.4-0.7,0.6-1.1,0.8c-0.4,0.2-0.9,0.3-1.5,0.3
			c-1,0-1.7-0.3-2.1-0.8c-0.4-0.6-0.7-1.5-0.7-2.7v-8.8h-1.6v-0.7c0.7-0.4,1.3-1,1.8-1.7c0.5-0.7,1-1.7,1.5-2.9h0.7v4h3.3v1.2h-3.3
			v8c0,1,0.1,1.7,0.3,2.1c0.2,0.4,0.6,0.6,1.1,0.6c0.5,0,0.8-0.1,1.1-0.3C1139.7,424.1,1140,423.8,1140.4,423.4z"/>
	</g>
</g>
<rect x="484.7" y="573.4" class="st2" width="950.6" height="207.9"/>
<rect x="582.7" y="622.6" transform="matrix(-1.836970e-16 1 -1 -1.836970e-16 1314.9946 39.8254)" class="st1" width="109.7" height="109.7"/>
<g>
	<g>
		<path class="st1" d="M791,667.3c-2,0-3.7-0.4-5-1.2c-1.4-0.8-2.4-2-3.1-3.4c-0.7-1.5-1-3.1-1-4.9c0-2.1,0.4-3.8,1.2-5.3
			c0.8-1.4,1.9-2.5,3.4-3.3c1.4-0.8,3.1-1.1,4.9-1.1c1,0,1.8,0.1,2.5,0.3c0.6,0.2,1.1,0.3,1.5,0.5c0.4,0.2,0.7,0.3,0.9,0.3
			s0.4-0.1,0.5-0.3c0.1-0.2,0.3-0.4,0.5-0.7h0.9v6.5h-1c-0.3-1.9-1-3.2-2-4s-2.2-1.2-3.7-1.2c-2.1,0-3.7,0.7-4.8,2.2
			c-1.1,1.5-1.7,3.5-1.7,6c0,1.9,0.3,3.4,0.9,4.6c0.6,1.2,1.4,2.1,2.5,2.6c1,0.6,2.2,0.9,3.6,0.9c1.3,0,2.5-0.2,3.5-0.7
			c1-0.5,1.9-1.2,2.7-2l0.7,0.6c-0.5,0.8-1.1,1.4-1.9,2c-0.7,0.6-1.6,1.1-2.5,1.4C793.4,667.2,792.3,667.3,791,667.3z"/>
		<path class="st1" d="M807.4,667.3c-2,0-3.6-0.6-4.8-1.9c-1.2-1.2-1.7-3-1.7-5.3c0-1.4,0.3-2.6,0.8-3.6c0.5-1,1.3-1.8,2.3-2.4
			c1-0.6,2.1-0.9,3.4-0.9c2,0,3.6,0.6,4.7,1.8c1.2,1.2,1.7,2.9,1.7,5c0,1.6-0.3,2.9-0.8,4c-0.6,1.1-1.3,1.9-2.3,2.4
			C809.8,667,808.6,667.3,807.4,667.3z M807.5,666.2c0.8,0,1.5-0.2,2-0.5c0.5-0.4,1-1,1.2-1.8c0.3-0.9,0.4-2.1,0.4-3.6
			c0-1.7-0.3-3.2-1-4.2c-0.6-1.1-1.6-1.6-2.9-1.6c-1.1,0-2,0.5-2.7,1.4c-0.7,0.9-1,2.3-1,4.1c0,2.3,0.3,3.9,1,4.9
			S806.3,666.2,807.5,666.2z"/>
		<path class="st1" d="M822.4,667h-6.7v-0.8c0.7,0,1.1-0.1,1.4-0.2s0.5-0.3,0.5-0.6c0.1-0.3,0.1-0.7,0.1-1.2v-8c0-0.5-0.1-0.8-0.3-1
			c-0.2-0.2-0.5-0.2-0.9-0.2c-0.3,0-0.5,0-0.8,0.1v-0.8l3.7-0.8h0.7l0,2.6l0.1,0.6v7.6c0,0.5,0,0.9,0.1,1.2c0.1,0.3,0.3,0.5,0.6,0.6
			c0.3,0.1,0.8,0.2,1.5,0.2V667z M830.9,667h-6.7v-0.8c0.7,0,1.2-0.1,1.5-0.2c0.3-0.1,0.5-0.3,0.6-0.6c0.1-0.3,0.1-0.7,0.1-1.2V659
			c0-1.1-0.1-2-0.4-2.6c-0.3-0.6-0.6-0.9-1-1.1c-0.4-0.2-0.8-0.3-1.3-0.3c-0.6,0-1.1,0.1-1.5,0.3c-0.4,0.2-0.8,0.5-1.2,0.8
			c-0.4,0.3-0.7,0.6-1,0.9l-0.2-1.4h0.4c0.8-0.7,1.5-1.2,2.3-1.7c0.7-0.5,1.5-0.7,2.4-0.7c1.3,0,2.3,0.4,2.9,1.3
			c0.6,0.9,1,2.1,1,3.7v5.9c0,0.5,0,0.9,0.1,1.2c0.1,0.3,0.3,0.5,0.6,0.6c0.3,0.1,0.8,0.2,1.4,0.2V667z"/>
		<path class="st1" d="M840.1,664.5l0.6,0.5c-0.4,0.5-0.7,0.9-1,1.3c-0.3,0.4-0.7,0.6-1.1,0.8c-0.4,0.2-0.9,0.3-1.5,0.3
			c-1,0-1.7-0.3-2.1-0.8c-0.4-0.6-0.7-1.5-0.7-2.7v-8.8h-1.6v-0.7c0.7-0.4,1.3-1,1.8-1.7c0.5-0.7,1-1.7,1.5-2.9h0.7v4h3.3v1.2h-3.3
			v8c0,1,0.1,1.7,0.3,2.1c0.2,0.4,0.6,0.6,1.1,0.6c0.5,0,0.8-0.1,1.1-0.3C839.4,665.1,839.7,664.9,840.1,664.5z"/>
		<path class="st1" d="M848.8,667h-7.3v-0.8c0.6,0,1.1-0.1,1.4-0.2c0.3-0.1,0.5-0.3,0.6-0.6c0.1-0.3,0.1-0.7,0.1-1.2v-7.8
			c0-0.5,0-0.9-0.1-1.2c-0.1-0.3-0.4-0.4-0.9-0.4c-0.3,0-0.6,0-0.9,0.1v-0.8l3.6-0.9h0.7v2.9h0.1c0.5-0.7,0.9-1.3,1.3-1.7
			c0.4-0.5,0.8-0.8,1.1-1c0.4-0.2,0.8-0.3,1.3-0.3c0.6,0,1,0.1,1.3,0.4c0.3,0.3,0.4,0.7,0.4,1.2c0,0.5-0.1,0.9-0.4,1.2
			c-0.3,0.2-0.6,0.4-0.9,0.4c-0.3,0-0.6-0.1-0.8-0.2c-0.2-0.2-0.5-0.3-0.6-0.5s-0.3-0.2-0.4-0.2c-0.3,0-0.7,0.2-1.1,0.7
			s-0.8,1-1.2,1.6v6.5c0,0.6,0.1,1,0.2,1.3c0.2,0.3,0.4,0.5,0.8,0.6s1,0.1,1.7,0.1V667z"/>
		<path class="st1" d="M856.3,667.2c-1.1,0-2-0.3-2.6-0.9c-0.6-0.6-0.9-1.4-0.9-2.3c0-0.8,0.2-1.4,0.5-1.9c0.4-0.5,0.8-1,1.4-1.3
			c0.6-0.4,1.2-0.7,1.9-0.9c0.7-0.2,1.4-0.5,2-0.6c0.7-0.2,1.2-0.3,1.7-0.5v-1.2c0-1.2-0.2-2.1-0.7-2.6c-0.4-0.5-1.1-0.8-2-0.8
			c-0.8,0-1.4,0.2-1.6,0.5s-0.3,0.9-0.3,1.8c0,0.4-0.1,0.8-0.3,1c-0.2,0.2-0.5,0.3-0.9,0.3c-0.3,0-0.6-0.1-0.8-0.3
			c-0.3-0.2-0.4-0.6-0.4-1c0-0.5,0.2-1,0.6-1.5c0.4-0.5,1-0.9,1.8-1.2s1.7-0.5,2.7-0.5c1.6,0,2.7,0.4,3.4,1.1s1,1.8,1,3.3v6.4
			c0,0.6,0.1,1,0.2,1.1c0.1,0.2,0.4,0.3,0.7,0.3c0.3,0,0.5-0.1,0.7-0.2s0.4-0.3,0.6-0.5l0.4,0.5c-0.5,0.7-0.9,1.2-1.4,1.5
			c-0.4,0.3-1,0.5-1.8,0.5c-0.7,0-1.1-0.2-1.3-0.6c-0.2-0.4-0.4-0.9-0.5-1.6l-0.2-0.3v-4.9c-0.9,0.2-1.7,0.5-2.5,0.7
			c-0.8,0.3-1.4,0.7-1.9,1.1c-0.5,0.5-0.7,1.1-0.7,1.8c0,0.7,0.2,1.3,0.6,1.7c0.4,0.4,0.9,0.6,1.5,0.6c0.5,0,1-0.1,1.6-0.4
			c0.6-0.2,1.1-0.6,1.6-1.1l0.2,1h-0.3c-0.4,0.4-0.9,0.7-1.3,1s-0.9,0.5-1.3,0.7C857.5,667.1,856.9,667.2,856.3,667.2z"/>
		<path class="st1" d="M866.9,667.2l-0.1-4.9h0.8c0.3,1.5,0.8,2.5,1.4,3.1s1.4,0.9,2.5,0.9c0.7,0,1.3-0.1,1.8-0.4
			c0.5-0.3,0.7-0.8,0.7-1.4c0-0.5-0.1-0.8-0.2-1.1s-0.5-0.6-0.9-0.9c-0.5-0.3-1.2-0.7-2.1-1.1c-0.9-0.4-1.6-0.9-2.2-1.3
			c-0.6-0.4-1-0.9-1.2-1.3c-0.3-0.5-0.4-1.1-0.4-1.8c0-1.2,0.4-2.1,1.3-2.7c0.9-0.6,1.9-0.9,3.2-0.9c0.7,0,1.3,0.1,1.8,0.2
			s0.9,0.3,1.2,0.5h0l0.5-0.6h0.6l0.1,4.3h-0.8c-0.3-1.3-0.7-2.3-1.3-2.8c-0.6-0.5-1.3-0.8-2.2-0.8c-0.7,0-1.2,0.2-1.7,0.5
			s-0.7,0.8-0.7,1.4c0,0.5,0.3,1,0.8,1.5c0.5,0.4,1.4,1,2.6,1.6c0.9,0.5,1.6,0.9,2.2,1.3c0.6,0.4,1.1,0.9,1.4,1.4
			c0.3,0.5,0.5,1.1,0.5,1.8c0,0.9-0.2,1.6-0.7,2.1c-0.4,0.5-1,0.9-1.8,1.2s-1.6,0.4-2.4,0.4c-0.8,0-1.5-0.1-2-0.3
			c-0.5-0.2-0.9-0.3-1.3-0.5h-0.1l-0.6,0.7H866.9z"/>
		<path class="st1" d="M885.7,664.5l0.6,0.5c-0.4,0.5-0.7,0.9-1,1.3c-0.3,0.4-0.7,0.6-1.1,0.8c-0.4,0.2-0.9,0.3-1.5,0.3
			c-1,0-1.7-0.3-2.1-0.8c-0.4-0.6-0.7-1.5-0.7-2.7v-8.8h-1.6v-0.7c0.7-0.4,1.3-1,1.8-1.7c0.5-0.7,1-1.7,1.5-2.9h0.7v4h3.3v1.2h-3.3
			v8c0,1,0.1,1.7,0.3,2.1c0.2,0.4,0.6,0.6,1.1,0.6c0.5,0,0.8-0.1,1.1-0.3C885,665.1,885.3,664.9,885.7,664.5z"/>
		<path class="st1" d="M897,656.9c-0.6,0-1-0.2-1.3-0.5c-0.3-0.3-0.4-0.7-0.4-1.2c0-0.5,0.2-0.9,0.5-1.3c0.3-0.3,0.7-0.5,1.3-0.5
			c0.6,0,1,0.2,1.3,0.5c0.3,0.4,0.5,0.8,0.5,1.3c0,0.4-0.2,0.8-0.5,1.1C898,656.7,897.5,656.9,897,656.9z M897,667.2
			c-0.6,0-1-0.2-1.3-0.5c-0.3-0.3-0.4-0.7-0.4-1.2c0-0.5,0.2-0.9,0.5-1.3c0.3-0.4,0.7-0.5,1.3-0.5c0.6,0,1,0.2,1.3,0.5
			c0.3,0.4,0.5,0.8,0.5,1.3c0,0.4-0.2,0.8-0.5,1.2C898,667.1,897.5,667.2,897,667.2z"/>
		<path class="st1" d="M919.5,667h-10.1v-0.8c1.4,0,2.3-0.1,2.9-0.4c0.6-0.3,0.8-0.8,0.8-1.5v-12c0-0.5-0.1-0.8-0.2-1.1
			c-0.1-0.2-0.4-0.3-0.8-0.3c-0.2,0-0.5,0-0.8,0.1s-0.7,0.1-1.1,0.2s-0.7,0.1-1,0.2v-0.9l5.6-1.6h0.8v15.5c0,0.7,0.3,1.2,0.9,1.5
			c0.6,0.3,1.5,0.4,2.9,0.4V667z"/>
		<path class="st1" d="M934,667h-11.4v-1l4.4-4.3c1-1,1.8-1.8,2.4-2.6c0.6-0.8,1.1-1.6,1.4-2.4c0.3-0.8,0.5-1.7,0.5-2.7
			c0-1.1-0.3-1.9-1-2.5c-0.6-0.6-1.5-1-2.7-1c-0.9,0-1.8,0.2-2.4,0.6c-0.7,0.4-1.3,1.1-1.8,2.2l-0.7-0.3c0.4-1.4,1.2-2.5,2.1-3.2
			c1-0.8,2.2-1.1,3.6-1.1c1.1,0,2.1,0.2,2.9,0.6s1.5,1,2,1.7c0.5,0.7,0.7,1.6,0.7,2.6c0,0.8-0.2,1.6-0.5,2.4
			c-0.4,0.8-0.9,1.6-1.6,2.4s-1.6,1.7-2.6,2.8l-3.8,3.5v0.1l2-0.1h4c0.8,0,1.3-0.2,1.6-0.5c0.3-0.3,0.6-0.9,1-1.8h0.8L934,667z"/>
		<path class="st1" d="M939.4,667.2c-0.6,0-1-0.2-1.3-0.5c-0.3-0.3-0.4-0.7-0.4-1.2c0-0.5,0.2-0.9,0.5-1.3c0.3-0.4,0.7-0.5,1.3-0.5
			c0.6,0,1,0.2,1.3,0.5c0.3,0.4,0.5,0.8,0.5,1.3c0,0.4-0.2,0.8-0.5,1.2C940.4,667.1,940,667.2,939.4,667.2z"/>
		<path class="st1" d="M948,667.4c-1.1,0-2-0.1-2.5-0.4c-0.6-0.3-0.8-0.7-0.8-1.2c0-0.3,0.1-0.6,0.3-0.9c0.2-0.2,0.5-0.4,0.9-0.4
			c0.3,0,0.6,0.1,0.9,0.2s0.6,0.3,0.9,0.5c0.3,0.2,0.6,0.3,1,0.5c0.4,0.1,0.8,0.2,1.2,0.2c0.7,0,1.3-0.1,1.9-0.4s1.1-0.7,1.4-1.3
			c0.4-0.6,0.5-1.4,0.5-2.4c0-1.1-0.2-1.9-0.6-2.6s-1-1.1-1.7-1.5c-0.7-0.3-1.5-0.6-2.4-0.7c-0.9-0.1-1.8-0.2-2.8-0.2l-0.3-0.4
			l1.8-7.4h8l-0.5,2.3h-6.8l-0.8,3.2c1,0.1,1.9,0.2,2.7,0.4c0.8,0.2,1.6,0.4,2.3,0.7c0.7,0.3,1.3,0.7,1.8,1.1c0.5,0.5,0.9,1,1.2,1.7
			c0.3,0.7,0.4,1.4,0.4,2.3c0,1.1-0.2,2.1-0.6,2.9c-0.4,0.8-0.9,1.5-1.6,2.1c-0.7,0.5-1.5,1-2.5,1.2
			C950.2,667.2,949.2,667.4,948,667.4z"/>
		<path class="st1" d="M790.4,701.1h-8.9v-0.9c0.8,0,1.4-0.1,1.8-0.2c0.4-0.1,0.7-0.4,0.8-0.8c0.1-0.4,0.2-1,0.2-1.8v-11.6
			c0-0.8-0.1-1.3-0.2-1.7c-0.1-0.4-0.4-0.6-0.8-0.7c-0.4-0.1-1-0.2-1.8-0.2v-0.9h7.8c1.7,0,3.1,0.2,4.2,0.5c1,0.4,1.8,0.9,2.3,1.5
			s0.7,1.5,0.7,2.4c0,1.3-0.4,2.2-1.2,2.9c-0.8,0.6-1.8,1.1-3,1.4v0.1c0.8,0.1,1.6,0.4,2.4,0.7c0.8,0.4,1.4,0.9,1.9,1.5
			c0.5,0.7,0.8,1.5,0.8,2.5c0,1.6-0.6,2.9-1.8,3.7C794.3,700.7,792.6,701.1,790.4,701.1z M787,683.6v7.2h2c1.8,0,3-0.3,3.6-0.9
			c0.7-0.6,1-1.5,1-2.8c0-1.1-0.4-2-1.1-2.6c-0.7-0.6-2-0.9-3.8-0.9c-0.3,0-0.6,0-0.9,0C787.5,683.6,787.2,683.6,787,683.6z
			 M789,700c0.6,0,1.2,0,1.9-0.1c0.6-0.1,1.2-0.2,1.7-0.5c0.5-0.3,0.9-0.6,1.2-1.2c0.3-0.5,0.5-1.2,0.5-2.1c0-1.1-0.3-1.9-0.8-2.5
			c-0.5-0.6-1.2-1-2-1.2c-0.8-0.2-1.7-0.4-2.6-0.4h-2v8c0.3,0,0.7,0,1,0.1S788.7,700,789,700z"/>
		<path class="st1" d="M805.5,701.4c-1.2,0-2.2-0.3-3.2-0.8s-1.7-1.3-2.2-2.4c-0.5-1.1-0.8-2.3-0.8-3.8c0-1.6,0.3-2.9,0.8-3.9
			c0.6-1,1.3-1.8,2.2-2.3c0.9-0.5,2-0.8,3.1-0.8c1.6,0,2.9,0.5,3.8,1.6c1,1.1,1.5,2.6,1.6,4.6h-9.4l0-1.1h6.7c0-0.7-0.1-1.4-0.4-2
			s-0.6-1.1-1-1.5c-0.4-0.4-1-0.6-1.7-0.6c-1.1,0-2,0.4-2.5,1.3c-0.6,0.9-0.8,2.1-0.8,3.6c0,1.3,0.2,2.4,0.6,3.3
			c0.4,0.9,1,1.5,1.7,1.9s1.4,0.6,2.2,0.6c0.8,0,1.4-0.1,1.9-0.3c0.5-0.2,0.9-0.5,1.3-0.8s0.7-0.7,1-1.1l0.6,0.4
			c-0.3,0.5-0.5,1-0.9,1.5c-0.3,0.5-0.7,0.9-1.1,1.3c-0.4,0.4-0.9,0.6-1.5,0.9C807,701.3,806.3,701.4,805.5,701.4z"/>
		<path class="st1" d="M813.1,701.3l-0.1-4.9h0.8c0.3,1.5,0.8,2.5,1.4,3.1s1.4,0.9,2.5,0.9c0.7,0,1.3-0.1,1.8-0.4
			c0.5-0.3,0.7-0.8,0.7-1.4c0-0.5-0.1-0.8-0.2-1.1s-0.5-0.6-0.9-0.9c-0.5-0.3-1.2-0.7-2.1-1.1c-0.9-0.4-1.6-0.9-2.2-1.3
			c-0.6-0.4-1-0.9-1.2-1.3c-0.3-0.5-0.4-1.1-0.4-1.8c0-1.2,0.4-2.1,1.3-2.7c0.9-0.6,1.9-0.9,3.2-0.9c0.7,0,1.3,0.1,1.8,0.2
			s0.9,0.3,1.2,0.5h0l0.5-0.6h0.6l0.1,4.3h-0.8c-0.3-1.3-0.7-2.3-1.3-2.8c-0.6-0.5-1.3-0.8-2.2-0.8c-0.7,0-1.2,0.2-1.7,0.5
			s-0.7,0.8-0.7,1.4c0,0.5,0.3,1,0.8,1.5c0.5,0.4,1.4,1,2.6,1.6c0.9,0.5,1.6,0.9,2.2,1.3c0.6,0.4,1.1,0.9,1.4,1.4
			c0.3,0.5,0.5,1.1,0.5,1.8c0,0.9-0.2,1.6-0.7,2.1c-0.4,0.5-1,0.9-1.8,1.2s-1.6,0.4-2.4,0.4c-0.8,0-1.5-0.1-2-0.3
			c-0.5-0.2-0.9-0.3-1.3-0.5h-0.1l-0.6,0.7H813.1z"/>
		<path class="st1" d="M831.8,698.5l0.6,0.5c-0.4,0.5-0.7,0.9-1,1.3c-0.3,0.4-0.7,0.6-1.1,0.8c-0.4,0.2-0.9,0.3-1.5,0.3
			c-1,0-1.7-0.3-2.1-0.8c-0.4-0.6-0.7-1.5-0.7-2.7V689h-1.6v-0.7c0.7-0.4,1.3-1,1.8-1.7c0.5-0.7,1-1.7,1.5-2.9h0.7v4h3.3v1.2h-3.3v8
			c0,1,0.1,1.7,0.3,2.1c0.2,0.4,0.6,0.6,1.1,0.6c0.5,0,0.8-0.1,1.1-0.3C831.2,699.2,831.5,698.9,831.8,698.5z"/>
		<path class="st1" d="M848.9,701.1h-8.5v-0.9c0.8,0,1.4-0.1,1.8-0.2c0.4-0.1,0.7-0.3,0.8-0.7c0.1-0.3,0.2-0.9,0.2-1.6v-12.2
			c0-0.7-0.1-1.2-0.3-1.5s-0.5-0.6-0.9-0.7c-0.4-0.1-1-0.2-1.7-0.2v-0.9h15.5l0.2,4.7h-0.9c-0.1-0.7-0.3-1.2-0.4-1.7
			c-0.1-0.4-0.4-0.8-0.7-1s-0.7-0.4-1.3-0.5c-0.6-0.1-1.3-0.2-2.3-0.2h-4.6v7.2h3.4c0.8,0,1.5-0.1,1.9-0.2c0.4-0.2,0.8-0.4,0.9-0.8
			c0.2-0.4,0.2-1,0.2-1.7h1v6.6h-1c0-0.8-0.1-1.4-0.2-1.7c-0.2-0.4-0.5-0.6-0.9-0.8c-0.4-0.1-1.1-0.2-1.9-0.2h-3.4v6
			c0,0.6,0.1,1.1,0.3,1.4c0.2,0.3,0.5,0.5,0.9,0.7c0.4,0.1,1,0.2,1.8,0.2V701.1z"/>
		<path class="st1" d="M863.9,701.4c-2,0-3.6-0.6-4.8-1.9c-1.2-1.2-1.7-3-1.7-5.3c0-1.4,0.3-2.6,0.8-3.6c0.5-1,1.3-1.8,2.3-2.4
			c1-0.6,2.1-0.9,3.4-0.9c2,0,3.6,0.6,4.7,1.8c1.2,1.2,1.7,2.9,1.7,5c0,1.6-0.3,2.9-0.8,4c-0.6,1.1-1.3,1.9-2.3,2.4
			C866.3,701.1,865.1,701.4,863.9,701.4z M864,700.2c0.8,0,1.5-0.2,2-0.5c0.5-0.4,1-1,1.2-1.8c0.3-0.9,0.4-2.1,0.4-3.6
			c0-1.7-0.3-3.2-1-4.2c-0.6-1.1-1.6-1.6-2.9-1.6c-1.1,0-2,0.5-2.7,1.4c-0.7,0.9-1,2.3-1,4.1c0,2.3,0.3,3.9,1,4.9
			S862.8,700.3,864,700.2z"/>
		<path class="st1" d="M879.4,701.1h-7.3v-0.8c0.6,0,1.1-0.1,1.4-0.2c0.3-0.1,0.5-0.3,0.6-0.6c0.1-0.3,0.1-0.7,0.1-1.2v-7.8
			c0-0.5,0-0.9-0.1-1.2c-0.1-0.3-0.4-0.4-0.9-0.4c-0.3,0-0.6,0-0.9,0.1v-0.8l3.6-0.9h0.7v2.9h0.1c0.5-0.7,0.9-1.3,1.3-1.7
			c0.4-0.5,0.8-0.8,1.1-1c0.4-0.2,0.8-0.3,1.3-0.3c0.6,0,1,0.1,1.3,0.4c0.3,0.3,0.4,0.7,0.4,1.2c0,0.5-0.1,0.9-0.4,1.2
			c-0.3,0.2-0.6,0.4-0.9,0.4c-0.3,0-0.6-0.1-0.8-0.2c-0.2-0.2-0.5-0.3-0.6-0.5s-0.3-0.2-0.4-0.2c-0.3,0-0.7,0.2-1.1,0.7
			s-0.8,1-1.2,1.6v6.5c0,0.6,0.1,1,0.2,1.3c0.2,0.3,0.4,0.5,0.8,0.6s1,0.1,1.7,0.1V701.1z"/>
		<path class="st1" d="M891.4,701.5h-0.9l-0.3-6.1h0.9c0.3,1.3,0.8,2.3,1.2,3c0.5,0.7,1,1.2,1.7,1.4c0.7,0.3,1.5,0.4,2.5,0.4
			c0.7,0,1.4-0.1,1.9-0.3s0.9-0.5,1.2-1c0.3-0.4,0.4-1,0.4-1.7c0-0.8-0.2-1.5-0.7-2.1c-0.5-0.5-1.1-1-1.8-1.5
			c-0.7-0.4-1.5-0.9-2.3-1.3c-0.8-0.4-1.5-0.9-2.2-1.4c-0.7-0.5-1.3-1.1-1.8-1.8s-0.7-1.5-0.7-2.5c0-1,0.3-1.8,0.8-2.5
			c0.5-0.7,1.2-1.2,2-1.5c0.8-0.4,1.8-0.5,2.8-0.5c0.9,0,1.6,0.1,2.1,0.2c0.5,0.1,0.9,0.3,1.1,0.4c0.3,0.2,0.5,0.2,0.8,0.2
			s0.4-0.1,0.6-0.2c0.1-0.1,0.3-0.3,0.3-0.6h0.8l0.2,5.7h-0.9c-0.4-1.6-0.9-2.7-1.6-3.5c-0.7-0.8-1.8-1.1-3.2-1.1
			c-1,0-1.8,0.2-2.3,0.7c-0.5,0.4-0.8,1.1-0.8,2c0,0.7,0.2,1.3,0.6,1.8c0.4,0.5,0.9,1,1.6,1.3c0.7,0.4,1.3,0.8,2.1,1.2
			c0.6,0.4,1.3,0.7,1.9,1.1c0.6,0.4,1.2,0.8,1.8,1.2s1,1,1.3,1.6c0.3,0.6,0.5,1.3,0.5,2.2c0,1.1-0.3,2-0.8,2.8
			c-0.5,0.8-1.2,1.3-2.1,1.7c-0.9,0.4-1.9,0.6-3,0.6c-1,0-1.8-0.1-2.5-0.2c-0.6-0.1-1.1-0.3-1.5-0.4c-0.4-0.1-0.7-0.2-0.9-0.2
			c-0.2,0-0.4,0.1-0.5,0.3C891.5,701,891.4,701.2,891.4,701.5z"/>
		<path class="st1" d="M911.4,701.1h-6.6v-0.8c0.6,0,1.1-0.1,1.4-0.2c0.3-0.1,0.5-0.3,0.6-0.6c0.1-0.3,0.1-0.7,0.1-1.3v-8
			c0-0.5-0.1-0.9-0.3-1c-0.2-0.2-0.5-0.3-0.9-0.3c-0.2,0-0.5,0-0.8,0.1v-0.8l3.6-0.8h0.7v2.6l0.1,0.6v7.7c0,0.5,0.1,0.9,0.2,1.2
			s0.3,0.5,0.6,0.6c0.3,0.1,0.8,0.2,1.4,0.2V701.1z M919.8,701.1h-6.9v-0.8c0.7,0,1.2-0.1,1.5-0.2c0.3-0.1,0.5-0.4,0.6-0.7
			c0.1-0.4,0.1-0.9,0.1-1.5v-5.6c0-1.2-0.2-2-0.7-2.4c-0.4-0.4-1-0.6-1.7-0.6c-0.5,0-1.1,0.1-1.5,0.3s-0.9,0.5-1.3,0.8
			c-0.4,0.3-0.7,0.6-1,0.9l-0.2-1.4h0.4c0.8-0.7,1.6-1.2,2.3-1.7c0.7-0.5,1.6-0.7,2.6-0.7c0.9,0,1.6,0.2,2.1,0.7
			c0.5,0.5,0.9,1.1,1.2,1.8c0,0.1,0.1,0.1,0.1,0.2c0,0.1,0,0.1,0.1,0.2v7.5c0,0.6,0,1.1,0.1,1.5c0.1,0.4,0.3,0.6,0.6,0.8
			c0.3,0.1,0.8,0.2,1.5,0.2V701.1z M927.9,701.1h-6.6v-0.8c0.7,0,1.1-0.1,1.4-0.3c0.3-0.2,0.5-0.4,0.5-0.8c0.1-0.4,0.1-0.8,0.1-1.4
			v-5.5c0-0.9-0.1-1.5-0.3-2c-0.2-0.5-0.5-0.8-0.9-1c-0.4-0.2-0.8-0.3-1.3-0.3c-0.6,0-1.3,0.2-1.9,0.7c-0.6,0.4-1.2,0.9-1.7,1.3
			l-0.3-1.4h0.4c0.8-0.8,1.6-1.4,2.3-1.8c0.8-0.4,1.5-0.6,2.3-0.6c1.1,0,2.1,0.4,2.7,1.1c0.7,0.7,1,1.9,1,3.6v5.8
			c0,0.6,0,1.1,0.1,1.4s0.3,0.6,0.6,0.8c0.3,0.2,0.8,0.2,1.4,0.2V701.1z"/>
		<path class="st1" d="M933.2,701.3c-1.1,0-2-0.3-2.6-0.9c-0.6-0.6-0.9-1.4-0.9-2.3c0-0.8,0.2-1.4,0.5-1.9c0.4-0.5,0.8-1,1.4-1.3
			c0.6-0.4,1.2-0.7,1.9-0.9c0.7-0.2,1.4-0.5,2-0.6c0.7-0.2,1.2-0.3,1.7-0.5v-1.2c0-1.2-0.2-2.1-0.7-2.6c-0.4-0.5-1.1-0.8-2-0.8
			c-0.8,0-1.4,0.2-1.6,0.5s-0.3,0.9-0.3,1.8c0,0.4-0.1,0.8-0.3,1c-0.2,0.2-0.5,0.3-0.9,0.3c-0.3,0-0.6-0.1-0.8-0.3
			c-0.3-0.2-0.4-0.6-0.4-1c0-0.5,0.2-1,0.6-1.5c0.4-0.5,1-0.9,1.8-1.2s1.7-0.5,2.7-0.5c1.6,0,2.7,0.4,3.4,1.1s1,1.8,1,3.3v6.4
			c0,0.6,0.1,1,0.2,1.1c0.1,0.2,0.4,0.3,0.7,0.3c0.3,0,0.5-0.1,0.7-0.2s0.4-0.3,0.6-0.5l0.4,0.5c-0.5,0.7-0.9,1.2-1.4,1.5
			c-0.4,0.3-1,0.5-1.8,0.5c-0.7,0-1.1-0.2-1.3-0.6c-0.2-0.4-0.4-0.9-0.5-1.6l-0.2-0.3v-4.9c-0.9,0.2-1.7,0.5-2.5,0.7
			c-0.8,0.3-1.4,0.7-1.9,1.1c-0.5,0.5-0.7,1.1-0.7,1.8c0,0.7,0.2,1.3,0.6,1.7c0.4,0.4,0.9,0.6,1.5,0.6c0.5,0,1-0.1,1.6-0.4
			c0.6-0.2,1.1-0.6,1.6-1.1l0.2,1h-0.3c-0.4,0.4-0.9,0.7-1.3,1s-0.9,0.5-1.3,0.7C934.3,701.2,933.8,701.3,933.2,701.3z"/>
		<path class="st1" d="M950.1,701.1h-6.7v-0.8c0.6,0,1.1-0.1,1.4-0.2s0.5-0.3,0.5-0.6s0.1-0.7,0.1-1.2V684c0-0.6-0.1-0.9-0.3-1.1
			c-0.2-0.1-0.5-0.2-0.9-0.2c-0.3,0-0.6,0-0.9,0.1V682l3.8-1h0.7v17.2c0,0.5,0,1,0.1,1.3c0.1,0.3,0.3,0.5,0.6,0.6
			c0.3,0.1,0.8,0.2,1.5,0.2V701.1z"/>
		<path class="st1" d="M958.3,701.1h-6.7v-0.8c0.6,0,1.1-0.1,1.4-0.2s0.5-0.3,0.5-0.6s0.1-0.7,0.1-1.2V684c0-0.6-0.1-0.9-0.3-1.1
			c-0.2-0.1-0.5-0.2-0.9-0.2c-0.3,0-0.6,0-0.9,0.1V682l3.8-1h0.7v17.2c0,0.5,0,1,0.1,1.3c0.1,0.3,0.3,0.5,0.6,0.6
			c0.3,0.1,0.8,0.2,1.5,0.2V701.1z"/>
		<path class="st1" d="M970.4,701.3c-1.1,0-2-0.3-2.6-0.9c-0.6-0.6-0.9-1.4-0.9-2.3c0-0.8,0.2-1.4,0.5-1.9c0.4-0.5,0.8-1,1.4-1.3
			c0.6-0.4,1.2-0.7,1.9-0.9s1.4-0.5,2-0.6c0.7-0.2,1.2-0.3,1.7-0.5v-1.2c0-1.2-0.2-2.1-0.7-2.6c-0.4-0.5-1.1-0.8-2-0.8
			c-0.8,0-1.4,0.2-1.6,0.5s-0.3,0.9-0.3,1.8c0,0.4-0.1,0.8-0.3,1c-0.2,0.2-0.5,0.3-0.9,0.3c-0.3,0-0.6-0.1-0.8-0.3
			c-0.3-0.2-0.4-0.6-0.4-1c0-0.5,0.2-1,0.6-1.5c0.4-0.5,1-0.9,1.8-1.2c0.8-0.3,1.7-0.5,2.7-0.5c1.6,0,2.7,0.4,3.4,1.1
			c0.7,0.7,1,1.8,1,3.3v6.4c0,0.6,0.1,1,0.2,1.1c0.1,0.2,0.4,0.3,0.7,0.3c0.3,0,0.5-0.1,0.7-0.2s0.4-0.3,0.6-0.5l0.4,0.5
			c-0.5,0.7-0.9,1.2-1.4,1.5c-0.4,0.3-1,0.5-1.8,0.5c-0.7,0-1.1-0.2-1.3-0.6s-0.4-0.9-0.5-1.6l-0.2-0.3v-4.9
			c-0.9,0.2-1.7,0.5-2.5,0.7s-1.4,0.7-1.9,1.1s-0.7,1.1-0.7,1.8c0,0.7,0.2,1.3,0.6,1.7c0.4,0.4,0.9,0.6,1.5,0.6c0.5,0,1-0.1,1.6-0.4
			s1.1-0.6,1.6-1.1l0.2,1h-0.3c-0.4,0.4-0.9,0.7-1.3,1c-0.4,0.3-0.9,0.5-1.3,0.7C971.5,701.2,971,701.3,970.4,701.3z"/>
		<path class="st1" d="M987.3,701.1h-6.7v-0.8c0.7,0,1.1-0.1,1.4-0.2c0.3-0.1,0.5-0.3,0.5-0.6c0.1-0.3,0.1-0.7,0.1-1.2v-8
			c0-0.5-0.1-0.8-0.3-1s-0.5-0.2-0.9-0.2c-0.3,0-0.5,0-0.8,0.1v-0.8l3.7-0.8h0.7l0,2.6l0.1,0.6v7.6c0,0.5,0,0.9,0.1,1.2
			c0.1,0.3,0.3,0.5,0.6,0.6c0.3,0.1,0.8,0.2,1.5,0.2V701.1z M995.9,701.1h-6.7v-0.8c0.7,0,1.2-0.1,1.5-0.2c0.3-0.1,0.5-0.3,0.6-0.6
			c0.1-0.3,0.1-0.7,0.1-1.2v-5.1c0-1.1-0.1-2-0.4-2.6c-0.3-0.6-0.6-0.9-1-1.1c-0.4-0.2-0.8-0.3-1.3-0.3c-0.6,0-1.1,0.1-1.5,0.3
			c-0.4,0.2-0.8,0.5-1.2,0.8c-0.4,0.3-0.7,0.6-1,0.9l-0.2-1.4h0.4c0.8-0.7,1.5-1.2,2.3-1.7c0.7-0.5,1.5-0.7,2.4-0.7
			c1.3,0,2.3,0.4,2.9,1.3c0.6,0.9,1,2.1,1,3.7v5.9c0,0.5,0,0.9,0.1,1.2c0.1,0.3,0.3,0.5,0.6,0.6s0.8,0.2,1.4,0.2V701.1z"/>
		<path class="st1" d="M1002.4,701.3c-1.1,0-2-0.3-2.7-0.9c-0.7-0.6-1.3-1.3-1.7-2.3c-0.4-1-0.6-2.1-0.6-3.3c0-1.6,0.3-2.9,0.9-4
			c0.6-1.1,1.4-2,2.4-2.6c1-0.6,2.1-0.9,3.4-0.9c0.5,0,0.9,0.1,1.4,0.2s0.9,0.3,1.3,0.5h0.1v-3.7c0-0.6-0.1-1-0.2-1.2
			c-0.1-0.2-0.5-0.3-1.1-0.3c-0.1,0-0.4,0-0.8,0.1V682l3.7-1h0.8v17c0,0.7,0.1,1.2,0.3,1.4s0.6,0.3,1.1,0.3h0.6v0.8l-3.7,0.7h-0.7
			v-2h-0.1c-0.5,0.5-1.2,0.9-1.9,1.4C1004.2,701.1,1003.4,701.3,1002.4,701.3z M1003.8,699.3c0.7,0,1.2-0.1,1.7-0.3
			c0.5-0.2,0.9-0.4,1.5-0.8v-7.5c-0.1-0.6-0.4-1.1-0.8-1.6c-0.4-0.5-1.1-0.7-2-0.7c-1.2,0-2.2,0.4-3,1.3c-0.8,0.9-1.1,2.2-1.1,4
			c0,2,0.3,3.4,1,4.2C1001.6,698.8,1002.5,699.3,1003.8,699.3z"/>
		<path class="st1" d="M1034.6,701.1h-14.4v-0.9c0.8,0,1.4-0.1,1.7-0.2c0.4-0.1,0.6-0.4,0.7-0.8s0.2-0.9,0.2-1.7V686
			c0-0.7-0.1-1.3-0.2-1.7s-0.4-0.7-0.7-0.8c-0.4-0.2-1-0.2-1.7-0.2v-0.9h8.2v0.9c-0.8,0-1.4,0.1-1.8,0.2c-0.4,0.2-0.7,0.4-0.8,0.8
			c-0.1,0.4-0.2,1-0.2,1.7v12.3c0,0.6,0.2,1,0.5,1.2s0.9,0.3,1.7,0.3h1.3c1,0,1.8-0.1,2.4-0.2c0.6-0.1,1.1-0.4,1.4-0.7
			c0.4-0.3,0.7-0.8,0.9-1.3c0.2-0.6,0.5-1.2,0.8-2.1h0.9L1034.6,701.1z"/>
		<path class="st1" d="M1040.5,701.3c-1.1,0-2-0.3-2.6-0.9c-0.6-0.6-0.9-1.4-0.9-2.3c0-0.8,0.2-1.4,0.5-1.9c0.4-0.5,0.8-1,1.4-1.3
			s1.2-0.7,1.9-0.9s1.4-0.5,2-0.6c0.7-0.2,1.2-0.3,1.7-0.5v-1.2c0-1.2-0.2-2.1-0.7-2.6c-0.4-0.5-1.1-0.8-2-0.8
			c-0.8,0-1.4,0.2-1.6,0.5s-0.3,0.9-0.3,1.8c0,0.4-0.1,0.8-0.3,1c-0.2,0.2-0.5,0.3-0.9,0.3c-0.3,0-0.6-0.1-0.8-0.3
			c-0.3-0.2-0.4-0.6-0.4-1c0-0.5,0.2-1,0.6-1.5c0.4-0.5,1-0.9,1.8-1.2c0.8-0.3,1.7-0.5,2.7-0.5c1.6,0,2.7,0.4,3.4,1.1s1,1.8,1,3.3
			v6.4c0,0.6,0.1,1,0.2,1.1c0.1,0.2,0.4,0.3,0.7,0.3c0.3,0,0.5-0.1,0.7-0.2s0.4-0.3,0.6-0.5l0.4,0.5c-0.5,0.7-0.9,1.2-1.4,1.5
			c-0.4,0.3-1,0.5-1.8,0.5c-0.7,0-1.1-0.2-1.3-0.6s-0.4-0.9-0.5-1.6l-0.2-0.3v-4.9c-0.9,0.2-1.7,0.5-2.5,0.7
			c-0.8,0.3-1.4,0.7-1.9,1.1c-0.5,0.5-0.7,1.1-0.7,1.8c0,0.7,0.2,1.3,0.6,1.7c0.4,0.4,0.9,0.6,1.5,0.6c0.5,0,1-0.1,1.6-0.4
			c0.6-0.2,1.1-0.6,1.6-1.1l0.2,1h-0.3c-0.4,0.4-0.9,0.7-1.3,1c-0.4,0.3-0.9,0.5-1.3,0.7C1041.7,701.2,1041.2,701.3,1040.5,701.3z"
			/>
		<path class="st1" d="M1058,701.1h-7.3v-0.8c0.6,0,1.1-0.1,1.4-0.2c0.3-0.1,0.5-0.3,0.6-0.6s0.1-0.7,0.1-1.2v-7.8
			c0-0.5,0-0.9-0.1-1.2s-0.4-0.4-0.9-0.4c-0.3,0-0.6,0-0.9,0.1v-0.8l3.6-0.9h0.7v2.9h0.1c0.5-0.7,0.9-1.3,1.3-1.7
			c0.4-0.5,0.8-0.8,1.1-1c0.4-0.2,0.8-0.3,1.3-0.3c0.6,0,1,0.1,1.3,0.4c0.3,0.3,0.4,0.7,0.4,1.2c0,0.5-0.1,0.9-0.4,1.2
			c-0.3,0.2-0.6,0.4-0.9,0.4c-0.3,0-0.6-0.1-0.8-0.2c-0.2-0.2-0.5-0.3-0.6-0.5c-0.2-0.2-0.3-0.2-0.4-0.2c-0.3,0-0.7,0.2-1.1,0.7
			s-0.8,1-1.2,1.6v6.5c0,0.6,0.1,1,0.2,1.3c0.2,0.3,0.4,0.5,0.8,0.6c0.4,0.1,1,0.1,1.7,0.1V701.1z"/>
		<path class="st1" d="M1066.5,707.8c-1.3,0-2.3-0.2-3-0.5s-1.2-0.7-1.5-1.2c-0.3-0.5-0.4-1-0.4-1.5c0-0.5,0.2-1,0.6-1.5
			c0.4-0.5,1-1.2,1.8-1.9V701l0.9,0.2c-0.4,0.6-0.6,1.1-0.8,1.5c-0.1,0.4-0.2,0.7-0.2,1.1c0,0.8,0.4,1.4,1.1,1.8
			c0.7,0.4,1.8,0.6,3.3,0.6c1.1,0,2.1-0.1,2.8-0.4c0.7-0.3,1.2-0.6,1.5-1.1c0.3-0.4,0.5-0.8,0.5-1.2c0-0.5-0.2-0.9-0.5-1.2
			c-0.3-0.3-0.8-0.5-1.3-0.6c-0.5-0.1-1.1-0.2-1.7-0.2s-1.1,0-1.6,0c-0.9,0-1.5,0-2,0s-0.8,0-1,0c-0.2,0-0.4,0-0.5,0l-0.3-0.1
			c-0.3-0.1-0.6-0.2-0.9-0.5c-0.3-0.2-0.5-0.5-0.7-0.8c-0.2-0.3-0.3-0.6-0.3-0.9c0-0.3,0.1-0.7,0.3-1.1c0.2-0.4,0.5-0.7,0.9-1.1
			c0.4-0.4,0.8-0.7,1.2-1.1v-0.3l0.8,0.5c-0.1,0.1-0.2,0.3-0.3,0.5c-0.1,0.2-0.3,0.5-0.3,0.8c-0.1,0.3-0.1,0.5-0.1,0.7
			c0,0.3,0.1,0.5,0.3,0.7c0.2,0.2,0.6,0.3,1,0.4c0.5,0.1,1.2,0.1,2.1,0.1c1.2,0,2.3,0.1,3.3,0.2c1,0.1,1.7,0.4,2.3,0.9
			c0.6,0.5,0.8,1.2,0.8,2.3c0,0.9-0.2,1.7-0.7,2.4s-1.1,1.2-1.9,1.6s-1.6,0.7-2.6,0.9S1067.4,707.8,1066.5,707.8z M1067.8,696.7
			c-0.5,0-1,0-1.4-0.1c-0.4-0.1-0.9-0.2-1.3-0.3l-0.3-0.3c-0.5-0.3-0.9-0.6-1.3-0.9c-0.4-0.4-0.6-0.8-0.8-1.3
			c-0.2-0.5-0.3-1.1-0.3-1.7c0-0.9,0.2-1.8,0.7-2.5c0.4-0.7,1.1-1.2,1.9-1.6c0.8-0.4,1.7-0.6,2.7-0.6c0.6,0,1.1,0.1,1.6,0.2
			c0.5,0.1,1,0.3,1.4,0.5c0.4,0.2,0.8,0.5,1.2,0.7v0.7c0.2,0.3,0.4,0.7,0.7,1.1c0.2,0.5,0.4,1.1,0.4,1.8c0,0.9-0.2,1.6-0.7,2.3
			c-0.4,0.7-1,1.2-1.8,1.5C1069.8,696.5,1068.9,696.7,1067.8,696.7z M1067.9,695.7c0.7,0,1.3-0.2,1.8-0.7c0.5-0.5,0.7-1.4,0.7-2.8
			c0-1.2-0.3-2.1-0.8-2.8c-0.5-0.7-1.2-1.1-2.2-1.1c-0.8,0-1.4,0.3-1.8,0.9c-0.5,0.6-0.7,1.4-0.7,2.6c0,1.2,0.2,2.2,0.7,2.8
			S1066.9,695.7,1067.9,695.7z M1074.7,687.8v1.5l-3.1-0.1l-1-1.2L1074.7,687.8z"/>
		<path class="st1" d="M1082.2,701.4c-1.2,0-2.2-0.3-3.2-0.8c-0.9-0.5-1.7-1.3-2.2-2.4c-0.5-1.1-0.8-2.3-0.8-3.8
			c0-1.6,0.3-2.9,0.8-3.9c0.6-1,1.3-1.8,2.2-2.3c0.9-0.5,2-0.8,3.1-0.8c1.6,0,2.9,0.5,3.8,1.6c1,1.1,1.5,2.6,1.6,4.6h-9.4l0-1.1h6.7
			c0-0.7-0.1-1.4-0.4-2s-0.6-1.1-1-1.5s-1-0.6-1.7-0.6c-1.1,0-2,0.4-2.5,1.3c-0.6,0.9-0.8,2.1-0.8,3.6c0,1.3,0.2,2.4,0.6,3.3
			s1,1.5,1.7,1.9s1.4,0.6,2.2,0.6c0.8,0,1.4-0.1,1.9-0.3c0.5-0.2,0.9-0.5,1.3-0.8s0.7-0.7,1-1.1l0.6,0.4c-0.3,0.5-0.5,1-0.9,1.5
			c-0.3,0.5-0.7,0.9-1.1,1.3c-0.4,0.4-0.9,0.6-1.5,0.9C1083.6,701.3,1083,701.4,1082.2,701.4z"/>
		<path class="st1" d="M1103.8,698.5l0.6,0.5c-0.4,0.5-0.7,0.9-1,1.3c-0.3,0.4-0.7,0.6-1.1,0.8c-0.4,0.2-0.9,0.3-1.5,0.3
			c-1,0-1.7-0.3-2.1-0.8c-0.4-0.6-0.7-1.5-0.7-2.7V689h-1.6v-0.7c0.7-0.4,1.3-1,1.8-1.7s1-1.7,1.5-2.9h0.7v4h3.3v1.2h-3.3v8
			c0,1,0.1,1.7,0.3,2.1c0.2,0.4,0.6,0.6,1.1,0.6c0.5,0,0.8-0.1,1.1-0.3C1103.2,699.2,1103.5,698.9,1103.8,698.5z"/>
		<path class="st1" d="M1111.7,701.4c-1.2,0-2.2-0.3-3.2-0.8c-0.9-0.5-1.7-1.3-2.2-2.4c-0.5-1.1-0.8-2.3-0.8-3.8
			c0-1.6,0.3-2.9,0.8-3.9c0.6-1,1.3-1.8,2.2-2.3c0.9-0.5,2-0.8,3.1-0.8c1.6,0,2.9,0.5,3.8,1.6c1,1.1,1.5,2.6,1.6,4.6h-9.4l0-1.1h6.7
			c0-0.7-0.1-1.4-0.4-2s-0.6-1.1-1-1.5s-1-0.6-1.7-0.6c-1.1,0-2,0.4-2.5,1.3c-0.6,0.9-0.8,2.1-0.8,3.6c0,1.3,0.2,2.4,0.6,3.3
			s1,1.5,1.7,1.9s1.4,0.6,2.2,0.6c0.8,0,1.4-0.1,1.9-0.3c0.5-0.2,0.9-0.5,1.3-0.8s0.7-0.7,1-1.1l0.6,0.4c-0.3,0.5-0.5,1-0.9,1.5
			c-0.3,0.5-0.7,0.9-1.1,1.3c-0.4,0.4-0.9,0.6-1.5,0.9C1113.1,701.3,1112.4,701.4,1111.7,701.4z"/>
		<path class="st1" d="M1122.8,701.1h-4.9v-0.8c0.5,0,0.9-0.1,1.2-0.3c0.3-0.2,0.7-0.6,1.2-1.1l3.7-4.7l0.9,1.1h-0.4l-2.4,3.4
			c-0.1,0.2-0.3,0.5-0.5,0.7c-0.2,0.2-0.2,0.4-0.2,0.5c0,0.2,0.1,0.3,0.3,0.3c0.2,0.1,0.5,0.1,1,0.1V701.1z M1132,701.1h-6.1v-0.8
			c0.5,0,0.9,0,1.1-0.1c0.2-0.1,0.3-0.3,0.3-0.5c0-0.2-0.1-0.4-0.2-0.6l-1.8-2.8l-0.7-1.2l-0.5-0.4l-3.2-4.5
			c-0.3-0.5-0.6-0.8-0.8-1.1s-0.5-0.4-0.7-0.5c-0.3-0.1-0.6-0.1-1-0.1v-0.8h6.2v0.8c-0.9,0-1.4,0.2-1.4,0.7c0,0.2,0.1,0.3,0.2,0.5
			c0.1,0.2,0.3,0.5,0.5,0.8c0.2,0.3,0.5,0.8,0.8,1.3l0.8,1.5l0.5,0.3l3.7,5.1c0.4,0.6,0.8,1,1.1,1.2c0.3,0.3,0.7,0.4,1.3,0.4V701.1z
			 M1129.2,689.8l-3.2,4.1l-0.8-0.9h0.4l1.4-1.9c0.4-0.5,0.7-0.9,0.8-1.2c0.2-0.3,0.2-0.5,0.2-0.7c0-0.2-0.1-0.4-0.2-0.5
			c-0.2-0.1-0.5-0.2-0.9-0.2v-0.8h4.8v0.8c-0.5,0-0.9,0.1-1.3,0.4C1129.8,689.1,1129.5,689.4,1129.2,689.8z"/>
		<path class="st1" d="M1140.4,698.5l0.6,0.5c-0.4,0.5-0.7,0.9-1,1.3c-0.3,0.4-0.7,0.6-1.1,0.8c-0.4,0.2-0.9,0.3-1.5,0.3
			c-1,0-1.7-0.3-2.1-0.8c-0.4-0.6-0.7-1.5-0.7-2.7V689h-1.6v-0.7c0.7-0.4,1.3-1,1.8-1.7s1-1.7,1.5-2.9h0.7v4h3.3v1.2h-3.3v8
			c0,1,0.1,1.7,0.3,2.1c0.2,0.4,0.6,0.6,1.1,0.6c0.5,0,0.8-0.1,1.1-0.3C1139.7,699.2,1140,698.9,1140.4,698.5z"/>
	</g>
</g>
<rect x="484.7" y="830.2" class="st1" width="950.6" height="207.9"/>
<rect x="585.7" y="879.3" transform="matrix(-1.836970e-16 1 -1 -1.836970e-16 1574.6821 293.6108)" class="st2" width="109.7" height="109.7"/>
<g>
	<g>
		<path class="st2" d="M791,924.1c-2,0-3.7-0.4-5-1.2c-1.4-0.8-2.4-2-3.1-3.4c-0.7-1.5-1-3.1-1-4.9c0-2.1,0.4-3.8,1.2-5.3
			c0.8-1.4,1.9-2.5,3.4-3.3c1.4-0.8,3.1-1.1,4.9-1.1c1,0,1.8,0.1,2.5,0.3c0.6,0.2,1.1,0.3,1.5,0.5c0.4,0.2,0.7,0.3,0.9,0.3
			s0.4-0.1,0.5-0.3c0.1-0.2,0.3-0.4,0.5-0.7h0.9v6.5h-1c-0.3-1.9-1-3.2-2-4s-2.2-1.2-3.7-1.2c-2.1,0-3.7,0.7-4.8,2.2
			c-1.1,1.5-1.7,3.5-1.7,6c0,1.9,0.3,3.4,0.9,4.6c0.6,1.2,1.4,2.1,2.5,2.6c1,0.6,2.2,0.9,3.6,0.9c1.3,0,2.5-0.2,3.5-0.7
			c1-0.5,1.9-1.2,2.7-2l0.7,0.6c-0.5,0.8-1.1,1.4-1.9,2c-0.7,0.6-1.6,1.1-2.5,1.4C793.4,923.9,792.3,924.1,791,924.1z"/>
		<path class="st2" d="M807.4,924c-2,0-3.6-0.6-4.8-1.9c-1.2-1.2-1.7-3-1.7-5.3c0-1.4,0.3-2.6,0.8-3.6c0.5-1,1.3-1.8,2.3-2.4
			c1-0.6,2.1-0.9,3.4-0.9c2,0,3.6,0.6,4.7,1.8c1.2,1.2,1.7,2.9,1.7,5c0,1.6-0.3,2.9-0.8,4c-0.6,1.1-1.3,1.9-2.3,2.4
			C809.8,923.8,808.6,924,807.4,924z M807.5,922.9c0.8,0,1.5-0.2,2-0.5c0.5-0.4,1-1,1.2-1.8c0.3-0.9,0.4-2.1,0.4-3.6
			c0-1.7-0.3-3.2-1-4.2c-0.6-1.1-1.6-1.6-2.9-1.6c-1.1,0-2,0.5-2.7,1.4c-0.7,0.9-1,2.3-1,4.1c0,2.3,0.3,3.9,1,4.9
			S806.3,922.9,807.5,922.9z"/>
		<path class="st2" d="M822.4,923.8h-6.7V923c0.7,0,1.1-0.1,1.4-0.2s0.5-0.3,0.5-0.6c0.1-0.3,0.1-0.7,0.1-1.2v-8
			c0-0.5-0.1-0.8-0.3-1c-0.2-0.2-0.5-0.2-0.9-0.2c-0.3,0-0.5,0-0.8,0.1v-0.8l3.7-0.8h0.7l0,2.6l0.1,0.6v7.6c0,0.5,0,0.9,0.1,1.2
			c0.1,0.3,0.3,0.5,0.6,0.6c0.3,0.1,0.8,0.2,1.5,0.2V923.8z M830.9,923.8h-6.7V923c0.7,0,1.2-0.1,1.5-0.2c0.3-0.1,0.5-0.3,0.6-0.6
			c0.1-0.3,0.1-0.7,0.1-1.2v-5.1c0-1.1-0.1-2-0.4-2.6c-0.3-0.6-0.6-0.9-1-1.1c-0.4-0.2-0.8-0.3-1.3-0.3c-0.6,0-1.1,0.1-1.5,0.3
			c-0.4,0.2-0.8,0.5-1.2,0.8c-0.4,0.3-0.7,0.6-1,0.9l-0.2-1.4h0.4c0.8-0.7,1.5-1.2,2.3-1.7c0.7-0.5,1.5-0.7,2.4-0.7
			c1.3,0,2.3,0.4,2.9,1.3c0.6,0.9,1,2.1,1,3.7v5.9c0,0.5,0,0.9,0.1,1.2c0.1,0.3,0.3,0.5,0.6,0.6c0.3,0.1,0.8,0.2,1.4,0.2V923.8z"/>
		<path class="st2" d="M840.1,921.2l0.6,0.5c-0.4,0.5-0.7,0.9-1,1.3c-0.3,0.4-0.7,0.6-1.1,0.8c-0.4,0.2-0.9,0.3-1.5,0.3
			c-1,0-1.7-0.3-2.1-0.8c-0.4-0.6-0.7-1.5-0.7-2.7v-8.8h-1.6V911c0.7-0.4,1.3-1,1.8-1.7c0.5-0.7,1-1.7,1.5-2.9h0.7v4h3.3v1.2h-3.3v8
			c0,1,0.1,1.7,0.3,2.1c0.2,0.4,0.6,0.6,1.1,0.6c0.5,0,0.8-0.1,1.1-0.3C839.4,921.9,839.7,921.6,840.1,921.2z"/>
		<path class="st2" d="M848.8,923.8h-7.3v-0.8c0.6,0,1.1-0.1,1.4-0.2c0.3-0.1,0.5-0.3,0.6-0.6c0.1-0.3,0.1-0.7,0.1-1.2v-7.8
			c0-0.5,0-0.9-0.1-1.2c-0.1-0.3-0.4-0.4-0.9-0.4c-0.3,0-0.6,0-0.9,0.1v-0.8l3.6-0.9h0.7v2.9h0.1c0.5-0.7,0.9-1.3,1.3-1.7
			c0.4-0.5,0.8-0.8,1.1-1c0.4-0.2,0.8-0.3,1.3-0.3c0.6,0,1,0.1,1.3,0.4c0.3,0.3,0.4,0.7,0.4,1.2c0,0.5-0.1,0.9-0.4,1.2
			c-0.3,0.2-0.6,0.4-0.9,0.4c-0.3,0-0.6-0.1-0.8-0.2c-0.2-0.2-0.5-0.3-0.6-0.5s-0.3-0.2-0.4-0.2c-0.3,0-0.7,0.2-1.1,0.7
			s-0.8,1-1.2,1.6v6.5c0,0.6,0.1,1,0.2,1.3c0.2,0.3,0.4,0.5,0.8,0.6s1,0.1,1.7,0.1V923.8z"/>
		<path class="st2" d="M856.3,923.9c-1.1,0-2-0.3-2.6-0.9c-0.6-0.6-0.9-1.4-0.9-2.3c0-0.8,0.2-1.4,0.5-1.9c0.4-0.5,0.8-1,1.4-1.3
			c0.6-0.4,1.2-0.7,1.9-0.9c0.7-0.2,1.4-0.5,2-0.6c0.7-0.2,1.2-0.3,1.7-0.5v-1.2c0-1.2-0.2-2.1-0.7-2.6c-0.4-0.5-1.1-0.8-2-0.8
			c-0.8,0-1.4,0.2-1.6,0.5s-0.3,0.9-0.3,1.8c0,0.4-0.1,0.8-0.3,1c-0.2,0.2-0.5,0.3-0.9,0.3c-0.3,0-0.6-0.1-0.8-0.3
			c-0.3-0.2-0.4-0.6-0.4-1c0-0.5,0.2-1,0.6-1.5c0.4-0.5,1-0.9,1.8-1.2s1.7-0.5,2.7-0.5c1.6,0,2.7,0.4,3.4,1.1s1,1.8,1,3.3v6.4
			c0,0.6,0.1,1,0.2,1.1c0.1,0.2,0.4,0.3,0.7,0.3c0.3,0,0.5-0.1,0.7-0.2s0.4-0.3,0.6-0.5l0.4,0.5c-0.5,0.7-0.9,1.2-1.4,1.5
			c-0.4,0.3-1,0.5-1.8,0.5c-0.7,0-1.1-0.2-1.3-0.6c-0.2-0.4-0.4-0.9-0.5-1.6l-0.2-0.3v-4.9c-0.9,0.2-1.7,0.5-2.5,0.7
			c-0.8,0.3-1.4,0.7-1.9,1.1c-0.5,0.5-0.7,1.1-0.7,1.8c0,0.7,0.2,1.3,0.6,1.7c0.4,0.4,0.9,0.6,1.5,0.6c0.5,0,1-0.1,1.6-0.4
			c0.6-0.2,1.1-0.6,1.6-1.1l0.2,1h-0.3c-0.4,0.4-0.9,0.7-1.3,1s-0.9,0.5-1.3,0.7C857.5,923.9,856.9,923.9,856.3,923.9z"/>
		<path class="st2" d="M866.9,924l-0.1-4.9h0.8c0.3,1.5,0.8,2.5,1.4,3.1s1.4,0.9,2.5,0.9c0.7,0,1.3-0.1,1.8-0.4
			c0.5-0.3,0.7-0.8,0.7-1.4c0-0.5-0.1-0.8-0.2-1.1s-0.5-0.6-0.9-0.9c-0.5-0.3-1.2-0.7-2.1-1.1c-0.9-0.4-1.6-0.9-2.2-1.3
			c-0.6-0.4-1-0.9-1.2-1.3c-0.3-0.5-0.4-1.1-0.4-1.8c0-1.2,0.4-2.1,1.3-2.7c0.9-0.6,1.9-0.9,3.2-0.9c0.7,0,1.3,0.1,1.8,0.2
			s0.9,0.3,1.2,0.5h0l0.5-0.6h0.6l0.1,4.3h-0.8c-0.3-1.3-0.7-2.3-1.3-2.8c-0.6-0.5-1.3-0.8-2.2-0.8c-0.7,0-1.2,0.2-1.7,0.5
			s-0.7,0.8-0.7,1.4c0,0.5,0.3,1,0.8,1.5c0.5,0.4,1.4,1,2.6,1.6c0.9,0.5,1.6,0.9,2.2,1.3c0.6,0.4,1.1,0.9,1.4,1.4
			c0.3,0.5,0.5,1.1,0.5,1.8c0,0.9-0.2,1.6-0.7,2.1c-0.4,0.5-1,0.9-1.8,1.2s-1.6,0.4-2.4,0.4c-0.8,0-1.5-0.1-2-0.3
			c-0.5-0.2-0.9-0.3-1.3-0.5h-0.1l-0.6,0.7H866.9z"/>
		<path class="st2" d="M885.7,921.2l0.6,0.5c-0.4,0.5-0.7,0.9-1,1.3c-0.3,0.4-0.7,0.6-1.1,0.8c-0.4,0.2-0.9,0.3-1.5,0.3
			c-1,0-1.7-0.3-2.1-0.8c-0.4-0.6-0.7-1.5-0.7-2.7v-8.8h-1.6V911c0.7-0.4,1.3-1,1.8-1.7c0.5-0.7,1-1.7,1.5-2.9h0.7v4h3.3v1.2h-3.3v8
			c0,1,0.1,1.7,0.3,2.1c0.2,0.4,0.6,0.6,1.1,0.6c0.5,0,0.8-0.1,1.1-0.3C885,921.9,885.3,921.6,885.7,921.2z"/>
		<path class="st2" d="M897,913.6c-0.6,0-1-0.2-1.3-0.5c-0.3-0.3-0.4-0.7-0.4-1.2c0-0.5,0.2-0.9,0.5-1.3c0.3-0.3,0.7-0.5,1.3-0.5
			c0.6,0,1,0.2,1.3,0.5c0.3,0.4,0.5,0.8,0.5,1.3c0,0.4-0.2,0.8-0.5,1.1C898,913.5,897.5,913.6,897,913.6z M897,924
			c-0.6,0-1-0.2-1.3-0.5c-0.3-0.3-0.4-0.7-0.4-1.2c0-0.5,0.2-0.9,0.5-1.3c0.3-0.4,0.7-0.5,1.3-0.5c0.6,0,1,0.2,1.3,0.5
			c0.3,0.4,0.5,0.8,0.5,1.3c0,0.4-0.2,0.8-0.5,1.2C898,923.8,897.5,924,897,924z"/>
		<path class="st2" d="M919.5,923.8h-10.1V923c1.4,0,2.3-0.1,2.9-0.4c0.6-0.3,0.8-0.8,0.8-1.5v-12c0-0.5-0.1-0.8-0.2-1.1
			c-0.1-0.2-0.4-0.3-0.8-0.3c-0.2,0-0.5,0-0.8,0.1s-0.7,0.1-1.1,0.2s-0.7,0.1-1,0.2v-0.9l5.6-1.6h0.8v15.5c0,0.7,0.3,1.2,0.9,1.5
			c0.6,0.3,1.5,0.4,2.9,0.4V923.8z"/>
		<path class="st2" d="M934,923.8h-11.4v-1l4.4-4.3c1-1,1.8-1.8,2.4-2.6c0.6-0.8,1.1-1.6,1.4-2.4c0.3-0.8,0.5-1.7,0.5-2.7
			c0-1.1-0.3-1.9-1-2.5c-0.6-0.6-1.5-1-2.7-1c-0.9,0-1.8,0.2-2.4,0.6c-0.7,0.4-1.3,1.1-1.8,2.2l-0.7-0.3c0.4-1.4,1.2-2.5,2.1-3.2
			c1-0.8,2.2-1.1,3.6-1.1c1.1,0,2.1,0.2,2.9,0.6s1.5,1,2,1.7c0.5,0.7,0.7,1.6,0.7,2.6c0,0.8-0.2,1.6-0.5,2.4
			c-0.4,0.8-0.9,1.6-1.6,2.4s-1.6,1.7-2.6,2.8l-3.8,3.5v0.1l2-0.1h4c0.8,0,1.3-0.2,1.6-0.5c0.3-0.3,0.6-0.9,1-1.8h0.8L934,923.8z"/>
		<path class="st2" d="M939.4,924c-0.6,0-1-0.2-1.3-0.5c-0.3-0.3-0.4-0.7-0.4-1.2c0-0.5,0.2-0.9,0.5-1.3c0.3-0.4,0.7-0.5,1.3-0.5
			c0.6,0,1,0.2,1.3,0.5c0.3,0.4,0.5,0.8,0.5,1.3c0,0.4-0.2,0.8-0.5,1.2C940.4,923.8,940,924,939.4,924z"/>
		<path class="st2" d="M948,924.1c-1.1,0-2-0.1-2.5-0.4c-0.6-0.3-0.8-0.7-0.8-1.2c0-0.3,0.1-0.6,0.3-0.9c0.2-0.2,0.5-0.4,0.9-0.4
			c0.3,0,0.6,0.1,0.9,0.2s0.6,0.3,0.9,0.5c0.3,0.2,0.6,0.3,1,0.5c0.4,0.1,0.8,0.2,1.2,0.2c0.7,0,1.3-0.1,1.9-0.4s1.1-0.7,1.4-1.3
			c0.4-0.6,0.5-1.4,0.5-2.4c0-1.1-0.2-1.9-0.6-2.6s-1-1.1-1.7-1.5c-0.7-0.3-1.5-0.6-2.4-0.7c-0.9-0.1-1.8-0.2-2.8-0.2l-0.3-0.4
			l1.8-7.4h8l-0.5,2.3h-6.8l-0.8,3.2c1,0.1,1.9,0.2,2.7,0.4c0.8,0.2,1.6,0.4,2.3,0.7c0.7,0.3,1.3,0.7,1.8,1.1c0.5,0.5,0.9,1,1.2,1.7
			c0.3,0.7,0.4,1.4,0.4,2.3c0,1.1-0.2,2.1-0.6,2.9c-0.4,0.8-0.9,1.5-1.6,2.1c-0.7,0.5-1.5,1-2.5,1.2
			C950.2,924,949.2,924.1,948,924.1z"/>
		<path class="st2" d="M790.4,957.8h-8.9V957c0.8,0,1.4-0.1,1.8-0.2c0.4-0.1,0.7-0.4,0.8-0.8c0.1-0.4,0.2-1,0.2-1.8v-11.6
			c0-0.8-0.1-1.3-0.2-1.7c-0.1-0.4-0.4-0.6-0.8-0.7c-0.4-0.1-1-0.2-1.8-0.2v-0.9h7.8c1.7,0,3.1,0.2,4.2,0.5c1,0.4,1.8,0.9,2.3,1.5
			s0.7,1.5,0.7,2.4c0,1.3-0.4,2.2-1.2,2.9c-0.8,0.6-1.8,1.1-3,1.4v0.1c0.8,0.1,1.6,0.4,2.4,0.7c0.8,0.4,1.4,0.9,1.9,1.5
			c0.5,0.7,0.8,1.5,0.8,2.5c0,1.6-0.6,2.9-1.8,3.7C794.3,957.4,792.6,957.8,790.4,957.8z M787,940.4v7.2h2c1.8,0,3-0.3,3.6-0.9
			c0.7-0.6,1-1.5,1-2.8c0-1.1-0.4-2-1.1-2.6c-0.7-0.6-2-0.9-3.8-0.9c-0.3,0-0.6,0-0.9,0C787.5,940.3,787.2,940.3,787,940.4z
			 M789,956.8c0.6,0,1.2,0,1.9-0.1c0.6-0.1,1.2-0.2,1.7-0.5c0.5-0.3,0.9-0.6,1.2-1.2c0.3-0.5,0.5-1.2,0.5-2.1c0-1.1-0.3-1.9-0.8-2.5
			c-0.5-0.6-1.2-1-2-1.2c-0.8-0.2-1.7-0.4-2.6-0.4h-2v8c0.3,0,0.7,0,1,0.1S788.7,956.8,789,956.8z"/>
		<path class="st2" d="M805.5,958.1c-1.2,0-2.2-0.3-3.2-0.8s-1.7-1.3-2.2-2.4c-0.5-1.1-0.8-2.3-0.8-3.8c0-1.6,0.3-2.9,0.8-3.9
			c0.6-1,1.3-1.8,2.2-2.3c0.9-0.5,2-0.8,3.1-0.8c1.6,0,2.9,0.5,3.8,1.6c1,1.1,1.5,2.6,1.6,4.6h-9.4l0-1.1h6.7c0-0.7-0.1-1.4-0.4-2
			s-0.6-1.1-1-1.5c-0.4-0.4-1-0.6-1.7-0.6c-1.1,0-2,0.4-2.5,1.3c-0.6,0.9-0.8,2.1-0.8,3.6c0,1.3,0.2,2.4,0.6,3.3
			c0.4,0.9,1,1.5,1.7,1.9s1.4,0.6,2.2,0.6c0.8,0,1.4-0.1,1.9-0.3c0.5-0.2,0.9-0.5,1.3-0.8s0.7-0.7,1-1.1l0.6,0.4
			c-0.3,0.5-0.5,1-0.9,1.5c-0.3,0.5-0.7,0.9-1.1,1.3c-0.4,0.4-0.9,0.6-1.5,0.9C807,958,806.3,958.1,805.5,958.1z"/>
		<path class="st2" d="M813.1,958.1l-0.1-4.9h0.8c0.3,1.5,0.8,2.5,1.4,3.1s1.4,0.9,2.5,0.9c0.7,0,1.3-0.1,1.8-0.4
			c0.5-0.3,0.7-0.8,0.7-1.4c0-0.5-0.1-0.8-0.2-1.1s-0.5-0.6-0.9-0.9c-0.5-0.3-1.2-0.7-2.1-1.1c-0.9-0.4-1.6-0.9-2.2-1.3
			c-0.6-0.4-1-0.9-1.2-1.3c-0.3-0.5-0.4-1.1-0.4-1.8c0-1.2,0.4-2.1,1.3-2.7c0.9-0.6,1.9-0.9,3.2-0.9c0.7,0,1.3,0.1,1.8,0.2
			s0.9,0.3,1.2,0.5h0l0.5-0.6h0.6l0.1,4.3h-0.8c-0.3-1.3-0.7-2.3-1.3-2.8c-0.6-0.5-1.3-0.8-2.2-0.8c-0.7,0-1.2,0.2-1.7,0.5
			s-0.7,0.8-0.7,1.4c0,0.5,0.3,1,0.8,1.5c0.5,0.4,1.4,1,2.6,1.6c0.9,0.5,1.6,0.9,2.2,1.3c0.6,0.4,1.1,0.9,1.4,1.4
			c0.3,0.5,0.5,1.1,0.5,1.8c0,0.9-0.2,1.6-0.7,2.1c-0.4,0.5-1,0.9-1.8,1.2s-1.6,0.4-2.4,0.4c-0.8,0-1.5-0.1-2-0.3
			c-0.5-0.2-0.9-0.3-1.3-0.5h-0.1l-0.6,0.7H813.1z"/>
		<path class="st2" d="M831.8,955.3l0.6,0.5c-0.4,0.5-0.7,0.9-1,1.3c-0.3,0.4-0.7,0.6-1.1,0.8c-0.4,0.2-0.9,0.3-1.5,0.3
			c-1,0-1.7-0.3-2.1-0.8c-0.4-0.6-0.7-1.5-0.7-2.7v-8.8h-1.6v-0.7c0.7-0.4,1.3-1,1.8-1.7c0.5-0.7,1-1.7,1.5-2.9h0.7v4h3.3v1.2h-3.3
			v8c0,1,0.1,1.7,0.3,2.1c0.2,0.4,0.6,0.6,1.1,0.6c0.5,0,0.8-0.1,1.1-0.3C831.2,956,831.5,955.7,831.8,955.3z"/>
		<path class="st2" d="M848.9,957.8h-8.5V957c0.8,0,1.4-0.1,1.8-0.2c0.4-0.1,0.7-0.3,0.8-0.7c0.1-0.3,0.2-0.9,0.2-1.6v-12.2
			c0-0.7-0.1-1.2-0.3-1.5s-0.5-0.6-0.9-0.7c-0.4-0.1-1-0.2-1.7-0.2v-0.9h15.5l0.2,4.7h-0.9c-0.1-0.7-0.3-1.2-0.4-1.7
			c-0.1-0.4-0.4-0.8-0.7-1s-0.7-0.4-1.3-0.5c-0.6-0.1-1.3-0.2-2.3-0.2h-4.6v7.2h3.4c0.8,0,1.5-0.1,1.9-0.2c0.4-0.2,0.8-0.4,0.9-0.8
			c0.2-0.4,0.2-1,0.2-1.7h1v6.6h-1c0-0.8-0.1-1.4-0.2-1.7c-0.2-0.4-0.5-0.6-0.9-0.8c-0.4-0.1-1.1-0.2-1.9-0.2h-3.4v6
			c0,0.6,0.1,1.1,0.3,1.4c0.2,0.3,0.5,0.5,0.9,0.7c0.4,0.1,1,0.2,1.8,0.2V957.8z"/>
		<path class="st2" d="M863.9,958.1c-2,0-3.6-0.6-4.8-1.9c-1.2-1.2-1.7-3-1.7-5.3c0-1.4,0.3-2.6,0.8-3.6c0.5-1,1.3-1.8,2.3-2.4
			c1-0.6,2.1-0.9,3.4-0.9c2,0,3.6,0.6,4.7,1.8c1.2,1.2,1.7,2.9,1.7,5c0,1.6-0.3,2.9-0.8,4c-0.6,1.1-1.3,1.9-2.3,2.4
			C866.3,957.8,865.1,958.1,863.9,958.1z M864,957c0.8,0,1.5-0.2,2-0.5c0.5-0.4,1-1,1.2-1.8c0.3-0.9,0.4-2.1,0.4-3.6
			c0-1.7-0.3-3.2-1-4.2c-0.6-1.1-1.6-1.6-2.9-1.6c-1.1,0-2,0.5-2.7,1.4c-0.7,0.9-1,2.3-1,4.1c0,2.3,0.3,3.9,1,4.9S862.8,957,864,957
			z"/>
		<path class="st2" d="M879.4,957.8h-7.3V957c0.6,0,1.1-0.1,1.4-0.2c0.3-0.1,0.5-0.3,0.6-0.6c0.1-0.3,0.1-0.7,0.1-1.2v-7.8
			c0-0.5,0-0.9-0.1-1.2c-0.1-0.3-0.4-0.4-0.9-0.4c-0.3,0-0.6,0-0.9,0.1V945l3.6-0.9h0.7v2.9h0.1c0.5-0.7,0.9-1.3,1.3-1.7
			c0.4-0.5,0.8-0.8,1.1-1c0.4-0.2,0.8-0.3,1.3-0.3c0.6,0,1,0.1,1.3,0.4c0.3,0.3,0.4,0.7,0.4,1.2c0,0.5-0.1,0.9-0.4,1.2
			c-0.3,0.2-0.6,0.4-0.9,0.4c-0.3,0-0.6-0.1-0.8-0.2c-0.2-0.2-0.5-0.3-0.6-0.5s-0.3-0.2-0.4-0.2c-0.3,0-0.7,0.2-1.1,0.7
			s-0.8,1-1.2,1.6v6.5c0,0.6,0.1,1,0.2,1.3c0.2,0.3,0.4,0.5,0.8,0.6s1,0.1,1.7,0.1V957.8z"/>
		<path class="st2" d="M891.4,958.3h-0.9l-0.3-6.1h0.9c0.3,1.3,0.8,2.3,1.2,3c0.5,0.7,1,1.2,1.7,1.4c0.7,0.3,1.5,0.4,2.5,0.4
			c0.7,0,1.4-0.1,1.9-0.3s0.9-0.5,1.2-1c0.3-0.4,0.4-1,0.4-1.7c0-0.8-0.2-1.5-0.7-2.1c-0.5-0.5-1.1-1-1.8-1.5
			c-0.7-0.4-1.5-0.9-2.3-1.3c-0.8-0.4-1.5-0.9-2.2-1.4c-0.7-0.5-1.3-1.1-1.8-1.8s-0.7-1.5-0.7-2.5c0-1,0.3-1.8,0.8-2.5
			c0.5-0.7,1.2-1.2,2-1.5c0.8-0.4,1.8-0.5,2.8-0.5c0.9,0,1.6,0.1,2.1,0.2c0.5,0.1,0.9,0.3,1.1,0.4c0.3,0.2,0.5,0.2,0.8,0.2
			s0.4-0.1,0.6-0.2c0.1-0.1,0.3-0.3,0.3-0.6h0.8l0.2,5.7h-0.9c-0.4-1.6-0.9-2.7-1.6-3.5c-0.7-0.8-1.8-1.1-3.2-1.1
			c-1,0-1.8,0.2-2.3,0.7c-0.5,0.4-0.8,1.1-0.8,2c0,0.7,0.2,1.3,0.6,1.8c0.4,0.5,0.9,1,1.6,1.3c0.7,0.4,1.3,0.8,2.1,1.2
			c0.6,0.4,1.3,0.7,1.9,1.1c0.6,0.4,1.2,0.8,1.8,1.2s1,1,1.3,1.6c0.3,0.6,0.5,1.3,0.5,2.2c0,1.1-0.3,2-0.8,2.8
			c-0.5,0.8-1.2,1.3-2.1,1.7c-0.9,0.4-1.9,0.6-3,0.6c-1,0-1.8-0.1-2.5-0.2c-0.6-0.1-1.1-0.3-1.5-0.4c-0.4-0.1-0.7-0.2-0.9-0.2
			c-0.2,0-0.4,0.1-0.5,0.3C891.5,957.7,891.4,958,891.4,958.3z"/>
		<path class="st2" d="M911.4,957.8h-6.6V957c0.6,0,1.1-0.1,1.4-0.2c0.3-0.1,0.5-0.3,0.6-0.6c0.1-0.3,0.1-0.7,0.1-1.3v-8
			c0-0.5-0.1-0.9-0.3-1c-0.2-0.2-0.5-0.3-0.9-0.3c-0.2,0-0.5,0-0.8,0.1V945l3.6-0.8h0.7v2.6l0.1,0.6v7.7c0,0.5,0.1,0.9,0.2,1.2
			s0.3,0.5,0.6,0.6c0.3,0.1,0.8,0.2,1.4,0.2V957.8z M919.8,957.8h-6.9V957c0.7,0,1.2-0.1,1.5-0.2c0.3-0.1,0.5-0.4,0.6-0.7
			c0.1-0.4,0.1-0.9,0.1-1.5v-5.6c0-1.2-0.2-2-0.7-2.4c-0.4-0.4-1-0.6-1.7-0.6c-0.5,0-1.1,0.1-1.5,0.3s-0.9,0.5-1.3,0.8
			c-0.4,0.3-0.7,0.6-1,0.9l-0.2-1.4h0.4c0.8-0.7,1.6-1.2,2.3-1.7c0.7-0.5,1.6-0.7,2.6-0.7c0.9,0,1.6,0.2,2.1,0.7
			c0.5,0.5,0.9,1.1,1.2,1.8c0,0.1,0.1,0.1,0.1,0.2c0,0.1,0,0.1,0.1,0.2v7.5c0,0.6,0,1.1,0.1,1.5c0.1,0.4,0.3,0.6,0.6,0.8
			c0.3,0.1,0.8,0.2,1.5,0.2V957.8z M927.9,957.8h-6.6V957c0.7,0,1.1-0.1,1.4-0.3c0.3-0.2,0.5-0.4,0.5-0.8c0.1-0.4,0.1-0.8,0.1-1.4
			v-5.5c0-0.9-0.1-1.5-0.3-2c-0.2-0.5-0.5-0.8-0.9-1c-0.4-0.2-0.8-0.3-1.3-0.3c-0.6,0-1.3,0.2-1.9,0.7c-0.6,0.4-1.2,0.9-1.7,1.3
			l-0.3-1.4h0.4c0.8-0.8,1.6-1.4,2.3-1.8c0.8-0.4,1.5-0.6,2.3-0.6c1.1,0,2.1,0.4,2.7,1.1c0.7,0.7,1,1.9,1,3.6v5.8
			c0,0.6,0,1.1,0.1,1.4s0.3,0.6,0.6,0.8c0.3,0.2,0.8,0.2,1.4,0.2V957.8z"/>
		<path class="st2" d="M933.2,958c-1.1,0-2-0.3-2.6-0.9c-0.6-0.6-0.9-1.4-0.9-2.3c0-0.8,0.2-1.4,0.5-1.9c0.4-0.5,0.8-1,1.4-1.3
			c0.6-0.4,1.2-0.7,1.9-0.9c0.7-0.2,1.4-0.5,2-0.6c0.7-0.2,1.2-0.3,1.7-0.5v-1.2c0-1.2-0.2-2.1-0.7-2.6c-0.4-0.5-1.1-0.8-2-0.8
			c-0.8,0-1.4,0.2-1.6,0.5s-0.3,0.9-0.3,1.8c0,0.4-0.1,0.8-0.3,1c-0.2,0.2-0.5,0.3-0.9,0.3c-0.3,0-0.6-0.1-0.8-0.3
			c-0.3-0.2-0.4-0.6-0.4-1c0-0.5,0.2-1,0.6-1.5c0.4-0.5,1-0.9,1.8-1.2s1.7-0.5,2.7-0.5c1.6,0,2.7,0.4,3.4,1.1s1,1.8,1,3.3v6.4
			c0,0.6,0.1,1,0.2,1.1c0.1,0.2,0.4,0.3,0.7,0.3c0.3,0,0.5-0.1,0.7-0.2s0.4-0.3,0.6-0.5l0.4,0.5c-0.5,0.7-0.9,1.2-1.4,1.5
			c-0.4,0.3-1,0.5-1.8,0.5c-0.7,0-1.1-0.2-1.3-0.6c-0.2-0.4-0.4-0.9-0.5-1.6l-0.2-0.3v-4.9c-0.9,0.2-1.7,0.5-2.5,0.7
			c-0.8,0.3-1.4,0.7-1.9,1.1c-0.5,0.5-0.7,1.1-0.7,1.8c0,0.7,0.2,1.3,0.6,1.7c0.4,0.4,0.9,0.6,1.5,0.6c0.5,0,1-0.1,1.6-0.4
			c0.6-0.2,1.1-0.6,1.6-1.1l0.2,1h-0.3c-0.4,0.4-0.9,0.7-1.3,1s-0.9,0.5-1.3,0.7C934.3,958,933.8,958,933.2,958z"/>
		<path class="st2" d="M950.1,957.8h-6.7V957c0.6,0,1.1-0.1,1.4-0.2s0.5-0.3,0.5-0.6s0.1-0.7,0.1-1.2v-14.3c0-0.6-0.1-0.9-0.3-1.1
			c-0.2-0.1-0.5-0.2-0.9-0.2c-0.3,0-0.6,0-0.9,0.1v-0.8l3.8-1h0.7V955c0,0.5,0,1,0.1,1.3c0.1,0.3,0.3,0.5,0.6,0.6
			c0.3,0.1,0.8,0.2,1.5,0.2V957.8z"/>
		<path class="st2" d="M958.3,957.8h-6.7V957c0.6,0,1.1-0.1,1.4-0.2s0.5-0.3,0.5-0.6s0.1-0.7,0.1-1.2v-14.3c0-0.6-0.1-0.9-0.3-1.1
			c-0.2-0.1-0.5-0.2-0.9-0.2c-0.3,0-0.6,0-0.9,0.1v-0.8l3.8-1h0.7V955c0,0.5,0,1,0.1,1.3c0.1,0.3,0.3,0.5,0.6,0.6
			c0.3,0.1,0.8,0.2,1.5,0.2V957.8z"/>
		<path class="st2" d="M970.4,958c-1.1,0-2-0.3-2.6-0.9c-0.6-0.6-0.9-1.4-0.9-2.3c0-0.8,0.2-1.4,0.5-1.9c0.4-0.5,0.8-1,1.4-1.3
			s1.2-0.7,1.9-0.9c0.7-0.2,1.4-0.5,2-0.6c0.7-0.2,1.2-0.3,1.7-0.5v-1.2c0-1.2-0.2-2.1-0.7-2.6c-0.4-0.5-1.1-0.8-2-0.8
			c-0.8,0-1.4,0.2-1.6,0.5s-0.3,0.9-0.3,1.8c0,0.4-0.1,0.8-0.3,1c-0.2,0.2-0.5,0.3-0.9,0.3c-0.3,0-0.6-0.1-0.8-0.3
			c-0.3-0.2-0.4-0.6-0.4-1c0-0.5,0.2-1,0.6-1.5c0.4-0.5,1-0.9,1.8-1.2c0.8-0.3,1.7-0.5,2.7-0.5c1.6,0,2.7,0.4,3.4,1.1
			c0.7,0.7,1,1.8,1,3.3v6.4c0,0.6,0.1,1,0.2,1.1c0.1,0.2,0.4,0.3,0.7,0.3c0.3,0,0.5-0.1,0.7-0.2s0.4-0.3,0.6-0.5l0.4,0.5
			c-0.5,0.7-0.9,1.2-1.4,1.5c-0.4,0.3-1,0.5-1.8,0.5c-0.7,0-1.1-0.2-1.3-0.6c-0.2-0.4-0.4-0.9-0.5-1.6l-0.2-0.3v-4.9
			c-0.9,0.2-1.7,0.5-2.5,0.7c-0.8,0.3-1.4,0.7-1.9,1.1c-0.5,0.5-0.7,1.1-0.7,1.8c0,0.7,0.2,1.3,0.6,1.7c0.4,0.4,0.9,0.6,1.5,0.6
			c0.5,0,1-0.1,1.6-0.4c0.6-0.2,1.1-0.6,1.6-1.1l0.2,1h-0.3c-0.4,0.4-0.9,0.7-1.3,1c-0.4,0.3-0.9,0.5-1.3,0.7
			C971.5,958,971,958,970.4,958z"/>
		<path class="st2" d="M987.3,957.8h-6.7V957c0.7,0,1.1-0.1,1.4-0.2c0.3-0.1,0.5-0.3,0.5-0.6c0.1-0.3,0.1-0.7,0.1-1.2v-8
			c0-0.5-0.1-0.8-0.3-1c-0.2-0.2-0.5-0.2-0.9-0.2c-0.3,0-0.5,0-0.8,0.1V945l3.7-0.8h0.7l0,2.6l0.1,0.6v7.6c0,0.5,0,0.9,0.1,1.2
			c0.1,0.3,0.3,0.5,0.6,0.6s0.8,0.2,1.5,0.2V957.8z M995.9,957.8h-6.7V957c0.7,0,1.2-0.1,1.5-0.2c0.3-0.1,0.5-0.3,0.6-0.6
			c0.1-0.3,0.1-0.7,0.1-1.2v-5.1c0-1.1-0.1-2-0.4-2.6s-0.6-0.9-1-1.1c-0.4-0.2-0.8-0.3-1.3-0.3c-0.6,0-1.1,0.1-1.5,0.3
			c-0.4,0.2-0.8,0.5-1.2,0.8c-0.4,0.3-0.7,0.6-1,0.9l-0.2-1.4h0.4c0.8-0.7,1.5-1.2,2.3-1.7c0.7-0.5,1.5-0.7,2.4-0.7
			c1.3,0,2.3,0.4,2.9,1.3c0.6,0.9,1,2.1,1,3.7v5.9c0,0.5,0,0.9,0.1,1.2c0.1,0.3,0.3,0.5,0.6,0.6c0.3,0.1,0.8,0.2,1.4,0.2V957.8z"/>
		<path class="st2" d="M1002.4,958.1c-1.1,0-2-0.3-2.7-0.9c-0.7-0.6-1.3-1.3-1.7-2.3c-0.4-1-0.6-2.1-0.6-3.3c0-1.6,0.3-2.9,0.9-4
			c0.6-1.1,1.4-2,2.4-2.6c1-0.6,2.1-0.9,3.4-0.9c0.5,0,0.9,0.1,1.4,0.2s0.9,0.3,1.3,0.5h0.1V941c0-0.6-0.1-1-0.2-1.2
			c-0.1-0.2-0.5-0.3-1.1-0.3c-0.1,0-0.4,0-0.8,0.1v-0.8l3.7-1h0.8v17c0,0.7,0.1,1.2,0.3,1.4s0.6,0.3,1.1,0.3h0.6v0.8l-3.7,0.7h-0.7
			v-2h-0.1c-0.5,0.5-1.2,0.9-1.9,1.4C1004.2,957.8,1003.4,958.1,1002.4,958.1z M1003.8,956c0.7,0,1.2-0.1,1.7-0.3
			c0.5-0.2,0.9-0.4,1.5-0.8v-7.5c-0.1-0.6-0.4-1.1-0.8-1.6c-0.4-0.5-1.1-0.7-2-0.7c-1.2,0-2.2,0.4-3,1.3s-1.1,2.2-1.1,4
			c0,2,0.3,3.4,1,4.2C1001.6,955.6,1002.5,956,1003.8,956z"/>
		<path class="st2" d="M1034.6,957.8h-14.4V957c0.8,0,1.4-0.1,1.7-0.2c0.4-0.1,0.6-0.4,0.7-0.8s0.2-0.9,0.2-1.7v-11.6
			c0-0.7-0.1-1.3-0.2-1.7s-0.4-0.7-0.7-0.8c-0.4-0.2-1-0.2-1.7-0.2v-0.9h8.2v0.9c-0.8,0-1.4,0.1-1.8,0.2c-0.4,0.2-0.7,0.4-0.8,0.8
			c-0.1,0.4-0.2,1-0.2,1.7v12.3c0,0.6,0.2,1,0.5,1.2s0.9,0.3,1.7,0.3h1.3c1,0,1.8-0.1,2.4-0.2c0.6-0.1,1.1-0.4,1.4-0.7
			c0.4-0.3,0.7-0.8,0.9-1.3c0.2-0.6,0.5-1.2,0.8-2.1h0.9L1034.6,957.8z"/>
		<path class="st2" d="M1040.5,958c-1.1,0-2-0.3-2.6-0.9c-0.6-0.6-0.9-1.4-0.9-2.3c0-0.8,0.2-1.4,0.5-1.9c0.4-0.5,0.8-1,1.4-1.3
			s1.2-0.7,1.9-0.9s1.4-0.5,2-0.6c0.7-0.2,1.2-0.3,1.7-0.5v-1.2c0-1.2-0.2-2.1-0.7-2.6c-0.4-0.5-1.1-0.8-2-0.8
			c-0.8,0-1.4,0.2-1.6,0.5s-0.3,0.9-0.3,1.8c0,0.4-0.1,0.8-0.3,1c-0.2,0.2-0.5,0.3-0.9,0.3c-0.3,0-0.6-0.1-0.8-0.3
			c-0.3-0.2-0.4-0.6-0.4-1c0-0.5,0.2-1,0.6-1.5c0.4-0.5,1-0.9,1.8-1.2c0.8-0.3,1.7-0.5,2.7-0.5c1.6,0,2.7,0.4,3.4,1.1s1,1.8,1,3.3
			v6.4c0,0.6,0.1,1,0.2,1.1c0.1,0.2,0.4,0.3,0.7,0.3c0.3,0,0.5-0.1,0.7-0.2s0.4-0.3,0.6-0.5l0.4,0.5c-0.5,0.7-0.9,1.2-1.4,1.5
			c-0.4,0.3-1,0.5-1.8,0.5c-0.7,0-1.1-0.2-1.3-0.6s-0.4-0.9-0.5-1.6l-0.2-0.3v-4.9c-0.9,0.2-1.7,0.5-2.5,0.7
			c-0.8,0.3-1.4,0.7-1.9,1.1c-0.5,0.5-0.7,1.1-0.7,1.8c0,0.7,0.2,1.3,0.6,1.7c0.4,0.4,0.9,0.6,1.5,0.6c0.5,0,1-0.1,1.6-0.4
			c0.6-0.2,1.1-0.6,1.6-1.1l0.2,1h-0.3c-0.4,0.4-0.9,0.7-1.3,1c-0.4,0.3-0.9,0.5-1.3,0.7C1041.7,958,1041.2,958,1040.5,958z"/>
		<path class="st2" d="M1058,957.8h-7.3V957c0.6,0,1.1-0.1,1.4-0.2c0.3-0.1,0.5-0.3,0.6-0.6s0.1-0.7,0.1-1.2v-7.8
			c0-0.5,0-0.9-0.1-1.2s-0.4-0.4-0.9-0.4c-0.3,0-0.6,0-0.9,0.1V945l3.6-0.9h0.7v2.9h0.1c0.5-0.7,0.9-1.3,1.3-1.7
			c0.4-0.5,0.8-0.8,1.1-1c0.4-0.2,0.8-0.3,1.3-0.3c0.6,0,1,0.1,1.3,0.4c0.3,0.3,0.4,0.7,0.4,1.2c0,0.5-0.1,0.9-0.4,1.2
			c-0.3,0.2-0.6,0.4-0.9,0.4c-0.3,0-0.6-0.1-0.8-0.2c-0.2-0.2-0.5-0.3-0.6-0.5c-0.2-0.2-0.3-0.2-0.4-0.2c-0.3,0-0.7,0.2-1.1,0.7
			s-0.8,1-1.2,1.6v6.5c0,0.6,0.1,1,0.2,1.3c0.2,0.3,0.4,0.5,0.8,0.6c0.4,0.1,1,0.1,1.7,0.1V957.8z"/>
		<path class="st2" d="M1066.5,964.5c-1.3,0-2.3-0.2-3-0.5s-1.2-0.7-1.5-1.2c-0.3-0.5-0.4-1-0.4-1.5c0-0.5,0.2-1,0.6-1.5
			c0.4-0.5,1-1.2,1.8-1.9v-0.3l0.9,0.2c-0.4,0.6-0.6,1.1-0.8,1.5c-0.1,0.4-0.2,0.7-0.2,1.1c0,0.8,0.4,1.4,1.1,1.8
			c0.7,0.4,1.8,0.6,3.3,0.6c1.1,0,2.1-0.1,2.8-0.4c0.7-0.3,1.2-0.6,1.5-1.1c0.3-0.4,0.5-0.8,0.5-1.2c0-0.5-0.2-0.9-0.5-1.2
			c-0.3-0.3-0.8-0.5-1.3-0.6c-0.5-0.1-1.1-0.2-1.7-0.2s-1.1,0-1.6,0c-0.9,0-1.5,0-2,0s-0.8,0-1,0c-0.2,0-0.4,0-0.5,0l-0.3-0.1
			c-0.3-0.1-0.6-0.2-0.9-0.5c-0.3-0.2-0.5-0.5-0.7-0.8c-0.2-0.3-0.3-0.6-0.3-0.9c0-0.3,0.1-0.7,0.3-1.1c0.2-0.4,0.5-0.7,0.9-1.1
			c0.4-0.4,0.8-0.7,1.2-1.1v-0.3l0.8,0.5c-0.1,0.1-0.2,0.3-0.3,0.5c-0.1,0.2-0.3,0.5-0.3,0.8c-0.1,0.3-0.1,0.5-0.1,0.7
			c0,0.3,0.1,0.5,0.3,0.7c0.2,0.2,0.6,0.3,1,0.4c0.5,0.1,1.2,0.1,2.1,0.1c1.2,0,2.3,0.1,3.3,0.2c1,0.1,1.7,0.4,2.3,0.9
			c0.6,0.5,0.8,1.2,0.8,2.3c0,0.9-0.2,1.7-0.7,2.4s-1.1,1.2-1.9,1.6s-1.6,0.7-2.6,0.9S1067.4,964.5,1066.5,964.5z M1067.8,953.4
			c-0.5,0-1,0-1.4-0.1c-0.4-0.1-0.9-0.2-1.3-0.3l-0.3-0.3c-0.5-0.3-0.9-0.6-1.3-0.9c-0.4-0.4-0.6-0.8-0.8-1.3
			c-0.2-0.5-0.3-1.1-0.3-1.7c0-0.9,0.2-1.8,0.7-2.5c0.4-0.7,1.1-1.2,1.9-1.6c0.8-0.4,1.7-0.6,2.7-0.6c0.6,0,1.1,0.1,1.6,0.2
			c0.5,0.1,1,0.3,1.4,0.5c0.4,0.2,0.8,0.5,1.2,0.7v0.7c0.2,0.3,0.4,0.7,0.7,1.1c0.2,0.5,0.4,1.1,0.4,1.8c0,0.9-0.2,1.6-0.7,2.3
			c-0.4,0.7-1,1.2-1.8,1.5C1069.8,953.2,1068.9,953.4,1067.8,953.4z M1067.9,952.4c0.7,0,1.3-0.2,1.8-0.7c0.5-0.5,0.7-1.4,0.7-2.8
			c0-1.2-0.3-2.1-0.8-2.8c-0.5-0.7-1.2-1.1-2.2-1.1c-0.8,0-1.4,0.3-1.8,0.9c-0.5,0.6-0.7,1.4-0.7,2.6c0,1.2,0.2,2.2,0.7,2.8
			S1066.9,952.4,1067.9,952.4z M1074.7,944.6v1.5l-3.1-0.1l-1-1.2L1074.7,944.6z"/>
		<path class="st2" d="M1082.2,958.1c-1.2,0-2.2-0.3-3.2-0.8c-0.9-0.5-1.7-1.3-2.2-2.4c-0.5-1.1-0.8-2.3-0.8-3.8
			c0-1.6,0.3-2.9,0.8-3.9c0.6-1,1.3-1.8,2.2-2.3c0.9-0.5,2-0.8,3.1-0.8c1.6,0,2.9,0.5,3.8,1.6c1,1.1,1.5,2.6,1.6,4.6h-9.4l0-1.1h6.7
			c0-0.7-0.1-1.4-0.4-2s-0.6-1.1-1-1.5s-1-0.6-1.7-0.6c-1.1,0-2,0.4-2.5,1.3c-0.6,0.9-0.8,2.1-0.8,3.6c0,1.3,0.2,2.4,0.6,3.3
			s1,1.5,1.7,1.9s1.4,0.6,2.2,0.6c0.8,0,1.4-0.1,1.9-0.3c0.5-0.2,0.9-0.5,1.3-0.8s0.7-0.7,1-1.1l0.6,0.4c-0.3,0.5-0.5,1-0.9,1.5
			c-0.3,0.5-0.7,0.9-1.1,1.3c-0.4,0.4-0.9,0.6-1.5,0.9C1083.6,958,1083,958.1,1082.2,958.1z"/>
		<path class="st2" d="M1103.8,955.3l0.6,0.5c-0.4,0.5-0.7,0.9-1,1.3c-0.3,0.4-0.7,0.6-1.1,0.8c-0.4,0.2-0.9,0.3-1.5,0.3
			c-1,0-1.7-0.3-2.1-0.8c-0.4-0.6-0.7-1.5-0.7-2.7v-8.8h-1.6v-0.7c0.7-0.4,1.3-1,1.8-1.7s1-1.7,1.5-2.9h0.7v4h3.3v1.2h-3.3v8
			c0,1,0.1,1.7,0.3,2.1c0.2,0.4,0.6,0.6,1.1,0.6c0.5,0,0.8-0.1,1.1-0.3C1103.2,956,1103.5,955.7,1103.8,955.3z"/>
		<path class="st2" d="M1111.7,958.1c-1.2,0-2.2-0.3-3.2-0.8c-0.9-0.5-1.7-1.3-2.2-2.4c-0.5-1.1-0.8-2.3-0.8-3.8
			c0-1.6,0.3-2.9,0.8-3.9c0.6-1,1.3-1.8,2.2-2.3c0.9-0.5,2-0.8,3.1-0.8c1.6,0,2.9,0.5,3.8,1.6c1,1.1,1.5,2.6,1.6,4.6h-9.4l0-1.1h6.7
			c0-0.7-0.1-1.4-0.4-2s-0.6-1.1-1-1.5s-1-0.6-1.7-0.6c-1.1,0-2,0.4-2.5,1.3c-0.6,0.9-0.8,2.1-0.8,3.6c0,1.3,0.2,2.4,0.6,3.3
			s1,1.5,1.7,1.9s1.4,0.6,2.2,0.6c0.8,0,1.4-0.1,1.9-0.3c0.5-0.2,0.9-0.5,1.3-0.8s0.7-0.7,1-1.1l0.6,0.4c-0.3,0.5-0.5,1-0.9,1.5
			c-0.3,0.5-0.7,0.9-1.1,1.3c-0.4,0.4-0.9,0.6-1.5,0.9C1113.1,958,1112.4,958.1,1111.7,958.1z"/>
		<path class="st2" d="M1122.8,957.8h-4.9V957c0.5,0,0.9-0.1,1.2-0.3c0.3-0.2,0.7-0.6,1.2-1.1l3.7-4.7l0.9,1.1h-0.4l-2.4,3.4
			c-0.1,0.2-0.3,0.5-0.5,0.7c-0.2,0.2-0.2,0.4-0.2,0.5c0,0.2,0.1,0.3,0.3,0.3c0.2,0.1,0.5,0.1,1,0.1V957.8z M1132,957.8h-6.1V957
			c0.5,0,0.9,0,1.1-0.1c0.2-0.1,0.3-0.3,0.3-0.5c0-0.2-0.1-0.4-0.2-0.6l-1.8-2.8l-0.7-1.2l-0.5-0.4l-3.2-4.5
			c-0.3-0.5-0.6-0.8-0.8-1.1s-0.5-0.4-0.7-0.5c-0.3-0.1-0.6-0.1-1-0.1v-0.8h6.2v0.8c-0.9,0-1.4,0.2-1.4,0.7c0,0.2,0.1,0.3,0.2,0.5
			c0.1,0.2,0.3,0.5,0.5,0.8c0.2,0.3,0.5,0.8,0.8,1.3l0.8,1.5l0.5,0.3l3.7,5.1c0.4,0.6,0.8,1,1.1,1.2c0.3,0.3,0.7,0.4,1.3,0.4V957.8z
			 M1129.2,946.6l-3.2,4.1l-0.8-0.9h0.4l1.4-1.9c0.4-0.5,0.7-0.9,0.8-1.2c0.2-0.3,0.2-0.5,0.2-0.7c0-0.2-0.1-0.4-0.2-0.5
			c-0.2-0.1-0.5-0.2-0.9-0.2v-0.8h4.8v0.8c-0.5,0-0.9,0.1-1.3,0.4C1129.8,945.8,1129.5,946.1,1129.2,946.6z"/>
		<path class="st2" d="M1140.4,955.3l0.6,0.5c-0.4,0.5-0.7,0.9-1,1.3c-0.3,0.4-0.7,0.6-1.1,0.8c-0.4,0.2-0.9,0.3-1.5,0.3
			c-1,0-1.7-0.3-2.1-0.8c-0.4-0.6-0.7-1.5-0.7-2.7v-8.8h-1.6v-0.7c0.7-0.4,1.3-1,1.8-1.7s1-1.7,1.5-2.9h0.7v4h3.3v1.2h-3.3v8
			c0,1,0.1,1.7,0.3,2.1c0.2,0.4,0.6,0.6,1.1,0.6c0.5,0,0.8-0.1,1.1-0.3C1139.7,956,1140,955.7,1140.4,955.3z"/>
	</g>
</g>
</svg>
