<svg width="152" height="31" viewBox="0 0 152 31" fill="none" xmlns="http://www.w3.org/2000/svg">
<path d="M48.1274 9.32564C47.2394 9.32564 46.4395 9.47976 45.7276 9.788C45.023 10.0889 44.4212 10.5292 43.9222 11.109C43.4305 11.6815 43.0525 12.375 42.7883 13.1896C42.5241 14.0043 42.392 14.9216 42.392 15.9418C42.392 17.2921 42.6012 18.4664 43.0195 19.4645C43.4451 20.4553 44.0763 21.2222 44.913 21.7653C45.7569 22.3084 46.8101 22.5799 48.0724 22.5799C48.7916 22.5799 49.4668 22.5212 50.098 22.4038C50.7365 22.279 51.3566 22.1249 51.9584 21.9414V23.5707C51.3713 23.7908 50.7548 23.9523 50.109 24.055C49.4631 24.1651 48.6962 24.2202 47.8082 24.2202C46.1716 24.2202 44.8029 23.8826 43.702 23.2074C42.6085 22.5249 41.7865 21.5634 41.2361 20.3232C40.693 19.0829 40.4215 17.6187 40.4215 15.9308C40.4215 14.7125 40.5903 13.6006 40.9279 12.5952C41.2728 11.5824 41.7719 10.709 42.425 9.97514C43.0855 9.24124 43.8928 8.67614 44.8469 8.27983C45.8083 7.87618 46.9092 7.67436 48.1495 7.67436C48.9641 7.67436 49.7494 7.75509 50.5053 7.91655C51.2612 8.07801 51.9437 8.30919 52.5529 8.61009L51.8043 10.1953C51.2906 9.96046 50.7255 9.75864 50.109 9.58984C49.4998 9.41371 48.8393 9.32564 48.1274 9.32564ZM65.5759 17.9453C65.5759 18.9361 65.4475 19.8204 65.1907 20.5984C64.9338 21.3763 64.5632 22.0331 64.0788 22.5689C63.5944 23.1046 63.0073 23.5156 62.3174 23.8018C61.6349 24.0807 60.8606 24.2202 59.9946 24.2202C59.1873 24.2202 58.4461 24.0807 57.7709 23.8018C57.1031 23.5156 56.5233 23.1046 56.0316 22.5689C55.5472 22.0331 55.1692 21.3763 54.8977 20.5984C54.6335 19.8204 54.5014 18.9361 54.5014 17.9453C54.5014 16.6243 54.7252 15.5014 55.1729 14.5767C55.6206 13.6446 56.2591 12.9364 57.0884 12.4521C57.925 11.9603 58.9195 11.7145 60.0717 11.7145C61.1725 11.7145 62.134 11.9603 62.9559 12.4521C63.7852 12.9438 64.4274 13.6557 64.8824 14.5877C65.3448 15.5124 65.5759 16.6316 65.5759 17.9453ZM56.3948 17.9453C56.3948 18.9141 56.5233 19.7544 56.7801 20.4663C57.037 21.1781 57.4333 21.7286 57.9691 22.1175C58.5048 22.5065 59.1947 22.701 60.0387 22.701C60.8753 22.701 61.5615 22.5065 62.0973 22.1175C62.6403 21.7286 63.0403 21.1781 63.2972 20.4663C63.5541 19.7544 63.6825 18.9141 63.6825 17.9453C63.6825 16.9839 63.5541 16.1546 63.2972 15.4574C63.0403 14.7528 62.644 14.2098 62.1083 13.8281C61.5725 13.4465 60.879 13.2557 60.0277 13.2557C58.7727 13.2557 57.8516 13.6703 57.2645 14.4996C56.6847 15.329 56.3948 16.4775 56.3948 17.9453ZM81.8355 11.7145C83.1639 11.7145 84.1657 12.0631 84.8409 12.7603C85.5161 13.4502 85.8536 14.562 85.8536 16.0959V24H84.0482V16.1839C84.0482 15.2079 83.8354 14.4776 83.4098 13.9933C82.9914 13.5015 82.3676 13.2557 81.5383 13.2557C80.3714 13.2557 79.5237 13.5933 78.9953 14.2685C78.4669 14.9437 78.2027 15.9381 78.2027 17.2518V24H76.3863V16.1839C76.3863 15.5308 76.2909 14.9877 76.1001 14.5547C75.9166 14.1217 75.6377 13.7988 75.2634 13.5859C74.8965 13.3658 74.4305 13.2557 73.8654 13.2557C73.0654 13.2557 72.4232 13.4208 71.9389 13.7511C71.4545 14.0813 71.1022 14.573 70.8821 15.2262C70.6692 15.872 70.5628 16.6683 70.5628 17.6151V24H68.7354V11.9347H70.2105L70.4857 13.641H70.5848C70.827 13.2227 71.1316 12.8704 71.4985 12.5842C71.8655 12.2979 72.2765 12.0814 72.7315 11.9347C73.1865 11.7879 73.6709 11.7145 74.1846 11.7145C75.102 11.7145 75.8689 11.887 76.4854 12.2319C77.1092 12.5695 77.5606 13.0869 77.8394 13.7841H77.9385C78.3348 13.0869 78.8779 12.5695 79.5678 12.2319C80.2576 11.887 81.0136 11.7145 81.8355 11.7145ZM102.708 11.7145C104.036 11.7145 105.038 12.0631 105.713 12.7603C106.388 13.4502 106.726 14.562 106.726 16.0959V24H104.92V16.1839C104.92 15.2079 104.708 14.4776 104.282 13.9933C103.864 13.5015 103.24 13.2557 102.41 13.2557C101.244 13.2557 100.396 13.5933 99.8675 14.2685C99.3391 14.9437 99.0749 15.9381 99.0749 17.2518V24H97.2585V16.1839C97.2585 15.5308 97.1631 14.9877 96.9723 14.5547C96.7888 14.1217 96.5099 13.7988 96.1356 13.5859C95.7687 13.3658 95.3026 13.2557 94.7375 13.2557C93.9376 13.2557 93.2954 13.4208 92.811 13.7511C92.3267 14.0813 91.9744 14.573 91.7542 15.2262C91.5414 15.872 91.435 16.6683 91.435 17.6151V24H89.6076V11.9347H91.0827L91.3579 13.641H91.457C91.6992 13.2227 92.0037 12.8704 92.3707 12.5842C92.7376 12.2979 93.1486 12.0814 93.6036 11.9347C94.0587 11.7879 94.543 11.7145 95.0568 11.7145C95.9741 11.7145 96.7411 11.887 97.3576 12.2319C97.9814 12.5695 98.4327 13.0869 98.7116 13.7841H98.8107C99.207 13.0869 99.7501 12.5695 100.44 12.2319C101.13 11.887 101.886 11.7145 102.708 11.7145ZM115.125 11.7145C116.153 11.7145 117.033 11.942 117.767 12.397C118.501 12.852 119.063 13.4905 119.452 14.3125C119.841 15.1271 120.035 16.0812 120.035 17.1747V18.3086H111.702C111.724 19.725 112.076 20.8039 112.758 21.5451C113.441 22.2863 114.402 22.657 115.643 22.657C116.406 22.657 117.081 22.5872 117.668 22.4478C118.255 22.3084 118.865 22.1029 119.496 21.8313V23.4386C118.887 23.7101 118.281 23.9083 117.679 24.033C117.085 24.1578 116.38 24.2202 115.566 24.2202C114.406 24.2202 113.393 23.9853 112.527 23.5156C111.669 23.0386 111.001 22.3414 110.524 21.424C110.047 20.5066 109.808 19.3838 109.808 18.0554C109.808 16.7564 110.025 15.6335 110.458 14.6868C110.898 13.7327 111.515 12.9988 112.307 12.4851C113.107 11.9714 114.046 11.7145 115.125 11.7145ZM115.103 13.2116C114.127 13.2116 113.349 13.5309 112.769 14.1694C112.19 14.8079 111.845 15.6996 111.735 16.8445H118.12C118.112 16.1252 117.999 15.4941 117.778 14.951C117.566 14.4006 117.239 13.9749 116.799 13.674C116.358 13.3658 115.793 13.2116 115.103 13.2116ZM128.853 11.7145C130.284 11.7145 131.367 12.0668 132.1 12.7713C132.834 13.4685 133.201 14.5914 133.201 16.1399V24H131.396V16.261C131.396 15.2556 131.165 14.5033 130.702 14.0043C130.247 13.5052 129.546 13.2557 128.6 13.2557C127.264 13.2557 126.325 13.6336 125.782 14.3896C125.238 15.1455 124.967 16.2427 124.967 17.6811V24H123.14V11.9347H124.615L124.89 13.674H124.989C125.246 13.2483 125.572 12.8924 125.969 12.6062C126.365 12.3126 126.809 12.0924 127.301 11.9457C127.792 11.7915 128.31 11.7145 128.853 11.7145ZM140.863 22.723C141.164 22.723 141.472 22.6973 141.788 22.646C142.104 22.5946 142.36 22.5322 142.559 22.4588V23.8789C142.346 23.9743 142.048 24.055 141.667 24.1211C141.293 24.1871 140.926 24.2202 140.566 24.2202C139.928 24.2202 139.348 24.1101 138.827 23.8899C138.306 23.6624 137.887 23.2808 137.572 22.745C137.263 22.2093 137.109 21.468 137.109 20.5213V13.3658H135.392V12.4741L137.12 11.7585L137.847 9.13849H138.948V11.9347H142.481V13.3658H138.948V20.4663C138.948 21.2222 139.12 21.7873 139.465 22.1616C139.817 22.5359 140.283 22.723 140.863 22.723Z" fill="black"/>
<path d="M28.1818 30.5909L22.5455 24.9545H2.81818C2.04318 24.9545 1.3795 24.6783 0.827139 24.126C0.274775 23.5736 -0.000937002 22.9104 2.39235e-06 22.1363V5.22724C2.39235e-06 4.45224 0.276184 3.78856 0.828548 3.2362C1.38091 2.68383 2.04412 2.40812 2.81818 2.40906H25.3636C26.1386 2.40906 26.8023 2.68524 27.3547 3.23761C27.907 3.78997 28.1828 4.45318 28.1818 5.22724V30.5909Z" fill="#6C9D6F"/>
</svg>
