<svg width="106" height="42" viewBox="0 0 106 42" fill="none" xmlns="http://www.w3.org/2000/svg">
<path d="M55.2344 31.75V11.7617H57.5586V29.6719H66.4316V31.75H55.2344ZM71.791 16.7656V31.75H69.5215V16.7656H71.791ZM70.6836 11.1602C71.0573 11.1602 71.3763 11.2832 71.6406 11.5293C71.9141 11.7663 72.0508 12.14 72.0508 12.6504C72.0508 13.1517 71.9141 13.5254 71.6406 13.7715C71.3763 14.0176 71.0573 14.1406 70.6836 14.1406C70.2917 14.1406 69.9635 14.0176 69.6992 13.7715C69.444 13.5254 69.3164 13.1517 69.3164 12.6504C69.3164 12.14 69.444 11.7663 69.6992 11.5293C69.9635 11.2832 70.2917 11.1602 70.6836 11.1602ZM78.8594 10.4766V21.5234C78.8594 21.888 78.8457 22.3346 78.8184 22.8633C78.791 23.3828 78.7682 23.8431 78.75 24.2441H78.8457C79.0371 24.0072 79.3151 23.6562 79.6797 23.1914C80.0534 22.7266 80.3678 22.3529 80.623 22.0703L85.5996 16.7656H88.2656L82.2363 23.1641L88.7031 31.75H85.9688L80.6777 24.6543L78.8594 26.3223V31.75H76.6035V10.4766H78.8594ZM97.084 16.4922C98.36 16.4922 99.4538 16.7747 100.365 17.3398C101.277 17.9049 101.974 18.6979 102.457 19.7188C102.94 20.7305 103.182 21.9154 103.182 23.2734V24.6816H92.832C92.8594 26.4408 93.2969 27.7806 94.1445 28.7012C94.9922 29.6217 96.1862 30.082 97.7266 30.082C98.6745 30.082 99.513 29.9954 100.242 29.8223C100.971 29.6491 101.728 29.3939 102.512 29.0566V31.0527C101.755 31.39 101.003 31.6361 100.256 31.791C99.5176 31.946 98.6426 32.0234 97.6309 32.0234C96.1908 32.0234 94.9329 31.7318 93.8574 31.1484C92.791 30.556 91.9616 29.6901 91.3691 28.5508C90.7767 27.4115 90.4805 26.0169 90.4805 24.3672C90.4805 22.7539 90.7493 21.3594 91.2871 20.1836C91.834 18.9987 92.5996 18.0872 93.584 17.4492C94.5775 16.8112 95.7441 16.4922 97.084 16.4922ZM97.0566 18.3516C95.8444 18.3516 94.8783 18.748 94.1582 19.541C93.4382 20.334 93.0098 21.4414 92.873 22.8633H100.803C100.794 21.9701 100.652 21.1862 100.379 20.5117C100.115 19.8281 99.709 19.2995 99.1621 18.9258C98.6152 18.543 97.9134 18.3516 97.0566 18.3516Z" fill="black"/>
<path d="M40.25 17.5C40.25 16.5717 39.8812 15.6815 39.2249 15.0251C38.5685 14.3687 37.6783 14 36.75 14H25.69L27.37 6.0025C27.405 5.8275 27.4225 5.635 27.4225 5.4425C27.4225 4.725 27.125 4.06 26.6525 3.5875L24.7975 1.75L13.2825 13.265C12.635 13.9125 12.25 14.7875 12.25 15.75V33.25C12.25 34.1783 12.6187 35.0685 13.2751 35.7249C13.9315 36.3812 14.8217 36.75 15.75 36.75H31.5C32.9525 36.75 34.195 35.875 34.72 34.615L40.005 22.2775C40.1625 21.875 40.25 21.455 40.25 21V17.5ZM1.75 36.75H8.75V15.75H1.75V36.75Z" fill="#34312D"/>
</svg>
