<svg width="361" height="72" viewBox="0 0 361 72" fill="none" xmlns="http://www.w3.org/2000/svg">
<rect x="0.5" y="0.5" width="360" height="71" rx="35.5" fill="#34312D" stroke="#34312D"/>
<path d="M51.4688 38.2734C51.4688 39.2109 51.3411 40.0599 51.0859 40.8203C50.8307 41.5807 50.4505 42.224 49.9453 42.75C49.4453 43.276 48.8203 43.6589 48.0703 43.8984L50.7578 46.7188H48.8594L46.6484 44.1406C46.5807 44.1406 46.5104 44.1432 46.4375 44.1484C46.3698 44.1536 46.3021 44.1562 46.2344 44.1562C45.349 44.1562 44.5755 44.0156 43.9141 43.7344C43.2578 43.4531 42.7109 43.0521 42.2734 42.5312C41.8411 42.0104 41.5156 41.388 41.2969 40.6641C41.0833 39.9401 40.9766 39.138 40.9766 38.2578C40.9766 37.0911 41.1693 36.0677 41.5547 35.1875C41.9401 34.3073 42.5234 33.6224 43.3047 33.1328C44.0911 32.6432 45.0755 32.3984 46.2578 32.3984C47.388 32.3984 48.3385 32.6406 49.1094 33.125C49.8854 33.6094 50.4714 34.2917 50.8672 35.1719C51.2682 36.0469 51.4688 37.0807 51.4688 38.2734ZM42.375 38.2734C42.375 39.2422 42.513 40.0807 42.7891 40.7891C43.0651 41.4974 43.487 42.0443 44.0547 42.4297C44.6276 42.8151 45.3542 43.0078 46.2344 43.0078C47.1198 43.0078 47.8438 42.8151 48.4062 42.4297C48.974 42.0443 49.3932 41.4974 49.6641 40.7891C49.9349 40.0807 50.0703 39.2422 50.0703 38.2734C50.0703 36.7995 49.7604 35.6484 49.1406 34.8203C48.526 33.987 47.5651 33.5703 46.2578 33.5703C45.3724 33.5703 44.6432 33.7604 44.0703 34.1406C43.4974 34.5208 43.0703 35.0625 42.7891 35.7656C42.513 36.4635 42.375 37.2995 42.375 38.2734ZM60.8906 35.4375V44H59.8281L59.6406 42.7969H59.5703C59.3932 43.0938 59.1641 43.3438 58.8828 43.5469C58.6016 43.75 58.2839 43.901 57.9297 44C57.5807 44.1042 57.2083 44.1562 56.8125 44.1562C56.1354 44.1562 55.5677 44.0469 55.1094 43.8281C54.651 43.6094 54.3047 43.2708 54.0703 42.8125C53.8411 42.3542 53.7266 41.7656 53.7266 41.0469V35.4375H55.0391V40.9531C55.0391 41.6667 55.2005 42.2005 55.5234 42.5547C55.8464 42.9036 56.3385 43.0781 57 43.0781C57.6354 43.0781 58.1406 42.9583 58.5156 42.7188C58.8958 42.4792 59.1693 42.1276 59.3359 41.6641C59.5026 41.1953 59.5859 40.6224 59.5859 39.9453V35.4375H60.8906ZM66.9297 35.2812C67.6589 35.2812 68.2839 35.4427 68.8047 35.7656C69.3255 36.0885 69.724 36.5417 70 37.125C70.276 37.7031 70.4141 38.3802 70.4141 39.1562V39.9609H64.5C64.5156 40.9661 64.7656 41.7318 65.25 42.2578C65.7344 42.7839 66.4167 43.0469 67.2969 43.0469C67.8385 43.0469 68.3177 42.9974 68.7344 42.8984C69.151 42.7995 69.5833 42.6536 70.0312 42.4609V43.6016C69.599 43.7943 69.1693 43.9349 68.7422 44.0234C68.3203 44.112 67.8203 44.1562 67.2422 44.1562C66.4193 44.1562 65.7005 43.9896 65.0859 43.6562C64.4766 43.3177 64.0026 42.8229 63.6641 42.1719C63.3255 41.5208 63.1562 40.724 63.1562 39.7812C63.1562 38.8594 63.3099 38.0625 63.6172 37.3906C63.9297 36.7135 64.3672 36.1927 64.9297 35.8281C65.4974 35.4635 66.1641 35.2812 66.9297 35.2812ZM66.9141 36.3438C66.2214 36.3438 65.6693 36.5703 65.2578 37.0234C64.8464 37.4766 64.6016 38.1094 64.5234 38.9219H69.0547C69.0495 38.4115 68.9688 37.9635 68.8125 37.5781C68.6615 37.1875 68.4297 36.8854 68.1172 36.6719C67.8047 36.4531 67.4036 36.3438 66.9141 36.3438ZM78.1562 41.6562C78.1562 42.2031 78.0182 42.6641 77.7422 43.0391C77.4714 43.4089 77.0807 43.6875 76.5703 43.875C76.0651 44.0625 75.4609 44.1562 74.7578 44.1562C74.1589 44.1562 73.6406 44.1094 73.2031 44.0156C72.7656 43.9219 72.3828 43.7891 72.0547 43.6172V42.4219C72.4036 42.5938 72.8203 42.75 73.3047 42.8906C73.7891 43.0312 74.2839 43.1016 74.7891 43.1016C75.5286 43.1016 76.0651 42.9818 76.3984 42.7422C76.7318 42.5026 76.8984 42.1771 76.8984 41.7656C76.8984 41.5312 76.8307 41.3255 76.6953 41.1484C76.5651 40.9661 76.3438 40.7917 76.0312 40.625C75.7188 40.4531 75.2865 40.2656 74.7344 40.0625C74.1875 39.8542 73.7135 39.6484 73.3125 39.4453C72.9167 39.237 72.6094 38.9844 72.3906 38.6875C72.1771 38.3906 72.0703 38.0052 72.0703 37.5312C72.0703 36.8073 72.362 36.2526 72.9453 35.8672C73.5339 35.4766 74.3047 35.2812 75.2578 35.2812C75.7734 35.2812 76.2552 35.3333 76.7031 35.4375C77.1562 35.5365 77.5781 35.6719 77.9688 35.8438L77.5312 36.8828C77.1771 36.7318 76.7995 36.6042 76.3984 36.5C75.9974 36.3958 75.5885 36.3438 75.1719 36.3438C74.5729 36.3438 74.112 36.4427 73.7891 36.6406C73.4714 36.8385 73.3125 37.1094 73.3125 37.4531C73.3125 37.7188 73.3854 37.9375 73.5312 38.1094C73.6823 38.2812 73.9219 38.4427 74.25 38.5938C74.5781 38.7448 75.0104 38.9219 75.5469 39.125C76.0833 39.3229 76.5469 39.5286 76.9375 39.7422C77.3281 39.9505 77.6276 40.2057 77.8359 40.5078C78.0495 40.8047 78.1562 41.1875 78.1562 41.6562ZM83.0078 43.0938C83.2214 43.0938 83.4401 43.0755 83.6641 43.0391C83.888 43.0026 84.0703 42.9583 84.2109 42.9062V43.9141C84.0599 43.9818 83.849 44.0391 83.5781 44.0859C83.3125 44.1328 83.0521 44.1562 82.7969 44.1562C82.3438 44.1562 81.9323 44.0781 81.5625 43.9219C81.1927 43.7604 80.8958 43.4896 80.6719 43.1094C80.4531 42.7292 80.3438 42.2031 80.3438 41.5312V36.4531H79.125V35.8203L80.3516 35.3125L80.8672 33.4531H81.6484V35.4375H84.1562V36.4531H81.6484V41.4922C81.6484 42.0286 81.7708 42.4297 82.0156 42.6953C82.2656 42.9609 82.5964 43.0938 83.0078 43.0938ZM87.2422 35.4375V44H85.9453V35.4375H87.2422ZM86.6094 32.2344C86.8229 32.2344 87.0052 32.3047 87.1562 32.4453C87.3125 32.5807 87.3906 32.7943 87.3906 33.0859C87.3906 33.3724 87.3125 33.5859 87.1562 33.7266C87.0052 33.8672 86.8229 33.9375 86.6094 33.9375C86.3854 33.9375 86.1979 33.8672 86.0469 33.7266C85.901 33.5859 85.8281 33.3724 85.8281 33.0859C85.8281 32.7943 85.901 32.5807 86.0469 32.4453C86.1979 32.3047 86.3854 32.2344 86.6094 32.2344ZM97.375 39.7031C97.375 40.4062 97.2839 41.0339 97.1016 41.5859C96.9193 42.138 96.6562 42.6042 96.3125 42.9844C95.9688 43.3646 95.5521 43.6562 95.0625 43.8594C94.5781 44.0573 94.0286 44.1562 93.4141 44.1562C92.8411 44.1562 92.3151 44.0573 91.8359 43.8594C91.362 43.6562 90.9505 43.3646 90.6016 42.9844C90.2578 42.6042 89.9896 42.138 89.7969 41.5859C89.6094 41.0339 89.5156 40.4062 89.5156 39.7031C89.5156 38.7656 89.6745 37.9688 89.9922 37.3125C90.3099 36.651 90.763 36.1484 91.3516 35.8047C91.9453 35.4557 92.651 35.2812 93.4688 35.2812C94.25 35.2812 94.9323 35.4557 95.5156 35.8047C96.1042 36.1536 96.5599 36.6589 96.8828 37.3203C97.2109 37.9766 97.375 38.7708 97.375 39.7031ZM90.8594 39.7031C90.8594 40.3906 90.9505 40.987 91.1328 41.4922C91.3151 41.9974 91.5964 42.388 91.9766 42.6641C92.3568 42.9401 92.8464 43.0781 93.4453 43.0781C94.0391 43.0781 94.526 42.9401 94.9062 42.6641C95.2917 42.388 95.5755 41.9974 95.7578 41.4922C95.9401 40.987 96.0312 40.3906 96.0312 39.7031C96.0312 39.0208 95.9401 38.4323 95.7578 37.9375C95.5755 37.4375 95.2943 37.0521 94.9141 36.7812C94.5339 36.5104 94.0417 36.375 93.4375 36.375C92.5469 36.375 91.8932 36.6693 91.4766 37.2578C91.0651 37.8464 90.8594 38.6615 90.8594 39.7031ZM103.672 35.2812C104.688 35.2812 105.456 35.5312 105.977 36.0312C106.497 36.526 106.758 37.3229 106.758 38.4219V44H105.477V38.5078C105.477 37.7943 105.312 37.2604 104.984 36.9062C104.661 36.5521 104.164 36.375 103.492 36.375C102.544 36.375 101.878 36.6432 101.492 37.1797C101.107 37.7161 100.914 38.4948 100.914 39.5156V44H99.6172V35.4375H100.664L100.859 36.6719H100.93C101.112 36.3698 101.344 36.1172 101.625 35.9141C101.906 35.7057 102.221 35.5495 102.57 35.4453C102.919 35.3359 103.286 35.2812 103.672 35.2812ZM113.484 35.2812C114.5 35.2812 115.268 35.5312 115.789 36.0312C116.31 36.526 116.57 37.3229 116.57 38.4219V44H115.289V38.5078C115.289 37.7943 115.125 37.2604 114.797 36.9062C114.474 36.5521 113.977 36.375 113.305 36.375C112.357 36.375 111.69 36.6432 111.305 37.1797C110.919 37.7161 110.727 38.4948 110.727 39.5156V44H109.43V35.4375H110.477L110.672 36.6719H110.742C110.924 36.3698 111.156 36.1172 111.438 35.9141C111.719 35.7057 112.034 35.5495 112.383 35.4453C112.732 35.3359 113.099 35.2812 113.484 35.2812ZM122.445 35.2969C123.466 35.2969 124.224 35.526 124.719 35.9844C125.214 36.4427 125.461 37.1745 125.461 38.1797V44H124.516L124.266 42.7344H124.203C123.964 43.0469 123.714 43.3099 123.453 43.5234C123.193 43.7318 122.891 43.8906 122.547 44C122.208 44.1042 121.792 44.1562 121.297 44.1562C120.776 44.1562 120.312 44.0651 119.906 43.8828C119.505 43.7005 119.188 43.4245 118.953 43.0547C118.724 42.6849 118.609 42.2161 118.609 41.6484C118.609 40.7943 118.948 40.138 119.625 39.6797C120.302 39.2214 121.333 38.9714 122.719 38.9297L124.195 38.8672V38.3438C124.195 37.6042 124.036 37.0859 123.719 36.7891C123.401 36.4922 122.953 36.3438 122.375 36.3438C121.927 36.3438 121.5 36.4089 121.094 36.5391C120.688 36.6693 120.302 36.8229 119.938 37L119.539 36.0156C119.924 35.8177 120.367 35.6484 120.867 35.5078C121.367 35.3672 121.893 35.2969 122.445 35.2969ZM124.18 39.7812L122.875 39.8359C121.807 39.8776 121.055 40.0521 120.617 40.3594C120.18 40.6667 119.961 41.1016 119.961 41.6641C119.961 42.1536 120.109 42.5156 120.406 42.75C120.703 42.9844 121.096 43.1016 121.586 43.1016C122.346 43.1016 122.969 42.8906 123.453 42.4688C123.938 42.0469 124.18 41.4141 124.18 40.5703V39.7812ZM129.43 35.4375V44H128.133V35.4375H129.43ZM128.797 32.2344C129.01 32.2344 129.193 32.3047 129.344 32.4453C129.5 32.5807 129.578 32.7943 129.578 33.0859C129.578 33.3724 129.5 33.5859 129.344 33.7266C129.193 33.8672 129.01 33.9375 128.797 33.9375C128.573 33.9375 128.385 33.8672 128.234 33.7266C128.089 33.5859 128.016 33.3724 128.016 33.0859C128.016 32.7943 128.089 32.5807 128.234 32.4453C128.385 32.3047 128.573 32.2344 128.797 32.2344ZM136.07 35.2812C136.242 35.2812 136.422 35.2917 136.609 35.3125C136.797 35.3281 136.964 35.3516 137.109 35.3828L136.945 36.5859C136.805 36.5495 136.648 36.5208 136.477 36.5C136.305 36.4792 136.143 36.4688 135.992 36.4688C135.648 36.4688 135.323 36.5391 135.016 36.6797C134.714 36.8151 134.448 37.013 134.219 37.2734C133.99 37.5286 133.81 37.8385 133.68 38.2031C133.549 38.5625 133.484 38.9635 133.484 39.4062V44H132.18V35.4375H133.258L133.398 37.0156H133.453C133.63 36.6979 133.844 36.4089 134.094 36.1484C134.344 35.8828 134.633 35.6719 134.961 35.5156C135.294 35.3594 135.664 35.2812 136.07 35.2812ZM142.023 35.2812C142.753 35.2812 143.378 35.4427 143.898 35.7656C144.419 36.0885 144.818 36.5417 145.094 37.125C145.37 37.7031 145.508 38.3802 145.508 39.1562V39.9609H139.594C139.609 40.9661 139.859 41.7318 140.344 42.2578C140.828 42.7839 141.51 43.0469 142.391 43.0469C142.932 43.0469 143.411 42.9974 143.828 42.8984C144.245 42.7995 144.677 42.6536 145.125 42.4609V43.6016C144.693 43.7943 144.263 43.9349 143.836 44.0234C143.414 44.112 142.914 44.1562 142.336 44.1562C141.513 44.1562 140.794 43.9896 140.18 43.6562C139.57 43.3177 139.096 42.8229 138.758 42.1719C138.419 41.5208 138.25 40.724 138.25 39.7812C138.25 38.8594 138.404 38.0625 138.711 37.3906C139.023 36.7135 139.461 36.1927 140.023 35.8281C140.591 35.4635 141.258 35.2812 142.023 35.2812ZM142.008 36.3438C141.315 36.3438 140.763 36.5703 140.352 37.0234C139.94 37.4766 139.695 38.1094 139.617 38.9219H144.148C144.143 38.4115 144.062 37.9635 143.906 37.5781C143.755 37.1875 143.523 36.8854 143.211 36.6719C142.898 36.4531 142.497 36.3438 142.008 36.3438ZM159.227 44L157.82 40.375H153.242L151.844 44H150.5L154.969 32.5312H156.164L160.602 44H159.227ZM157.422 39.1953L156.086 35.5938C156.055 35.5 156.003 35.3464 155.93 35.1328C155.862 34.9193 155.792 34.6979 155.719 34.4688C155.646 34.2396 155.586 34.0547 155.539 33.9141C155.487 34.1276 155.43 34.3411 155.367 34.5547C155.31 34.763 155.253 34.9583 155.195 35.1406C155.138 35.3177 155.089 35.4688 155.047 35.5938L153.688 39.1953H157.422ZM166.047 35.2812C167.062 35.2812 167.831 35.5312 168.352 36.0312C168.872 36.526 169.133 37.3229 169.133 38.4219V44H167.852V38.5078C167.852 37.7943 167.688 37.2604 167.359 36.9062C167.036 36.5521 166.539 36.375 165.867 36.375C164.919 36.375 164.253 36.6432 163.867 37.1797C163.482 37.7161 163.289 38.4948 163.289 39.5156V44H161.992V35.4375H163.039L163.234 36.6719H163.305C163.487 36.3698 163.719 36.1172 164 35.9141C164.281 35.7057 164.596 35.5495 164.945 35.4453C165.294 35.3359 165.661 35.2812 166.047 35.2812ZM177.344 41.6562C177.344 42.2031 177.206 42.6641 176.93 43.0391C176.659 43.4089 176.268 43.6875 175.758 43.875C175.253 44.0625 174.648 44.1562 173.945 44.1562C173.346 44.1562 172.828 44.1094 172.391 44.0156C171.953 43.9219 171.57 43.7891 171.242 43.6172V42.4219C171.591 42.5938 172.008 42.75 172.492 42.8906C172.977 43.0312 173.471 43.1016 173.977 43.1016C174.716 43.1016 175.253 42.9818 175.586 42.7422C175.919 42.5026 176.086 42.1771 176.086 41.7656C176.086 41.5312 176.018 41.3255 175.883 41.1484C175.753 40.9661 175.531 40.7917 175.219 40.625C174.906 40.4531 174.474 40.2656 173.922 40.0625C173.375 39.8542 172.901 39.6484 172.5 39.4453C172.104 39.237 171.797 38.9844 171.578 38.6875C171.365 38.3906 171.258 38.0052 171.258 37.5312C171.258 36.8073 171.549 36.2526 172.133 35.8672C172.721 35.4766 173.492 35.2812 174.445 35.2812C174.961 35.2812 175.443 35.3333 175.891 35.4375C176.344 35.5365 176.766 35.6719 177.156 35.8438L176.719 36.8828C176.365 36.7318 175.987 36.6042 175.586 36.5C175.185 36.3958 174.776 36.3438 174.359 36.3438C173.76 36.3438 173.299 36.4427 172.977 36.6406C172.659 36.8385 172.5 37.1094 172.5 37.4531C172.5 37.7188 172.573 37.9375 172.719 38.1094C172.87 38.2812 173.109 38.4427 173.438 38.5938C173.766 38.7448 174.198 38.9219 174.734 39.125C175.271 39.3229 175.734 39.5286 176.125 39.7422C176.516 39.9505 176.815 40.2057 177.023 40.5078C177.237 40.8047 177.344 41.1875 177.344 41.6562ZM186.398 43.9844L184.875 39C184.807 38.7865 184.742 38.5781 184.68 38.375C184.622 38.1667 184.568 37.9688 184.516 37.7812C184.469 37.5885 184.424 37.4115 184.383 37.25C184.346 37.0833 184.315 36.9401 184.289 36.8203H184.234C184.214 36.9401 184.185 37.0833 184.148 37.25C184.112 37.4115 184.068 37.5885 184.016 37.7812C183.969 37.974 183.917 38.1771 183.859 38.3906C183.802 38.599 183.737 38.8099 183.664 39.0234L182.07 43.9844H180.609L178.25 35.4219H179.594L180.828 40.1484C180.911 40.4609 180.99 40.7708 181.062 41.0781C181.141 41.3802 181.206 41.6667 181.258 41.9375C181.315 42.2031 181.357 42.4349 181.383 42.6328H181.445C181.477 42.5026 181.51 42.3464 181.547 42.1641C181.589 41.9818 181.633 41.7891 181.68 41.5859C181.732 41.3776 181.786 41.1719 181.844 40.9688C181.901 40.7604 181.958 40.5651 182.016 40.3828L183.594 35.4219H184.992L186.516 40.375C186.594 40.625 186.669 40.8854 186.742 41.1562C186.82 41.4271 186.891 41.6901 186.953 41.9453C187.016 42.1953 187.06 42.4193 187.086 42.6172H187.148C187.169 42.4401 187.208 42.2214 187.266 41.9609C187.323 41.7005 187.388 41.4141 187.461 41.1016C187.539 40.7891 187.62 40.4714 187.703 40.1484L188.953 35.4219H190.273L187.906 43.9844H186.398ZM195.133 35.2812C195.862 35.2812 196.487 35.4427 197.008 35.7656C197.529 36.0885 197.927 36.5417 198.203 37.125C198.479 37.7031 198.617 38.3802 198.617 39.1562V39.9609H192.703C192.719 40.9661 192.969 41.7318 193.453 42.2578C193.938 42.7839 194.62 43.0469 195.5 43.0469C196.042 43.0469 196.521 42.9974 196.938 42.8984C197.354 42.7995 197.786 42.6536 198.234 42.4609V43.6016C197.802 43.7943 197.372 43.9349 196.945 44.0234C196.523 44.112 196.023 44.1562 195.445 44.1562C194.622 44.1562 193.904 43.9896 193.289 43.6562C192.68 43.3177 192.206 42.8229 191.867 42.1719C191.529 41.5208 191.359 40.724 191.359 39.7812C191.359 38.8594 191.513 38.0625 191.82 37.3906C192.133 36.7135 192.57 36.1927 193.133 35.8281C193.701 35.4635 194.367 35.2812 195.133 35.2812ZM195.117 36.3438C194.424 36.3438 193.872 36.5703 193.461 37.0234C193.049 37.4766 192.805 38.1094 192.727 38.9219H197.258C197.253 38.4115 197.172 37.9635 197.016 37.5781C196.865 37.1875 196.633 36.8854 196.32 36.6719C196.008 36.4531 195.607 36.3438 195.117 36.3438ZM204.711 35.2812C204.883 35.2812 205.062 35.2917 205.25 35.3125C205.438 35.3281 205.604 35.3516 205.75 35.3828L205.586 36.5859C205.445 36.5495 205.289 36.5208 205.117 36.5C204.945 36.4792 204.784 36.4688 204.633 36.4688C204.289 36.4688 203.964 36.5391 203.656 36.6797C203.354 36.8151 203.089 37.013 202.859 37.2734C202.63 37.5286 202.451 37.8385 202.32 38.2031C202.19 38.5625 202.125 38.9635 202.125 39.4062V44H200.82V35.4375H201.898L202.039 37.0156H202.094C202.271 36.6979 202.484 36.4089 202.734 36.1484C202.984 35.8828 203.273 35.6719 203.602 35.5156C203.935 35.3594 204.305 35.2812 204.711 35.2812Z" fill="white"/>
</svg>
