<svg width="144" height="42" viewBox="0 0 144 42" fill="none" xmlns="http://www.w3.org/2000/svg">
<rect x="0.5" y="0.5" width="143" height="41" rx="20.5" stroke="#34312D"/>
<path d="M29.6484 15.5781C30.5859 15.5781 31.3594 15.6953 31.9688 15.9297C32.5833 16.1589 33.0417 16.5104 33.3438 16.9844C33.6458 17.4583 33.7969 18.0625 33.7969 18.7969C33.7969 19.401 33.6875 19.9062 33.4688 20.3125C33.25 20.7135 32.9635 21.0391 32.6094 21.2891C32.2552 21.5391 31.8776 21.7318 31.4766 21.8672L34.6094 27H33.0625L30.2656 22.2344H27.8906V27H26.5625V15.5781H29.6484ZM29.5703 16.7266H27.8906V21.1094H29.7031C30.6354 21.1094 31.3203 20.9193 31.7578 20.5391C32.2005 20.1589 32.4219 19.599 32.4219 18.8594C32.4219 18.0833 32.1875 17.5339 31.7188 17.2109C31.2552 16.888 30.5391 16.7266 29.5703 16.7266ZM39.5391 18.2812C40.2682 18.2812 40.8932 18.4427 41.4141 18.7656C41.9349 19.0885 42.3333 19.5417 42.6094 20.125C42.8854 20.7031 43.0234 21.3802 43.0234 22.1562V22.9609H37.1094C37.125 23.9661 37.375 24.7318 37.8594 25.2578C38.3438 25.7839 39.026 26.0469 39.9062 26.0469C40.4479 26.0469 40.9271 25.9974 41.3438 25.8984C41.7604 25.7995 42.1927 25.6536 42.6406 25.4609V26.6016C42.2083 26.7943 41.7786 26.9349 41.3516 27.0234C40.9297 27.112 40.4297 27.1562 39.8516 27.1562C39.0286 27.1562 38.3099 26.9896 37.6953 26.6562C37.0859 26.3177 36.612 25.8229 36.2734 25.1719C35.9349 24.5208 35.7656 23.724 35.7656 22.7812C35.7656 21.8594 35.9193 21.0625 36.2266 20.3906C36.5391 19.7135 36.9766 19.1927 37.5391 18.8281C38.1068 18.4635 38.7734 18.2812 39.5391 18.2812ZM39.5234 19.3438C38.8307 19.3438 38.2786 19.5703 37.8672 20.0234C37.4557 20.4766 37.2109 21.1094 37.1328 21.9219H41.6641C41.6589 21.4115 41.5781 20.9635 41.4219 20.5781C41.2708 20.1875 41.0391 19.8854 40.7266 19.6719C40.4141 19.4531 40.013 19.3438 39.5234 19.3438ZM48.4297 18.2969C49.4505 18.2969 50.2083 18.526 50.7031 18.9844C51.1979 19.4427 51.4453 20.1745 51.4453 21.1797V27H50.5L50.25 25.7344H50.1875C49.9479 26.0469 49.6979 26.3099 49.4375 26.5234C49.1771 26.7318 48.875 26.8906 48.5312 27C48.1927 27.1042 47.776 27.1562 47.2812 27.1562C46.7604 27.1562 46.2969 27.0651 45.8906 26.8828C45.4896 26.7005 45.1719 26.4245 44.9375 26.0547C44.7083 25.6849 44.5938 25.2161 44.5938 24.6484C44.5938 23.7943 44.9323 23.138 45.6094 22.6797C46.2865 22.2214 47.3177 21.9714 48.7031 21.9297L50.1797 21.8672V21.3438C50.1797 20.6042 50.0208 20.0859 49.7031 19.7891C49.3854 19.4922 48.9375 19.3438 48.3594 19.3438C47.9115 19.3438 47.4844 19.4089 47.0781 19.5391C46.6719 19.6693 46.2865 19.8229 45.9219 20L45.5234 19.0156C45.9089 18.8177 46.3516 18.6484 46.8516 18.5078C47.3516 18.3672 47.8776 18.2969 48.4297 18.2969ZM50.1641 22.7812L48.8594 22.8359C47.7917 22.8776 47.0391 23.0521 46.6016 23.3594C46.1641 23.6667 45.9453 24.1016 45.9453 24.6641C45.9453 25.1536 46.0938 25.5156 46.3906 25.75C46.6875 25.9844 47.0807 26.1016 47.5703 26.1016C48.3307 26.1016 48.9531 25.8906 49.4375 25.4688C49.9219 25.0469 50.1641 24.4141 50.1641 23.5703V22.7812ZM57.1641 27.1562C56.0807 27.1562 55.2214 26.7865 54.5859 26.0469C53.9557 25.3073 53.6406 24.2083 53.6406 22.75C53.6406 21.276 53.9635 20.1641 54.6094 19.4141C55.2552 18.6589 56.1146 18.2812 57.1875 18.2812C57.6406 18.2812 58.0365 18.3411 58.375 18.4609C58.7135 18.5807 59.0052 18.7422 59.25 18.9453C59.4948 19.1432 59.7005 19.3698 59.8672 19.625H59.9609C59.9401 19.4635 59.9193 19.2422 59.8984 18.9609C59.8776 18.6797 59.8672 18.4505 59.8672 18.2734V14.8438H61.1641V27H60.1172L59.9219 25.7812H59.8672C59.7057 26.0365 59.5 26.2682 59.25 26.4766C59.0052 26.6849 58.7109 26.8516 58.3672 26.9766C58.0286 27.0964 57.6276 27.1562 57.1641 27.1562ZM57.3672 26.0781C58.2839 26.0781 58.9323 25.8177 59.3125 25.2969C59.6927 24.776 59.8828 24.0026 59.8828 22.9766V22.7422C59.8828 21.6536 59.7005 20.8177 59.3359 20.2344C58.9766 19.651 58.3203 19.3594 57.3672 19.3594C56.5703 19.3594 55.974 19.6667 55.5781 20.2812C55.1823 20.8906 54.9844 21.724 54.9844 22.7812C54.9844 23.8333 55.1797 24.6458 55.5703 25.2188C55.9661 25.7917 56.5651 26.0781 57.3672 26.0781ZM77.3672 18.2812C78.3099 18.2812 79.0208 18.5286 79.5 19.0234C79.9792 19.513 80.2188 20.3021 80.2188 21.3906V27H78.9375V21.4531C78.9375 20.7604 78.7865 20.2422 78.4844 19.8984C78.1875 19.5495 77.7448 19.375 77.1562 19.375C76.3281 19.375 75.7266 19.6146 75.3516 20.0938C74.9766 20.5729 74.7891 21.2786 74.7891 22.2109V27H73.5V21.4531C73.5 20.9896 73.4323 20.6042 73.2969 20.2969C73.1667 19.9896 72.9688 19.7604 72.7031 19.6094C72.4427 19.4531 72.112 19.375 71.7109 19.375C71.1432 19.375 70.6875 19.4922 70.3438 19.7266C70 19.9609 69.75 20.3099 69.5938 20.7734C69.4427 21.2318 69.3672 21.7969 69.3672 22.4688V27H68.0703V18.4375H69.1172L69.3125 19.6484H69.3828C69.5547 19.3516 69.7708 19.1016 70.0312 18.8984C70.2917 18.6953 70.5833 18.5417 70.9062 18.4375C71.2292 18.3333 71.5729 18.2812 71.9375 18.2812C72.5885 18.2812 73.1328 18.4036 73.5703 18.6484C74.013 18.888 74.3333 19.2552 74.5312 19.75H74.6016C74.8828 19.2552 75.2682 18.888 75.7578 18.6484C76.2474 18.4036 76.7839 18.2812 77.3672 18.2812ZM90.2656 22.7031C90.2656 23.4062 90.1745 24.0339 89.9922 24.5859C89.8099 25.138 89.5469 25.6042 89.2031 25.9844C88.8594 26.3646 88.4427 26.6562 87.9531 26.8594C87.4688 27.0573 86.9193 27.1562 86.3047 27.1562C85.7318 27.1562 85.2057 27.0573 84.7266 26.8594C84.2526 26.6562 83.8411 26.3646 83.4922 25.9844C83.1484 25.6042 82.8802 25.138 82.6875 24.5859C82.5 24.0339 82.4062 23.4062 82.4062 22.7031C82.4062 21.7656 82.5651 20.9688 82.8828 20.3125C83.2005 19.651 83.6536 19.1484 84.2422 18.8047C84.8359 18.4557 85.5417 18.2812 86.3594 18.2812C87.1406 18.2812 87.8229 18.4557 88.4062 18.8047C88.9948 19.1536 89.4505 19.6589 89.7734 20.3203C90.1016 20.9766 90.2656 21.7708 90.2656 22.7031ZM83.75 22.7031C83.75 23.3906 83.8411 23.987 84.0234 24.4922C84.2057 24.9974 84.487 25.388 84.8672 25.6641C85.2474 25.9401 85.737 26.0781 86.3359 26.0781C86.9297 26.0781 87.4167 25.9401 87.7969 25.6641C88.1823 25.388 88.4661 24.9974 88.6484 24.4922C88.8307 23.987 88.9219 23.3906 88.9219 22.7031C88.9219 22.0208 88.8307 21.4323 88.6484 20.9375C88.4661 20.4375 88.1849 20.0521 87.8047 19.7812C87.4245 19.5104 86.9323 19.375 86.3281 19.375C85.4375 19.375 84.7839 19.6693 84.3672 20.2578C83.9557 20.8464 83.75 21.6615 83.75 22.7031ZM96.3984 18.2812C96.5703 18.2812 96.75 18.2917 96.9375 18.3125C97.125 18.3281 97.2917 18.3516 97.4375 18.3828L97.2734 19.5859C97.1328 19.5495 96.9766 19.5208 96.8047 19.5C96.6328 19.4792 96.4714 19.4688 96.3203 19.4688C95.9766 19.4688 95.651 19.5391 95.3438 19.6797C95.0417 19.8151 94.776 20.013 94.5469 20.2734C94.3177 20.5286 94.138 20.8385 94.0078 21.2031C93.8776 21.5625 93.8125 21.9635 93.8125 22.4062V27H92.5078V18.4375H93.5859L93.7266 20.0156H93.7812C93.9583 19.6979 94.1719 19.4089 94.4219 19.1484C94.6719 18.8828 94.9609 18.6719 95.2891 18.5156C95.6224 18.3594 95.9922 18.2812 96.3984 18.2812ZM102.352 18.2812C103.081 18.2812 103.706 18.4427 104.227 18.7656C104.747 19.0885 105.146 19.5417 105.422 20.125C105.698 20.7031 105.836 21.3802 105.836 22.1562V22.9609H99.9219C99.9375 23.9661 100.188 24.7318 100.672 25.2578C101.156 25.7839 101.839 26.0469 102.719 26.0469C103.26 26.0469 103.74 25.9974 104.156 25.8984C104.573 25.7995 105.005 25.6536 105.453 25.4609V26.6016C105.021 26.7943 104.591 26.9349 104.164 27.0234C103.742 27.112 103.242 27.1562 102.664 27.1562C101.841 27.1562 101.122 26.9896 100.508 26.6562C99.8984 26.3177 99.4245 25.8229 99.0859 25.1719C98.7474 24.5208 98.5781 23.724 98.5781 22.7812C98.5781 21.8594 98.7318 21.0625 99.0391 20.3906C99.3516 19.7135 99.7891 19.1927 100.352 18.8281C100.919 18.4635 101.586 18.2812 102.352 18.2812ZM102.336 19.3438C101.643 19.3438 101.091 19.5703 100.68 20.0234C100.268 20.4766 100.023 21.1094 99.9453 21.9219H104.477C104.471 21.4115 104.391 20.9635 104.234 20.5781C104.083 20.1875 103.852 19.8854 103.539 19.6719C103.227 19.4531 102.826 19.3438 102.336 19.3438ZM107.844 26.1875C107.844 25.8229 107.932 25.5651 108.109 25.4141C108.286 25.2578 108.503 25.1797 108.758 25.1797C109.023 25.1797 109.247 25.2578 109.43 25.4141C109.612 25.5651 109.703 25.8229 109.703 26.1875C109.703 26.5469 109.612 26.8099 109.43 26.9766C109.247 27.138 109.023 27.2188 108.758 27.2188C108.503 27.2188 108.286 27.138 108.109 26.9766C107.932 26.8099 107.844 26.5469 107.844 26.1875ZM112.047 26.1875C112.047 25.8229 112.135 25.5651 112.312 25.4141C112.49 25.2578 112.706 25.1797 112.961 25.1797C113.227 25.1797 113.451 25.2578 113.633 25.4141C113.815 25.5651 113.906 25.8229 113.906 26.1875C113.906 26.5469 113.815 26.8099 113.633 26.9766C113.451 27.138 113.227 27.2188 112.961 27.2188C112.706 27.2188 112.49 27.138 112.312 26.9766C112.135 26.8099 112.047 26.5469 112.047 26.1875ZM116.25 26.1875C116.25 25.8229 116.339 25.5651 116.516 25.4141C116.693 25.2578 116.909 25.1797 117.164 25.1797C117.43 25.1797 117.654 25.2578 117.836 25.4141C118.018 25.5651 118.109 25.8229 118.109 26.1875C118.109 26.5469 118.018 26.8099 117.836 26.9766C117.654 27.138 117.43 27.2188 117.164 27.2188C116.909 27.2188 116.693 27.138 116.516 26.9766C116.339 26.8099 116.25 26.5469 116.25 26.1875Z" fill="#34312D"/>
</svg>
