<svg width="129" height="44" viewBox="0 0 129 44" fill="none" xmlns="http://www.w3.org/2000/svg">
<path d="M65.7865 27.3518C65.7865 28.5554 65.4856 29.5831 64.8838 30.4349C64.2913 31.2774 63.458 31.9209 62.384 32.3653C61.31 32.8097 60.0462 33.0319 58.5926 33.0319C57.8242 33.0319 57.0974 32.9949 56.4122 32.9208C55.7271 32.8467 55.0975 32.7403 54.5235 32.6014C53.9495 32.4625 53.4449 32.2912 53.0097 32.0875V29.8238C53.7041 30.1108 54.5513 30.3793 55.5512 30.6293C56.5511 30.87 57.5973 30.9904 58.6898 30.9904C59.7083 30.9904 60.5693 30.8562 61.273 30.5877C61.9766 30.3099 62.509 29.9164 62.8701 29.4072C63.2404 28.8887 63.4256 28.2684 63.4256 27.5462C63.4256 26.8518 63.2728 26.2732 62.9673 25.8102C62.6618 25.3381 62.1525 24.9122 61.4396 24.5326C60.736 24.1437 59.7731 23.7317 58.551 23.2966C57.6899 22.991 56.9307 22.6577 56.2734 22.2966C55.616 21.9263 55.0651 21.5097 54.6207 21.0467C54.1763 20.5838 53.8384 20.0468 53.6069 19.4357C53.3847 18.8247 53.2736 18.1257 53.2736 17.3387C53.2736 16.2554 53.5467 15.3296 54.093 14.5611C54.6485 13.7834 55.4123 13.1909 56.3845 12.7835C57.3659 12.3669 58.4908 12.1585 59.7592 12.1585C60.8425 12.1585 61.8424 12.2604 62.759 12.4641C63.6848 12.6678 64.532 12.9409 65.3004 13.2835L64.5644 15.3111C63.833 15.0055 63.0552 14.7509 62.2312 14.5472C61.4165 14.3436 60.574 14.2417 59.7037 14.2417C58.8334 14.2417 58.0973 14.3713 57.4955 14.6306C56.9029 14.8806 56.4493 15.237 56.1345 15.6999C55.8197 16.1629 55.6623 16.7137 55.6623 17.3526C55.6623 18.0655 55.8104 18.658 56.1067 19.1302C56.4122 19.6024 56.8937 20.0237 57.551 20.394C58.2177 20.7551 59.0972 21.1347 60.1897 21.5328C61.3841 21.968 62.3979 22.4309 63.2312 22.9216C64.0644 23.403 64.6986 23.9956 65.1338 24.6992C65.5689 25.3936 65.7865 26.2778 65.7865 27.3518ZM71.8971 11.1447V17.6026C71.8971 17.9729 71.8879 18.3479 71.8694 18.7275C71.8509 19.0978 71.8184 19.4404 71.7722 19.7552H71.9249C72.2397 19.2182 72.6378 18.7691 73.1193 18.4081C73.61 18.0377 74.1655 17.76 74.7858 17.5748C75.4061 17.3804 76.0635 17.2831 76.7579 17.2831C77.98 17.2831 78.9984 17.4776 79.8132 17.8664C80.6372 18.2553 81.2529 18.8571 81.6603 19.6718C82.0769 20.4866 82.2852 21.5421 82.2852 22.8383V32.7542H80.0076V22.991C80.0076 21.7226 79.716 20.7736 79.1327 20.144C78.5587 19.5144 77.6745 19.1997 76.4801 19.1997C75.3506 19.1997 74.4479 19.4172 73.772 19.8524C73.1054 20.2783 72.6239 20.9079 72.3277 21.7411C72.0407 22.5744 71.8971 23.5928 71.8971 24.7964V32.7542H69.5918V11.1447H71.8971ZM92.7288 17.2831C94.5435 17.2831 95.8906 17.6905 96.7702 18.5053C97.6498 19.32 98.0895 20.6208 98.0895 22.4077V32.7542H96.4091L95.9647 30.5043H95.8536C95.4277 31.0598 94.9833 31.5274 94.5204 31.907C94.0574 32.2773 93.5204 32.5597 92.9094 32.7542C92.3076 32.9393 91.5669 33.0319 90.6873 33.0319C89.7615 33.0319 88.9375 32.8699 88.2153 32.5458C87.5024 32.2218 86.9376 31.7311 86.521 31.0737C86.1136 30.4164 85.9099 29.5831 85.9099 28.5739C85.9099 27.0555 86.5117 25.8889 87.7153 25.0742C88.919 24.2594 90.7521 23.815 93.2149 23.741L95.8397 23.6299V22.6994C95.8397 21.3847 95.5573 20.4634 94.9926 19.9357C94.4278 19.408 93.6316 19.1441 92.6039 19.1441C91.8076 19.1441 91.0484 19.2598 90.3263 19.4913C89.6041 19.7228 88.919 19.9959 88.2709 20.3107L87.5626 18.5608C88.2477 18.209 89.0347 17.9081 89.9235 17.6581C90.8123 17.4081 91.7474 17.2831 92.7288 17.2831ZM95.8119 25.2547L93.4927 25.352C91.5947 25.426 90.2568 25.7362 89.4791 26.2824C88.7014 26.8287 88.3125 27.6018 88.3125 28.6017C88.3125 29.472 88.5764 30.1155 89.1041 30.5321C89.6319 30.9487 90.3309 31.1571 91.2012 31.1571C92.5529 31.1571 93.6593 30.7821 94.5204 30.0321C95.3814 29.2822 95.8119 28.1573 95.8119 26.6574V25.2547ZM109.755 17.2554C110.061 17.2554 110.38 17.2739 110.714 17.3109C111.047 17.3387 111.343 17.3804 111.602 17.4359L111.311 19.5746C111.061 19.5098 110.783 19.4589 110.477 19.4219C110.172 19.3848 109.885 19.3663 109.616 19.3663C109.005 19.3663 108.427 19.4913 107.88 19.7413C107.343 19.982 106.871 20.3338 106.464 20.7968C106.057 21.2504 105.737 21.8013 105.506 22.4494C105.274 23.0882 105.158 23.8011 105.158 24.5881V32.7542H102.839V17.5331H104.756L105.006 20.3385H105.103C105.418 19.7737 105.797 19.2598 106.242 18.7969C106.686 18.3247 107.2 17.9498 107.783 17.672C108.376 17.3942 109.033 17.2554 109.755 17.2554ZM120.338 17.2554C121.634 17.2554 122.745 17.5424 123.671 18.1164C124.597 18.6904 125.305 19.4959 125.796 20.5329C126.286 21.5606 126.532 22.7642 126.532 24.1437V25.5742H116.019C116.046 27.3611 116.491 28.7221 117.352 29.6572C118.213 30.5923 119.426 31.0598 120.991 31.0598C121.953 31.0598 122.805 30.9719 123.546 30.796C124.287 30.6201 125.055 30.3608 125.851 30.0183V32.0459C125.083 32.3884 124.319 32.6384 123.56 32.7958C122.81 32.9532 121.921 33.0319 120.893 33.0319C119.43 33.0319 118.153 32.7356 117.06 32.1431C115.977 31.5413 115.134 30.6617 114.533 29.5044C113.931 28.3471 113.63 26.9305 113.63 25.2547C113.63 23.616 113.903 22.1994 114.449 21.0051C115.005 19.8015 115.783 18.8756 116.783 18.2275C117.792 17.5794 118.977 17.2554 120.338 17.2554ZM120.31 19.1441C119.079 19.1441 118.097 19.5469 117.366 20.3523C116.634 21.1578 116.199 22.2827 116.06 23.7271H124.115C124.106 22.8197 123.963 22.0235 123.685 21.3384C123.416 20.644 123.004 20.107 122.449 19.7274C121.893 19.3385 121.18 19.1441 120.31 19.1441Z" fill="black"/>
<path d="M31.9976 39.7714C30.5162 39.7714 29.2571 39.2529 28.2201 38.216C27.1831 37.179 26.6647 35.9199 26.6647 34.4385C26.6647 34.2311 26.6795 34.016 26.7091 33.7932C26.7387 33.5704 26.7832 33.3707 26.8424 33.1941L14.3101 25.9058C13.8064 26.3502 13.2435 26.6986 12.6213 26.9511C11.9992 27.2035 11.3474 27.3291 10.6659 27.3279C9.18456 27.3279 7.9254 26.8095 6.88844 25.7725C5.85149 24.7355 5.33301 23.4764 5.33301 21.995C5.33301 20.5136 5.85149 19.2545 6.88844 18.2175C7.9254 17.1806 9.18456 16.6621 10.6659 16.6621C11.3474 16.6621 11.9992 16.7883 12.6213 17.0407C13.2435 17.2932 13.8064 17.641 14.3101 18.0842L26.8424 10.7959C26.7832 10.6181 26.7387 10.4184 26.7091 10.1968C26.6795 9.97521 26.6647 9.76012 26.6647 9.55154C26.6647 8.07018 27.1831 6.81102 28.2201 5.77406C29.2571 4.73711 30.5162 4.21863 31.9976 4.21863C33.479 4.21863 34.7381 4.73711 35.7751 5.77406C36.812 6.81102 37.3305 8.07018 37.3305 9.55154C37.3305 11.0329 36.812 12.2921 35.7751 13.329C34.7381 14.366 33.479 14.8845 31.9976 14.8845C31.3162 14.8845 30.6644 14.7588 30.0422 14.5076C29.42 14.2564 28.8571 13.9079 28.3534 13.4623L15.8211 20.7507C15.8803 20.9284 15.9248 21.1287 15.9544 21.3515C15.984 21.5743 15.9988 21.7888 15.9988 21.995C15.9988 22.2024 15.984 22.4175 15.9544 22.6403C15.9248 22.8631 15.8803 23.0628 15.8211 23.2394L28.3534 30.5277C28.8571 30.0833 29.42 29.7354 30.0422 29.4842C30.6644 29.233 31.3162 29.1068 31.9976 29.1056C33.479 29.1056 34.7381 29.624 35.7751 30.661C36.812 31.698 37.3305 32.9571 37.3305 34.4385C37.3305 35.9199 36.812 37.179 35.7751 38.216C34.7381 39.2529 33.479 39.7714 31.9976 39.7714Z" fill="#6C9D6F"/>
</svg>
