<svg width="129" height="43" viewBox="0 0 129 43" fill="none" xmlns="http://www.w3.org/2000/svg">
<path d="M65.7865 26.6885C65.7865 27.8921 65.4856 28.9198 64.8838 29.7716C64.2913 30.6141 63.458 31.2576 62.384 31.702C61.31 32.1464 60.0462 32.3686 58.5926 32.3686C57.8242 32.3686 57.0974 32.3315 56.4122 32.2575C55.7271 32.1834 55.0975 32.0769 54.5235 31.9381C53.9495 31.7992 53.4449 31.6279 53.0097 31.4242V29.1605C53.7041 29.4475 54.5513 29.716 55.5512 29.966C56.5511 30.2067 57.5973 30.3271 58.6898 30.3271C59.7083 30.3271 60.5693 30.1928 61.273 29.9243C61.9766 29.6466 62.509 29.2531 62.8701 28.7439C63.2404 28.2254 63.4256 27.6051 63.4256 26.8829C63.4256 26.1885 63.2728 25.6098 62.9673 25.1469C62.6618 24.6747 62.1525 24.2488 61.4396 23.8692C60.736 23.4804 59.7731 23.0684 58.551 22.6332C57.6899 22.3277 56.9307 21.9944 56.2734 21.6333C55.616 21.263 55.0651 20.8463 54.6207 20.3834C54.1763 19.9205 53.8384 19.3835 53.6069 18.7724C53.3847 18.1614 53.2736 17.4623 53.2736 16.6754C53.2736 15.5921 53.5467 14.6663 54.093 13.8978C54.6485 13.1201 55.4123 12.5275 56.3845 12.1202C57.3659 11.7035 58.4908 11.4952 59.7592 11.4952C60.8425 11.4952 61.8424 11.5971 62.759 11.8007C63.6848 12.0044 64.532 12.2776 65.3004 12.6201L64.5644 14.6477C63.833 14.3422 63.0552 14.0876 62.2312 13.8839C61.4165 13.6802 60.574 13.5784 59.7037 13.5784C58.8334 13.5784 58.0973 13.708 57.4955 13.9672C56.9029 14.2172 56.4493 14.5737 56.1345 15.0366C55.8197 15.4995 55.6623 16.0504 55.6623 16.6892C55.6623 17.4022 55.8104 17.9947 56.1067 18.4669C56.4122 18.9391 56.8937 19.3603 57.551 19.7307C58.2177 20.0918 59.0972 20.4714 60.1897 20.8695C61.3841 21.3046 62.3979 21.7676 63.2312 22.2583C64.0644 22.7397 64.6986 23.3322 65.1338 24.0359C65.5689 24.7303 65.7865 25.6145 65.7865 26.6885ZM71.8971 10.4814V16.9392C71.8971 17.3096 71.8879 17.6845 71.8694 18.0641C71.8509 18.4345 71.8184 18.777 71.7722 19.0918H71.9249C72.2397 18.5548 72.6378 18.1058 73.1193 17.7447C73.61 17.3744 74.1655 17.0966 74.7858 16.9115C75.4061 16.717 76.0635 16.6198 76.7579 16.6198C77.98 16.6198 78.9984 16.8142 79.8132 17.2031C80.6372 17.592 81.2529 18.1938 81.6603 19.0085C82.0769 19.8233 82.2852 20.8787 82.2852 22.1749V32.0908H80.0076V22.3277C80.0076 21.0593 79.716 20.1103 79.1327 19.4807C78.5587 18.8511 77.6745 18.5363 76.4801 18.5363C75.3506 18.5363 74.4479 18.7539 73.772 19.1891C73.1054 19.6149 72.6239 20.2445 72.3277 21.0778C72.0407 21.9111 71.8971 22.9295 71.8971 24.1331V32.0908H69.5918V10.4814H71.8971ZM92.7288 16.6198C94.5435 16.6198 95.8906 17.0272 96.7702 17.8419C97.6498 18.6567 98.0895 19.9575 98.0895 21.7444V32.0908H96.4091L95.9647 29.841H95.8536C95.4277 30.3965 94.9833 30.8641 94.5204 31.2437C94.0574 31.614 93.5204 31.8964 92.9094 32.0908C92.3076 32.276 91.5669 32.3686 90.6873 32.3686C89.7615 32.3686 88.9375 32.2066 88.2153 31.8825C87.5024 31.5585 86.9376 31.0678 86.521 30.4104C86.1136 29.753 85.9099 28.9198 85.9099 27.9106C85.9099 26.3922 86.5117 25.2256 87.7153 24.4109C88.919 23.5961 90.7521 23.1517 93.2149 23.0776L95.8397 22.9665V22.0361C95.8397 20.7213 95.5573 19.8001 94.9926 19.2724C94.4278 18.7446 93.6316 18.4808 92.6039 18.4808C91.8076 18.4808 91.0484 18.5965 90.3263 18.828C89.6041 19.0594 88.919 19.3326 88.2709 19.6474L87.5626 17.8975C88.2477 17.5457 89.0347 17.2448 89.9235 16.9948C90.8123 16.7448 91.7474 16.6198 92.7288 16.6198ZM95.8119 24.5914L93.4927 24.6886C91.5947 24.7627 90.2568 25.0729 89.4791 25.6191C88.7014 26.1654 88.3125 26.9384 88.3125 27.9384C88.3125 28.8087 88.5764 29.4521 89.1041 29.8688C89.6319 30.2854 90.3309 30.4937 91.2012 30.4937C92.5529 30.4937 93.6593 30.1188 94.5204 29.3688C95.3814 28.6189 95.8119 27.494 95.8119 25.9941V24.5914ZM109.755 16.592C110.061 16.592 110.38 16.6106 110.714 16.6476C111.047 16.6754 111.343 16.717 111.602 16.7726L111.311 18.9113C111.061 18.8465 110.783 18.7956 110.477 18.7585C110.172 18.7215 109.885 18.703 109.616 18.703C109.005 18.703 108.427 18.828 107.88 19.078C107.343 19.3187 106.871 19.6705 106.464 20.1334C106.057 20.5871 105.737 21.138 105.506 21.7861C105.274 22.4249 105.158 23.1378 105.158 23.9248V32.0908H102.839V16.8698H104.756L105.006 19.6751H105.103C105.418 19.1104 105.797 18.5965 106.242 18.1336C106.686 17.6614 107.2 17.2864 107.783 17.0087C108.376 16.7309 109.033 16.592 109.755 16.592ZM120.338 16.592C121.634 16.592 122.745 16.879 123.671 17.4531C124.597 18.0271 125.305 18.8326 125.796 19.8696C126.286 20.8973 126.532 22.1009 126.532 23.4804V24.9108H116.019C116.046 26.6977 116.491 28.0587 117.352 28.9938C118.213 29.929 119.426 30.3965 120.991 30.3965C121.953 30.3965 122.805 30.3086 123.546 30.1326C124.287 29.9567 125.055 29.6975 125.851 29.3549V31.3825C125.083 31.7251 124.319 31.9751 123.56 32.1325C122.81 32.2899 121.921 32.3686 120.893 32.3686C119.43 32.3686 118.153 32.0723 117.06 31.4798C115.977 30.878 115.134 29.9984 114.533 28.8411C113.931 27.6838 113.63 26.2672 113.63 24.5914C113.63 22.9526 113.903 21.5361 114.449 20.3417C115.005 19.1381 115.783 18.2123 116.783 17.5642C117.792 16.9161 118.977 16.592 120.338 16.592ZM120.31 18.4808C119.079 18.4808 118.097 18.8835 117.366 19.689C116.634 20.4945 116.199 21.6194 116.06 23.0637H124.115C124.106 22.1564 123.963 21.3602 123.685 20.675C123.416 19.9807 123.004 19.4437 122.449 19.0641C121.893 18.6752 121.18 18.4808 120.31 18.4808Z" fill="black"/>
<path d="M31.9976 39.1081C30.5162 39.1081 29.2571 38.5896 28.2201 37.5526C27.1831 36.5157 26.6647 35.2565 26.6647 33.7752C26.6647 33.5678 26.6795 33.3527 26.7091 33.1299C26.7387 32.9071 26.7832 32.7074 26.8424 32.5308L14.3101 25.2425C13.8064 25.6869 13.2435 26.0353 12.6213 26.2877C11.9992 26.5402 11.3474 26.6658 10.6659 26.6646C9.18456 26.6646 7.9254 26.1461 6.88844 25.1092C5.85149 24.0722 5.33301 22.813 5.33301 21.3317C5.33301 19.8503 5.85149 18.5912 6.88844 17.5542C7.9254 16.5172 9.18456 15.9988 10.6659 15.9988C11.3474 15.9988 11.9992 16.125 12.6213 16.3774C13.2435 16.6298 13.8064 16.9777 14.3101 17.4209L26.8424 10.1326C26.7832 9.9548 26.7387 9.75511 26.7091 9.5335C26.6795 9.31188 26.6647 9.09679 26.6647 8.88821C26.6647 7.40685 27.1831 6.14769 28.2201 5.11073C29.2571 4.07378 30.5162 3.5553 31.9976 3.5553C33.479 3.5553 34.7381 4.07378 35.7751 5.11073C36.812 6.14769 37.3305 7.40685 37.3305 8.88821C37.3305 10.3696 36.812 11.6287 35.7751 12.6657C34.7381 13.7027 33.479 14.2211 31.9976 14.2211C31.3162 14.2211 30.6644 14.0955 30.0422 13.8443C29.42 13.593 28.8571 13.2446 28.3534 12.799L15.8211 20.0873C15.8803 20.2651 15.9248 20.4654 15.9544 20.6882C15.984 20.911 15.9988 21.1255 15.9988 21.3317C15.9988 21.5391 15.984 21.7542 15.9544 21.977C15.9248 22.1998 15.8803 22.3995 15.8211 22.576L28.3534 29.8643C28.8571 29.4199 29.42 29.0721 30.0422 28.8209C30.6644 28.5696 31.3162 28.4434 31.9976 28.4422C33.479 28.4422 34.7381 28.9607 35.7751 29.9977C36.812 31.0346 37.3305 32.2938 37.3305 33.7752C37.3305 35.2565 36.812 36.5157 35.7751 37.5526C34.7381 38.5896 33.479 39.1081 31.9976 39.1081Z" fill="#34312D"/>
</svg>
