<svg width="878" height="97" viewBox="0 0 878 97" fill="none" xmlns="http://www.w3.org/2000/svg">
<rect width="878" height="97" rx="5" fill="#F7EAC9"/>
<path d="M66.5006 30.3957C66.5006 27.968 68.4686 26 70.8963 26H77.1048C79.5325 26 81.5006 27.9681 81.5006 30.3958C81.5006 33.7796 85.1638 35.8945 88.0943 34.2026C90.1968 32.9887 92.8853 33.7091 94.0992 35.8116L97.2034 41.1881C98.4172 43.2906 97.6969 45.9791 95.5944 47.1929C92.6638 48.8849 92.6638 53.1148 95.5944 54.8067C97.6969 56.0206 98.4172 58.709 97.2034 60.8115L94.0992 66.1881C92.8853 68.2906 90.1969 69.011 88.0944 67.7971C85.1638 66.1051 81.5006 68.2201 81.5006 71.6041C81.5006 74.0319 79.5325 76 77.1047 76H70.8965C68.4687 76 66.5006 74.0319 66.5006 71.6041C66.5006 68.2202 62.8374 66.1052 59.9069 67.7971C57.8044 69.011 55.116 68.2906 53.9021 66.1881L50.7979 60.8115C49.584 58.709 50.3044 56.0206 52.4069 54.8067C55.3375 53.1148 55.3375 48.8849 52.4069 47.1929C50.3044 45.9791 49.584 43.2906 50.7979 41.1881L53.9021 35.8115C55.116 33.709 57.8044 32.9887 59.9069 34.2026C62.8374 35.8945 66.5006 33.7796 66.5006 30.3957Z" stroke="#34312D" stroke-width="5"/>
<path d="M84.0006 51C84.0006 56.5228 79.5234 61 74.0006 61C68.4777 61 64.0006 56.5228 64.0006 51C64.0006 45.4772 68.4777 41 74.0006 41C79.5234 41 84.0006 45.4772 84.0006 51Z" stroke="#34312D" stroke-width="5"/>
<path d="M195.464 33.5H162.535C160.308 33.5 159.193 36.1929 160.768 37.7678L173.268 50.2678C173.736 50.7366 174 51.3725 174 52.0355V62.25C174 63.0369 174.37 63.7779 175 64.25L182 69.5C182.824 70.118 184 69.5301 184 68.5V52.0355C184 51.3725 184.263 50.7366 184.732 50.2678L197.232 37.7678C198.807 36.1929 197.691 33.5 195.464 33.5Z" stroke="#34312D" stroke-width="5" stroke-linecap="round"/>
<path d="M285.5 58V56.25C285.5 53.3505 283.149 51 280.25 51L262.75 51M268 58L262.237 52.2374C261.554 51.554 261.554 50.446 262.237 49.7626L268 44" stroke="#111111" stroke-width="3.5" stroke-linecap="round"/>
<path d="M343.5 47.314L367.248 29.7258C369.455 28.0914 372.545 28.0914 374.752 29.7258L398.5 47.314M352.667 41.4949V67.6809C352.667 70.8947 355.403 73.5 358.778 73.5H383.222C386.597 73.5 389.333 70.8947 389.333 67.6809V29.8567" stroke="#111111" stroke-width="5" stroke-linecap="round"/>
<path d="M451.545 55.7699L449.317 56.9049L449.317 56.9049L451.545 55.7699ZM453.73 57.955L454.865 55.7275L454.865 55.7275L453.73 57.955ZM492.955 55.7699L495.183 56.9049L495.183 56.9049L492.955 55.7699ZM490.77 57.955L489.635 55.7275L489.635 55.7275L490.77 57.955ZM490.77 31.545L489.635 33.7725L489.635 33.7725L490.77 31.545ZM492.955 33.73L495.183 32.5951L495.183 32.5951L492.955 33.73ZM453.73 31.545L454.865 33.7725L454.865 33.7725L453.73 31.545ZM451.545 33.73L453.772 34.865L453.772 34.865L451.545 33.73ZM454.151 58.1358L454.99 55.7807L454.99 55.7807L454.151 58.1358ZM459.75 66L458.123 64.1019L458.05 64.1643L457.982 64.2322L459.75 66ZM467.938 58.9815L469.565 60.8796L469.565 60.8796L467.938 58.9815ZM455.565 58.7286L457.196 56.8339L457.196 56.8339L455.565 58.7286ZM455.916 59.2256L453.584 60.1263L453.584 60.1263L455.916 59.2256ZM468.699 58.5281L469.226 60.9719L469.226 60.9719L468.699 58.5281ZM468.367 58.6507L467.178 56.452L467.178 56.452L468.367 58.6507ZM461 38.5C459.619 38.5 458.5 39.6193 458.5 41C458.5 42.3807 459.619 43.5 461 43.5V38.5ZM483.5 43.5C484.881 43.5 486 42.3807 486 41C486 39.6193 484.881 38.5 483.5 38.5V43.5ZM461 46C459.619 46 458.5 47.1193 458.5 48.5C458.5 49.8807 459.619 51 461 51V46ZM483.5 51C484.881 51 486 49.8807 486 48.5C486 47.1193 484.881 46 483.5 46V51ZM471 63.5C469.619 63.5 468.5 64.6193 468.5 66C468.5 67.3807 469.619 68.5 471 68.5V63.5ZM503.5 41C503.5 39.6193 502.381 38.5 501 38.5C499.619 38.5 498.5 39.6193 498.5 41H503.5ZM459 33.5H485.5V28.5H459V33.5ZM491 39V50.5H496V39H491ZM453.5 50.5V39H448.5V50.5H453.5ZM448.5 50.5C448.5 51.8589 448.498 53.0284 448.576 53.9876C448.657 54.9759 448.835 55.959 449.317 56.9049L453.772 54.635C453.71 54.5114 453.615 54.2596 453.56 53.5804C453.502 52.8721 453.5 51.9414 453.5 50.5H448.5ZM454.865 55.7275C454.395 55.4878 454.012 55.1054 453.772 54.635L449.317 56.9049C450.037 58.3161 451.184 59.4635 452.595 60.1825L454.865 55.7275ZM491 50.5C491 51.9414 490.998 52.8721 490.94 53.5804C490.885 54.2596 490.79 54.5114 490.728 54.635L495.183 56.9049C495.665 55.959 495.843 54.9759 495.924 53.9876C496.002 53.0284 496 51.8589 496 50.5H491ZM485.5 61C486.859 61 488.028 61.0019 488.988 60.9236C489.976 60.8428 490.959 60.6645 491.905 60.1825L489.635 55.7275C489.511 55.7905 489.26 55.8847 488.58 55.9402C487.872 55.9981 486.941 56 485.5 56V61ZM490.728 54.635C490.488 55.1054 490.105 55.4878 489.635 55.7275L491.905 60.1825C493.316 59.4635 494.463 58.3161 495.183 56.9049L490.728 54.635ZM485.5 33.5C486.941 33.5 487.872 33.5019 488.58 33.5598C489.26 33.6153 489.511 33.7095 489.635 33.7725L491.905 29.3175C490.959 28.8355 489.976 28.6572 488.988 28.5764C488.028 28.4981 486.859 28.5 485.5 28.5V33.5ZM496 39C496 37.6411 496.002 36.4716 495.924 35.5124C495.843 34.5241 495.665 33.541 495.183 32.5951L490.728 34.865C490.79 34.9886 490.885 35.2404 490.94 35.9196C490.998 36.6279 491 37.5586 491 39H496ZM489.635 33.7725C490.105 34.0122 490.488 34.3946 490.728 34.865L495.183 32.5951C494.463 31.1839 493.316 30.0365 491.905 29.3175L489.635 33.7725ZM459 28.5C457.641 28.5 456.472 28.4981 455.512 28.5764C454.524 28.6572 453.541 28.8355 452.595 29.3175L454.865 33.7725C454.989 33.7095 455.24 33.6153 455.92 33.5598C456.628 33.5019 457.559 33.5 459 33.5V28.5ZM453.5 39C453.5 37.5586 453.502 36.6279 453.56 35.9196C453.615 35.2404 453.71 34.9886 453.772 34.865L449.317 32.5951C448.835 33.541 448.657 34.5241 448.576 35.5124C448.498 36.4716 448.5 37.6411 448.5 39H453.5ZM452.595 29.3175C451.184 30.0365 450.037 31.1839 449.317 32.5951L453.772 34.865C454.012 34.3946 454.395 34.0122 454.865 33.7725L452.595 29.3175ZM485.5 56H469.24V61H485.5V56ZM454.99 55.7807C454.94 55.7629 454.9 55.7452 454.865 55.7275L452.595 60.1825C452.829 60.302 453.068 60.404 453.313 60.4909L454.99 55.7807ZM453.5 60.3336V66H458.5V60.3336H453.5ZM461.377 67.8981L469.565 60.8796L466.311 57.0833L458.123 64.1019L461.377 67.8981ZM453.5 66C453.5 67.2692 454.17 69.2914 456.331 69.8316C458.315 70.3276 460.138 69.1476 461.518 67.7678L457.982 64.2322C457.489 64.7255 457.181 64.9058 457.068 64.9578C456.964 65.0053 457.164 64.8858 457.544 64.9809C457.949 65.0821 458.225 65.344 458.364 65.5687C458.484 65.7638 458.5 65.919 458.5 66H453.5ZM453.313 60.4909C453.522 60.5654 453.692 60.6261 453.838 60.6795C453.986 60.7333 454.089 60.7725 454.163 60.8026C454.242 60.8344 454.255 60.8427 454.232 60.831C454.217 60.8231 454.092 60.7584 453.935 60.6233L457.196 56.8339C456.764 56.4614 456.263 56.2587 456.04 56.1682C455.75 56.0508 455.38 55.9197 454.99 55.7807L453.313 60.4909ZM458.5 60.3336C458.5 60.0673 458.501 59.757 458.485 59.4893C458.469 59.2142 458.427 58.7871 458.248 58.3248L453.584 60.1263C453.535 59.9997 453.512 59.8965 453.502 59.8365C453.492 59.7815 453.492 59.7576 453.494 59.7876C453.496 59.8173 453.498 59.8714 453.499 59.9691C453.5 60.0667 453.5 60.181 453.5 60.3336H458.5ZM453.935 60.6233C453.968 60.652 453.856 60.5618 453.736 60.3914C453.616 60.2211 453.568 60.0854 453.584 60.1263L458.248 58.3248C458.173 58.1292 458.046 57.8277 457.821 57.5094C457.597 57.191 457.355 56.9706 457.196 56.8339L453.935 60.6233ZM469.24 56C469.072 56 468.623 55.987 468.171 56.0844L469.226 60.9719C469.198 60.9779 469.171 60.983 469.145 60.9872C469.119 60.9913 469.096 60.9943 469.077 60.9964C469.04 61.0006 469.017 61.0014 469.019 61.0014C469.02 61.0013 469.024 61.0012 469.035 61.0009C469.045 61.0007 469.059 61.0005 469.079 61.0004C469.098 61.0002 469.121 61.0001 469.148 61C469.175 61 469.205 61 469.24 61V56ZM469.565 60.8796C469.592 60.857 469.614 60.8377 469.635 60.8198C469.656 60.8021 469.673 60.7875 469.688 60.775C469.703 60.7626 469.713 60.7535 469.721 60.7469C469.73 60.7403 469.733 60.7374 469.734 60.737C469.735 60.7359 469.718 60.7498 469.687 60.771C469.671 60.7818 469.651 60.7944 469.629 60.808C469.607 60.8217 469.583 60.8356 469.557 60.8493L467.178 56.452C466.771 56.6718 466.439 56.9739 466.311 57.0834L469.565 60.8796ZM468.171 56.0844C467.824 56.1593 467.49 56.2831 467.178 56.452L469.557 60.8493C469.453 60.9056 469.342 60.9469 469.226 60.9719L468.171 56.0844ZM461 43.5H483.5V38.5H461V43.5ZM461 51H483.5V46H461V51ZM471 68.5H496V63.5H471V68.5ZM503.5 61V41H498.5V61H503.5ZM496 68.5C500.142 68.5 503.5 65.1421 503.5 61H498.5C498.5 62.3807 497.381 63.5 496 63.5V68.5Z" fill="#34312D"/>
<path d="M581 63.5V48.5M581 41V40.975M608.5 51C608.5 66.1878 596.188 78.5 581 78.5C565.812 78.5 553.5 66.1878 553.5 51C553.5 35.8122 565.812 23.5 581 23.5C596.188 23.5 608.5 35.8122 608.5 51Z" stroke="#34312D" stroke-width="5" stroke-linecap="round"/>
<g clip-path="url(#clip0_119_205)">
<path d="M711.732 80.2678C712.709 81.2441 714.291 81.2441 715.268 80.2678C716.244 79.2915 716.244 77.7085 715.268 76.7322L711.732 80.2678ZM701.294 46.1471C701.294 57.274 692.274 66.2941 681.147 66.2941V71.2941C695.035 71.2941 706.294 60.0354 706.294 46.1471H701.294ZM681.147 66.2941C670.02 66.2941 661 57.274 661 46.1471H656C656 60.0354 667.259 71.2941 681.147 71.2941V66.2941ZM661 46.1471C661 35.0201 670.02 26 681.147 26V21C667.259 21 656 32.2587 656 46.1471H661ZM681.147 26C692.274 26 701.294 35.0201 701.294 46.1471H706.294C706.294 32.2587 695.035 21 681.147 21V26ZM695.556 64.0913L711.732 80.2678L715.268 76.7322L699.091 60.5558L695.556 64.0913Z" fill="#34312D"/>
</g>
<g clip-path="url(#clip1_119_205)">
<path d="M783.5 23.5L798.5 23.5C805.501 23.5 809.001 23.5 811.675 24.8624C814.027 26.0608 815.939 27.9731 817.138 30.3251C818.5 32.999 818.5 36.4993 818.5 43.5V58.5C818.5 65.5007 818.5 69.001 817.138 71.6749C815.939 74.0269 814.027 75.9392 811.675 77.1376C809.001 78.5 805.501 78.5 798.5 78.5H783.5M783.5 23.5C776.499 23.5 772.999 23.5 770.325 24.8624C767.973 26.0608 766.061 27.9731 764.862 30.3251C763.5 32.999 763.5 36.4993 763.5 43.5L763.5 58.5C763.5 65.5007 763.5 69.001 764.862 71.6749C766.061 74.0269 767.973 75.9392 770.325 77.1376C772.999 78.5 776.499 78.5 783.5 78.5M783.5 23.5L783.5 78.5M783.5 51L821 51" stroke="#34312D" stroke-width="5" stroke-linecap="round"/>
</g>
<defs>
<clipPath id="clip0_119_205">
<rect width="60" height="60" fill="white" transform="translate(656 21)"/>
</clipPath>
<clipPath id="clip1_119_205">
<rect width="60" height="60" fill="white" transform="translate(761 21)"/>
</clipPath>
</defs>
</svg>
