<svg width="390" height="844" viewBox="0 0 390 844" fill="none" xmlns="http://www.w3.org/2000/svg">
<g clip-path="url(#clip0_119_185)">
<rect width="390" height="844" fill="white"/>
<rect y="-1" width="390" height="844" fill="#D9D9D9"/>
<path d="M159.56 581.46C159.672 580.676 159.888 579.984 160.208 579.384C160.528 578.776 160.932 578.268 161.42 577.86C161.916 577.452 162.48 577.144 163.112 576.936C163.752 576.72 164.44 576.612 165.176 576.612C165.904 576.612 166.576 576.716 167.192 576.924C167.808 577.132 168.336 577.428 168.776 577.812C169.224 578.196 169.572 578.66 169.82 579.204C170.068 579.748 170.192 580.352 170.192 581.016C170.192 581.56 170.12 582.048 169.976 582.48C169.84 582.904 169.64 583.276 169.376 583.596C169.12 583.916 168.808 584.188 168.44 584.412C168.072 584.636 167.66 584.82 167.204 584.964C168.324 585.252 169.164 585.748 169.724 586.452C170.292 587.148 170.576 588.02 170.576 589.068C170.576 589.86 170.424 590.572 170.12 591.204C169.824 591.836 169.416 592.376 168.896 592.824C168.376 593.264 167.768 593.604 167.072 593.844C166.384 594.076 165.644 594.192 164.852 594.192C163.94 594.192 163.16 594.08 162.512 593.856C161.864 593.624 161.316 593.308 160.868 592.908C160.42 592.508 160.052 592.036 159.764 591.492C159.476 590.94 159.232 590.344 159.032 589.704L159.956 589.32C160.196 589.216 160.428 589.188 160.652 589.236C160.884 589.284 161.052 589.416 161.156 589.632C161.26 589.856 161.388 590.124 161.54 590.436C161.7 590.748 161.916 591.048 162.188 591.336C162.46 591.624 162.804 591.868 163.22 592.068C163.644 592.268 164.18 592.368 164.828 592.368C165.428 592.368 165.952 592.272 166.4 592.08C166.856 591.88 167.232 591.624 167.528 591.312C167.832 591 168.06 590.652 168.212 590.268C168.364 589.884 168.44 589.504 168.44 589.128C168.44 588.664 168.38 588.24 168.26 587.856C168.14 587.472 167.916 587.14 167.588 586.86C167.26 586.58 166.808 586.36 166.232 586.2C165.664 586.04 164.932 585.96 164.036 585.96V584.412C164.772 584.404 165.396 584.324 165.908 584.172C166.428 584.02 166.848 583.812 167.168 583.548C167.496 583.284 167.732 582.968 167.876 582.6C168.028 582.232 168.104 581.824 168.104 581.376C168.104 580.88 168.024 580.448 167.864 580.08C167.712 579.712 167.5 579.408 167.228 579.168C166.956 578.928 166.632 578.748 166.256 578.628C165.888 578.508 165.488 578.448 165.056 578.448C164.624 578.448 164.22 578.512 163.844 578.64C163.476 578.768 163.148 578.948 162.86 579.18C162.58 579.404 162.344 579.672 162.152 579.984C161.96 580.296 161.824 580.64 161.744 581.016C161.64 581.296 161.508 581.484 161.348 581.58C161.196 581.668 160.972 581.692 160.676 581.652L159.56 581.46ZM175.318 581.856C175.318 582.4 175.394 582.888 175.546 583.32C175.706 583.744 175.93 584.104 176.218 584.4C176.514 584.696 176.87 584.92 177.286 585.072C177.71 585.224 178.182 585.3 178.702 585.3C179.278 585.3 179.786 585.208 180.226 585.024C180.674 584.832 181.05 584.58 181.354 584.268C181.658 583.956 181.89 583.596 182.05 583.188C182.21 582.78 182.29 582.356 182.29 581.916C182.29 581.38 182.202 580.896 182.026 580.464C181.858 580.024 181.622 579.652 181.318 579.348C181.014 579.044 180.65 578.812 180.226 578.652C179.81 578.484 179.35 578.4 178.846 578.4C178.318 578.4 177.838 578.488 177.406 578.664C176.974 578.832 176.602 579.068 176.29 579.372C175.978 579.676 175.738 580.04 175.57 580.464C175.402 580.888 175.318 581.352 175.318 581.856ZM180.31 587.148C180.486 586.916 180.65 586.696 180.802 586.488C180.954 586.28 181.098 586.072 181.234 585.864C180.794 586.216 180.298 586.484 179.746 586.668C179.194 586.852 178.61 586.944 177.994 586.944C177.346 586.944 176.73 586.836 176.146 586.62C175.57 586.404 175.062 586.088 174.622 585.672C174.182 585.248 173.83 584.732 173.566 584.124C173.31 583.508 173.182 582.804 173.182 582.012C173.182 581.26 173.322 580.556 173.602 579.9C173.882 579.244 174.274 578.672 174.778 578.184C175.282 577.696 175.882 577.312 176.578 577.032C177.274 576.752 178.038 576.612 178.87 576.612C179.694 576.612 180.442 576.748 181.114 577.02C181.786 577.292 182.362 577.672 182.842 578.16C183.322 578.648 183.69 579.232 183.946 579.912C184.21 580.592 184.342 581.344 184.342 582.168C184.342 582.664 184.294 583.136 184.198 583.584C184.11 584.024 183.978 584.46 183.802 584.892C183.634 585.316 183.426 585.74 183.178 586.164C182.93 586.58 182.65 587.008 182.338 587.448L178.15 593.496C178.046 593.648 177.898 593.772 177.706 593.868C177.514 593.956 177.294 594 177.046 594H175.078L180.31 587.148ZM199.044 585.408C199.044 586.912 198.88 588.216 198.552 589.32C198.232 590.416 197.792 591.324 197.232 592.044C196.672 592.764 196.008 593.3 195.24 593.652C194.48 594.004 193.664 594.18 192.792 594.18C191.912 594.18 191.092 594.004 190.332 593.652C189.58 593.3 188.924 592.764 188.364 592.044C187.804 591.324 187.364 590.416 187.044 589.32C186.724 588.216 186.564 586.912 186.564 585.408C186.564 583.904 186.724 582.6 187.044 581.496C187.364 580.392 187.804 579.48 188.364 578.76C188.924 578.032 189.58 577.492 190.332 577.14C191.092 576.788 191.912 576.612 192.792 576.612C193.664 576.612 194.48 576.788 195.24 577.14C196.008 577.492 196.672 578.032 197.232 578.76C197.792 579.48 198.232 580.392 198.552 581.496C198.88 582.6 199.044 583.904 199.044 585.408ZM196.824 585.408C196.824 584.096 196.712 582.996 196.488 582.108C196.272 581.212 195.976 580.492 195.6 579.948C195.232 579.404 194.804 579.016 194.316 578.784C193.828 578.544 193.32 578.424 192.792 578.424C192.264 578.424 191.756 578.544 191.268 578.784C190.78 579.016 190.352 579.404 189.984 579.948C189.616 580.492 189.32 581.212 189.096 582.108C188.88 582.996 188.772 584.096 188.772 585.408C188.772 586.72 188.88 587.82 189.096 588.708C189.32 589.596 189.616 590.312 189.984 590.856C190.352 591.4 190.78 591.792 191.268 592.032C191.756 592.264 192.264 592.38 192.792 592.38C193.32 592.38 193.828 592.264 194.316 592.032C194.804 591.792 195.232 591.4 195.6 590.856C195.976 590.312 196.272 589.596 196.488 588.708C196.712 587.82 196.824 586.72 196.824 585.408ZM209.746 591.072C210.138 591.6 210.566 591.972 211.03 592.188C211.494 592.404 212.014 592.512 212.59 592.512C213.726 592.512 214.598 592.108 215.206 591.3C215.814 590.492 216.118 589.34 216.118 587.844C216.118 587.052 216.046 586.372 215.902 585.804C215.766 585.236 215.566 584.772 215.302 584.412C215.038 584.044 214.714 583.776 214.33 583.608C213.946 583.44 213.51 583.356 213.022 583.356C212.326 583.356 211.714 583.516 211.186 583.836C210.666 584.156 210.186 584.608 209.746 585.192V591.072ZM209.638 583.728C210.15 583.096 210.742 582.588 211.414 582.204C212.086 581.82 212.854 581.628 213.718 581.628C214.422 581.628 215.058 581.764 215.626 582.036C216.194 582.3 216.678 582.696 217.078 583.224C217.478 583.744 217.786 584.392 218.002 585.168C218.218 585.944 218.326 586.836 218.326 587.844C218.326 588.74 218.206 589.576 217.966 590.352C217.726 591.12 217.378 591.788 216.922 592.356C216.474 592.916 215.922 593.36 215.266 593.688C214.618 594.008 213.886 594.168 213.07 594.168C212.326 594.168 211.686 594.044 211.15 593.796C210.622 593.54 210.154 593.188 209.746 592.74V598.116H207.598V581.844H208.882C209.186 581.844 209.374 581.992 209.446 582.288L209.638 583.728ZM230.567 594H228.515C228.339 594 228.199 593.956 228.095 593.868C227.999 593.772 227.919 593.668 227.855 593.556L224.795 588.792C224.763 588.904 224.727 589.016 224.687 589.128C224.655 589.232 224.607 589.328 224.543 589.416L221.711 593.556C221.631 593.668 221.543 593.772 221.447 593.868C221.359 593.956 221.235 594 221.075 594H219.167L223.427 587.76L219.335 581.844H221.387C221.563 581.844 221.691 581.872 221.771 581.928C221.851 581.984 221.923 582.064 221.987 582.168L224.975 586.728C225.039 586.496 225.139 586.272 225.275 586.056L227.891 582.216C227.963 582.104 228.039 582.016 228.119 581.952C228.207 581.88 228.311 581.844 228.431 581.844H230.399L226.307 587.652L230.567 594Z" fill="black"/>
<path d="M391.061 586.061C391.646 585.475 391.646 584.525 391.061 583.939L381.515 574.393C380.929 573.808 379.979 573.808 379.393 574.393C378.808 574.979 378.808 575.929 379.393 576.515L387.879 585L379.393 593.485C378.808 594.071 378.808 595.021 379.393 595.607C379.979 596.192 380.929 596.192 381.515 595.607L391.061 586.061ZM262 586.5H390V583.5H262V586.5Z" fill="black"/>
<path d="M-1.06066 583.939C-1.64645 584.525 -1.64645 585.475 -1.06066 586.061L8.48528 595.607C9.07107 596.192 10.0208 596.192 10.6066 595.607C11.1924 595.021 11.1924 594.071 10.6066 593.485L2.12132 585L10.6066 576.515C11.1924 575.929 11.1924 574.979 10.6066 574.393C10.0208 573.808 9.07107 573.808 8.48528 574.393L-1.06066 583.939ZM124 583.5H0V586.5H124V583.5Z" fill="black"/>
<path d="M13.9393 355.939C13.3536 356.525 13.3536 357.475 13.9393 358.061L23.4853 367.607C24.0711 368.192 25.0208 368.192 25.6066 367.607C26.1924 367.021 26.1924 366.071 25.6066 365.485L17.1213 357L25.6066 348.515C26.1924 347.929 26.1924 346.979 25.6066 346.393C25.0208 345.808 24.0711 345.808 23.4853 346.393L13.9393 355.939ZM56 355.5H15V358.5H56V355.5Z" fill="black"/>
<path d="M31.268 150.448C31.396 150.448 31.508 150.5 31.604 150.604L32.528 151.6C31.824 152.416 30.968 153.052 29.96 153.508C28.96 153.964 27.748 154.192 26.324 154.192C25.092 154.192 23.972 153.98 22.964 153.556C21.956 153.124 21.096 152.524 20.384 151.756C19.672 150.98 19.12 150.052 18.728 148.972C18.336 147.892 18.14 146.704 18.14 145.408C18.14 144.112 18.344 142.924 18.752 141.844C19.16 140.764 19.732 139.836 20.468 139.06C21.212 138.284 22.1 137.684 23.132 137.26C24.164 136.828 25.304 136.612 26.552 136.612C27.776 136.612 28.856 136.808 29.792 137.2C30.728 137.592 31.552 138.124 32.264 138.796L31.496 139.864C31.448 139.944 31.384 140.012 31.304 140.068C31.232 140.116 31.132 140.14 31.004 140.14C30.86 140.14 30.684 140.064 30.476 139.912C30.268 139.752 29.996 139.576 29.66 139.384C29.324 139.192 28.904 139.02 28.4 138.868C27.896 138.708 27.276 138.628 26.54 138.628C25.652 138.628 24.84 138.784 24.104 139.096C23.368 139.4 22.732 139.844 22.196 140.428C21.668 141.012 21.256 141.724 20.96 142.564C20.664 143.404 20.516 144.352 20.516 145.408C20.516 146.48 20.668 147.436 20.972 148.276C21.284 149.116 21.704 149.828 22.232 150.412C22.768 150.988 23.396 151.428 24.116 151.732C24.844 152.036 25.628 152.188 26.468 152.188C26.98 152.188 27.44 152.16 27.848 152.104C28.264 152.04 28.644 151.944 28.988 151.816C29.34 151.688 29.664 151.528 29.96 151.336C30.264 151.136 30.564 150.9 30.86 150.628C30.996 150.508 31.132 150.448 31.268 150.448ZM39.6129 141.652C40.5009 141.652 41.3009 141.8 42.0129 142.096C42.7249 142.392 43.3329 142.812 43.8369 143.356C44.3409 143.9 44.7249 144.56 44.9889 145.336C45.2609 146.104 45.3969 146.964 45.3969 147.916C45.3969 148.876 45.2609 149.74 44.9889 150.508C44.7249 151.276 44.3409 151.932 43.8369 152.476C43.3329 153.02 42.7249 153.44 42.0129 153.736C41.3009 154.024 40.5009 154.168 39.6129 154.168C38.7169 154.168 37.9089 154.024 37.1889 153.736C36.4769 153.44 35.8689 153.02 35.3649 152.476C34.8609 151.932 34.4729 151.276 34.2009 150.508C33.9369 149.74 33.8049 148.876 33.8049 147.916C33.8049 146.964 33.9369 146.104 34.2009 145.336C34.4729 144.56 34.8609 143.9 35.3649 143.356C35.8689 142.812 36.4769 142.392 37.1889 142.096C37.9089 141.8 38.7169 141.652 39.6129 141.652ZM39.6129 152.5C40.8129 152.5 41.7089 152.1 42.3009 151.3C42.8929 150.492 43.1889 149.368 43.1889 147.928C43.1889 146.48 42.8929 145.352 42.3009 144.544C41.7089 143.736 40.8129 143.332 39.6129 143.332C39.0049 143.332 38.4729 143.436 38.0169 143.644C37.5689 143.852 37.1929 144.152 36.8889 144.544C36.5929 144.936 36.3689 145.42 36.2169 145.996C36.0729 146.564 36.0009 147.208 36.0009 147.928C36.0009 149.368 36.2969 150.492 36.8889 151.3C37.4889 152.1 38.3969 152.5 39.6129 152.5ZM50.3141 136.324V154H48.1781V136.324H50.3141ZM63.7739 141.844V154H62.5019C62.1979 154 62.0059 153.852 61.9259 153.556L61.7579 152.248C61.2299 152.832 60.6379 153.304 59.9819 153.664C59.3259 154.016 58.5739 154.192 57.7259 154.192C57.0619 154.192 56.4739 154.084 55.9619 153.868C55.4579 153.644 55.0339 153.332 54.6899 152.932C54.3459 152.532 54.0859 152.048 53.9099 151.48C53.7419 150.912 53.6579 150.284 53.6579 149.596V141.844H55.7939V149.596C55.7939 150.516 56.0019 151.228 56.4179 151.732C56.8419 152.236 57.4859 152.488 58.3499 152.488C58.9819 152.488 59.5699 152.34 60.1139 152.044C60.6659 151.74 61.1739 151.324 61.6379 150.796V141.844H63.7739ZM67.1608 154V141.844H68.4448C68.7488 141.844 68.9368 141.992 69.0088 142.288L69.1648 143.536C69.6128 142.984 70.1168 142.532 70.6768 142.18C71.2368 141.828 71.8848 141.652 72.6208 141.652C73.4368 141.652 74.0968 141.88 74.6008 142.336C75.1128 142.792 75.4808 143.408 75.7048 144.184C75.8808 143.744 76.1048 143.364 76.3768 143.044C76.6568 142.724 76.9688 142.46 77.3128 142.252C77.6568 142.044 78.0208 141.892 78.4048 141.796C78.7968 141.7 79.1928 141.652 79.5928 141.652C80.2328 141.652 80.8008 141.756 81.2968 141.964C81.8008 142.164 82.2248 142.46 82.5688 142.852C82.9208 143.244 83.1888 143.728 83.3728 144.304C83.5568 144.872 83.6488 145.524 83.6488 146.26V154H81.5008V146.26C81.5008 145.308 81.2928 144.588 80.8768 144.1C80.4608 143.604 79.8608 143.356 79.0768 143.356C78.7248 143.356 78.3888 143.42 78.0688 143.548C77.7568 143.668 77.4808 143.848 77.2408 144.088C77.0008 144.328 76.8088 144.632 76.6648 145C76.5288 145.36 76.4608 145.78 76.4608 146.26V154H74.3128V146.26C74.3128 145.284 74.1168 144.556 73.7248 144.076C73.3328 143.596 72.7608 143.356 72.0088 143.356C71.4808 143.356 70.9928 143.5 70.5448 143.788C70.0968 144.068 69.6848 144.452 69.3088 144.94V154H67.1608ZM88.9111 143.608C89.1751 143.312 89.4551 143.044 89.7511 142.804C90.0471 142.564 90.3591 142.36 90.6871 142.192C91.0231 142.016 91.3751 141.884 91.7431 141.796C92.1191 141.7 92.5231 141.652 92.9551 141.652C93.6191 141.652 94.2031 141.764 94.7071 141.988C95.2191 142.204 95.6431 142.516 95.9791 142.924C96.3231 143.324 96.5831 143.808 96.7591 144.376C96.9351 144.944 97.0231 145.572 97.0231 146.26V154H94.8751V146.26C94.8751 145.34 94.6631 144.628 94.2391 144.124C93.8231 143.612 93.1871 143.356 92.3311 143.356C91.6991 143.356 91.1071 143.508 90.5551 143.812C90.0111 144.116 89.5071 144.528 89.0431 145.048V154H86.8951V141.844H88.1791C88.4831 141.844 88.6711 141.992 88.7431 142.288L88.9111 143.608ZM120.891 145.732V152.332C120.027 152.956 119.103 153.424 118.119 153.736C117.143 154.04 116.071 154.192 114.903 154.192C113.519 154.192 112.271 153.98 111.159 153.556C110.047 153.124 109.095 152.524 108.303 151.756C107.519 150.98 106.915 150.052 106.491 148.972C106.067 147.892 105.855 146.704 105.855 145.408C105.855 144.096 106.059 142.9 106.467 141.82C106.883 140.74 107.471 139.816 108.231 139.048C108.991 138.272 109.915 137.672 111.003 137.248C112.091 136.824 113.307 136.612 114.651 136.612C115.331 136.612 115.963 136.664 116.547 136.768C117.131 136.864 117.671 137.008 118.167 137.2C118.663 137.384 119.123 137.612 119.547 137.884C119.971 138.148 120.367 138.448 120.735 138.784L120.075 139.84C119.971 140 119.835 140.104 119.667 140.152C119.507 140.192 119.327 140.152 119.127 140.032C118.935 139.92 118.715 139.784 118.467 139.624C118.219 139.464 117.915 139.312 117.555 139.168C117.203 139.016 116.783 138.888 116.295 138.784C115.815 138.68 115.243 138.628 114.579 138.628C113.611 138.628 112.735 138.788 111.951 139.108C111.167 139.42 110.499 139.872 109.947 140.464C109.395 141.048 108.971 141.76 108.675 142.6C108.379 143.432 108.231 144.368 108.231 145.408C108.231 146.488 108.383 147.456 108.687 148.312C108.999 149.16 109.439 149.884 110.007 150.484C110.583 151.076 111.279 151.528 112.095 151.84C112.911 152.152 113.827 152.308 114.843 152.308C115.643 152.308 116.351 152.22 116.967 152.044C117.591 151.86 118.199 151.608 118.791 151.288V147.508H116.115C115.963 147.508 115.839 147.464 115.743 147.376C115.655 147.288 115.611 147.18 115.611 147.052V145.732H120.891ZM125.79 144.28C126.174 143.448 126.646 142.8 127.206 142.336C127.766 141.864 128.45 141.628 129.258 141.628C129.514 141.628 129.758 141.656 129.99 141.712C130.23 141.768 130.442 141.856 130.626 141.976L130.47 143.572C130.422 143.772 130.302 143.872 130.11 143.872C129.998 143.872 129.834 143.848 129.618 143.8C129.402 143.752 129.158 143.728 128.886 143.728C128.502 143.728 128.158 143.784 127.854 143.896C127.558 144.008 127.29 144.176 127.05 144.4C126.818 144.616 126.606 144.888 126.414 145.216C126.23 145.536 126.062 145.904 125.91 146.32V154H123.762V141.844H124.986C125.218 141.844 125.378 141.888 125.466 141.976C125.554 142.064 125.614 142.216 125.646 142.432L125.79 144.28ZM134.761 141.844V154H132.625V141.844H134.761ZM135.217 138.028C135.217 138.236 135.173 138.432 135.085 138.616C135.005 138.792 134.893 138.952 134.749 139.096C134.613 139.232 134.449 139.34 134.257 139.42C134.072 139.5 133.877 139.54 133.669 139.54C133.461 139.54 133.265 139.5 133.081 139.42C132.905 139.34 132.749 139.232 132.613 139.096C132.477 138.952 132.369 138.792 132.289 138.616C132.209 138.432 132.169 138.236 132.169 138.028C132.169 137.82 132.209 137.624 132.289 137.44C132.369 137.248 132.477 137.084 132.613 136.948C132.749 136.804 132.905 136.692 133.081 136.612C133.265 136.532 133.461 136.492 133.669 136.492C133.877 136.492 134.072 136.532 134.257 136.612C134.449 136.692 134.613 136.804 134.749 136.948C134.893 137.084 135.005 137.248 135.085 137.44C135.173 137.624 135.217 137.82 135.217 138.028ZM146.19 144.736C145.79 144.2 145.358 143.828 144.894 143.62C144.43 143.404 143.91 143.296 143.334 143.296C142.206 143.296 141.338 143.7 140.73 144.508C140.122 145.316 139.818 146.468 139.818 147.964C139.818 148.756 139.886 149.436 140.022 150.004C140.158 150.564 140.358 151.028 140.622 151.396C140.886 151.756 141.21 152.02 141.594 152.188C141.978 152.356 142.414 152.44 142.902 152.44C143.606 152.44 144.218 152.28 144.738 151.96C145.266 151.64 145.75 151.188 146.19 150.604V144.736ZM148.326 136.324V154H147.054C146.75 154 146.558 153.852 146.478 153.556L146.286 152.08C145.766 152.704 145.174 153.208 144.51 153.592C143.846 153.976 143.078 154.168 142.206 154.168C141.51 154.168 140.878 154.036 140.31 153.772C139.742 153.5 139.258 153.104 138.858 152.584C138.458 152.064 138.15 151.416 137.934 150.64C137.718 149.864 137.61 148.972 137.61 147.964C137.61 147.068 137.73 146.236 137.97 145.468C138.21 144.692 138.554 144.02 139.002 143.452C139.45 142.884 139.998 142.44 140.646 142.12C141.302 141.792 142.038 141.628 142.854 141.628C143.598 141.628 144.234 141.756 144.762 142.012C145.298 142.26 145.774 142.608 146.19 143.056V136.324H148.326ZM151.508 152.68C151.508 152.472 151.544 152.276 151.616 152.092C151.696 151.908 151.8 151.748 151.928 151.612C152.064 151.476 152.224 151.368 152.408 151.288C152.592 151.208 152.788 151.168 152.996 151.168C153.204 151.168 153.4 151.208 153.584 151.288C153.768 151.368 153.928 151.476 154.064 151.612C154.2 151.748 154.308 151.908 154.388 152.092C154.468 152.276 154.508 152.472 154.508 152.68C154.508 152.896 154.468 153.096 154.388 153.28C154.308 153.456 154.2 153.612 154.064 153.748C153.928 153.884 153.768 153.988 153.584 154.06C153.4 154.14 153.204 154.18 152.996 154.18C152.788 154.18 152.592 154.14 152.408 154.06C152.224 153.988 152.064 153.884 151.928 153.748C151.8 153.612 151.696 153.456 151.616 153.28C151.544 153.096 151.508 152.896 151.508 152.68ZM151.508 143.68C151.508 143.472 151.544 143.276 151.616 143.092C151.696 142.908 151.8 142.748 151.928 142.612C152.064 142.476 152.224 142.368 152.408 142.288C152.592 142.208 152.788 142.168 152.996 142.168C153.204 142.168 153.4 142.208 153.584 142.288C153.768 142.368 153.928 142.476 154.064 142.612C154.2 142.748 154.308 142.908 154.388 143.092C154.468 143.276 154.508 143.472 154.508 143.68C154.508 143.896 154.468 144.096 154.388 144.28C154.308 144.456 154.2 144.612 154.064 144.748C153.928 144.884 153.768 144.992 153.584 145.072C153.4 145.144 153.204 145.18 152.996 145.18C152.788 145.18 152.592 145.144 152.408 145.072C152.224 144.992 152.064 144.884 151.928 144.748C151.8 144.612 151.696 144.456 151.616 144.28C151.544 144.096 151.508 143.896 151.508 143.68ZM25.76 176.796V169.704C25.76 169.496 25.768 169.268 25.784 169.02C25.8 168.772 25.824 168.52 25.856 168.264L19.592 176.796H25.76ZM30.236 176.796V178.02C30.236 178.148 30.196 178.256 30.116 178.344C30.044 178.432 29.928 178.476 29.768 178.476H27.632V183H25.76V178.476H18.128C17.968 178.476 17.828 178.432 17.708 178.344C17.596 178.248 17.524 178.132 17.492 177.996L17.276 176.904L25.64 165.804H27.632V176.796H30.236ZM47.2145 173.004C47.1505 173.092 47.0865 173.16 47.0225 173.208C46.9585 173.256 46.8705 173.28 46.7585 173.28C46.6385 173.28 46.5065 173.232 46.3625 173.136C46.2185 173.032 46.0385 172.92 45.8225 172.8C45.6145 172.68 45.3545 172.572 45.0425 172.476C44.7385 172.372 44.3625 172.32 43.9145 172.32C43.3145 172.32 42.7865 172.428 42.3305 172.644C41.8745 172.852 41.4905 173.156 41.1785 173.556C40.8745 173.956 40.6425 174.44 40.4825 175.008C40.3305 175.576 40.2545 176.212 40.2545 176.916C40.2545 177.652 40.3385 178.308 40.5065 178.884C40.6745 179.452 40.9105 179.932 41.2145 180.324C41.5265 180.708 41.8985 181.004 42.3305 181.212C42.7705 181.412 43.2625 181.512 43.8065 181.512C44.3265 181.512 44.7545 181.452 45.0905 181.332C45.4265 181.204 45.7025 181.064 45.9185 180.912C46.1425 180.76 46.3265 180.624 46.4705 180.504C46.6225 180.376 46.7705 180.312 46.9145 180.312C47.0905 180.312 47.2265 180.38 47.3225 180.516L47.9225 181.296C47.6585 181.624 47.3585 181.904 47.0225 182.136C46.6865 182.368 46.3225 182.564 45.9305 182.724C45.5465 182.876 45.1425 182.988 44.7185 183.06C44.2945 183.132 43.8625 183.168 43.4225 183.168C42.6625 183.168 41.9545 183.028 41.2985 182.748C40.6505 182.468 40.0865 182.064 39.6065 181.536C39.1265 181 38.7505 180.344 38.4785 179.568C38.2065 178.792 38.0705 177.908 38.0705 176.916C38.0705 176.012 38.1945 175.176 38.4425 174.408C38.6985 173.64 39.0665 172.98 39.5465 172.428C40.0345 171.868 40.6305 171.432 41.3345 171.12C42.0465 170.808 42.8625 170.652 43.7825 170.652C44.6385 170.652 45.3905 170.792 46.0385 171.072C46.6945 171.344 47.2745 171.732 47.7785 172.236L47.2145 173.004ZM55.1285 170.652C56.0165 170.652 56.8165 170.8 57.5285 171.096C58.2405 171.392 58.8485 171.812 59.3525 172.356C59.8565 172.9 60.2405 173.56 60.5045 174.336C60.7765 175.104 60.9125 175.964 60.9125 176.916C60.9125 177.876 60.7765 178.74 60.5045 179.508C60.2405 180.276 59.8565 180.932 59.3525 181.476C58.8485 182.02 58.2405 182.44 57.5285 182.736C56.8165 183.024 56.0165 183.168 55.1285 183.168C54.2325 183.168 53.4245 183.024 52.7045 182.736C51.9925 182.44 51.3845 182.02 50.8805 181.476C50.3765 180.932 49.9885 180.276 49.7165 179.508C49.4525 178.74 49.3205 177.876 49.3205 176.916C49.3205 175.964 49.4525 175.104 49.7165 174.336C49.9885 173.56 50.3765 172.9 50.8805 172.356C51.3845 171.812 51.9925 171.392 52.7045 171.096C53.4245 170.8 54.2325 170.652 55.1285 170.652ZM55.1285 181.5C56.3285 181.5 57.2245 181.1 57.8165 180.3C58.4085 179.492 58.7045 178.368 58.7045 176.928C58.7045 175.48 58.4085 174.352 57.8165 173.544C57.2245 172.736 56.3285 172.332 55.1285 172.332C54.5205 172.332 53.9885 172.436 53.5325 172.644C53.0845 172.852 52.7085 173.152 52.4045 173.544C52.1085 173.936 51.8845 174.42 51.7325 174.996C51.5885 175.564 51.5165 176.208 51.5165 176.928C51.5165 178.368 51.8125 179.492 52.4045 180.3C53.0045 181.1 53.9125 181.5 55.1285 181.5ZM65.8297 165.324V183H63.6937V165.324H65.8297ZM79.2896 170.844V183H78.0176C77.7136 183 77.5216 182.852 77.4416 182.556L77.2736 181.248C76.7456 181.832 76.1536 182.304 75.4976 182.664C74.8416 183.016 74.0896 183.192 73.2416 183.192C72.5776 183.192 71.9896 183.084 71.4776 182.868C70.9736 182.644 70.5496 182.332 70.2056 181.932C69.8616 181.532 69.6016 181.048 69.4256 180.48C69.2576 179.912 69.1736 179.284 69.1736 178.596V170.844H71.3096V178.596C71.3096 179.516 71.5176 180.228 71.9336 180.732C72.3576 181.236 73.0016 181.488 73.8656 181.488C74.4976 181.488 75.0856 181.34 75.6296 181.044C76.1816 180.74 76.6896 180.324 77.1536 179.796V170.844H79.2896ZM82.6764 183V170.844H83.9604C84.2644 170.844 84.4524 170.992 84.5244 171.288L84.6804 172.536C85.1284 171.984 85.6324 171.532 86.1924 171.18C86.7524 170.828 87.4004 170.652 88.1364 170.652C88.9524 170.652 89.6124 170.88 90.1164 171.336C90.6284 171.792 90.9964 172.408 91.2204 173.184C91.3964 172.744 91.6204 172.364 91.8924 172.044C92.1724 171.724 92.4844 171.46 92.8284 171.252C93.1724 171.044 93.5364 170.892 93.9204 170.796C94.3124 170.7 94.7084 170.652 95.1084 170.652C95.7484 170.652 96.3164 170.756 96.8124 170.964C97.3164 171.164 97.7404 171.46 98.0844 171.852C98.4364 172.244 98.7044 172.728 98.8884 173.304C99.0724 173.872 99.1644 174.524 99.1644 175.26V183H97.0164V175.26C97.0164 174.308 96.8084 173.588 96.3924 173.1C95.9764 172.604 95.3764 172.356 94.5924 172.356C94.2404 172.356 93.9044 172.42 93.5844 172.548C93.2724 172.668 92.9964 172.848 92.7564 173.088C92.5164 173.328 92.3244 173.632 92.1804 174C92.0444 174.36 91.9764 174.78 91.9764 175.26V183H89.8284V175.26C89.8284 174.284 89.6324 173.556 89.2404 173.076C88.8484 172.596 88.2764 172.356 87.5244 172.356C86.9964 172.356 86.5084 172.5 86.0604 172.788C85.6124 173.068 85.2004 173.452 84.8244 173.94V183H82.6764ZM104.427 172.608C104.691 172.312 104.971 172.044 105.267 171.804C105.563 171.564 105.875 171.36 106.203 171.192C106.539 171.016 106.891 170.884 107.259 170.796C107.635 170.7 108.039 170.652 108.471 170.652C109.135 170.652 109.719 170.764 110.223 170.988C110.735 171.204 111.159 171.516 111.495 171.924C111.839 172.324 112.099 172.808 112.275 173.376C112.451 173.944 112.539 174.572 112.539 175.26V183H110.391V175.26C110.391 174.34 110.179 173.628 109.755 173.124C109.339 172.612 108.703 172.356 107.847 172.356C107.215 172.356 106.623 172.508 106.071 172.812C105.527 173.116 105.023 173.528 104.559 174.048V183H102.411V170.844H103.695C103.999 170.844 104.187 170.992 104.259 171.288L104.427 172.608ZM122.874 172.848C122.778 173.024 122.63 173.112 122.43 173.112C122.31 173.112 122.174 173.068 122.022 172.98C121.87 172.892 121.682 172.796 121.458 172.692C121.242 172.58 120.982 172.48 120.678 172.392C120.374 172.296 120.014 172.248 119.598 172.248C119.238 172.248 118.914 172.296 118.626 172.392C118.338 172.48 118.09 172.604 117.882 172.764C117.682 172.924 117.526 173.112 117.414 173.328C117.31 173.536 117.258 173.764 117.258 174.012C117.258 174.324 117.346 174.584 117.522 174.792C117.706 175 117.946 175.18 118.242 175.332C118.538 175.484 118.874 175.62 119.25 175.74C119.626 175.852 120.01 175.976 120.402 176.112C120.802 176.24 121.19 176.384 121.566 176.544C121.942 176.704 122.278 176.904 122.574 177.144C122.87 177.384 123.106 177.68 123.282 178.032C123.466 178.376 123.558 178.792 123.558 179.28C123.558 179.84 123.458 180.36 123.258 180.84C123.058 181.312 122.762 181.724 122.37 182.076C121.978 182.42 121.498 182.692 120.93 182.892C120.362 183.092 119.706 183.192 118.962 183.192C118.114 183.192 117.346 183.056 116.658 182.784C115.97 182.504 115.386 182.148 114.906 181.716L115.41 180.9C115.474 180.796 115.55 180.716 115.638 180.66C115.726 180.604 115.838 180.576 115.974 180.576C116.118 180.576 116.27 180.632 116.43 180.744C116.59 180.856 116.782 180.98 117.006 181.116C117.238 181.252 117.518 181.376 117.846 181.488C118.174 181.6 118.582 181.656 119.07 181.656C119.486 181.656 119.85 181.604 120.162 181.5C120.474 181.388 120.734 181.24 120.942 181.056C121.15 180.872 121.302 180.66 121.398 180.42C121.502 180.18 121.554 179.924 121.554 179.652C121.554 179.316 121.462 179.04 121.278 178.824C121.102 178.6 120.866 178.412 120.57 178.26C120.274 178.1 119.934 177.964 119.55 177.852C119.174 177.732 118.786 177.608 118.386 177.48C117.994 177.352 117.606 177.208 117.222 177.048C116.846 176.88 116.51 176.672 116.214 176.424C115.918 176.176 115.678 175.872 115.494 175.512C115.318 175.144 115.23 174.7 115.23 174.18C115.23 173.716 115.326 173.272 115.518 172.848C115.71 172.416 115.99 172.04 116.358 171.72C116.726 171.392 117.178 171.132 117.714 170.94C118.25 170.748 118.862 170.652 119.55 170.652C120.35 170.652 121.066 170.78 121.698 171.036C122.338 171.284 122.89 171.628 123.354 172.068L122.874 172.848ZM138.905 177.528C137.921 177.56 137.081 177.64 136.385 177.768C135.697 177.888 135.133 178.048 134.693 178.248C134.261 178.448 133.945 178.684 133.745 178.956C133.553 179.228 133.457 179.532 133.457 179.868C133.457 180.188 133.509 180.464 133.613 180.696C133.717 180.928 133.857 181.12 134.033 181.272C134.217 181.416 134.429 181.524 134.669 181.596C134.917 181.66 135.181 181.692 135.461 181.692C135.837 181.692 136.181 181.656 136.493 181.584C136.805 181.504 137.097 181.392 137.369 181.248C137.649 181.104 137.913 180.932 138.161 180.732C138.417 180.532 138.665 180.304 138.905 180.048V177.528ZM132.005 172.56C132.677 171.912 133.401 171.428 134.177 171.108C134.953 170.788 135.813 170.628 136.757 170.628C137.437 170.628 138.041 170.74 138.569 170.964C139.097 171.188 139.541 171.5 139.901 171.9C140.261 172.3 140.533 172.784 140.717 173.352C140.901 173.92 140.993 174.544 140.993 175.224V183H140.045C139.837 183 139.677 182.968 139.565 182.904C139.453 182.832 139.365 182.696 139.301 182.496L139.061 181.344C138.741 181.64 138.429 181.904 138.125 182.136C137.821 182.36 137.501 182.552 137.165 182.712C136.829 182.864 136.469 182.98 136.085 183.06C135.709 183.148 135.289 183.192 134.825 183.192C134.353 183.192 133.909 183.128 133.493 183C133.077 182.864 132.713 182.664 132.401 182.4C132.097 182.136 131.853 181.804 131.669 181.404C131.493 180.996 131.405 180.516 131.405 179.964C131.405 179.484 131.537 179.024 131.801 178.584C132.065 178.136 132.493 177.74 133.085 177.396C133.677 177.052 134.449 176.772 135.401 176.556C136.353 176.332 137.521 176.204 138.905 176.172V175.224C138.905 174.28 138.701 173.568 138.293 173.088C137.885 172.6 137.289 172.356 136.505 172.356C135.977 172.356 135.533 172.424 135.173 172.56C134.821 172.688 134.513 172.836 134.249 173.004C133.993 173.164 133.769 173.312 133.577 173.448C133.393 173.576 133.209 173.64 133.025 173.64C132.881 173.64 132.757 173.604 132.653 173.532C132.549 173.452 132.461 173.356 132.389 173.244L132.005 172.56ZM147.815 183.192C146.855 183.192 146.115 182.924 145.595 182.388C145.083 181.852 144.827 181.08 144.827 180.072V172.632H143.363C143.235 172.632 143.127 172.596 143.039 172.524C142.951 172.444 142.907 172.324 142.907 172.164V171.312L144.899 171.06L145.391 167.304C145.415 167.184 145.467 167.088 145.547 167.016C145.635 166.936 145.747 166.896 145.883 166.896H146.963V171.084H150.479V172.632H146.963V179.928C146.963 180.44 147.087 180.82 147.335 181.068C147.583 181.316 147.903 181.44 148.295 181.44C148.519 181.44 148.711 181.412 148.871 181.356C149.039 181.292 149.183 181.224 149.303 181.152C149.423 181.08 149.523 181.016 149.603 180.96C149.691 180.896 149.767 180.864 149.831 180.864C149.943 180.864 150.043 180.932 150.131 181.068L150.755 182.088C150.387 182.432 149.943 182.704 149.423 182.904C148.903 183.096 148.367 183.192 147.815 183.192ZM170.105 165.804V166.764C170.105 167.036 170.073 167.26 170.009 167.436C169.953 167.612 169.897 167.76 169.841 167.88L162.713 182.244C162.609 182.452 162.465 182.632 162.281 182.784C162.097 182.928 161.853 183 161.549 183H160.013L167.237 168.816C167.341 168.616 167.449 168.432 167.561 168.264C167.673 168.096 167.793 167.936 167.921 167.784H158.945C158.809 167.784 158.689 167.732 158.585 167.628C158.481 167.516 158.429 167.392 158.429 167.256V165.804H170.105ZM175.399 172.296C176.295 172.104 177.119 172.008 177.871 172.008C178.767 172.008 179.559 172.14 180.247 172.404C180.935 172.668 181.507 173.032 181.963 173.496C182.427 173.96 182.775 174.508 183.007 175.14C183.247 175.772 183.367 176.46 183.367 177.204C183.367 178.116 183.207 178.94 182.887 179.676C182.575 180.412 182.139 181.044 181.579 181.572C181.027 182.092 180.375 182.492 179.623 182.772C178.871 183.052 178.059 183.192 177.187 183.192C176.683 183.192 176.199 183.14 175.735 183.036C175.271 182.94 174.835 182.808 174.427 182.64C174.027 182.472 173.655 182.28 173.311 182.064C172.967 181.848 172.663 181.62 172.399 181.38L173.059 180.468C173.203 180.26 173.391 180.156 173.623 180.156C173.783 180.156 173.963 180.22 174.163 180.348C174.363 180.468 174.607 180.604 174.895 180.756C175.183 180.908 175.519 181.048 175.903 181.176C176.295 181.296 176.759 181.356 177.295 181.356C177.895 181.356 178.435 181.26 178.915 181.068C179.395 180.876 179.807 180.604 180.151 180.252C180.495 179.892 180.759 179.464 180.943 178.968C181.127 178.472 181.219 177.916 181.219 177.3C181.219 176.764 181.139 176.28 180.979 175.848C180.827 175.416 180.591 175.048 180.271 174.744C179.959 174.44 179.567 174.204 179.095 174.036C178.623 173.868 178.071 173.784 177.439 173.784C177.007 173.784 176.555 173.82 176.083 173.892C175.619 173.964 175.143 174.08 174.655 174.24L173.311 173.844L174.691 165.804H182.839V166.74C182.839 167.044 182.743 167.296 182.551 167.496C182.367 167.688 182.047 167.784 181.591 167.784H176.191L175.399 172.296ZM194.957 180.072C195.349 180.6 195.777 180.972 196.241 181.188C196.705 181.404 197.225 181.512 197.801 181.512C198.937 181.512 199.809 181.108 200.417 180.3C201.025 179.492 201.329 178.34 201.329 176.844C201.329 176.052 201.257 175.372 201.113 174.804C200.977 174.236 200.777 173.772 200.513 173.412C200.249 173.044 199.925 172.776 199.541 172.608C199.157 172.44 198.721 172.356 198.233 172.356C197.537 172.356 196.925 172.516 196.397 172.836C195.877 173.156 195.397 173.608 194.957 174.192V180.072ZM194.849 172.728C195.361 172.096 195.953 171.588 196.625 171.204C197.297 170.82 198.065 170.628 198.929 170.628C199.633 170.628 200.269 170.764 200.837 171.036C201.405 171.3 201.889 171.696 202.289 172.224C202.689 172.744 202.997 173.392 203.213 174.168C203.429 174.944 203.537 175.836 203.537 176.844C203.537 177.74 203.417 178.576 203.177 179.352C202.937 180.12 202.589 180.788 202.133 181.356C201.685 181.916 201.133 182.36 200.477 182.688C199.829 183.008 199.097 183.168 198.281 183.168C197.537 183.168 196.897 183.044 196.361 182.796C195.833 182.54 195.365 182.188 194.957 181.74V187.116H192.809V170.844H194.093C194.397 170.844 194.585 170.992 194.657 171.288L194.849 172.728ZM215.778 183H213.726C213.55 183 213.41 182.956 213.306 182.868C213.21 182.772 213.13 182.668 213.066 182.556L210.006 177.792C209.974 177.904 209.938 178.016 209.898 178.128C209.866 178.232 209.818 178.328 209.754 178.416L206.922 182.556C206.842 182.668 206.754 182.772 206.658 182.868C206.57 182.956 206.446 183 206.286 183H204.378L208.638 176.76L204.546 170.844H206.598C206.774 170.844 206.902 170.872 206.982 170.928C207.062 170.984 207.134 171.064 207.198 171.168L210.186 175.728C210.25 175.496 210.35 175.272 210.486 175.056L213.102 171.216C213.174 171.104 213.25 171.016 213.33 170.952C213.418 170.88 213.522 170.844 213.642 170.844H215.61L211.518 176.652L215.778 183ZM28.844 209.972C29.076 209.972 29.26 210.04 29.396 210.176C29.532 210.312 29.6 210.488 29.6 210.704V212H18.128V211.268C18.128 211.116 18.16 210.96 18.224 210.8C18.288 210.64 18.388 210.492 18.524 210.356L24.032 204.824C24.488 204.36 24.904 203.916 25.28 203.492C25.656 203.06 25.976 202.628 26.24 202.196C26.504 201.764 26.708 201.328 26.852 200.888C26.996 200.44 27.068 199.964 27.068 199.46C27.068 198.956 26.988 198.516 26.828 198.14C26.668 197.756 26.448 197.44 26.168 197.192C25.896 196.944 25.572 196.76 25.196 196.64C24.82 196.512 24.416 196.448 23.984 196.448C23.544 196.448 23.14 196.512 22.772 196.64C22.404 196.768 22.076 196.948 21.788 197.18C21.508 197.404 21.272 197.672 21.08 197.984C20.888 198.296 20.752 198.64 20.672 199.016C20.576 199.296 20.444 199.484 20.276 199.58C20.116 199.668 19.888 199.692 19.592 199.652L18.476 199.46C18.588 198.676 18.804 197.984 19.124 197.384C19.452 196.776 19.86 196.268 20.348 195.86C20.844 195.452 21.408 195.144 22.04 194.936C22.672 194.72 23.356 194.612 24.092 194.612C24.82 194.612 25.5 194.72 26.132 194.936C26.764 195.152 27.312 195.468 27.776 195.884C28.24 196.292 28.604 196.792 28.868 197.384C29.132 197.976 29.264 198.648 29.264 199.4C29.264 200.04 29.168 200.636 28.976 201.188C28.784 201.732 28.524 202.252 28.196 202.748C27.868 203.244 27.488 203.728 27.056 204.2C26.632 204.672 26.18 205.148 25.7 205.628L21.164 210.26C21.484 210.172 21.808 210.104 22.136 210.056C22.464 210 22.78 209.972 23.084 209.972H28.844ZM44.1219 203.408C44.1219 204.912 43.9579 206.216 43.6299 207.32C43.3099 208.416 42.8699 209.324 42.3099 210.044C41.7499 210.764 41.0859 211.3 40.3179 211.652C39.5579 212.004 38.7419 212.18 37.8699 212.18C36.9899 212.18 36.1699 212.004 35.4099 211.652C34.6579 211.3 34.0019 210.764 33.4419 210.044C32.8819 209.324 32.4419 208.416 32.1219 207.32C31.8019 206.216 31.6419 204.912 31.6419 203.408C31.6419 201.904 31.8019 200.6 32.1219 199.496C32.4419 198.392 32.8819 197.48 33.4419 196.76C34.0019 196.032 34.6579 195.492 35.4099 195.14C36.1699 194.788 36.9899 194.612 37.8699 194.612C38.7419 194.612 39.5579 194.788 40.3179 195.14C41.0859 195.492 41.7499 196.032 42.3099 196.76C42.8699 197.48 43.3099 198.392 43.6299 199.496C43.9579 200.6 44.1219 201.904 44.1219 203.408ZM41.9019 203.408C41.9019 202.096 41.7899 200.996 41.5659 200.108C41.3499 199.212 41.0539 198.492 40.6779 197.948C40.3099 197.404 39.8819 197.016 39.3939 196.784C38.9059 196.544 38.3979 196.424 37.8699 196.424C37.3419 196.424 36.8339 196.544 36.3459 196.784C35.8579 197.016 35.4299 197.404 35.0619 197.948C34.6939 198.492 34.3979 199.212 34.1739 200.108C33.9579 200.996 33.8499 202.096 33.8499 203.408C33.8499 204.72 33.9579 205.82 34.1739 206.708C34.3979 207.596 34.6939 208.312 35.0619 208.856C35.4299 209.4 35.8579 209.792 36.3459 210.032C36.8339 210.264 37.3419 210.38 37.8699 210.38C38.3979 210.38 38.9059 210.264 39.3939 210.032C39.8819 209.792 40.3099 209.4 40.6779 208.856C41.0539 208.312 41.3499 207.596 41.5659 206.708C41.7899 205.82 41.9019 204.72 41.9019 203.408ZM48.6838 209.072C49.0758 209.6 49.5038 209.972 49.9678 210.188C50.4318 210.404 50.9518 210.512 51.5278 210.512C52.6638 210.512 53.5358 210.108 54.1438 209.3C54.7518 208.492 55.0558 207.34 55.0558 205.844C55.0558 205.052 54.9838 204.372 54.8398 203.804C54.7038 203.236 54.5038 202.772 54.2398 202.412C53.9758 202.044 53.6518 201.776 53.2678 201.608C52.8838 201.44 52.4478 201.356 51.9598 201.356C51.2638 201.356 50.6518 201.516 50.1238 201.836C49.6038 202.156 49.1238 202.608 48.6838 203.192V209.072ZM48.5758 201.728C49.0878 201.096 49.6798 200.588 50.3518 200.204C51.0238 199.82 51.7918 199.628 52.6558 199.628C53.3598 199.628 53.9958 199.764 54.5638 200.036C55.1318 200.3 55.6158 200.696 56.0158 201.224C56.4158 201.744 56.7238 202.392 56.9398 203.168C57.1558 203.944 57.2638 204.836 57.2638 205.844C57.2638 206.74 57.1438 207.576 56.9037 208.352C56.6638 209.12 56.3158 209.788 55.8598 210.356C55.4118 210.916 54.8598 211.36 54.2038 211.688C53.5558 212.008 52.8238 212.168 52.0078 212.168C51.2638 212.168 50.6238 212.044 50.0878 211.796C49.5598 211.54 49.0918 211.188 48.6838 210.74V216.116H46.5358V199.844H47.8198C48.1238 199.844 48.3118 199.992 48.3838 200.288L48.5758 201.728ZM69.5041 212H67.4521C67.2761 212 67.1361 211.956 67.0321 211.868C66.9361 211.772 66.8561 211.668 66.7921 211.556L63.7321 206.792C63.7001 206.904 63.6641 207.016 63.6241 207.128C63.5921 207.232 63.5441 207.328 63.4801 207.416L60.6481 211.556C60.5681 211.668 60.4801 211.772 60.3841 211.868C60.2961 211.956 60.1721 212 60.0121 212H58.1041L62.3641 205.76L58.2721 199.844H60.3241C60.5001 199.844 60.6281 199.872 60.7081 199.928C60.7881 199.984 60.8601 200.064 60.9241 200.168L63.9121 204.728C63.9761 204.496 64.0761 204.272 64.2121 204.056L66.8281 200.216C66.9001 200.104 66.9761 200.016 67.0561 199.952C67.1441 199.88 67.2481 199.844 67.3681 199.844H69.3361L65.2441 205.652L69.5041 212ZM81.8499 206.06C82.2819 206.06 82.6619 206 82.9899 205.88C83.3179 205.76 83.5939 205.592 83.8179 205.376C84.0419 205.16 84.2099 204.904 84.3219 204.608C84.4339 204.304 84.4899 203.972 84.4899 203.612C84.4899 202.868 84.2619 202.276 83.8059 201.836C83.3579 201.396 82.7059 201.176 81.8499 201.176C80.9859 201.176 80.3259 201.396 79.8699 201.836C79.4219 202.276 79.1979 202.868 79.1979 203.612C79.1979 203.972 79.2539 204.304 79.3659 204.608C79.4859 204.904 79.6579 205.16 79.8819 205.376C80.1059 205.592 80.3819 205.76 80.7099 205.88C81.0379 206 81.4179 206.06 81.8499 206.06ZM85.7019 212.66C85.7019 212.364 85.6179 212.124 85.4499 211.94C85.2819 211.756 85.0539 211.612 84.7659 211.508C84.4859 211.404 84.1579 211.332 83.7819 211.292C83.4059 211.244 83.0059 211.208 82.5819 211.184C82.1659 211.16 81.7419 211.136 81.3099 211.112C80.8779 211.088 80.4619 211.048 80.0619 210.992C79.6139 211.2 79.2459 211.464 78.9579 211.784C78.6779 212.096 78.5379 212.464 78.5379 212.888C78.5379 213.16 78.6059 213.412 78.7419 213.644C78.8859 213.884 79.1019 214.088 79.3899 214.256C79.6779 214.432 80.0379 214.568 80.4699 214.664C80.9099 214.768 81.4259 214.82 82.0179 214.82C82.5939 214.82 83.1099 214.768 83.5659 214.664C84.0219 214.56 84.4059 214.412 84.7179 214.22C85.0379 214.028 85.2819 213.8 85.4499 213.536C85.6179 213.272 85.7019 212.98 85.7019 212.66ZM87.8739 200.324V201.116C87.8739 201.38 87.7059 201.548 87.3699 201.62L85.9899 201.8C86.2619 202.328 86.3979 202.912 86.3979 203.552C86.3979 204.144 86.2819 204.684 86.0499 205.172C85.8259 205.652 85.5139 206.064 85.1139 206.408C84.7139 206.752 84.2339 207.016 83.6739 207.2C83.1139 207.384 82.5059 207.476 81.8499 207.476C81.2819 207.476 80.7459 207.408 80.2419 207.272C79.9859 207.432 79.7899 207.604 79.6539 207.788C79.5179 207.964 79.4499 208.144 79.4499 208.328C79.4499 208.616 79.5659 208.836 79.7979 208.988C80.0379 209.132 80.3499 209.236 80.7339 209.3C81.1179 209.364 81.5539 209.404 82.0419 209.42C82.5379 209.436 83.0419 209.464 83.5539 209.504C84.0739 209.536 84.5779 209.596 85.0659 209.684C85.5619 209.772 86.0019 209.916 86.3859 210.116C86.7699 210.316 87.0779 210.592 87.3099 210.944C87.5499 211.296 87.6699 211.752 87.6699 212.312C87.6699 212.832 87.5379 213.336 87.2739 213.824C87.0179 214.312 86.6459 214.744 86.1579 215.12C85.6699 215.504 85.0699 215.808 84.3579 216.032C83.6539 216.264 82.8579 216.38 81.9699 216.38C81.0819 216.38 80.3059 216.292 79.6419 216.116C78.9779 215.94 78.4259 215.704 77.9859 215.408C77.5459 215.112 77.2139 214.768 76.9899 214.376C76.7739 213.992 76.6659 213.588 76.6659 213.164C76.6659 212.564 76.8539 212.056 77.2299 211.64C77.6059 211.224 78.1219 210.892 78.7779 210.644C78.4179 210.484 78.1299 210.272 77.9139 210.008C77.7059 209.736 77.6019 209.372 77.6019 208.916C77.6019 208.74 77.6339 208.56 77.6979 208.376C77.7619 208.184 77.8579 207.996 77.9859 207.812C78.1219 207.62 78.2859 207.44 78.4779 207.272C78.6699 207.104 78.8939 206.956 79.1499 206.828C78.5499 206.492 78.0819 206.048 77.7459 205.496C77.4099 204.936 77.2419 204.288 77.2419 203.552C77.2419 202.96 77.3539 202.424 77.5779 201.944C77.8099 201.456 78.1299 201.044 78.5379 200.708C78.9459 200.364 79.4299 200.1 79.9899 199.916C80.5579 199.732 81.1779 199.64 81.8499 199.64C82.3779 199.64 82.8699 199.7 83.3259 199.82C83.7819 199.932 84.1979 200.1 84.5739 200.324H87.8739ZM100.079 199.844V212H98.8066C98.5026 212 98.3106 211.852 98.2306 211.556L98.0626 210.248C97.5346 210.832 96.9426 211.304 96.2866 211.664C95.6306 212.016 94.8786 212.192 94.0306 212.192C93.3666 212.192 92.7786 212.084 92.2666 211.868C91.7626 211.644 91.3386 211.332 90.9946 210.932C90.6506 210.532 90.3906 210.048 90.2146 209.48C90.0466 208.912 89.9626 208.284 89.9626 207.596V199.844H92.0986V207.596C92.0986 208.516 92.3066 209.228 92.7226 209.732C93.1466 210.236 93.7906 210.488 94.6546 210.488C95.2866 210.488 95.8746 210.34 96.4186 210.044C96.9706 209.74 97.4786 209.324 97.9426 208.796V199.844H100.079ZM107.197 212.192C106.237 212.192 105.497 211.924 104.977 211.388C104.465 210.852 104.209 210.08 104.209 209.072V201.632H102.745C102.617 201.632 102.509 201.596 102.421 201.524C102.333 201.444 102.289 201.324 102.289 201.164V200.312L104.281 200.06L104.773 196.304C104.797 196.184 104.849 196.088 104.929 196.016C105.017 195.936 105.129 195.896 105.265 195.896H106.345V200.084H112.069L112.561 196.304C112.585 196.184 112.637 196.088 112.717 196.016C112.805 195.936 112.917 195.896 113.053 195.896H114.133V200.084H117.649V201.632H114.133V208.928C114.133 209.44 114.257 209.82 114.505 210.068C114.761 210.316 115.081 210.44 115.465 210.44C115.689 210.44 115.881 210.412 116.041 210.356C116.209 210.292 116.353 210.224 116.473 210.152C116.593 210.08 116.693 210.016 116.773 209.96C116.861 209.896 116.937 209.864 117.001 209.864C117.121 209.864 117.221 209.932 117.301 210.068L117.937 211.088C117.561 211.432 117.113 211.704 116.593 211.904C116.073 212.096 115.537 212.192 114.985 212.192C114.033 212.192 113.297 211.924 112.777 211.388C112.257 210.852 111.997 210.08 111.997 209.072V201.632H106.345V208.928C106.345 209.44 106.469 209.82 106.717 210.068C106.965 210.316 107.285 210.44 107.677 210.44C107.901 210.44 108.093 210.412 108.253 210.356C108.421 210.292 108.565 210.224 108.685 210.152C108.805 210.08 108.905 210.016 108.985 209.96C109.073 209.896 109.149 209.864 109.213 209.864C109.325 209.864 109.425 209.932 109.513 210.068L110.137 211.088C109.769 211.432 109.325 211.704 108.805 211.904C108.285 212.096 107.749 212.192 107.197 212.192ZM127.914 204.596C127.914 204.1 127.842 203.648 127.698 203.24C127.562 202.824 127.358 202.468 127.086 202.172C126.822 201.868 126.498 201.636 126.114 201.476C125.73 201.308 125.294 201.224 124.806 201.224C123.782 201.224 122.97 201.524 122.37 202.124C121.778 202.716 121.41 203.54 121.266 204.596H127.914ZM129.642 210.296C129.378 210.616 129.062 210.896 128.694 211.136C128.326 211.368 127.93 211.56 127.506 211.712C127.09 211.864 126.658 211.976 126.21 212.048C125.762 212.128 125.318 212.168 124.878 212.168C124.038 212.168 123.262 212.028 122.55 211.748C121.846 211.46 121.234 211.044 120.714 210.5C120.202 209.948 119.802 209.268 119.514 208.46C119.226 207.652 119.082 206.724 119.082 205.676C119.082 204.828 119.21 204.036 119.466 203.3C119.73 202.564 120.106 201.928 120.594 201.392C121.082 200.848 121.678 200.424 122.382 200.12C123.086 199.808 123.878 199.652 124.758 199.652C125.486 199.652 126.158 199.776 126.774 200.024C127.398 200.264 127.934 200.616 128.382 201.08C128.838 201.536 129.194 202.104 129.45 202.784C129.706 203.456 129.834 204.224 129.834 205.088C129.834 205.424 129.798 205.648 129.726 205.76C129.654 205.872 129.518 205.928 129.318 205.928H121.194C121.218 206.696 121.322 207.364 121.506 207.932C121.698 208.5 121.962 208.976 122.298 209.36C122.634 209.736 123.034 210.02 123.498 210.212C123.962 210.396 124.482 210.488 125.058 210.488C125.594 210.488 126.054 210.428 126.438 210.308C126.83 210.18 127.166 210.044 127.446 209.9C127.726 209.756 127.958 209.624 128.142 209.504C128.334 209.376 128.498 209.312 128.634 209.312C128.81 209.312 128.946 209.38 129.042 209.516L129.642 210.296ZM134.486 202.28C134.87 201.448 135.342 200.8 135.902 200.336C136.462 199.864 137.146 199.628 137.954 199.628C138.21 199.628 138.454 199.656 138.686 199.712C138.926 199.768 139.138 199.856 139.322 199.976L139.166 201.572C139.118 201.772 138.998 201.872 138.806 201.872C138.694 201.872 138.53 201.848 138.314 201.8C138.098 201.752 137.854 201.728 137.582 201.728C137.198 201.728 136.854 201.784 136.55 201.896C136.254 202.008 135.986 202.176 135.746 202.4C135.514 202.616 135.302 202.888 135.11 203.216C134.926 203.536 134.758 203.904 134.606 204.32V212H132.458V199.844H133.682C133.914 199.844 134.074 199.888 134.162 199.976C134.25 200.064 134.31 200.216 134.342 200.432L134.486 202.28Z" fill="black"/>
<path d="M69.692 364V351.844H70.976C71.28 351.844 71.468 351.992 71.54 352.288L71.696 353.536C72.144 352.984 72.648 352.532 73.208 352.18C73.768 351.828 74.416 351.652 75.152 351.652C75.968 351.652 76.628 351.88 77.132 352.336C77.644 352.792 78.012 353.408 78.236 354.184C78.412 353.744 78.636 353.364 78.908 353.044C79.188 352.724 79.5 352.46 79.844 352.252C80.188 352.044 80.552 351.892 80.936 351.796C81.328 351.7 81.724 351.652 82.124 351.652C82.764 351.652 83.332 351.756 83.828 351.964C84.332 352.164 84.756 352.46 85.1 352.852C85.452 353.244 85.72 353.728 85.904 354.304C86.088 354.872 86.18 355.524 86.18 356.26V364H84.032V356.26C84.032 355.308 83.824 354.588 83.408 354.1C82.992 353.604 82.392 353.356 81.608 353.356C81.256 353.356 80.92 353.42 80.6 353.548C80.288 353.668 80.012 353.848 79.772 354.088C79.532 354.328 79.34 354.632 79.196 355C79.06 355.36 78.992 355.78 78.992 356.26V364H76.844V356.26C76.844 355.284 76.648 354.556 76.256 354.076C75.864 353.596 75.292 353.356 74.54 353.356C74.012 353.356 73.524 353.5 73.076 353.788C72.628 354.068 72.216 354.452 71.84 354.94V364H69.692ZM96.0144 358.528C95.0304 358.56 94.1904 358.64 93.4944 358.768C92.8064 358.888 92.2424 359.048 91.8024 359.248C91.3704 359.448 91.0544 359.684 90.8544 359.956C90.6624 360.228 90.5664 360.532 90.5664 360.868C90.5664 361.188 90.6184 361.464 90.7224 361.696C90.8264 361.928 90.9664 362.12 91.1424 362.272C91.3264 362.416 91.5384 362.524 91.7784 362.596C92.0264 362.66 92.2904 362.692 92.5704 362.692C92.9464 362.692 93.2904 362.656 93.6024 362.584C93.9144 362.504 94.2064 362.392 94.4784 362.248C94.7584 362.104 95.0224 361.932 95.2704 361.732C95.5264 361.532 95.7744 361.304 96.0144 361.048V358.528ZM89.1144 353.56C89.7864 352.912 90.5104 352.428 91.2864 352.108C92.0624 351.788 92.9224 351.628 93.8664 351.628C94.5464 351.628 95.1504 351.74 95.6784 351.964C96.2064 352.188 96.6504 352.5 97.0104 352.9C97.3704 353.3 97.6424 353.784 97.8264 354.352C98.0104 354.92 98.1024 355.544 98.1024 356.224V364H97.1544C96.9464 364 96.7864 363.968 96.6744 363.904C96.5624 363.832 96.4744 363.696 96.4104 363.496L96.1704 362.344C95.8504 362.64 95.5384 362.904 95.2344 363.136C94.9304 363.36 94.6104 363.552 94.2744 363.712C93.9384 363.864 93.5784 363.98 93.1944 364.06C92.8184 364.148 92.3984 364.192 91.9344 364.192C91.4624 364.192 91.0184 364.128 90.6024 364C90.1864 363.864 89.8224 363.664 89.5104 363.4C89.2064 363.136 88.9624 362.804 88.7784 362.404C88.6024 361.996 88.5144 361.516 88.5144 360.964C88.5144 360.484 88.6464 360.024 88.9104 359.584C89.1744 359.136 89.6024 358.74 90.1944 358.396C90.7864 358.052 91.5584 357.772 92.5104 357.556C93.4624 357.332 94.6304 357.204 96.0144 357.172V356.224C96.0144 355.28 95.8104 354.568 95.4024 354.088C94.9944 353.6 94.3984 353.356 93.6144 353.356C93.0864 353.356 92.6424 353.424 92.2824 353.56C91.9304 353.688 91.6224 353.836 91.3584 354.004C91.1024 354.164 90.8784 354.312 90.6864 354.448C90.5024 354.576 90.3184 354.64 90.1344 354.64C89.9904 354.64 89.8664 354.604 89.7624 354.532C89.6584 354.452 89.5704 354.356 89.4984 354.244L89.1144 353.56ZM103.384 354.28C103.768 353.448 104.24 352.8 104.8 352.336C105.36 351.864 106.044 351.628 106.852 351.628C107.108 351.628 107.352 351.656 107.584 351.712C107.824 351.768 108.036 351.856 108.22 351.976L108.064 353.572C108.016 353.772 107.896 353.872 107.704 353.872C107.592 353.872 107.428 353.848 107.212 353.8C106.996 353.752 106.752 353.728 106.48 353.728C106.096 353.728 105.752 353.784 105.448 353.896C105.152 354.008 104.884 354.176 104.644 354.4C104.412 354.616 104.2 354.888 104.008 355.216C103.824 355.536 103.656 355.904 103.504 356.32V364H101.356V351.844H102.58C102.812 351.844 102.972 351.888 103.06 351.976C103.148 352.064 103.208 352.216 103.24 352.432L103.384 354.28ZM114.053 358.06C114.485 358.06 114.865 358 115.193 357.88C115.521 357.76 115.797 357.592 116.021 357.376C116.245 357.16 116.413 356.904 116.525 356.608C116.637 356.304 116.693 355.972 116.693 355.612C116.693 354.868 116.465 354.276 116.009 353.836C115.561 353.396 114.909 353.176 114.053 353.176C113.189 353.176 112.529 353.396 112.073 353.836C111.625 354.276 111.401 354.868 111.401 355.612C111.401 355.972 111.457 356.304 111.569 356.608C111.689 356.904 111.861 357.16 112.085 357.376C112.309 357.592 112.585 357.76 112.913 357.88C113.241 358 113.621 358.06 114.053 358.06ZM117.905 364.66C117.905 364.364 117.821 364.124 117.653 363.94C117.485 363.756 117.257 363.612 116.969 363.508C116.689 363.404 116.361 363.332 115.985 363.292C115.609 363.244 115.209 363.208 114.785 363.184C114.369 363.16 113.945 363.136 113.513 363.112C113.081 363.088 112.665 363.048 112.265 362.992C111.817 363.2 111.449 363.464 111.161 363.784C110.881 364.096 110.741 364.464 110.741 364.888C110.741 365.16 110.809 365.412 110.945 365.644C111.089 365.884 111.305 366.088 111.593 366.256C111.881 366.432 112.241 366.568 112.673 366.664C113.113 366.768 113.629 366.82 114.221 366.82C114.797 366.82 115.313 366.768 115.769 366.664C116.225 366.56 116.609 366.412 116.921 366.22C117.241 366.028 117.485 365.8 117.653 365.536C117.821 365.272 117.905 364.98 117.905 364.66ZM120.077 352.324V353.116C120.077 353.38 119.909 353.548 119.573 353.62L118.193 353.8C118.465 354.328 118.601 354.912 118.601 355.552C118.601 356.144 118.485 356.684 118.253 357.172C118.029 357.652 117.717 358.064 117.317 358.408C116.917 358.752 116.437 359.016 115.877 359.2C115.317 359.384 114.709 359.476 114.053 359.476C113.485 359.476 112.949 359.408 112.445 359.272C112.189 359.432 111.993 359.604 111.857 359.788C111.721 359.964 111.653 360.144 111.653 360.328C111.653 360.616 111.769 360.836 112.001 360.988C112.241 361.132 112.553 361.236 112.937 361.3C113.321 361.364 113.757 361.404 114.245 361.42C114.741 361.436 115.245 361.464 115.757 361.504C116.277 361.536 116.781 361.596 117.269 361.684C117.765 361.772 118.205 361.916 118.589 362.116C118.973 362.316 119.281 362.592 119.513 362.944C119.753 363.296 119.873 363.752 119.873 364.312C119.873 364.832 119.741 365.336 119.477 365.824C119.221 366.312 118.849 366.744 118.361 367.12C117.873 367.504 117.273 367.808 116.561 368.032C115.857 368.264 115.061 368.38 114.173 368.38C113.285 368.38 112.509 368.292 111.845 368.116C111.181 367.94 110.629 367.704 110.189 367.408C109.749 367.112 109.417 366.768 109.193 366.376C108.977 365.992 108.869 365.588 108.869 365.164C108.869 364.564 109.057 364.056 109.433 363.64C109.809 363.224 110.325 362.892 110.981 362.644C110.621 362.484 110.333 362.272 110.117 362.008C109.909 361.736 109.805 361.372 109.805 360.916C109.805 360.74 109.837 360.56 109.901 360.376C109.965 360.184 110.061 359.996 110.189 359.812C110.325 359.62 110.489 359.44 110.681 359.272C110.873 359.104 111.097 358.956 111.353 358.828C110.753 358.492 110.285 358.048 109.949 357.496C109.613 356.936 109.445 356.288 109.445 355.552C109.445 354.96 109.557 354.424 109.781 353.944C110.013 353.456 110.333 353.044 110.741 352.708C111.149 352.364 111.633 352.1 112.193 351.916C112.761 351.732 113.381 351.64 114.053 351.64C114.581 351.64 115.073 351.7 115.529 351.82C115.985 351.932 116.401 352.1 116.777 352.324H120.077ZM124.542 351.844V364H122.406V351.844H124.542ZM124.998 348.028C124.998 348.236 124.954 348.432 124.866 348.616C124.786 348.792 124.674 348.952 124.53 349.096C124.394 349.232 124.23 349.34 124.038 349.42C123.854 349.5 123.658 349.54 123.45 349.54C123.242 349.54 123.046 349.5 122.862 349.42C122.686 349.34 122.53 349.232 122.394 349.096C122.258 348.952 122.15 348.792 122.07 348.616C121.99 348.432 121.95 348.236 121.95 348.028C121.95 347.82 121.99 347.624 122.07 347.44C122.15 347.248 122.258 347.084 122.394 346.948C122.53 346.804 122.686 346.692 122.862 346.612C123.046 346.532 123.242 346.492 123.45 346.492C123.658 346.492 123.854 346.532 124.038 346.612C124.23 346.692 124.394 346.804 124.53 346.948C124.674 347.084 124.786 347.248 124.866 347.44C124.954 347.624 124.998 347.82 124.998 348.028ZM130.067 353.608C130.331 353.312 130.611 353.044 130.907 352.804C131.203 352.564 131.515 352.36 131.843 352.192C132.179 352.016 132.531 351.884 132.899 351.796C133.275 351.7 133.679 351.652 134.111 351.652C134.775 351.652 135.359 351.764 135.863 351.988C136.375 352.204 136.799 352.516 137.135 352.924C137.479 353.324 137.739 353.808 137.915 354.376C138.091 354.944 138.179 355.572 138.179 356.26V364H136.031V356.26C136.031 355.34 135.819 354.628 135.395 354.124C134.979 353.612 134.343 353.356 133.487 353.356C132.855 353.356 132.263 353.508 131.711 353.812C131.167 354.116 130.663 354.528 130.199 355.048V364H128.051V351.844H129.335C129.639 351.844 129.827 351.992 129.899 352.288L130.067 353.608ZM148.514 353.848C148.418 354.024 148.27 354.112 148.07 354.112C147.95 354.112 147.814 354.068 147.662 353.98C147.51 353.892 147.322 353.796 147.098 353.692C146.882 353.58 146.622 353.48 146.318 353.392C146.014 353.296 145.654 353.248 145.238 353.248C144.878 353.248 144.554 353.296 144.266 353.392C143.978 353.48 143.73 353.604 143.522 353.764C143.322 353.924 143.166 354.112 143.054 354.328C142.95 354.536 142.898 354.764 142.898 355.012C142.898 355.324 142.986 355.584 143.162 355.792C143.346 356 143.586 356.18 143.882 356.332C144.178 356.484 144.514 356.62 144.89 356.74C145.266 356.852 145.65 356.976 146.042 357.112C146.442 357.24 146.83 357.384 147.206 357.544C147.582 357.704 147.918 357.904 148.214 358.144C148.51 358.384 148.746 358.68 148.922 359.032C149.106 359.376 149.198 359.792 149.198 360.28C149.198 360.84 149.098 361.36 148.898 361.84C148.698 362.312 148.402 362.724 148.01 363.076C147.618 363.42 147.138 363.692 146.57 363.892C146.002 364.092 145.346 364.192 144.602 364.192C143.754 364.192 142.986 364.056 142.298 363.784C141.61 363.504 141.026 363.148 140.546 362.716L141.05 361.9C141.114 361.796 141.19 361.716 141.278 361.66C141.366 361.604 141.478 361.576 141.614 361.576C141.758 361.576 141.91 361.632 142.07 361.744C142.23 361.856 142.422 361.98 142.646 362.116C142.878 362.252 143.158 362.376 143.486 362.488C143.814 362.6 144.222 362.656 144.71 362.656C145.126 362.656 145.49 362.604 145.802 362.5C146.114 362.388 146.374 362.24 146.582 362.056C146.79 361.872 146.942 361.66 147.038 361.42C147.142 361.18 147.194 360.924 147.194 360.652C147.194 360.316 147.102 360.04 146.918 359.824C146.742 359.6 146.506 359.412 146.21 359.26C145.914 359.1 145.574 358.964 145.19 358.852C144.814 358.732 144.426 358.608 144.026 358.48C143.634 358.352 143.246 358.208 142.862 358.048C142.486 357.88 142.15 357.672 141.854 357.424C141.558 357.176 141.318 356.872 141.134 356.512C140.958 356.144 140.87 355.7 140.87 355.18C140.87 354.716 140.966 354.272 141.158 353.848C141.35 353.416 141.63 353.04 141.998 352.72C142.366 352.392 142.818 352.132 143.354 351.94C143.89 351.748 144.502 351.652 145.19 351.652C145.99 351.652 146.706 351.78 147.338 352.036C147.978 352.284 148.53 352.628 148.994 353.068L148.514 353.848ZM158.066 357.112H168.386V358.732H158.066V357.112ZM158.066 353.092H168.386V354.712H158.066V353.092ZM188.544 362.368V364H179.328V362.368H183.012V350.644C183.012 350.292 183.024 349.936 183.048 349.576L179.988 352.204C179.884 352.292 179.78 352.348 179.676 352.372C179.572 352.388 179.476 352.388 179.388 352.372C179.3 352.356 179.216 352.324 179.136 352.276C179.064 352.228 179.008 352.176 178.968 352.12L178.296 351.196L183.42 346.768H185.16V362.368H188.544ZM194.594 353.296C195.49 353.104 196.314 353.008 197.066 353.008C197.962 353.008 198.754 353.14 199.442 353.404C200.13 353.668 200.702 354.032 201.158 354.496C201.622 354.96 201.97 355.508 202.202 356.14C202.442 356.772 202.562 357.46 202.562 358.204C202.562 359.116 202.402 359.94 202.082 360.676C201.77 361.412 201.334 362.044 200.774 362.572C200.222 363.092 199.57 363.492 198.818 363.772C198.066 364.052 197.254 364.192 196.382 364.192C195.878 364.192 195.394 364.14 194.93 364.036C194.466 363.94 194.03 363.808 193.622 363.64C193.222 363.472 192.85 363.28 192.506 363.064C192.162 362.848 191.858 362.62 191.594 362.38L192.254 361.468C192.398 361.26 192.586 361.156 192.818 361.156C192.978 361.156 193.158 361.22 193.358 361.348C193.558 361.468 193.802 361.604 194.09 361.756C194.378 361.908 194.714 362.048 195.098 362.176C195.49 362.296 195.954 362.356 196.49 362.356C197.09 362.356 197.63 362.26 198.11 362.068C198.59 361.876 199.002 361.604 199.346 361.252C199.69 360.892 199.954 360.464 200.138 359.968C200.322 359.472 200.414 358.916 200.414 358.3C200.414 357.764 200.334 357.28 200.174 356.848C200.022 356.416 199.786 356.048 199.466 355.744C199.154 355.44 198.762 355.204 198.29 355.036C197.818 354.868 197.266 354.784 196.634 354.784C196.202 354.784 195.75 354.82 195.278 354.892C194.814 354.964 194.338 355.08 193.85 355.24L192.506 354.844L193.886 346.804H202.034V347.74C202.034 348.044 201.938 348.296 201.746 348.496C201.562 348.688 201.242 348.784 200.786 348.784H195.386L194.594 353.296ZM208.012 361.072C208.404 361.6 208.832 361.972 209.296 362.188C209.76 362.404 210.28 362.512 210.856 362.512C211.992 362.512 212.864 362.108 213.472 361.3C214.08 360.492 214.384 359.34 214.384 357.844C214.384 357.052 214.312 356.372 214.168 355.804C214.032 355.236 213.832 354.772 213.568 354.412C213.304 354.044 212.98 353.776 212.596 353.608C212.212 353.44 211.776 353.356 211.288 353.356C210.592 353.356 209.98 353.516 209.452 353.836C208.932 354.156 208.452 354.608 208.012 355.192V361.072ZM207.904 353.728C208.416 353.096 209.008 352.588 209.68 352.204C210.352 351.82 211.12 351.628 211.984 351.628C212.688 351.628 213.324 351.764 213.892 352.036C214.46 352.3 214.944 352.696 215.344 353.224C215.744 353.744 216.052 354.392 216.268 355.168C216.484 355.944 216.592 356.836 216.592 357.844C216.592 358.74 216.472 359.576 216.232 360.352C215.992 361.12 215.644 361.788 215.188 362.356C214.74 362.916 214.188 363.36 213.532 363.688C212.884 364.008 212.152 364.168 211.336 364.168C210.592 364.168 209.952 364.044 209.416 363.796C208.888 363.54 208.42 363.188 208.012 362.74V368.116H205.864V351.844H207.148C207.452 351.844 207.64 351.992 207.712 352.288L207.904 353.728ZM228.832 364H226.78C226.604 364 226.464 363.956 226.36 363.868C226.264 363.772 226.184 363.668 226.12 363.556L223.06 358.792C223.028 358.904 222.992 359.016 222.952 359.128C222.92 359.232 222.872 359.328 222.808 359.416L219.976 363.556C219.896 363.668 219.808 363.772 219.712 363.868C219.624 363.956 219.5 364 219.34 364H217.432L221.692 357.76L217.6 351.844H219.652C219.828 351.844 219.956 351.872 220.036 351.928C220.116 351.984 220.188 352.064 220.252 352.168L223.24 356.728C223.304 356.496 223.404 356.272 223.54 356.056L226.156 352.216C226.228 352.104 226.304 352.016 226.384 351.952C226.472 351.88 226.576 351.844 226.696 351.844H228.664L224.572 357.652L228.832 364Z" fill="black"/>
</g>
<defs>
<clipPath id="clip0_119_185">
<rect width="390" height="844" fill="white"/>
</clipPath>
</defs>
</svg>
