<svg width="382" height="97" viewBox="0 0 382 97" fill="none" xmlns="http://www.w3.org/2000/svg">
<rect width="382" height="97" rx="5" fill="#F7EAC9"/>
<path d="M310.333 36H291.667C290.2 36 289 37.2 289 38.6667V57.3333C289 58.8 290.2 60 291.667 60H310.333C311.8 60 313 58.8 313 57.3333V38.6667C313 37.2 311.8 36 310.333 36ZM301 40C303.573 40 305.667 42.0933 305.667 44.6667C305.667 47.24 303.573 49.3333 301 49.3333C298.427 49.3333 296.333 47.24 296.333 44.6667C296.333 42.0933 298.427 40 301 40ZM310.333 57.3333H291.667V57.0267C291.667 56.2 292.04 55.4267 292.68 54.92C294.96 53.0933 297.853 52 301 52C304.147 52 307.04 53.0933 309.32 54.92C309.96 55.4267 310.333 56.2133 310.333 57.0267V57.3333Z" fill="#34312D"/>
<path d="M235 40C235 42.5733 232.907 44.6667 230.333 44.6667C227.76 44.6667 225.667 42.5733 225.667 40C225.667 37.4267 227.76 35.3333 230.333 35.3333C232.907 35.3333 235 37.4267 235 40ZM232.333 47.0533C231.667 47.2267 231 47.3333 230.333 47.3333C228.389 47.3298 226.526 46.5561 225.152 45.1816C223.777 43.8071 223.004 41.9438 223 40C223 38.04 223.773 36.2667 225 34.9467C224.758 34.6501 224.453 34.4112 224.107 34.2474C223.761 34.0836 223.383 33.9991 223 34C221.533 34 220.333 35.2 220.333 36.6667V37.0533C216.373 38.2267 213.667 41.8667 213.667 46V54L211 56.6667V58H235V56.6667L232.333 54V47.0533ZM223 62C224.48 62 225.667 60.8133 225.667 59.3333H220.333C220.333 60.0406 220.614 60.7189 221.114 61.219C221.614 61.7191 222.293 62 223 62Z" fill="#34312D"/>
<path d="M140.92 57.6C141.48 57.6 141.954 57.4064 142.341 57.0192C142.728 56.632 142.921 56.1589 142.92 55.6C142.92 55.04 142.727 54.5664 142.341 54.1792C141.955 53.792 141.481 53.5989 140.92 53.6C140.36 53.6 139.887 53.7936 139.501 54.1808C139.115 54.568 138.921 55.0411 138.92 55.6C138.92 56.16 139.114 56.6336 139.501 57.0208C139.888 57.408 140.361 57.6011 140.92 57.6ZM139.48 51.44H142.44C142.44 50.56 142.54 49.8667 142.741 49.36C142.941 48.8533 143.508 48.16 144.44 47.28C145.133 46.5867 145.68 45.9264 146.08 45.2992C146.48 44.672 146.68 43.9189 146.68 43.04C146.68 41.5467 146.133 40.4 145.04 39.6C143.947 38.8 142.653 38.4 141.16 38.4C139.64 38.4 138.406 38.8 137.459 39.6C136.512 40.4 135.852 41.36 135.48 42.48L138.12 43.52C138.253 43.04 138.554 42.52 139.021 41.96C139.488 41.4 140.201 41.12 141.16 41.12C142.013 41.12 142.653 41.3536 143.08 41.8208C143.507 42.288 143.72 42.8011 143.72 43.36C143.72 43.8933 143.56 44.3936 143.24 44.8608C142.92 45.328 142.52 45.7611 142.04 46.16C140.867 47.2 140.147 47.9867 139.88 48.52C139.613 49.0533 139.48 50.0267 139.48 51.44ZM141 64C138.787 64 136.707 63.5797 134.76 62.7392C132.813 61.8987 131.12 60.7589 129.68 59.32C128.24 57.88 127.1 56.1867 126.261 54.24C125.421 52.2933 125.001 50.2133 125 48C125 45.7867 125.42 43.7067 126.261 41.76C127.101 39.8133 128.241 38.12 129.68 36.68C131.12 35.24 132.813 34.1003 134.76 33.2608C136.707 32.4213 138.787 32.0011 141 32C143.213 32 145.293 32.4203 147.24 33.2608C149.187 34.1013 150.88 35.2411 152.32 36.68C153.76 38.12 154.9 39.8133 155.741 41.76C156.581 43.7067 157.001 45.7867 157 48C157 50.2133 156.58 52.2933 155.739 54.24C154.899 56.1867 153.759 57.88 152.32 59.32C150.88 60.76 149.187 61.9003 147.24 62.7408C145.293 63.5813 143.213 64.0011 141 64Z" fill="#34312D"/>
<path d="M57.5 61.5C53.75 61.5 50.5625 60.2604 47.9375 57.7812C45.3125 55.3021 44 52.2917 44 48.75C44 45.2083 45.3125 42.1979 47.9375 39.7187C50.5625 37.2396 53.75 36 57.5 36C57.85 36 58.194 36.0118 58.532 36.0354C58.87 36.059 59.201 36.0944 59.525 36.1417C58.5 36.8264 57.681 37.7179 57.068 38.8163C56.455 39.9147 56.149 41.1009 56.15 42.375C56.15 44.5 56.9375 46.3062 58.5125 47.7937C60.0875 49.2812 62 50.025 64.25 50.025C65.625 50.025 66.8875 49.7355 68.0375 49.1566C69.1875 48.5776 70.125 47.8046 70.85 46.8375C70.9 47.1444 70.9375 47.4571 70.9625 47.7753C70.9875 48.0936 71 48.4185 71 48.75C71 52.2917 69.6875 55.3021 67.0625 57.7812C64.4375 60.2604 61.25 61.5 57.5 61.5Z" fill="#34312D"/>
</svg>
