<?xml version="1.0" encoding="UTF-8"?>
<svg id="Layer_2" data-name="Layer 2" xmlns="http://www.w3.org/2000/svg" viewBox="0 0 218.82 219.82">
  <defs>
    <style>
      .cls-1 {
        fill: none;
      }

      .cls-2 {
        stroke: #070707;
        stroke-miterlimit: 10;
      }

      .cls-3 {
        fill: #4758ba;
      }

      .cls-4 {
        fill: #50754b;
      }
    </style>
  </defs>
  <g id="Logos">
    <g>
      <g id="Variation_4_with_house" data-name="Variation 4 with house">
        <g>
          <path class="cls-1" d="M87.93,112.63c7.08,0,13.05,7.84,19.02,17.44,10.53-8.87,19.86-21.39,30.77-22.45,14.44-1.41,15.02,14.84,29.7,14.87,.24-2.12,.38-4.27,.38-6.45,0-31.37-25.52-56.89-56.89-56.89s-56.89,25.52-56.89,56.89c0,4.94,.64,9.74,1.83,14.31,7.97-2.02,18.39-17.71,32.09-17.71Z"/>
          <path class="cls-3" d="M137.72,107.61c-10.91,1.06-20.23,13.58-30.77,22.45,9.55,15.36,19.08,35.23,33.11,34.78,14.85-8.9,25.31-24.37,27.35-42.37-14.67-.03-15.25-16.28-29.7-14.87Z"/>
          <path class="cls-4" d="M106.95,130.07c-5.97-9.6-11.94-17.44-19.02-17.44-13.69,0-24.11,15.7-32.09,17.71,6.36,24.46,28.64,42.58,55.06,42.58,10.65,0,20.63-2.95,29.16-8.07-14.03,.45-23.56-19.42-33.11-34.78Z"/>
          <path d="M110.9,53.52c-34.52,0-62.5,27.98-62.5,62.5s27.98,62.5,62.5,62.5,62.5-27.98,62.5-62.5-27.98-62.5-62.5-62.5Zm0,5.61c31.37,0,56.89,25.52,56.89,56.89,0,2.18-.14,4.33-.38,6.45-2.04,18-12.51,33.47-27.35,42.37-8.53,5.12-18.51,8.07-29.16,8.07-26.43,0-48.7-18.11-55.06-42.58-1.19-4.58-1.83-9.37-1.83-14.31,0-31.37,25.52-56.89,56.89-56.89Z"/>
        </g>
        <circle class="cls-4" cx="87.74" cy="95.89" r="9.49"/>
        <circle class="cls-3" cx="138.62" cy="91.59" r="9.49"/>
        <path d="M216.65,71.02l-52.01-35.69V7.28c0-2.76-2.24-5-5-5s-5,2.24-5,5V28.47L114.41,.86c-.93-.64-2-.9-3.05-.85-1.05-.05-2.12,.21-3.06,.84L2.19,73.16c-2.28,1.55-2.87,4.67-1.32,6.95,.97,1.42,2.54,2.18,4.14,2.18,.97,0,1.95-.28,2.81-.87l14.29-9.74v26.64c0,1.93,1.57,3.5,3.5,3.5s3.5-1.57,3.5-3.5v-31.41L111.34,10.88l87.35,59.94v27.5c0,1.93,1.57,3.5,3.5,3.5s3.5-1.57,3.5-3.5v-22.7l5.3,3.64c.86,.59,1.85,.88,2.82,.88,1.59,0,3.16-.76,4.13-2.17,1.56-2.28,.98-5.39-1.29-6.95Z"/>
      </g>
      <g>
        <path class="cls-2" d="M47.26,210.4c0,2.47-.83,4.44-2.48,5.93-1.65,1.49-3.85,2.23-6.58,2.23-.89,0-2.16-.04-3.8-.12-1.56-.08-2.75-.12-3.56-.12s-1.91,.04-3.28,.12c-1.43,.08-2.59,.12-3.48,.12-.21,0-.32-.19-.32-.56,0-.33,.11-.51,.32-.54,1.61-.19,2.71-.49,3.29-.9s.87-1.24,.87-2.48v-18.83c0-.93-.12-1.59-.35-1.97-.23-.38-.64-.68-1.23-.9-.59-.22-1.45-.4-2.58-.53-.21,0-.32-.18-.32-.55s.11-.55,.32-.55c.89,0,1.99,.04,3.28,.12,1.24,.08,2.26,.12,3.08,.12s1.88-.04,3.2-.12c1.4-.08,2.54-.12,3.44-.12,2.49,0,4.5,.59,6.03,1.78,1.53,1.19,2.3,2.75,2.3,4.7,0,1.36-.57,2.63-1.7,3.81s-2.53,1.96-4.2,2.33c2.36,.47,4.24,1.33,5.65,2.58s2.11,2.74,2.11,4.46Zm-6.28-13.19c0-1.76-.43-3.06-1.3-3.89s-2.21-1.24-4.04-1.24h-.8c-1.68,0-2.52,.72-2.52,2.16v8.72h2.88c2.03,0,3.5-.45,4.41-1.35,.91-.9,1.37-2.37,1.37-4.4Zm1.88,13.2c0-1.92-.55-3.43-1.64-4.53-1.09-1.09-2.61-1.64-4.54-1.64h-4.36v9.86c0,1.21,.35,2.05,1.04,2.49,.69,.45,1.88,.67,3.56,.67s3.17-.63,4.28-1.89c1.11-1.26,1.66-2.91,1.66-4.96Z"/>
        <path class="cls-2" d="M69.64,210.04c0,2.65-.86,4.84-2.59,6.55-1.73,1.71-3.97,2.57-6.72,2.57s-4.99-.86-6.73-2.58c-1.74-1.72-2.6-3.9-2.6-6.54s.87-4.91,2.62-6.69c1.75-1.78,3.98-2.67,6.71-2.67s4.97,.89,6.71,2.66c1.74,1.77,2.6,4.01,2.6,6.7Zm-4.04-.04c0-2.44-.47-4.39-1.41-5.85s-2.23-2.19-3.87-2.19-2.91,.73-3.86,2.2-1.42,3.41-1.42,5.84,.47,4.33,1.4,5.75,2.23,2.13,3.88,2.13,2.95-.7,3.88-2.11c.93-1.41,1.4-3.33,1.4-5.77Z"/>
        <path class="cls-2" d="M85.92,202.68c0,.53-.16,.99-.49,1.36-.33,.37-.72,.56-1.19,.56-.59,0-1.17-.19-1.74-.58-.45-.31-.85-.46-1.18-.46-.87,0-1.76,.51-2.68,1.52v9c0,1.16,.2,1.97,.6,2.43,.4,.46,1.25,.78,2.56,.95,.21,.03,.32,.21,.32,.54,0,.37-.11,.56-.32,.56-.55,0-1.32-.04-2.32-.12-1.1-.08-1.98-.12-2.63-.12s-1.47,.04-2.41,.12c-.85,.08-1.55,.12-2.1,.12-.21,0-.32-.19-.32-.56,0-.33,.11-.51,.32-.54,1.16-.15,1.9-.42,2.23-.82s.49-1.25,.49-2.56v-7.39c0-1.07-.14-1.76-.41-2.1s-.88-.55-1.83-.66c-.21,0-.32-.18-.32-.53,0-.33,.11-.49,.32-.49,1.32-.33,2.41-.7,3.26-1.11,.86-.41,1.42-.76,1.68-1.05,.16-.16,.32-.24,.48-.24,.37,0,.56,.11,.56,.32l-.16,2.52c1.07-.99,1.98-1.68,2.75-2.08,.77-.4,1.53-.6,2.29-.6,.61,0,1.14,.2,1.58,.6,.44,.4,.66,.87,.66,1.4Z"/>
        <path class="cls-2" d="M107.36,217.23c0,.29-.11,.44-.32,.47-.76,.09-1.64,.28-2.65,.56-1,.28-1.79,.56-2.35,.84-.3,.15-.51,.22-.64,.22-.21,0-.32-.11-.32-.32l.16-2.16c-1.41,1.55-3.21,2.32-5.4,2.32-2.31,0-4.27-.89-5.89-2.66-1.62-1.77-2.43-3.9-2.43-6.38,0-2.81,.9-5.09,2.69-6.83,1.79-1.74,4.04-2.61,6.75-2.61,1.55,0,2.97,.48,4.28,1.44v-6.65c0-1.08-.13-1.78-.4-2.12-.27-.33-.88-.55-1.84-.66-.21-.03-.32-.2-.32-.51,0-.35,.11-.53,.32-.53,1.26-.29,2.35-.65,3.27-1.06s1.54-.78,1.87-1.1c.13-.13,.27-.2,.42-.2,.37,0,.56,.11,.56,.32-.21,2.9-.32,5.22-.32,6.96v17.61c0,.92,.13,1.54,.4,1.85,.27,.31,.88,.54,1.84,.67,.21,0,.32,.18,.32,.53Zm-6.12-2.13v-10.26c0-.69-.4-1.35-1.21-1.96-.81-.61-1.68-.92-2.63-.92-3.89,0-5.84,2.74-5.84,8.21,0,2.16,.47,3.96,1.4,5.39,.93,1.43,2.16,2.14,3.68,2.14,.87,0,1.65-.2,2.36-.59,.71-.39,1.45-1.07,2.24-2.01Z"/>
        <path class="cls-2" d="M124.84,207.2c0,.37-.24,.56-.72,.56h-10.96c-.08,.72-.12,1.47-.12,2.24,0,2.15,.51,3.8,1.53,4.95s2.47,1.73,4.35,1.73c.95,0,1.9-.25,2.86-.76,.96-.51,1.73-1.15,2.32-1.94l.1-.04c.12,0,.24,.07,.35,.22,.11,.15,.17,.32,.17,.52,0,.28-.43,.86-1.28,1.75s-1.78,1.56-2.78,2.03c-1,.47-2.05,.7-3.14,.7-2.4,0-4.42-.88-6.06-2.64-1.64-1.76-2.46-3.92-2.46-6.48s.8-4.83,2.41-6.64c1.61-1.81,3.64-2.72,6.11-2.72,2.07,0,3.8,.68,5.21,2.03,1.41,1.35,2.11,2.85,2.11,4.49Zm-3.64-1.76c0-1-.34-1.83-1.03-2.49s-1.57-.99-2.65-.99-1.92,.43-2.67,1.29c-.75,.86-1.26,1.99-1.53,3.39l5.56-.16c.84-.01,1.44-.09,1.79-.24,.35-.15,.53-.41,.53-.8Z"/>
        <path class="cls-2" d="M141.19,202.68c0,.53-.16,.99-.49,1.36-.33,.37-.72,.56-1.19,.56-.59,0-1.17-.19-1.74-.58-.45-.31-.85-.46-1.18-.46-.87,0-1.76,.51-2.68,1.52v9c0,1.16,.2,1.97,.6,2.43,.4,.46,1.25,.78,2.56,.95,.21,.03,.32,.21,.32,.54,0,.37-.11,.56-.32,.56-.55,0-1.32-.04-2.32-.12-1.1-.08-1.98-.12-2.63-.12s-1.47,.04-2.41,.12c-.85,.08-1.55,.12-2.1,.12-.21,0-.32-.19-.32-.56,0-.33,.11-.51,.32-.54,1.16-.15,1.9-.42,2.23-.82s.49-1.25,.49-2.56v-7.39c0-1.07-.14-1.76-.41-2.1s-.88-.55-1.83-.66c-.21,0-.32-.18-.32-.53,0-.33,.11-.49,.32-.49,1.32-.33,2.41-.7,3.26-1.11,.86-.41,1.42-.76,1.68-1.05,.16-.16,.32-.24,.48-.24,.37,0,.56,.11,.56,.32l-.16,2.52c1.07-.99,1.98-1.68,2.75-2.08,.77-.4,1.53-.6,2.29-.6,.61,0,1.14,.2,1.58,.6,.44,.4,.66,.87,.66,1.4Z"/>
        <path class="cls-2" d="M166.78,211.2c-.63,2.35-1.12,4.8-1.48,7.36-5.11-.16-8.74-.24-10.9-.24s-5.72,.08-10.76,.24c-.21,0-.32-.19-.32-.56,0-.33,.11-.51,.32-.54,1.61-.19,2.71-.49,3.29-.9s.87-1.24,.87-2.48v-18.83c0-.93-.12-1.59-.35-1.97-.23-.38-.64-.68-1.23-.9-.59-.22-1.45-.4-2.58-.53-.21,0-.32-.18-.32-.55s.11-.55,.32-.55c.89,0,1.96,.04,3.2,.12,1.19,.08,2.19,.12,3,.12s1.81-.04,2.98-.12c1.23-.08,2.29-.12,3.18-.12,.21,0,.32,.18,.32,.55s-.11,.55-.32,.55c-1.12,.13-1.97,.31-2.56,.53-.59,.22-.99,.52-1.22,.89-.23,.37-.34,1.03-.34,1.98v19.44c0,1.57,.77,2.36,2.32,2.36h3.96c1.64,0,3.03-.44,4.16-1.31,1.13-.87,2.25-2.5,3.36-4.89,.05-.11,.18-.16,.38-.16,.17,0,.34,.05,.49,.16,.15,.11,.23,.23,.23,.36Z"/>
        <path class="cls-2" d="M184.16,207.2c0,.37-.24,.56-.72,.56h-10.96c-.08,.72-.12,1.47-.12,2.24,0,2.15,.51,3.8,1.53,4.95s2.47,1.73,4.35,1.73c.95,0,1.9-.25,2.86-.76,.96-.51,1.73-1.15,2.32-1.94l.1-.04c.12,0,.24,.07,.35,.22,.11,.15,.17,.32,.17,.52,0,.28-.43,.86-1.28,1.75s-1.78,1.56-2.78,2.03c-1,.47-2.05,.7-3.14,.7-2.4,0-4.42-.88-6.06-2.64-1.64-1.76-2.46-3.92-2.46-6.48s.8-4.83,2.41-6.64c1.61-1.81,3.64-2.72,6.11-2.72,2.07,0,3.8,.68,5.21,2.03,1.41,1.35,2.11,2.85,2.11,4.49Zm-3.64-1.76c0-1-.34-1.83-1.03-2.49s-1.57-.99-2.65-.99-1.92,.43-2.67,1.29c-.75,.86-1.26,1.99-1.53,3.39l5.56-.16c.84-.01,1.44-.09,1.79-.24,.35-.15,.53-.41,.53-.8Z"/>
        <path class="cls-2" d="M199.63,213.4c0,1.63-.64,2.99-1.92,4.1s-2.82,1.66-4.63,1.66c-.64,0-1.62-.14-2.96-.42-1-.2-1.68-.3-2.04-.3-.11-.93-.35-2.35-.74-4.26,0-.2,.19-.3,.58-.3,.32,0,.51,.11,.58,.32,.31,.99,.91,1.85,1.82,2.58,.91,.73,1.84,1.1,2.8,1.1s1.78-.27,2.33-.82c.55-.55,.83-1.31,.83-2.3,0-.63-.23-1.18-.69-1.66-.46-.48-1.46-1.07-2.99-1.78-2.01-.92-3.34-1.79-3.99-2.6-.65-.81-.97-1.79-.97-2.92,0-1.4,.61-2.6,1.82-3.61s2.65-1.51,4.3-1.51c.69,0,1.67,.12,2.92,.36,.69,.13,1.15,.2,1.36,.2,.04,1.57,.13,2.91,.26,4.02,0,.2-.19,.3-.58,.3-.33,0-.52-.11-.56-.32-.15-.97-.51-1.76-1.1-2.37-.58-.61-1.28-.91-2.09-.91-2.07,0-3.11,.91-3.11,2.72,0,.61,.25,1.18,.74,1.7,.49,.52,1.56,1.19,3.21,2.02,1.96,.99,3.26,1.84,3.88,2.56,.62,.72,.94,1.53,.94,2.44Z"/>
        <path class="cls-2" d="M215.92,213.4c0,1.63-.64,2.99-1.92,4.1s-2.82,1.66-4.63,1.66c-.64,0-1.62-.14-2.96-.42-1-.2-1.68-.3-2.04-.3-.11-.93-.35-2.35-.74-4.26,0-.2,.19-.3,.58-.3,.32,0,.51,.11,.58,.32,.31,.99,.91,1.85,1.82,2.58,.91,.73,1.84,1.1,2.8,1.1s1.78-.27,2.33-.82c.55-.55,.83-1.31,.83-2.3,0-.63-.23-1.18-.69-1.66-.46-.48-1.46-1.07-2.99-1.78-2.01-.92-3.34-1.79-3.99-2.6-.65-.81-.97-1.79-.97-2.92,0-1.4,.61-2.6,1.82-3.61s2.65-1.51,4.3-1.51c.69,0,1.67,.12,2.92,.36,.69,.13,1.15,.2,1.36,.2,.04,1.57,.13,2.91,.26,4.02,0,.2-.19,.3-.58,.3-.33,0-.52-.11-.56-.32-.15-.97-.51-1.76-1.1-2.37-.58-.61-1.28-.91-2.09-.91-2.07,0-3.11,.91-3.11,2.72,0,.61,.25,1.18,.74,1.7,.49,.52,1.56,1.19,3.21,2.02,1.96,.99,3.26,1.84,3.88,2.56,.62,.72,.94,1.53,.94,2.44Z"/>
      </g>
    </g>
  </g>
</svg>