<?xml version="1.0" encoding="UTF-8"?>
<svg id="Layer_2" data-name="Layer 2" xmlns="http://www.w3.org/2000/svg" viewBox="0 0 218.82 205.52">
  <defs>
    <style>
      .cls-1 {
        fill: none;
      }

      .cls-2 {
        fill: #4758ba;
        stroke: #0cbcf2;
      }

      .cls-2, .cls-3 {
        stroke-miterlimit: 10;
      }

      .cls-3 {
        fill: #50754b;
        stroke: #39cc15;
      }
    </style>
  </defs>
  <g id="Logos">
    <g>
      <path class="cls-1" d="M85.97,126.56c8.48,0,15.64,9.39,22.79,20.89,12.62-10.63,23.8-25.63,36.86-26.9,17.3-1.69,18,17.78,35.58,17.81,.29-2.54,.45-5.12,.45-7.73,0-37.58-30.58-68.16-68.16-68.16s-68.16,30.58-68.16,68.16c0,5.92,.76,11.67,2.19,17.15,9.55-2.41,22.04-21.22,38.44-21.22Z"/>
      <path class="cls-2" d="M145.63,120.56c-13.07,1.27-24.24,16.27-36.86,26.9,11.44,18.4,22.86,42.21,39.67,41.67,17.79-10.66,30.33-29.2,32.77-50.76-17.58-.03-18.28-19.5-35.58-17.81Z"/>
      <path class="cls-3" d="M108.76,147.46c-7.15-11.5-14.31-20.89-22.79-20.89-16.41,0-28.89,18.8-38.44,21.22,7.62,29.31,34.31,51.01,65.97,51.01,12.76,0,24.71-3.53,34.94-9.66-16.81,.54-28.23-23.27-39.67-41.67Z"/>
      <path d="M113.5,55.75c-41.36,0-74.88,33.53-74.88,74.88s33.53,74.88,74.88,74.88,74.88-33.53,74.88-74.88S154.86,55.75,113.5,55.75Zm0,6.72c37.58,0,68.16,30.58,68.16,68.16,0,2.62-.16,5.19-.45,7.73-2.45,21.56-14.99,40.1-32.77,50.76-10.22,6.13-22.17,9.66-34.94,9.66-31.66,0-58.35-21.7-65.97-51.01-1.43-5.48-2.19-11.23-2.19-17.15,0-37.58,30.58-68.16,68.16-68.16Z"/>
    </g>
    <circle class="cls-3" cx="85.75" cy="106.51" r="11.37"/>
    <circle class="cls-2" cx="146.71" cy="101.36" r="11.37"/>
    <path d="M216.65,71.02l-52.01-35.69V7.28c0-2.76-2.24-5-5-5s-5,2.24-5,5V28.47L114.41,.86c-.93-.64-2-.9-3.05-.85-1.05-.05-2.12,.21-3.06,.84L2.18,73.16c-2.28,1.55-2.87,4.67-1.32,6.95,.97,1.42,2.54,2.18,4.14,2.18,.97,0,1.95-.28,2.81-.87l14.29-9.74v26.64c0,1.93,1.57,3.5,3.5,3.5s3.5-1.57,3.5-3.5v-31.41L111.34,10.88l87.35,59.95v27.5c0,1.93,1.57,3.5,3.5,3.5s3.5-1.57,3.5-3.5v-22.7l5.3,3.64c.86,.59,1.85,.88,2.82,.88,1.59,0,3.16-.76,4.13-2.17,1.56-2.28,.98-5.39-1.29-6.95Z"/>
  </g>
</svg>