<svg width="390" height="844" viewBox="0 0 390 844" fill="none" xmlns="http://www.w3.org/2000/svg">
<g clip-path="url(#clip0_143_202)">
<rect width="390" height="844" fill="#D9D9D9"/>
<rect x="-2" y="62" width="395" height="365" fill="#EFEFEF"/>
<g clip-path="url(#clip1_143_202)">
<path d="M214.407 195.615C206.928 196.34 200.539 204.905 193.314 210.973C199.86 221.481 206.393 235.073 216.011 234.766C226.19 228.677 233.361 218.094 234.759 205.781C224.703 205.76 224.305 194.644 214.4 195.608L214.407 195.615Z" fill="#4758BA"/>
<path d="M193.313 210.98C189.221 204.413 185.129 199.049 180.275 199.049C170.891 199.049 163.748 209.79 158.278 211.165C162.638 227.897 177.91 240.293 196.021 240.293C203.322 240.293 210.163 238.275 216.01 234.773C206.393 235.08 199.86 221.488 193.313 210.98Z" fill="#50754B"/>
<path d="M196.021 158.613C172.358 158.613 153.178 177.754 153.178 201.368C153.178 224.983 172.358 244.124 196.021 244.124C219.685 244.124 238.865 224.983 238.865 201.368C238.865 177.754 219.685 158.613 196.021 158.613ZM196.021 162.45C217.525 162.45 235.019 179.908 235.019 201.368C235.019 202.86 234.923 204.33 234.759 205.781C233.36 218.094 226.183 228.677 216.01 234.766C210.163 238.268 203.322 240.286 196.021 240.286C177.904 240.286 162.638 227.897 158.278 211.158C157.462 208.025 157.024 204.748 157.024 201.368C157.024 179.908 174.517 162.45 196.021 162.45Z" fill="black"/>
<path d="M180.146 194.09C183.739 194.09 186.651 191.183 186.651 187.598C186.651 184.012 183.739 181.106 180.146 181.106C176.553 181.106 173.64 184.012 173.64 187.598C173.64 191.183 176.553 194.09 180.146 194.09Z" fill="#50754B"/>
<path d="M215.024 191.148C218.616 191.148 221.529 188.241 221.529 184.656C221.529 181.071 218.616 178.164 215.024 178.164C211.431 178.164 208.518 181.071 208.518 184.656C208.518 188.241 211.431 191.148 215.024 191.148Z" fill="#4758BA"/>
<path d="M268.513 170.585L232.861 146.169V126.981C232.861 125.093 231.325 123.56 229.433 123.56C227.541 123.56 226.006 125.093 226.006 126.981V141.477L198.428 122.589C197.791 122.151 197.057 121.973 196.337 122.007C195.618 121.973 194.884 122.151 194.24 122.582L121.502 172.049C119.939 173.109 119.534 175.243 120.597 176.803C121.262 177.774 122.338 178.294 123.435 178.294C124.1 178.294 124.772 178.103 125.361 177.699L135.157 171.036V189.26C135.157 190.581 136.233 191.655 137.556 191.655C138.879 191.655 139.955 190.581 139.955 189.26V167.773L196.324 129.443L256.202 170.448V189.26C256.202 190.581 257.278 191.655 258.601 191.655C259.924 191.655 261 190.581 261 189.26V173.731L264.633 176.222C265.223 176.625 265.901 176.824 266.566 176.824C267.656 176.824 268.732 176.304 269.397 175.339C270.467 173.779 270.069 171.652 268.513 170.585Z" fill="black"/>
</g>
<g clip-path="url(#clip2_143_202)">
<path d="M138.344 273.585C138.344 275.522 137.701 277.078 136.409 278.248C135.117 279.419 133.404 280.004 131.271 280.004C130.573 280.004 129.583 279.973 128.304 279.911C127.086 279.848 126.158 279.817 125.528 279.817C124.897 279.817 124.038 279.848 122.968 279.911C121.855 279.973 120.946 280.004 120.254 280.004C120.087 280.004 120.006 279.855 120.006 279.562C120.006 279.301 120.087 279.157 120.254 279.139C121.515 278.989 122.368 278.759 122.82 278.429C123.271 278.099 123.5 277.452 123.5 276.48V261.669C123.5 260.935 123.407 260.418 123.228 260.119C123.048 259.82 122.727 259.584 122.269 259.409C121.812 259.235 121.138 259.098 120.254 258.992C120.087 258.992 120.006 258.849 120.006 258.563C120.006 258.276 120.087 258.133 120.254 258.133C120.952 258.133 121.806 258.164 122.813 258.226C123.778 258.289 124.582 258.32 125.218 258.32C125.855 258.32 126.684 258.289 127.716 258.226C128.811 258.164 129.701 258.133 130.4 258.133C132.341 258.133 133.911 258.6 135.111 259.534C136.304 260.468 136.904 261.7 136.904 263.226C136.904 264.297 136.459 265.293 135.575 266.22C134.69 267.148 133.596 267.758 132.298 268.051C134.14 268.418 135.612 269.097 136.706 270.08C137.8 271.064 138.351 272.234 138.351 273.585H138.344ZM133.441 263.22C133.441 261.831 133.101 260.816 132.428 260.163C131.754 259.509 130.703 259.185 129.274 259.185H128.65C127.339 259.185 126.684 259.752 126.684 260.885V267.733H128.934C130.517 267.733 131.661 267.378 132.378 266.669C133.089 265.959 133.448 264.807 133.448 263.213L133.441 263.22ZM134.907 273.598C134.907 272.085 134.48 270.902 133.627 270.037C132.774 269.178 131.593 268.748 130.084 268.748H126.684V276.493C126.684 277.445 126.956 278.099 127.494 278.454C128.032 278.802 128.959 278.983 130.27 278.983C131.58 278.983 132.749 278.485 133.608 277.495C134.474 276.505 134.907 275.204 134.907 273.598Z" fill="black"/>
<path d="M155.817 273.299C155.817 275.385 155.143 277.103 153.795 278.448C152.447 279.792 150.698 280.471 148.552 280.471C146.407 280.471 144.657 279.792 143.303 278.441C141.949 277.09 141.269 275.378 141.269 273.299C141.269 271.22 141.949 269.439 143.315 268.038C144.682 266.637 146.425 265.94 148.552 265.94C150.679 265.94 152.435 266.637 153.789 268.032C155.143 269.427 155.823 271.182 155.823 273.299H155.817ZM152.664 273.268C152.664 271.35 152.299 269.819 151.563 268.667C150.827 267.515 149.82 266.942 148.54 266.942C147.26 266.942 146.264 267.521 145.529 268.673C144.793 269.825 144.422 271.357 144.422 273.262C144.422 275.167 144.787 276.667 145.516 277.781C146.246 278.896 147.254 279.456 148.546 279.456C149.838 279.456 150.846 278.902 151.575 277.8C152.305 276.692 152.67 275.185 152.67 273.262L152.664 273.268Z" fill="black"/>
<path d="M168.522 267.515C168.522 267.932 168.393 268.293 168.139 268.586C167.886 268.879 167.576 269.028 167.212 269.028C166.754 269.028 166.303 268.879 165.851 268.574C165.499 268.331 165.19 268.213 164.93 268.213C164.256 268.213 163.558 268.611 162.84 269.408V276.48C162.84 277.389 162.995 278.031 163.31 278.392C163.619 278.753 164.287 279.002 165.307 279.139C165.474 279.157 165.555 279.301 165.555 279.562C165.555 279.855 165.468 280.004 165.307 280.004C164.881 280.004 164.275 279.973 163.496 279.911C162.636 279.848 161.95 279.817 161.443 279.817C160.936 279.817 160.299 279.848 159.564 279.911C158.896 279.973 158.352 280.004 157.925 280.004C157.758 280.004 157.678 279.855 157.678 279.562C157.678 279.301 157.758 279.157 157.925 279.139C158.828 279.027 159.409 278.809 159.669 278.497C159.928 278.186 160.052 277.514 160.052 276.487V270.678C160.052 269.837 159.947 269.29 159.731 269.028C159.514 268.767 159.038 268.592 158.302 268.511C158.135 268.511 158.055 268.374 158.055 268.094C158.055 267.839 158.135 267.708 158.302 267.708C159.335 267.447 160.182 267.154 160.85 266.837C161.517 266.519 161.956 266.239 162.16 266.009C162.284 265.884 162.408 265.822 162.531 265.822C162.822 265.822 162.964 265.903 162.964 266.071L162.84 268.051C163.675 267.272 164.386 266.731 164.986 266.413C165.586 266.096 166.179 265.94 166.773 265.94C167.249 265.94 167.663 266.096 168.003 266.413C168.349 266.731 168.516 267.092 168.516 267.515H168.522Z" fill="black"/>
<path d="M185.259 278.952C185.259 279.176 185.173 279.301 185.012 279.319C184.418 279.394 183.732 279.537 182.947 279.761C182.162 279.979 181.549 280.203 181.111 280.421C180.882 280.533 180.715 280.596 180.61 280.596C180.443 280.596 180.356 280.515 180.356 280.346L180.48 278.647C179.379 279.861 177.97 280.471 176.263 280.471C174.464 280.471 172.931 279.774 171.663 278.379C170.402 276.985 169.765 275.316 169.765 273.367C169.765 271.157 170.464 269.364 171.867 268.001C173.265 266.631 175.02 265.953 177.135 265.953C178.341 265.953 179.454 266.332 180.474 267.086V261.85C180.474 261.003 180.369 260.449 180.165 260.188C179.954 259.926 179.478 259.752 178.73 259.671C178.563 259.652 178.483 259.515 178.483 259.272C178.483 258.992 178.569 258.855 178.736 258.855C179.719 258.625 180.566 258.345 181.29 258.021C182.013 257.697 182.495 257.405 182.749 257.156C182.854 257.05 182.965 257 183.077 257C183.367 257 183.516 257.081 183.516 257.249C183.349 259.534 183.268 261.352 183.268 262.715V276.555C183.268 277.277 183.373 277.763 183.577 278.006C183.788 278.248 184.264 278.429 185.012 278.529C185.179 278.529 185.259 278.666 185.259 278.946V278.952ZM180.48 277.277V269.215C180.48 268.673 180.165 268.157 179.534 267.677C178.903 267.198 178.217 266.955 177.481 266.955C174.439 266.955 172.925 269.109 172.925 273.411C172.925 275.111 173.289 276.524 174.019 277.645C174.748 278.765 175.707 279.332 176.894 279.332C177.568 279.332 178.186 279.176 178.736 278.865C179.287 278.553 179.868 278.024 180.486 277.283L180.48 277.277Z" fill="black"/>
<path d="M198.904 271.07C198.904 271.363 198.719 271.512 198.342 271.512H189.785C189.723 272.079 189.692 272.664 189.692 273.274C189.692 274.961 190.088 276.256 190.885 277.165C191.683 278.074 192.814 278.522 194.28 278.522C195.022 278.522 195.764 278.323 196.512 277.925C197.26 277.526 197.866 277.022 198.323 276.399L198.404 276.368C198.496 276.368 198.589 276.424 198.676 276.543C198.762 276.661 198.805 276.792 198.805 276.953C198.805 277.171 198.472 277.632 197.804 278.329C197.136 279.027 196.413 279.556 195.634 279.923C194.855 280.29 194.039 280.471 193.185 280.471C191.312 280.471 189.735 279.78 188.456 278.398C187.176 277.016 186.533 275.316 186.533 273.305C186.533 271.294 187.157 269.514 188.412 268.088C189.667 266.662 191.256 265.953 193.179 265.953C194.793 265.953 196.147 266.482 197.247 267.546C198.348 268.611 198.892 269.788 198.892 271.076L198.904 271.07ZM196.06 269.688C196.06 268.904 195.794 268.25 195.257 267.733C194.719 267.216 194.032 266.955 193.185 266.955C192.338 266.955 191.689 267.291 191.102 267.97C190.514 268.648 190.113 269.532 189.909 270.634L194.249 270.51C194.904 270.497 195.368 270.435 195.646 270.323C195.924 270.211 196.06 269.999 196.06 269.694V269.688Z" fill="black"/>
<path d="M211.672 267.515C211.672 267.932 211.542 268.293 211.289 268.586C211.035 268.879 210.726 269.028 210.361 269.028C209.904 269.028 209.452 268.879 209.001 268.574C208.648 268.331 208.339 268.213 208.08 268.213C207.406 268.213 206.707 268.611 205.99 269.408V276.48C205.99 277.389 206.144 278.031 206.46 278.392C206.769 278.753 207.437 279.002 208.457 279.139C208.624 279.157 208.704 279.301 208.704 279.562C208.704 279.855 208.618 280.004 208.457 280.004C208.03 280.004 207.424 279.973 206.645 279.911C205.786 279.848 205.1 279.817 204.593 279.817C204.086 279.817 203.449 279.848 202.713 279.911C202.045 279.973 201.501 280.004 201.075 280.004C200.908 280.004 200.827 279.855 200.827 279.562C200.827 279.301 200.908 279.157 201.075 279.139C201.977 279.027 202.558 278.809 202.818 278.497C203.078 278.186 203.201 277.514 203.201 276.487V270.678C203.201 269.837 203.096 269.29 202.88 269.028C202.664 268.767 202.187 268.592 201.452 268.511C201.285 268.511 201.204 268.374 201.204 268.094C201.204 267.839 201.285 267.708 201.452 267.708C202.484 267.447 203.331 267.154 203.999 266.837C204.667 266.519 205.106 266.239 205.31 266.009C205.433 265.884 205.557 265.822 205.681 265.822C205.971 265.822 206.114 265.903 206.114 266.071L205.99 268.051C206.825 267.272 207.536 266.731 208.135 266.413C208.735 266.096 209.329 265.94 209.922 265.94C210.398 265.94 210.812 266.096 211.152 266.413C211.499 266.731 211.666 267.092 211.666 267.515H211.672Z" fill="black"/>
<path d="M231.642 274.214C231.154 276.057 230.77 277.987 230.486 279.998C226.498 279.873 223.666 279.811 221.979 279.811C220.291 279.811 217.515 279.873 213.576 279.998C213.409 279.998 213.329 279.848 213.329 279.556C213.329 279.294 213.409 279.151 213.576 279.132C214.837 278.983 215.691 278.753 216.142 278.423C216.593 278.093 216.822 277.445 216.822 276.474V261.669C216.822 260.935 216.729 260.418 216.55 260.119C216.371 259.82 216.049 259.584 215.592 259.409C215.134 259.235 214.46 259.098 213.576 258.992C213.409 258.992 213.329 258.849 213.329 258.563C213.329 258.276 213.409 258.133 213.576 258.133C214.275 258.133 215.103 258.164 216.074 258.226C217.001 258.289 217.78 258.32 218.417 258.32C219.054 258.32 219.827 258.289 220.742 258.226C221.7 258.164 222.529 258.133 223.221 258.133C223.388 258.133 223.469 258.276 223.469 258.563C223.469 258.849 223.382 258.992 223.221 258.992C222.35 259.098 221.682 259.235 221.224 259.409C220.767 259.584 220.451 259.814 220.272 260.107C220.093 260.399 220.006 260.922 220.006 261.663V276.941C220.006 278.18 220.612 278.796 221.818 278.796H224.909C226.189 278.796 227.271 278.454 228.155 277.769C229.039 277.084 229.911 275.802 230.777 273.928C230.82 273.847 230.919 273.803 231.073 273.803C231.209 273.803 231.339 273.847 231.457 273.928C231.574 274.015 231.636 274.108 231.636 274.208L231.642 274.214Z" fill="black"/>
<path d="M245.207 271.07C245.207 271.363 245.022 271.512 244.645 271.512H236.088C236.026 272.079 235.995 272.664 235.995 273.274C235.995 274.961 236.391 276.256 237.188 277.165C237.986 278.074 239.117 278.522 240.582 278.522C241.324 278.522 242.066 278.323 242.814 277.925C243.563 277.526 244.168 277.022 244.626 276.399L244.706 276.368C244.799 276.368 244.892 276.424 244.978 276.543C245.065 276.661 245.108 276.792 245.108 276.953C245.108 277.171 244.774 277.632 244.107 278.329C243.439 279.027 242.716 279.556 241.936 279.923C241.157 280.29 240.341 280.471 239.488 280.471C237.615 280.471 236.038 279.78 234.758 278.398C233.478 277.016 232.835 275.316 232.835 273.305C232.835 271.294 233.46 269.514 234.715 268.088C235.97 266.662 237.559 265.953 239.482 265.953C241.096 265.953 242.45 266.482 243.55 267.546C244.651 268.611 245.195 269.788 245.195 271.076L245.207 271.07ZM242.363 269.688C242.363 268.904 242.097 268.25 241.559 267.733C241.021 267.216 240.335 266.955 239.488 266.955C238.641 266.955 237.992 267.291 237.405 267.97C236.817 268.648 236.415 269.532 236.211 270.634L240.552 270.51C241.207 270.497 241.671 270.435 241.949 270.323C242.227 270.211 242.363 269.999 242.363 269.694V269.688Z" fill="black"/>
<path d="M257.294 275.945C257.294 277.221 256.794 278.298 255.798 279.17C254.803 280.041 253.597 280.477 252.181 280.477C251.681 280.477 250.914 280.365 249.875 280.147C249.096 279.992 248.564 279.911 248.286 279.911C248.2 279.176 248.008 278.062 247.711 276.561C247.711 276.406 247.86 276.325 248.163 276.325C248.41 276.325 248.564 276.412 248.614 276.574C248.855 277.352 249.325 278.024 250.036 278.603C250.741 279.182 251.47 279.469 252.218 279.469C252.967 279.469 253.603 279.257 254.036 278.827C254.469 278.398 254.685 277.794 254.685 277.022C254.685 276.53 254.506 276.094 254.147 275.715C253.789 275.335 253.01 274.868 251.81 274.314C250.24 273.592 249.201 272.907 248.694 272.272C248.187 271.63 247.94 270.865 247.94 269.974C247.94 268.872 248.416 267.926 249.362 267.135C250.308 266.345 251.427 265.946 252.719 265.946C253.257 265.946 254.018 266.04 255.001 266.227C255.539 266.332 255.897 266.382 256.064 266.382C256.095 267.621 256.163 268.673 256.268 269.545C256.268 269.7 256.12 269.781 255.817 269.781C255.557 269.781 255.409 269.7 255.378 269.532C255.267 268.767 254.976 268.144 254.525 267.671C254.067 267.192 253.523 266.955 252.892 266.955C251.272 266.955 250.463 267.671 250.463 269.097C250.463 269.576 250.654 270.024 251.038 270.435C251.421 270.846 252.256 271.375 253.542 272.023C255.075 272.801 256.083 273.467 256.571 274.034C257.06 274.6 257.301 275.241 257.301 275.951L257.294 275.945Z" fill="black"/>
<path d="M270 275.945C270 277.221 269.499 278.298 268.504 279.17C267.508 280.041 266.303 280.477 264.887 280.477C264.386 280.477 263.619 280.365 262.581 280.147C261.802 279.992 261.27 279.911 260.992 279.911C260.905 279.176 260.714 278.062 260.417 276.561C260.417 276.406 260.565 276.325 260.868 276.325C261.115 276.325 261.27 276.412 261.319 276.574C261.561 277.352 262.03 278.024 262.741 278.603C263.446 279.182 264.176 279.469 264.924 279.469C265.672 279.469 266.309 279.257 266.742 278.827C267.175 278.398 267.391 277.794 267.391 277.022C267.391 276.53 267.212 276.094 266.853 275.715C266.494 275.335 265.715 274.868 264.516 274.314C262.946 273.592 261.907 272.907 261.4 272.272C260.893 271.63 260.646 270.865 260.646 269.974C260.646 268.872 261.122 267.926 262.068 267.135C263.014 266.345 264.133 265.946 265.425 265.946C265.963 265.946 266.723 266.04 267.706 266.227C268.244 266.332 268.603 266.382 268.77 266.382C268.801 267.621 268.869 268.673 268.974 269.545C268.974 269.7 268.825 269.781 268.522 269.781C268.263 269.781 268.114 269.7 268.083 269.532C267.972 268.767 267.681 268.144 267.23 267.671C266.773 267.192 266.229 266.955 265.598 266.955C263.978 266.955 263.168 267.671 263.168 269.097C263.168 269.576 263.36 270.024 263.743 270.435C264.126 270.846 264.961 271.375 266.247 272.023C267.78 272.801 268.788 273.467 269.277 274.034C269.765 274.6 270.006 275.241 270.006 275.951L270 275.945Z" fill="black"/>
</g>
<line x1="195" y1="102.5" x2="297" y2="102.5" stroke="black"/>
<line x1="195" y1="302.5" x2="297" y2="302.5" stroke="black"/>
<line x1="296.5" y1="303" x2="296.5" y2="103" stroke="black"/>
<path d="M315.108 203.184V204H310.5V203.184H312.342V197.322C312.342 197.146 312.348 196.968 312.36 196.788L310.83 198.102C310.778 198.146 310.726 198.174 310.674 198.186C310.622 198.194 310.574 198.194 310.53 198.186C310.486 198.178 310.444 198.162 310.404 198.138C310.368 198.114 310.34 198.088 310.32 198.06L309.984 197.598L312.546 195.384H313.416V203.184H315.108ZM319.429 203.208C319.717 203.208 319.977 203.162 320.209 203.07C320.445 202.978 320.645 202.85 320.809 202.686C320.977 202.522 321.105 202.328 321.193 202.104C321.285 201.88 321.331 201.636 321.331 201.372C321.331 201.092 321.287 200.84 321.199 200.616C321.111 200.388 320.985 200.196 320.821 200.04C320.661 199.88 320.469 199.758 320.245 199.674C320.021 199.59 319.775 199.548 319.507 199.548C319.219 199.548 318.959 199.598 318.727 199.698C318.495 199.794 318.297 199.926 318.133 200.094C317.973 200.258 317.849 200.45 317.761 200.67C317.677 200.886 317.635 201.112 317.635 201.348C317.635 201.624 317.675 201.876 317.755 202.104C317.835 202.332 317.951 202.528 318.103 202.692C318.259 202.856 318.447 202.984 318.667 203.076C318.891 203.164 319.145 203.208 319.429 203.208ZM318.805 198.624C318.729 198.72 318.655 198.814 318.583 198.906C318.515 198.994 318.449 199.082 318.385 199.17C318.589 199.03 318.813 198.922 319.057 198.846C319.301 198.77 319.567 198.732 319.855 198.732C320.203 198.732 320.531 198.79 320.839 198.906C321.147 199.018 321.415 199.184 321.643 199.404C321.875 199.62 322.059 199.888 322.195 200.208C322.331 200.524 322.399 200.886 322.399 201.294C322.399 201.69 322.327 202.058 322.183 202.398C322.039 202.738 321.837 203.034 321.577 203.286C321.321 203.538 321.011 203.736 320.647 203.88C320.287 204.024 319.889 204.096 319.453 204.096C319.021 204.096 318.629 204.028 318.277 203.892C317.925 203.752 317.625 203.556 317.377 203.304C317.133 203.048 316.943 202.74 316.807 202.38C316.675 202.016 316.609 201.61 316.609 201.162C316.609 200.786 316.691 200.386 316.855 199.962C317.023 199.534 317.289 199.078 317.653 198.594L319.837 195.66C319.893 195.588 319.969 195.528 320.065 195.48C320.165 195.428 320.279 195.402 320.407 195.402H321.355L318.805 198.624ZM329.522 199.704C329.522 200.456 329.44 201.108 329.276 201.66C329.116 202.208 328.896 202.662 328.616 203.022C328.336 203.382 328.004 203.65 327.62 203.826C327.24 204.002 326.832 204.09 326.396 204.09C325.956 204.09 325.546 204.002 325.166 203.826C324.79 203.65 324.462 203.382 324.182 203.022C323.902 202.662 323.682 202.208 323.522 201.66C323.362 201.108 323.282 200.456 323.282 199.704C323.282 198.952 323.362 198.3 323.522 197.748C323.682 197.196 323.902 196.74 324.182 196.38C324.462 196.016 324.79 195.746 325.166 195.57C325.546 195.394 325.956 195.306 326.396 195.306C326.832 195.306 327.24 195.394 327.62 195.57C328.004 195.746 328.336 196.016 328.616 196.38C328.896 196.74 329.116 197.196 329.276 197.748C329.44 198.3 329.522 198.952 329.522 199.704ZM328.412 199.704C328.412 199.048 328.356 198.498 328.244 198.054C328.136 197.606 327.988 197.246 327.8 196.974C327.616 196.702 327.402 196.508 327.158 196.392C326.914 196.272 326.66 196.212 326.396 196.212C326.132 196.212 325.878 196.272 325.634 196.392C325.39 196.508 325.176 196.702 324.992 196.974C324.808 197.246 324.66 197.606 324.548 198.054C324.44 198.498 324.386 199.048 324.386 199.704C324.386 200.36 324.44 200.91 324.548 201.354C324.66 201.798 324.808 202.156 324.992 202.428C325.176 202.7 325.39 202.896 325.634 203.016C325.878 203.132 326.132 203.19 326.396 203.19C326.66 203.19 326.914 203.132 327.158 203.016C327.402 202.896 327.616 202.7 327.8 202.428C327.988 202.156 328.136 201.798 328.244 201.354C328.356 200.91 328.412 200.36 328.412 199.704ZM334.873 202.536C335.069 202.8 335.283 202.986 335.515 203.094C335.747 203.202 336.007 203.256 336.295 203.256C336.863 203.256 337.299 203.054 337.603 202.65C337.907 202.246 338.059 201.67 338.059 200.922C338.059 200.526 338.023 200.186 337.951 199.902C337.883 199.618 337.783 199.386 337.651 199.206C337.519 199.022 337.357 198.888 337.165 198.804C336.973 198.72 336.755 198.678 336.511 198.678C336.163 198.678 335.857 198.758 335.593 198.918C335.333 199.078 335.093 199.304 334.873 199.596V202.536ZM334.819 198.864C335.075 198.548 335.371 198.294 335.707 198.102C336.043 197.91 336.427 197.814 336.859 197.814C337.211 197.814 337.529 197.882 337.813 198.018C338.097 198.15 338.339 198.348 338.539 198.612C338.739 198.872 338.893 199.196 339.001 199.584C339.109 199.972 339.163 200.418 339.163 200.922C339.163 201.37 339.103 201.788 338.983 202.176C338.863 202.56 338.689 202.894 338.461 203.178C338.237 203.458 337.961 203.68 337.633 203.844C337.309 204.004 336.943 204.084 336.535 204.084C336.163 204.084 335.843 204.022 335.575 203.898C335.311 203.77 335.077 203.594 334.873 203.37V206.058H333.799V197.922H334.441C334.593 197.922 334.687 197.996 334.723 198.144L334.819 198.864ZM345.283 204H344.257C344.169 204 344.099 203.978 344.047 203.934C343.999 203.886 343.959 203.834 343.927 203.778L342.397 201.396C342.381 201.452 342.363 201.508 342.343 201.564C342.327 201.616 342.303 201.664 342.271 201.708L340.855 203.778C340.815 203.834 340.771 203.886 340.723 203.934C340.679 203.978 340.617 204 340.537 204H339.583L341.713 200.88L339.667 197.922H340.693C340.781 197.922 340.845 197.936 340.885 197.964C340.925 197.992 340.961 198.032 340.993 198.084L342.487 200.364C342.519 200.248 342.569 200.136 342.637 200.028L343.945 198.108C343.981 198.052 344.019 198.008 344.059 197.976C344.103 197.94 344.155 197.922 344.215 197.922H345.199L343.153 200.826L345.283 204Z" fill="black"/>
</g>
<defs>
<clipPath id="clip0_143_202">
<rect width="390" height="844" fill="white"/>
</clipPath>
<clipPath id="clip1_143_202">
<rect width="150" height="122.124" fill="white" transform="translate(120 122)"/>
</clipPath>
<clipPath id="clip2_143_202">
<rect width="150" height="23.5955" fill="white" transform="translate(120 257)"/>
</clipPath>
</defs>
</svg>
