<?xml version="1.0" encoding="UTF-8"?>
<svg id="Layer_2" data-name="Layer 2" xmlns="http://www.w3.org/2000/svg" viewBox="0 0 224.69 49.67">
  <defs>
    <style>
      .cls-1 {
        fill: none;
      }

      .cls-2 {
        fill: #4758ba;
      }

      .cls-3 {
        fill: #50754b;
      }

      .cls-4 {
        stroke: #070707;
        stroke-miterlimit: 10;
        stroke-width: .81px;
      }
    </style>
  </defs>
  <g id="Logos">
    <g>
      <g id="Variation_4_with_house" data-name="Variation 4 with house">
        <g>
          <path class="cls-1" d="M24.47,31.34c1.97,0,3.63,2.18,5.29,4.85,2.93-2.47,5.53-5.95,8.56-6.25,4.02-.39,4.18,4.13,8.26,4.14,.07-.59,.1-1.19,.1-1.8,0-8.73-7.1-15.83-15.83-15.83s-15.83,7.1-15.83,15.83c0,1.38,.18,2.71,.51,3.98,2.22-.56,5.12-4.93,8.93-4.93Z"/>
          <path class="cls-2" d="M38.32,29.94c-3.03,.3-5.63,3.78-8.56,6.25,2.66,4.27,5.31,9.8,9.21,9.68,4.13-2.48,7.04-6.78,7.61-11.79-4.08,0-4.24-4.53-8.26-4.14Z"/>
          <path class="cls-3" d="M29.76,36.19c-1.66-2.67-3.32-4.85-5.29-4.85-3.81,0-6.71,4.37-8.93,4.93,1.77,6.81,7.97,11.85,15.32,11.85,2.96,0,5.74-.82,8.11-2.24-3.9,.12-6.56-5.4-9.21-9.68Z"/>
          <path d="M30.86,14.89c-9.6,0-17.39,7.79-17.39,17.39s7.79,17.39,17.39,17.39,17.39-7.79,17.39-17.39-7.79-17.39-17.39-17.39Zm0,1.56c8.73,0,15.83,7.1,15.83,15.83,0,.61-.04,1.21-.1,1.8-.57,5.01-3.48,9.31-7.61,11.79-2.37,1.42-5.15,2.24-8.11,2.24-7.35,0-13.55-5.04-15.32-11.85-.33-1.27-.51-2.61-.51-3.98,0-8.73,7.1-15.83,15.83-15.83Z"/>
        </g>
        <circle class="cls-3" cx="24.41" cy="26.68" r="2.64"/>
        <circle class="cls-2" cx="38.57" cy="25.48" r="2.64"/>
        <path d="M60.28,19.76l-14.47-9.93V2.03c0-.77-.62-1.39-1.39-1.39s-1.39,.62-1.39,1.39V7.92L31.83,.24c-.26-.18-.56-.25-.85-.24-.29-.01-.59,.06-.85,.23L.61,20.36c-.64,.43-.8,1.3-.37,1.93,.27,.4,.71,.61,1.15,.61,.27,0,.54-.08,.78-.24l3.98-2.71v7.41c0,.54,.44,.97,.97,.97s.97-.44,.97-.97v-8.74L30.98,3.03l24.3,16.68v7.65c0,.54,.44,.97,.97,.97s.97-.44,.97-.97v-6.32l1.47,1.01c.24,.16,.51,.24,.79,.24,.44,0,.88-.21,1.15-.6,.43-.63,.27-1.5-.36-1.93Z"/>
      </g>
      <g>
        <path class="cls-4" d="M86.85,36.3c0,2.01-.67,3.62-2.02,4.83-1.35,1.21-3.13,1.82-5.36,1.82-.73,0-1.76-.03-3.1-.1-1.27-.07-2.24-.1-2.9-.1s-1.55,.03-2.67,.1c-1.16,.07-2.11,.1-2.84,.1-.17,0-.26-.15-.26-.46,0-.27,.09-.42,.26-.44,1.31-.15,2.21-.4,2.68-.73s.71-1.01,.71-2.02v-15.35c0-.76-.1-1.3-.29-1.61-.19-.31-.52-.55-1-.73-.48-.18-1.18-.32-2.1-.43-.17,0-.26-.15-.26-.45s.09-.45,.26-.45c.73,0,1.62,.03,2.67,.1,1.01,.07,1.85,.1,2.51,.1s1.53-.03,2.6-.1c1.14-.07,2.07-.1,2.8-.1,2.03,0,3.67,.48,4.92,1.45,1.25,.97,1.87,2.24,1.87,3.83,0,1.11-.46,2.14-1.38,3.1s-2.06,1.59-3.42,1.9c1.92,.38,3.46,1.08,4.6,2.1s1.72,2.23,1.72,3.63Zm-5.12-10.75c0-1.44-.35-2.49-1.06-3.17s-1.8-1.01-3.29-1.01h-.65c-1.37,0-2.05,.59-2.05,1.76v7.1h2.35c1.65,0,2.85-.37,3.59-1.1,.74-.73,1.12-1.93,1.12-3.58Zm1.53,10.76c0-1.57-.45-2.8-1.34-3.69-.89-.89-2.12-1.34-3.7-1.34h-3.55v8.03c0,.99,.28,1.67,.85,2.03,.56,.36,1.53,.55,2.9,.55s2.59-.51,3.49-1.54c.9-1.03,1.35-2.37,1.35-4.04Z"/>
        <path class="cls-4" d="M105.08,36.01c0,2.16-.7,3.94-2.11,5.34-1.41,1.4-3.23,2.09-5.47,2.09s-4.07-.7-5.48-2.1c-1.41-1.4-2.12-3.18-2.12-5.33s.71-4,2.14-5.45c1.42-1.45,3.25-2.18,5.47-2.18s4.05,.72,5.47,2.17c1.41,1.45,2.12,3.27,2.12,5.46Zm-3.29-.03c0-1.99-.38-3.58-1.15-4.77s-1.82-1.78-3.15-1.78-2.37,.6-3.15,1.79-1.16,2.78-1.16,4.76,.38,3.53,1.14,4.69,1.81,1.74,3.16,1.74,2.4-.57,3.16-1.72c.76-1.15,1.14-2.71,1.14-4.7Z"/>
        <path class="cls-4" d="M118.35,30.01c0,.43-.13,.8-.4,1.11-.27,.3-.59,.46-.97,.46-.48,0-.95-.16-1.42-.47-.37-.25-.69-.37-.96-.37-.71,0-1.43,.41-2.18,1.24v7.33c0,.95,.16,1.61,.49,1.98,.33,.37,1.02,.63,2.09,.77,.17,.02,.26,.17,.26,.44,0,.3-.09,.46-.26,.46-.45,0-1.08-.03-1.89-.1-.9-.07-1.61-.1-2.14-.1s-1.19,.03-1.96,.1c-.7,.07-1.27,.1-1.71,.1-.17,0-.26-.15-.26-.46,0-.27,.09-.42,.26-.44,.95-.12,1.55-.34,1.82-.67s.4-1.02,.4-2.08v-6.02c0-.87-.11-1.44-.33-1.71s-.72-.45-1.49-.54c-.17,0-.26-.14-.26-.43,0-.27,.09-.4,.26-.4,1.08-.27,1.96-.57,2.66-.9,.7-.33,1.15-.62,1.37-.86,.13-.13,.26-.2,.39-.2,.3,0,.45,.09,.45,.26l-.13,2.05c.87-.8,1.62-1.37,2.24-1.69,.62-.33,1.25-.49,1.87-.49,.5,0,.93,.16,1.29,.49,.36,.33,.54,.71,.54,1.14Z"/>
        <path class="cls-4" d="M135.82,41.87c0,.23-.09,.36-.26,.38-.62,.08-1.34,.23-2.16,.46-.82,.23-1.46,.46-1.91,.68-.24,.12-.42,.18-.52,.18-.18,0-.26-.09-.26-.26l.13-1.76c-1.15,1.26-2.62,1.89-4.4,1.89-1.88,0-3.48-.72-4.8-2.17-1.32-1.44-1.98-3.18-1.98-5.2,0-2.29,.73-4.15,2.19-5.57,1.46-1.42,3.29-2.13,5.5-2.13,1.26,0,2.42,.39,3.49,1.17v-5.41c0-.88-.11-1.45-.33-1.72-.22-.27-.72-.45-1.5-.54-.17-.02-.26-.16-.26-.42,0-.29,.09-.43,.26-.43,1.02-.24,1.91-.53,2.66-.86s1.26-.64,1.52-.9c.11-.11,.22-.16,.34-.16,.31,0,.46,.09,.46,.26-.17,2.37-.26,4.26-.26,5.67v14.35c0,.75,.11,1.25,.33,1.51,.22,.25,.72,.44,1.5,.55,.17,0,.26,.14,.26,.43Zm-4.99-1.74v-8.36c0-.56-.33-1.1-.99-1.6-.66-.5-1.37-.75-2.14-.75-3.17,0-4.76,2.23-4.76,6.69,0,1.76,.38,3.23,1.14,4.39,.76,1.16,1.76,1.75,3,1.75,.71,0,1.35-.16,1.92-.48,.58-.32,1.18-.87,1.83-1.64Z"/>
        <path class="cls-4" d="M150.06,33.69c0,.3-.2,.46-.59,.46h-8.93c-.07,.59-.1,1.2-.1,1.82,0,1.75,.42,3.09,1.25,4.03s2.01,1.41,3.54,1.41c.77,0,1.55-.21,2.33-.62,.78-.41,1.41-.94,1.89-1.58l.08-.03c.1,0,.19,.06,.29,.18,.09,.12,.14,.26,.14,.42,0,.23-.35,.7-1.04,1.43s-1.45,1.27-2.27,1.65c-.81,.38-1.67,.57-2.56,.57-1.96,0-3.6-.72-4.94-2.15-1.34-1.43-2-3.19-2-5.28s.65-3.93,1.96-5.41c1.31-1.48,2.97-2.22,4.98-2.22,1.68,0,3.1,.55,4.25,1.65,1.15,1.1,1.72,2.32,1.72,3.66Zm-2.97-1.43c0-.81-.28-1.49-.84-2.03s-1.28-.81-2.16-.81-1.56,.35-2.18,1.05c-.61,.7-1.03,1.62-1.25,2.76l4.53-.13c.68-.01,1.17-.08,1.46-.2,.29-.12,.43-.34,.43-.65Z"/>
        <path class="cls-4" d="M163.39,30.01c0,.43-.13,.8-.4,1.11-.27,.3-.59,.46-.97,.46-.48,0-.95-.16-1.42-.47-.37-.25-.69-.37-.96-.37-.71,0-1.43,.41-2.18,1.24v7.33c0,.95,.16,1.61,.49,1.98,.33,.37,1.02,.63,2.09,.77,.17,.02,.26,.17,.26,.44,0,.3-.09,.46-.26,.46-.45,0-1.08-.03-1.89-.1-.9-.07-1.61-.1-2.14-.1s-1.19,.03-1.96,.1c-.7,.07-1.27,.1-1.71,.1-.17,0-.26-.15-.26-.46,0-.27,.09-.42,.26-.44,.95-.12,1.55-.34,1.82-.67s.4-1.02,.4-2.08v-6.02c0-.87-.11-1.44-.33-1.71s-.72-.45-1.49-.54c-.17,0-.26-.14-.26-.43,0-.27,.09-.4,.26-.4,1.08-.27,1.96-.57,2.66-.9,.7-.33,1.15-.62,1.37-.86,.13-.13,.26-.2,.39-.2,.3,0,.45,.09,.45,.26l-.13,2.05c.87-.8,1.62-1.37,2.24-1.69,.62-.33,1.25-.49,1.87-.49,.5,0,.93,.16,1.29,.49,.36,.33,.54,.71,.54,1.14Z"/>
        <path class="cls-4" d="M184.24,36.95c-.51,1.91-.91,3.91-1.21,6-4.16-.13-7.12-.2-8.88-.2s-4.66,.07-8.77,.2c-.17,0-.26-.15-.26-.46,0-.27,.09-.42,.26-.44,1.31-.15,2.21-.4,2.68-.73s.71-1.01,.71-2.02v-15.35c0-.76-.1-1.3-.29-1.61-.19-.31-.52-.55-1-.73-.48-.18-1.18-.32-2.1-.43-.17,0-.26-.15-.26-.45s.09-.45,.26-.45c.73,0,1.6,.03,2.61,.1,.97,.07,1.78,.1,2.44,.1s1.47-.03,2.43-.1c1-.07,1.86-.1,2.59-.1,.17,0,.26,.15,.26,.45s-.09,.45-.26,.45c-.91,.11-1.61,.25-2.09,.43-.48,.18-.81,.42-.99,.73-.19,.3-.28,.84-.28,1.61v15.84c0,1.28,.63,1.92,1.89,1.92h3.23c1.34,0,2.47-.36,3.39-1.07,.92-.71,1.84-2.04,2.74-3.99,.04-.09,.15-.13,.31-.13,.14,0,.27,.04,.4,.13,.12,.09,.19,.19,.19,.29Z"/>
        <path class="cls-4" d="M198.4,33.69c0,.3-.2,.46-.59,.46h-8.93c-.07,.59-.1,1.2-.1,1.82,0,1.75,.42,3.09,1.25,4.03s2.01,1.41,3.54,1.41c.77,0,1.55-.21,2.33-.62,.78-.41,1.41-.94,1.89-1.58l.08-.03c.1,0,.19,.06,.29,.18,.09,.12,.14,.26,.14,.42,0,.23-.35,.7-1.04,1.43s-1.45,1.27-2.27,1.65c-.81,.38-1.67,.57-2.56,.57-1.96,0-3.6-.72-4.94-2.15-1.34-1.43-2-3.19-2-5.28s.65-3.93,1.96-5.41c1.31-1.48,2.97-2.22,4.98-2.22,1.68,0,3.1,.55,4.25,1.65,1.15,1.1,1.72,2.32,1.72,3.66Zm-2.97-1.43c0-.81-.28-1.49-.84-2.03s-1.28-.81-2.16-.81-1.56,.35-2.18,1.05c-.61,.7-1.03,1.62-1.25,2.76l4.53-.13c.68-.01,1.17-.08,1.46-.2,.29-.12,.43-.34,.43-.65Z"/>
        <path class="cls-4" d="M211.01,38.75c0,1.33-.52,2.44-1.56,3.34s-2.3,1.35-3.77,1.35c-.52,0-1.32-.11-2.41-.34-.81-.16-1.37-.24-1.66-.24-.09-.76-.29-1.92-.6-3.47,0-.16,.16-.25,.47-.25,.26,0,.42,.09,.47,.26,.25,.8,.74,1.5,1.48,2.1,.74,.6,1.5,.9,2.28,.9s1.45-.22,1.9-.67c.45-.45,.68-1.07,.68-1.87,0-.51-.19-.96-.56-1.35-.38-.39-1.19-.87-2.44-1.45-1.64-.75-2.72-1.46-3.25-2.12-.53-.66-.79-1.46-.79-2.38,0-1.14,.49-2.12,1.48-2.94s2.16-1.23,3.5-1.23c.56,0,1.36,.1,2.38,.29,.56,.11,.93,.16,1.11,.16,.03,1.28,.1,2.37,.21,3.28,0,.16-.16,.24-.47,.24-.27,0-.42-.09-.46-.26-.12-.79-.42-1.44-.89-1.93-.48-.49-1.05-.74-1.71-.74-1.69,0-2.53,.74-2.53,2.22,0,.5,.2,.96,.6,1.38,.4,.42,1.27,.97,2.61,1.65,1.6,.8,2.66,1.5,3.16,2.09,.51,.59,.76,1.25,.76,1.99Z"/>
        <path class="cls-4" d="M224.28,38.75c0,1.33-.52,2.44-1.56,3.34s-2.3,1.35-3.77,1.35c-.52,0-1.32-.11-2.41-.34-.81-.16-1.37-.24-1.66-.24-.09-.76-.29-1.92-.6-3.47,0-.16,.16-.25,.47-.25,.26,0,.42,.09,.47,.26,.25,.8,.74,1.5,1.48,2.1,.74,.6,1.5,.9,2.28,.9s1.45-.22,1.9-.67c.45-.45,.68-1.07,.68-1.87,0-.51-.19-.96-.56-1.35-.38-.39-1.19-.87-2.44-1.45-1.64-.75-2.72-1.46-3.25-2.12-.53-.66-.79-1.46-.79-2.38,0-1.14,.49-2.12,1.48-2.94s2.16-1.23,3.5-1.23c.56,0,1.36,.1,2.38,.29,.56,.11,.93,.16,1.11,.16,.03,1.28,.1,2.37,.21,3.28,0,.16-.16,.24-.47,.24-.27,0-.42-.09-.46-.26-.12-.79-.42-1.44-.89-1.93-.48-.49-1.05-.74-1.71-.74-1.69,0-2.53,.74-2.53,2.22,0,.5,.2,.96,.6,1.38,.4,.42,1.27,.97,2.61,1.65,1.6,.8,2.66,1.5,3.16,2.09,.51,.59,.76,1.25,.76,1.99Z"/>
      </g>
    </g>
  </g>
</svg>