<?xml version="1.0" encoding="UTF-8"?>
<svg id="Layer_2" data-name="Layer 2" xmlns="http://www.w3.org/2000/svg" viewBox="0 0 47.31 44.43">
  <defs>
    <style>
      .cls-1 {
        fill: none;
      }

      .cls-2 {
        fill: #4758ba;
      }

      .cls-3 {
        fill: #50754b;
      }
    </style>
  </defs>
  <g id="Logos">
    <g id="Variation_with_house" data-name="Variation with house">
      <g>
        <path class="cls-1" d="M18.59,27.36c1.83,0,3.38,2.03,4.93,4.52,2.73-2.3,5.14-5.54,7.97-5.82,3.74-.37,3.89,3.84,7.69,3.85,.06-.55,.1-1.11,.1-1.67,0-8.13-6.61-14.74-14.74-14.74s-14.74,6.61-14.74,14.74c0,1.28,.16,2.52,.47,3.71,2.07-.52,4.76-4.59,8.31-4.59Z"/>
        <path class="cls-2" d="M31.49,26.07c-2.83,.28-5.24,3.52-7.97,5.82,2.47,3.98,4.94,9.13,8.58,9.01,3.85-2.31,6.56-6.31,7.09-10.98-3.8,0-3.95-4.22-7.69-3.85Z"/>
        <path class="cls-3" d="M23.52,31.88c-1.55-2.49-3.09-4.52-4.93-4.52-3.55,0-6.25,4.07-8.31,4.59,1.65,6.34,7.42,11.03,14.26,11.03,2.76,0,5.34-.76,7.55-2.09-3.63,.12-6.1-5.03-8.58-9.01Z"/>
        <path d="M24.54,12.05c-8.94,0-16.19,7.25-16.19,16.19s7.25,16.19,16.19,16.19,16.19-7.25,16.19-16.19-7.25-16.19-16.19-16.19Zm0,1.45c8.13,0,14.74,6.61,14.74,14.74,0,.57-.04,1.12-.1,1.67-.53,4.66-3.24,8.67-7.09,10.98-2.21,1.33-4.79,2.09-7.55,2.09-6.85,0-12.62-4.69-14.26-11.03-.31-1.19-.47-2.43-.47-3.71,0-8.13,6.61-14.74,14.74-14.74Z"/>
      </g>
      <circle class="cls-3" cx="18.54" cy="23.03" r="2.46"/>
      <circle class="cls-2" cx="31.72" cy="21.91" r="2.46"/>
      <path d="M46.84,15.36l-11.25-7.72V1.57c0-.6-.48-1.08-1.08-1.08s-1.08,.48-1.08,1.08V6.15L24.74,.19c-.2-.14-.43-.19-.66-.18-.23-.01-.46,.04-.66,.18L.47,15.82c-.49,.34-.62,1.01-.28,1.5,.21,.31,.55,.47,.89,.47,.21,0,.42-.06,.61-.19l3.09-2.11v5.76c0,.42,.34,.76,.76,.76s.76-.34,.76-.76v-6.79L24.07,2.35l18.89,12.96v5.95c0,.42,.34,.76,.76,.76s.76-.34,.76-.76v-4.91l1.15,.79c.19,.13,.4,.19,.61,.19,.34,0,.68-.16,.89-.47,.34-.49,.21-1.17-.28-1.5Z"/>
    </g>
  </g>
</svg>