<?xml version="1.0" encoding="UTF-8"?>
<svg id="Layer_2" data-name="Layer 2" xmlns="http://www.w3.org/2000/svg" viewBox="0 0 132.51 135.17">
  <defs>
    <style>
      .cls-1 {
        fill: none;
      }

      .cls-2 {
        stroke: #000;
        stroke-miterlimit: 10;
      }

      .cls-3 {
        fill: #4758ba;
      }

      .cls-4 {
        fill: #50754b;
      }
    </style>
  </defs>
  <g id="Logos">
    <g>
      <g id="Variation_4_with_house" data-name="Variation 4 with house">
        <g>
          <path class="cls-1" d="M53.25,95.26c4.29,0,7.91,4.75,11.52,10.56,6.38-5.37,12.03-12.95,18.63-13.6,8.75-.85,9.1,8.99,17.98,9,.15-1.28,.23-2.59,.23-3.91,0-19-15.45-34.45-34.45-34.45s-34.45,15.45-34.45,34.45c0,2.99,.39,5.9,1.11,8.67,4.83-1.22,11.14-10.73,19.43-10.73Z"/>
          <path class="cls-3" d="M83.4,92.23c-6.6,.64-12.25,8.23-18.63,13.6,5.78,9.3,11.56,21.33,20.05,21.06,8.99-5.39,15.33-14.76,16.56-25.66-8.89-.02-9.24-9.86-17.98-9Z"/>
          <path class="cls-4" d="M64.77,105.82c-3.61-5.81-7.23-10.56-11.52-10.56-8.29,0-14.6,9.5-19.43,10.73,3.85,14.81,17.34,25.78,33.34,25.78,6.45,0,12.49-1.79,17.66-4.88-8.5,.27-14.27-11.76-20.05-21.06Z"/>
          <path d="M67.16,59.47c-20.9,0-37.85,16.95-37.85,37.85s16.95,37.85,37.85,37.85,37.85-16.95,37.85-37.85-16.95-37.85-37.85-37.85Zm0,3.4c19,0,34.45,15.45,34.45,34.45,0,1.32-.08,2.62-.23,3.91-1.24,10.9-7.57,20.27-16.56,25.66-5.17,3.1-11.21,4.88-17.66,4.88-16,0-29.49-10.97-33.34-25.78-.72-2.77-1.11-5.68-1.11-8.67,0-19,15.45-34.45,34.45-34.45Z"/>
        </g>
        <circle class="cls-4" cx="53.14" cy="85.13" r="5.75"/>
        <circle class="cls-3" cx="83.94" cy="82.52" r="5.75"/>
        <path d="M131.2,70.07l-31.5-21.61V31.47c0-1.67-1.36-3.03-3.03-3.03s-3.03,1.36-3.03,3.03v12.83l-24.36-16.72c-.56-.39-1.21-.55-1.85-.52-.64-.03-1.29,.13-1.85,.51L1.32,71.36c-1.38,.94-1.74,2.83-.8,4.21,.59,.86,1.54,1.32,2.5,1.32,.59,0,1.18-.17,1.7-.53l8.65-5.9v16.13c0,1.17,.95,2.12,2.12,2.12s2.12-.95,2.12-2.12v-19.02l49.8-33.93,52.9,36.3v16.65c0,1.17,.95,2.12,2.12,2.12s2.12-.95,2.12-2.12v-13.75l3.21,2.2c.52,.36,1.12,.53,1.71,.53,.96,0,1.91-.46,2.5-1.31,.95-1.38,.6-3.26-.78-4.21Z"/>
      </g>
      <g>
        <path class="cls-2" d="M23.01,13.28c0,1.49-.5,2.69-1.5,3.59-1,.9-2.33,1.35-3.98,1.35-.54,0-1.31-.02-2.3-.07-.94-.05-1.66-.07-2.16-.07s-1.15,.02-1.99,.07c-.86,.05-1.57,.07-2.11,.07-.13,0-.19-.11-.19-.34,0-.2,.06-.31,.19-.33,.98-.11,1.64-.29,1.99-.55s.53-.75,.53-1.5V4.1c0-.57-.07-.96-.21-1.19-.14-.23-.39-.41-.74-.55-.36-.13-.88-.24-1.56-.32-.13,0-.19-.11-.19-.33s.06-.33,.19-.33c.54,0,1.2,.02,1.99,.07,.75,.05,1.37,.07,1.86,.07s1.14-.02,1.94-.07c.85-.05,1.54-.07,2.08-.07,1.51,0,2.73,.36,3.65,1.08,.93,.72,1.39,1.67,1.39,2.85,0,.82-.34,1.59-1.03,2.31s-1.53,1.19-2.54,1.41c1.43,.28,2.57,.8,3.42,1.56s1.28,1.66,1.28,2.7Zm-3.8-7.99c0-1.07-.26-1.85-.79-2.35s-1.34-.75-2.45-.75h-.48c-1.02,0-1.53,.44-1.53,1.31v5.28h1.74c1.23,0,2.12-.27,2.67-.82,.55-.55,.83-1.43,.83-2.66Zm1.14,7.99c0-1.16-.33-2.08-.99-2.74-.66-.66-1.58-.99-2.75-.99h-2.64v5.97c0,.74,.21,1.24,.63,1.51,.42,.27,1.14,.41,2.16,.41s1.92-.38,2.59-1.15c.67-.76,1.01-1.76,1.01-3Z"/>
        <path class="cls-2" d="M36.56,13.06c0,1.61-.52,2.93-1.57,3.97-1.05,1.04-2.4,1.56-4.07,1.56s-3.02-.52-4.07-1.56c-1.05-1.04-1.58-2.36-1.58-3.96s.53-2.97,1.59-4.05c1.06-1.08,2.41-1.62,4.06-1.62s3.01,.54,4.06,1.61c1.05,1.07,1.58,2.43,1.58,4.06Zm-2.45-.02c0-1.48-.28-2.66-.85-3.54s-1.35-1.33-2.34-1.33-1.76,.44-2.34,1.33-.86,2.07-.86,3.54,.28,2.62,.85,3.48,1.35,1.29,2.35,1.29,1.78-.43,2.35-1.28c.57-.85,.85-2.02,.85-3.49Z"/>
        <path class="cls-2" d="M46.42,8.6c0,.32-.1,.6-.3,.82-.2,.23-.44,.34-.72,.34-.36,0-.71-.12-1.05-.35-.27-.19-.51-.28-.71-.28-.52,0-1.07,.31-1.62,.92v5.45c0,.7,.12,1.19,.36,1.47,.24,.28,.76,.47,1.55,.57,.13,.02,.19,.13,.19,.33,0,.23-.06,.34-.19,.34-.33,0-.8-.02-1.4-.07-.67-.05-1.2-.07-1.59-.07s-.89,.02-1.46,.07c-.52,.05-.94,.07-1.27,.07-.13,0-.19-.11-.19-.34,0-.2,.06-.31,.19-.33,.7-.09,1.15-.25,1.35-.5s.3-.76,.3-1.55v-4.47c0-.65-.08-1.07-.25-1.27s-.53-.33-1.11-.4c-.13,0-.19-.11-.19-.32,0-.2,.06-.3,.19-.3,.8-.2,1.46-.43,1.98-.67,.52-.25,.86-.46,1.02-.64,.1-.1,.19-.15,.29-.15,.22,0,.34,.06,.34,.19l-.1,1.53c.65-.6,1.2-1.02,1.67-1.26,.46-.24,.93-.36,1.39-.36,.37,0,.69,.12,.96,.36,.27,.24,.4,.53,.4,.85Z"/>
        <path class="cls-2" d="M59.4,17.41c0,.17-.06,.27-.19,.28-.46,.06-.99,.17-1.6,.34-.61,.17-1.08,.34-1.42,.51-.18,.09-.31,.13-.39,.13-.13,0-.19-.06-.19-.19l.1-1.31c-.86,.94-1.95,1.41-3.27,1.41-1.4,0-2.59-.54-3.57-1.61-.98-1.07-1.47-2.36-1.47-3.86,0-1.7,.54-3.08,1.63-4.14,1.09-1.05,2.45-1.58,4.09-1.58,.94,0,1.8,.29,2.59,.87V4.24c0-.65-.08-1.08-.24-1.28-.16-.2-.53-.33-1.11-.4-.13-.02-.19-.12-.19-.31,0-.21,.06-.32,.19-.32,.76-.18,1.42-.39,1.98-.64s.94-.47,1.13-.67c.08-.08,.17-.12,.26-.12,.23,0,.34,.06,.34,.19-.13,1.76-.19,3.16-.19,4.21V15.57c0,.56,.08,.93,.24,1.12,.16,.19,.53,.32,1.11,.41,.13,0,.19,.11,.19,.32Zm-3.71-1.29v-6.21c0-.42-.24-.81-.73-1.19-.49-.37-1.02-.56-1.59-.56-2.36,0-3.54,1.66-3.54,4.97,0,1.31,.28,2.4,.85,3.26,.57,.87,1.31,1.3,2.23,1.3,.52,0,1-.12,1.43-.36,.43-.24,.88-.65,1.36-1.22Z"/>
        <path class="cls-2" d="M69.99,11.34c0,.23-.15,.34-.44,.34h-6.64c-.05,.44-.07,.89-.07,1.36,0,1.3,.31,2.3,.93,3s1.5,1.05,2.63,1.05c.57,0,1.15-.15,1.73-.46,.58-.31,1.05-.7,1.4-1.17l.06-.02c.07,0,.14,.04,.21,.13,.07,.09,.1,.19,.1,.32,0,.17-.26,.52-.78,1.06s-1.08,.95-1.68,1.23c-.61,.28-1.24,.42-1.9,.42-1.45,0-2.68-.53-3.67-1.6-.99-1.07-1.49-2.37-1.49-3.92s.49-2.92,1.46-4.02c.97-1.1,2.21-1.65,3.7-1.65,1.25,0,2.3,.41,3.16,1.23,.85,.82,1.28,1.73,1.28,2.72Zm-2.2-1.07c0-.61-.21-1.11-.62-1.51s-.95-.6-1.6-.6-1.16,.26-1.62,.78c-.46,.52-.77,1.21-.93,2.05l3.37-.1c.51,0,.87-.06,1.08-.15,.21-.09,.32-.25,.32-.48Z"/>
        <path class="cls-2" d="M79.89,8.6c0,.32-.1,.6-.3,.82-.2,.23-.44,.34-.72,.34-.36,0-.71-.12-1.05-.35-.27-.19-.51-.28-.71-.28-.52,0-1.07,.31-1.62,.92v5.45c0,.7,.12,1.19,.36,1.47,.24,.28,.76,.47,1.55,.57,.13,.02,.19,.13,.19,.33,0,.23-.06,.34-.19,.34-.33,0-.8-.02-1.4-.07-.67-.05-1.2-.07-1.59-.07s-.89,.02-1.46,.07c-.52,.05-.94,.07-1.27,.07-.13,0-.19-.11-.19-.34,0-.2,.06-.31,.19-.33,.7-.09,1.15-.25,1.35-.5s.3-.76,.3-1.55v-4.47c0-.65-.08-1.07-.25-1.27s-.53-.33-1.11-.4c-.13,0-.19-.11-.19-.32,0-.2,.06-.3,.19-.3,.8-.2,1.46-.43,1.98-.67,.52-.25,.86-.46,1.02-.64,.1-.1,.19-.15,.29-.15,.22,0,.34,.06,.34,.19l-.1,1.53c.65-.6,1.2-1.02,1.67-1.26,.46-.24,.93-.36,1.39-.36,.37,0,.69,.12,.96,.36,.27,.24,.4,.53,.4,.85Z"/>
        <path class="cls-2" d="M95.38,13.76c-.38,1.42-.68,2.91-.9,4.46-3.09-.1-5.29-.15-6.6-.15s-3.46,.05-6.52,.15c-.13,0-.19-.11-.19-.34,0-.2,.06-.31,.19-.33,.98-.11,1.64-.29,1.99-.55s.53-.75,.53-1.5V4.1c0-.57-.07-.96-.21-1.19-.14-.23-.39-.41-.74-.55-.36-.13-.88-.24-1.56-.32-.13,0-.19-.11-.19-.33s.06-.33,.19-.33c.54,0,1.19,.02,1.94,.07,.72,.05,1.32,.07,1.82,.07s1.09-.02,1.8-.07c.74-.05,1.38-.07,1.93-.07,.13,0,.19,.11,.19,.33s-.06,.33-.19,.33c-.68,.08-1.19,.19-1.55,.32-.36,.13-.6,.31-.74,.54-.14,.23-.21,.63-.21,1.2V15.87c0,.95,.47,1.43,1.4,1.43h2.4c.99,0,1.83-.26,2.52-.79,.69-.53,1.36-1.52,2.03-2.96,.03-.06,.11-.1,.23-.1,.1,0,.2,.03,.3,.1,.09,.07,.14,.14,.14,.22Z"/>
        <path class="cls-2" d="M105.91,11.34c0,.23-.15,.34-.44,.34h-6.64c-.05,.44-.07,.89-.07,1.36,0,1.3,.31,2.3,.93,3s1.5,1.05,2.63,1.05c.57,0,1.15-.15,1.73-.46,.58-.31,1.05-.7,1.4-1.17l.06-.02c.07,0,.14,.04,.21,.13,.07,.09,.1,.19,.1,.32,0,.17-.26,.52-.78,1.06s-1.08,.95-1.68,1.23c-.61,.28-1.24,.42-1.9,.42-1.45,0-2.68-.53-3.67-1.6-.99-1.07-1.49-2.37-1.49-3.92s.49-2.92,1.46-4.02c.97-1.1,2.21-1.65,3.7-1.65,1.25,0,2.3,.41,3.16,1.23,.85,.82,1.28,1.73,1.28,2.72Zm-2.2-1.07c0-.61-.21-1.11-.62-1.51s-.95-.6-1.6-.6-1.16,.26-1.62,.78c-.46,.52-.77,1.21-.93,2.05l3.37-.1c.51,0,.87-.06,1.08-.15,.21-.09,.32-.25,.32-.48Z"/>
        <path class="cls-2" d="M115.28,15.09c0,.99-.39,1.81-1.16,2.48s-1.71,1.01-2.81,1.01c-.39,0-.98-.08-1.79-.25-.6-.12-1.02-.18-1.23-.18-.06-.57-.21-1.43-.45-2.58,0-.12,.12-.18,.35-.18,.19,0,.31,.07,.35,.19,.19,.6,.55,1.12,1.1,1.56,.55,.44,1.11,.67,1.7,.67s1.08-.16,1.41-.5c.34-.33,.5-.8,.5-1.39,0-.38-.14-.71-.42-1.01-.28-.29-.88-.65-1.81-1.08-1.22-.56-2.02-1.08-2.42-1.57-.39-.49-.59-1.08-.59-1.77,0-.85,.37-1.58,1.1-2.19s1.6-.91,2.6-.91c.42,0,1.01,.07,1.77,.22,.42,.08,.69,.12,.82,.12,.02,.95,.08,1.76,.16,2.43,0,.12-.12,.18-.35,.18-.2,0-.31-.06-.34-.19-.09-.59-.31-1.07-.66-1.44-.35-.37-.78-.55-1.27-.55-1.26,0-1.88,.55-1.88,1.65,0,.37,.15,.71,.45,1.03,.3,.32,.94,.72,1.94,1.22,1.19,.6,1.97,1.11,2.35,1.55,.38,.44,.57,.93,.57,1.48Z"/>
        <path class="cls-2" d="M125.14,15.09c0,.99-.39,1.81-1.16,2.48s-1.71,1.01-2.81,1.01c-.39,0-.98-.08-1.79-.25-.6-.12-1.02-.18-1.23-.18-.06-.57-.21-1.43-.45-2.58,0-.12,.12-.18,.35-.18,.19,0,.31,.07,.35,.19,.19,.6,.55,1.12,1.1,1.56,.55,.44,1.11,.67,1.7,.67s1.08-.16,1.41-.5c.34-.33,.5-.8,.5-1.39,0-.38-.14-.71-.42-1.01-.28-.29-.88-.65-1.81-1.08-1.22-.56-2.02-1.08-2.42-1.57-.39-.49-.59-1.08-.59-1.77,0-.85,.37-1.58,1.1-2.19s1.6-.91,2.6-.91c.42,0,1.01,.07,1.77,.22,.42,.08,.69,.12,.82,.12,.02,.95,.08,1.76,.16,2.43,0,.12-.12,.18-.35,.18-.2,0-.31-.06-.34-.19-.09-.59-.31-1.07-.66-1.44-.35-.37-.78-.55-1.27-.55-1.26,0-1.88,.55-1.88,1.65,0,.37,.15,.71,.45,1.03,.3,.32,.94,.72,1.94,1.22,1.19,.6,1.97,1.11,2.35,1.55,.38,.44,.57,.93,.57,1.48Z"/>
      </g>
    </g>
  </g>
</svg>