<?xml version="1.0" encoding="UTF-8"?>
<svg id="Layer_2" data-name="Layer 2" xmlns="http://www.w3.org/2000/svg" viewBox="0 0 516.93 119.76">
  <defs>
    <style>
      .cls-1 {
        fill: #4758ba;
      }

      .cls-2 {
        fill: #50754b;
      }
    </style>
  </defs>
  <g id="Logos">
    <g>
      <path d="M32.93,26.64c0,3.11-1.04,5.61-3.13,7.49-2.09,1.88-4.86,2.82-8.31,2.82-1.13,0-2.73-.05-4.8-.15-1.97-.1-3.47-.15-4.49-.15s-2.41,.05-4.14,.15c-1.8,.1-3.27,.15-4.39,.15-.27,0-.4-.24-.4-.71,0-.42,.13-.65,.4-.68,2.04-.24,3.42-.61,4.15-1.14s1.1-1.57,1.1-3.13V7.5c0-1.18-.15-2.01-.44-2.49-.29-.48-.81-.86-1.55-1.14-.74-.28-1.83-.5-3.26-.67-.27,0-.4-.23-.4-.69s.13-.69,.4-.69c1.13,0,2.51,.05,4.14,.15,1.56,.1,2.86,.15,3.89,.15s2.37-.05,4.04-.15c1.77-.1,3.21-.15,4.34-.15,3.14,0,5.68,.75,7.62,2.25,1.93,1.5,2.9,3.48,2.9,5.93,0,1.72-.72,3.32-2.15,4.81s-3.2,2.47-5.3,2.94c2.98,.59,5.36,1.68,7.13,3.26s2.66,3.46,2.66,5.63Zm-7.93-16.65c0-2.23-.55-3.86-1.64-4.91s-2.79-1.57-5.1-1.57h-1.01c-2.12,0-3.18,.91-3.18,2.73v11h3.64c2.56,0,4.41-.57,5.57-1.71,1.15-1.14,1.73-2.99,1.73-5.55Zm2.37,16.67c0-2.43-.69-4.33-2.07-5.72-1.38-1.38-3.29-2.07-5.73-2.07h-5.5v12.44c0,1.53,.44,2.58,1.31,3.15,.87,.56,2.37,.85,4.49,.85s4.01-.8,5.4-2.39c1.4-1.59,2.1-3.68,2.1-6.26Z"/>
      <path d="M61.18,26.18c0,3.35-1.09,6.11-3.27,8.27-2.18,2.16-5.01,3.25-8.48,3.25s-6.3-1.09-8.49-3.26c-2.19-2.17-3.29-4.92-3.29-8.26s1.1-6.2,3.31-8.45c2.21-2.25,5.03-3.37,8.47-3.37s6.28,1.12,8.47,3.36c2.19,2.24,3.29,5.06,3.29,8.46Zm-5.1-.05c0-3.08-.59-5.54-1.78-7.39s-2.82-2.77-4.89-2.77-3.68,.93-4.87,2.78-1.79,4.31-1.79,7.37,.59,5.47,1.77,7.26,2.81,2.69,4.9,2.69,3.72-.89,4.9-2.66c1.18-1.78,1.77-4.2,1.77-7.29Z"/>
      <path d="M81.74,16.89c0,.67-.21,1.25-.62,1.72-.41,.47-.91,.71-1.5,.71-.74,0-1.47-.24-2.2-.73-.57-.39-1.07-.58-1.49-.58-1.09,0-2.22,.64-3.38,1.92v11.36c0,1.46,.25,2.49,.76,3.07,.5,.58,1.58,.98,3.23,1.2,.27,.03,.4,.26,.4,.68,0,.47-.14,.71-.4,.71-.69,0-1.67-.05-2.93-.15-1.39-.1-2.5-.15-3.32-.15s-1.85,.05-3.04,.15c-1.08,.1-1.96,.15-2.65,.15-.27,0-.4-.24-.4-.71,0-.42,.13-.65,.4-.68,1.46-.18,2.4-.53,2.82-1.03s.62-1.58,.62-3.23v-9.33c0-1.35-.17-2.23-.52-2.65s-1.12-.7-2.31-.83c-.27,0-.4-.22-.4-.67,0-.41,.13-.62,.4-.62,1.67-.42,3.04-.89,4.12-1.4,1.08-.51,1.79-.96,2.12-1.33,.2-.2,.4-.3,.6-.3,.47,0,.7,.13,.7,.4l-.2,3.18c1.35-1.25,2.5-2.12,3.47-2.63,.97-.51,1.93-.76,2.89-.76,.77,0,1.44,.25,1.99,.76,.56,.51,.83,1.09,.83,1.77Z"/>
      <path d="M108.81,35.26c0,.36-.14,.56-.4,.59-.96,.12-2.07,.35-3.34,.71-1.27,.35-2.26,.71-2.97,1.06-.37,.18-.64,.28-.81,.28-.27,0-.41-.13-.41-.4l.2-2.73c-1.78,1.95-4.06,2.93-6.82,2.93-2.91,0-5.39-1.12-7.44-3.36-2.04-2.24-3.07-4.92-3.07-8.05,0-3.55,1.13-6.43,3.4-8.62,2.26-2.2,5.1-3.29,8.52-3.29,1.95,0,3.75,.61,5.4,1.82V7.79c0-1.36-.17-2.25-.5-2.67-.34-.42-1.11-.7-2.32-.83-.27-.03-.4-.25-.4-.64,0-.45,.14-.67,.41-.67,1.59-.37,2.96-.82,4.13-1.34s1.95-.99,2.36-1.39c.17-.17,.35-.25,.53-.25,.47,0,.71,.13,.71,.4-.27,3.67-.4,6.59-.4,8.78V31.41c0,1.16,.17,1.94,.5,2.33,.34,.39,1.11,.68,2.32,.84,.27,0,.4,.22,.4,.67Zm-7.73-2.69v-12.95c0-.87-.51-1.7-1.53-2.47-1.02-.77-2.13-1.16-3.32-1.16-4.92,0-7.37,3.46-7.37,10.37,0,2.73,.59,5,1.77,6.8,1.18,1.8,2.73,2.71,4.65,2.71,1.09,0,2.09-.25,2.98-.75,.89-.5,1.83-1.35,2.83-2.54Z"/>
      <path d="M130.88,22.6c0,.47-.3,.71-.91,.71h-13.84c-.1,.91-.15,1.85-.15,2.83,0,2.71,.64,4.79,1.93,6.25s3.12,2.18,5.49,2.18c1.2,0,2.4-.32,3.61-.96,1.21-.64,2.19-1.45,2.93-2.45l.13-.05c.15,0,.3,.09,.44,.28,.14,.19,.21,.4,.21,.66,0,.35-.54,1.09-1.62,2.21s-2.25,1.97-3.51,2.56c-1.26,.59-2.58,.88-3.96,.88-3.03,0-5.58-1.11-7.65-3.33-2.07-2.22-3.11-4.95-3.11-8.18s1.01-6.09,3.04-8.38c2.03-2.29,4.6-3.43,7.71-3.43,2.61,0,4.8,.85,6.58,2.56,1.78,1.71,2.66,3.6,2.66,5.67Zm-4.6-2.22c0-1.26-.43-2.31-1.3-3.14s-1.98-1.25-3.35-1.25-2.42,.54-3.37,1.63c-.95,1.09-1.6,2.51-1.93,4.28l7.02-.2c1.06-.02,1.81-.12,2.26-.3,.45-.18,.67-.52,.67-1.01Z"/>
      <path d="M151.53,16.89c0,.67-.21,1.25-.62,1.72-.41,.47-.91,.71-1.5,.71-.74,0-1.47-.24-2.2-.73-.57-.39-1.07-.58-1.49-.58-1.09,0-2.22,.64-3.38,1.92v11.36c0,1.46,.25,2.49,.76,3.07,.5,.58,1.58,.98,3.23,1.2,.27,.03,.4,.26,.4,.68,0,.47-.14,.71-.4,.71-.69,0-1.67-.05-2.93-.15-1.39-.1-2.5-.15-3.32-.15s-1.85,.05-3.04,.15c-1.08,.1-1.96,.15-2.65,.15-.27,0-.4-.24-.4-.71,0-.42,.13-.65,.4-.68,1.46-.18,2.4-.53,2.82-1.03s.62-1.58,.62-3.23v-9.33c0-1.35-.17-2.23-.52-2.65s-1.12-.7-2.31-.83c-.27,0-.4-.22-.4-.67,0-.41,.13-.62,.4-.62,1.67-.42,3.04-.89,4.12-1.4,1.08-.51,1.79-.96,2.12-1.33,.2-.2,.4-.3,.6-.3,.47,0,.7,.13,.7,.4l-.2,3.18c1.35-1.25,2.5-2.12,3.47-2.63,.97-.51,1.93-.76,2.89-.76,.77,0,1.44,.25,1.99,.76,.56,.51,.83,1.09,.83,1.77Z"/>
      <path d="M183.83,27.65c-.79,2.96-1.41,6.06-1.87,9.29-6.45-.2-11.03-.3-13.76-.3s-7.22,.1-13.59,.3c-.27,0-.4-.24-.4-.71,0-.42,.13-.65,.4-.68,2.04-.24,3.42-.61,4.15-1.14s1.1-1.57,1.1-3.13V7.5c0-1.18-.15-2.01-.44-2.49-.29-.48-.81-.86-1.55-1.14-.74-.28-1.83-.5-3.26-.67-.27,0-.4-.23-.4-.69s.13-.69,.4-.69c1.13,0,2.47,.05,4.04,.15,1.5,.1,2.76,.15,3.79,.15s2.28-.05,3.76-.15c1.55-.1,2.89-.15,4.01-.15,.27,0,.4,.23,.4,.69s-.14,.69-.4,.69c-1.41,.17-2.49,.39-3.23,.67-.74,.28-1.25,.65-1.54,1.12-.29,.47-.43,1.31-.43,2.5v24.54c0,1.99,.98,2.98,2.93,2.98h5c2.07,0,3.82-.55,5.25-1.65,1.43-1.1,2.84-3.16,4.24-6.17,.07-.13,.23-.2,.48-.2,.22,0,.43,.07,.62,.2,.19,.14,.29,.29,.29,.45Z"/>
      <path d="M205.77,22.6c0,.47-.3,.71-.91,.71h-13.84c-.1,.91-.15,1.85-.15,2.83,0,2.71,.64,4.79,1.93,6.25s3.12,2.18,5.49,2.18c1.2,0,2.4-.32,3.61-.96,1.21-.64,2.19-1.45,2.93-2.45l.13-.05c.15,0,.3,.09,.44,.28,.14,.19,.21,.4,.21,.66,0,.35-.54,1.09-1.62,2.21s-2.25,1.97-3.51,2.56c-1.26,.59-2.58,.88-3.96,.88-3.03,0-5.58-1.11-7.65-3.33-2.07-2.22-3.11-4.95-3.11-8.18s1.01-6.09,3.04-8.38c2.03-2.29,4.6-3.43,7.71-3.43,2.61,0,4.8,.85,6.58,2.56,1.78,1.71,2.66,3.6,2.66,5.67Zm-4.6-2.22c0-1.26-.43-2.31-1.3-3.14s-1.98-1.25-3.35-1.25-2.42,.54-3.37,1.63c-.95,1.09-1.6,2.51-1.93,4.28l7.02-.2c1.06-.02,1.81-.12,2.26-.3,.45-.18,.67-.52,.67-1.01Z"/>
      <path d="M225.31,30.43c0,2.05-.81,3.78-2.42,5.18s-3.56,2.1-5.85,2.1c-.81,0-2.05-.18-3.73-.53-1.26-.25-2.12-.38-2.57-.38-.14-1.18-.45-2.97-.93-5.38,0-.25,.24-.38,.73-.38,.4,0,.65,.14,.73,.4,.39,1.25,1.15,2.33,2.3,3.26,1.14,.93,2.32,1.39,3.53,1.39s2.24-.34,2.94-1.03c.7-.69,1.05-1.66,1.05-2.9,0-.79-.29-1.49-.87-2.1-.58-.61-1.84-1.36-3.78-2.25-2.54-1.16-4.22-2.26-5.04-3.28-.82-1.03-1.22-2.26-1.22-3.69,0-1.77,.77-3.29,2.3-4.56s3.34-1.91,5.43-1.91c.87,0,2.1,.15,3.69,.45,.87,.17,1.45,.25,1.72,.25,.05,1.99,.16,3.68,.33,5.08,0,.25-.24,.38-.73,.38-.42,0-.66-.13-.71-.4-.18-1.23-.65-2.23-1.38-2.99-.74-.77-1.62-1.15-2.64-1.15-2.62,0-3.93,1.15-3.93,3.44,0,.77,.31,1.49,.93,2.15,.62,.66,1.97,1.51,4.05,2.55,2.48,1.25,4.11,2.32,4.9,3.23,.79,.91,1.18,1.94,1.18,3.08Z"/>
      <path d="M245.87,30.43c0,2.05-.81,3.78-2.42,5.18s-3.56,2.1-5.85,2.1c-.81,0-2.05-.18-3.73-.53-1.26-.25-2.12-.38-2.57-.38-.14-1.18-.45-2.97-.93-5.38,0-.25,.24-.38,.73-.38,.4,0,.65,.14,.73,.4,.39,1.25,1.15,2.33,2.3,3.26,1.14,.93,2.32,1.39,3.53,1.39s2.24-.34,2.94-1.03c.7-.69,1.05-1.66,1.05-2.9,0-.79-.29-1.49-.87-2.1-.58-.61-1.84-1.36-3.78-2.25-2.54-1.16-4.22-2.26-5.04-3.28-.82-1.03-1.22-2.26-1.22-3.69,0-1.77,.77-3.29,2.3-4.56s3.34-1.91,5.43-1.91c.87,0,2.1,.15,3.69,.45,.87,.17,1.45,.25,1.72,.25,.05,1.99,.16,3.68,.33,5.08,0,.25-.24,.38-.73,.38-.42,0-.66-.13-.71-.4-.18-1.23-.65-2.23-1.38-2.99-.74-.77-1.62-1.15-2.64-1.15-2.62,0-3.93,1.15-3.93,3.44,0,.77,.31,1.49,.93,2.15,.62,.66,1.97,1.51,4.05,2.55,2.48,1.25,4.11,2.32,4.9,3.23,.79,.91,1.18,1.94,1.18,3.08Z"/>
    </g>
    <g>
      <path class="cls-2" d="M29.67,108.5c0,3.11-1.04,5.61-3.13,7.49-2.09,1.88-4.86,2.82-8.31,2.82-1.13,0-2.73-.05-4.8-.15-1.97-.1-3.47-.15-4.49-.15s-2.41,.05-4.14,.15c-1.8,.1-3.27,.15-4.39,.15-.27,0-.4-.24-.4-.71,0-.42,.13-.65,.4-.68,2.04-.24,3.42-.61,4.15-1.14s1.1-1.57,1.1-3.13v-23.78c0-1.18-.15-2.01-.44-2.49-.29-.48-.81-.86-1.55-1.14-.74-.28-1.83-.5-3.26-.67-.27,0-.4-.23-.4-.69s.13-.69,.4-.69c1.13,0,2.51,.05,4.14,.15,1.56,.1,2.86,.15,3.89,.15s2.37-.05,4.04-.15c1.77-.1,3.21-.15,4.34-.15,3.14,0,5.68,.75,7.62,2.25,1.93,1.5,2.9,3.48,2.9,5.93,0,1.72-.72,3.32-2.15,4.81s-3.2,2.47-5.3,2.94c2.98,.59,5.36,1.68,7.13,3.26s2.66,3.46,2.66,5.63Zm-7.93-16.65c0-2.23-.55-3.86-1.64-4.91s-2.79-1.57-5.1-1.57h-1.01c-2.12,0-3.18,.91-3.18,2.73v11h3.64c2.56,0,4.41-.57,5.57-1.71,1.15-1.14,1.73-2.99,1.73-5.55Zm2.37,16.67c0-2.43-.69-4.33-2.07-5.72-1.38-1.38-3.29-2.07-5.73-2.07h-5.5v12.44c0,1.53,.44,2.58,1.31,3.15,.87,.56,2.37,.85,4.49,.85s4.01-.8,5.4-2.39c1.4-1.59,2.1-3.68,2.1-6.26Z"/>
      <path class="cls-2" d="M57.93,108.04c0,3.35-1.09,6.11-3.27,8.27-2.18,2.16-5.01,3.25-8.48,3.25s-6.3-1.09-8.49-3.26c-2.19-2.17-3.29-4.92-3.29-8.26s1.1-6.2,3.31-8.45c2.21-2.25,5.03-3.37,8.47-3.37s6.28,1.12,8.47,3.36c2.19,2.24,3.29,5.06,3.29,8.46Zm-5.1-.05c0-3.08-.59-5.54-1.78-7.39s-2.82-2.77-4.89-2.77-3.68,.93-4.87,2.78-1.79,4.31-1.79,7.37,.59,5.47,1.77,7.26,2.81,2.69,4.9,2.69,3.72-.89,4.9-2.66c1.18-1.78,1.77-4.2,1.77-7.29Z"/>
      <path class="cls-2" d="M78.48,98.75c0,.67-.21,1.25-.62,1.72-.41,.47-.91,.71-1.5,.71-.74,0-1.47-.24-2.2-.73-.57-.39-1.07-.58-1.49-.58-1.09,0-2.22,.64-3.38,1.92v11.36c0,1.46,.25,2.49,.76,3.07,.5,.58,1.58,.98,3.23,1.2,.27,.03,.4,.26,.4,.68,0,.47-.14,.71-.4,.71-.69,0-1.67-.05-2.93-.15-1.39-.1-2.5-.15-3.32-.15s-1.85,.05-3.04,.15c-1.08,.1-1.96,.15-2.65,.15-.27,0-.4-.24-.4-.71,0-.42,.13-.65,.4-.68,1.46-.18,2.4-.53,2.82-1.03s.62-1.58,.62-3.23v-9.33c0-1.35-.17-2.23-.52-2.65s-1.12-.7-2.31-.83c-.27,0-.4-.22-.4-.67,0-.41,.13-.62,.4-.62,1.67-.42,3.04-.89,4.12-1.4,1.08-.51,1.79-.96,2.12-1.33,.2-.2,.4-.3,.6-.3,.47,0,.7,.13,.7,.4l-.2,3.18c1.35-1.25,2.5-2.12,3.47-2.63,.97-.51,1.93-.76,2.89-.76,.77,0,1.44,.25,1.99,.76,.56,.51,.83,1.09,.83,1.77Z"/>
      <path class="cls-2" d="M105.55,117.12c0,.36-.14,.56-.4,.59-.96,.12-2.07,.35-3.34,.71-1.27,.35-2.26,.71-2.97,1.06-.37,.18-.64,.28-.81,.28-.27,0-.41-.13-.41-.4l.2-2.73c-1.78,1.95-4.06,2.93-6.82,2.93-2.91,0-5.39-1.12-7.44-3.36-2.04-2.24-3.07-4.92-3.07-8.05,0-3.55,1.13-6.43,3.4-8.62,2.26-2.2,5.1-3.29,8.52-3.29,1.95,0,3.75,.61,5.4,1.82v-8.39c0-1.36-.17-2.25-.5-2.67-.34-.42-1.11-.7-2.32-.83-.27-.03-.4-.25-.4-.64,0-.45,.14-.67,.41-.67,1.59-.37,2.96-.82,4.13-1.34s1.95-.99,2.36-1.39c.17-.17,.35-.25,.53-.25,.47,0,.71,.13,.71,.4-.27,3.67-.4,6.59-.4,8.78v22.23c0,1.16,.17,1.94,.5,2.33,.34,.39,1.11,.68,2.32,.84,.27,0,.4,.22,.4,.67Zm-7.73-2.69v-12.95c0-.87-.51-1.7-1.53-2.47-1.02-.77-2.13-1.16-3.32-1.16-4.92,0-7.37,3.46-7.37,10.37,0,2.73,.59,5,1.77,6.8,1.18,1.8,2.73,2.71,4.65,2.71,1.09,0,2.09-.25,2.98-.75,.89-.5,1.83-1.35,2.83-2.54Z"/>
      <path class="cls-2" d="M127.62,104.46c0,.47-.3,.71-.91,.71h-13.84c-.1,.91-.15,1.85-.15,2.83,0,2.71,.64,4.79,1.93,6.25s3.12,2.18,5.49,2.18c1.2,0,2.4-.32,3.61-.96,1.21-.64,2.19-1.45,2.93-2.45l.13-.05c.15,0,.3,.09,.44,.28,.14,.19,.21,.4,.21,.66,0,.35-.54,1.09-1.62,2.21s-2.25,1.97-3.51,2.56c-1.26,.59-2.58,.88-3.96,.88-3.03,0-5.58-1.11-7.65-3.33-2.07-2.22-3.11-4.95-3.11-8.18s1.01-6.09,3.04-8.38c2.03-2.29,4.6-3.43,7.71-3.43,2.61,0,4.8,.85,6.58,2.56,1.78,1.71,2.66,3.6,2.66,5.67Zm-4.6-2.22c0-1.26-.43-2.31-1.3-3.14s-1.98-1.25-3.35-1.25-2.42,.54-3.37,1.63c-.95,1.09-1.6,2.51-1.93,4.28l7.02-.2c1.06-.02,1.81-.12,2.26-.3,.45-.18,.67-.52,.67-1.01Z"/>
      <path class="cls-2" d="M148.27,98.75c0,.67-.21,1.25-.62,1.72-.41,.47-.91,.71-1.5,.71-.74,0-1.47-.24-2.2-.73-.57-.39-1.07-.58-1.49-.58-1.09,0-2.22,.64-3.38,1.92v11.36c0,1.46,.25,2.49,.76,3.07,.5,.58,1.58,.98,3.23,1.2,.27,.03,.4,.26,.4,.68,0,.47-.14,.71-.4,.71-.69,0-1.67-.05-2.93-.15-1.39-.1-2.5-.15-3.32-.15s-1.85,.05-3.04,.15c-1.08,.1-1.96,.15-2.65,.15-.27,0-.4-.24-.4-.71,0-.42,.13-.65,.4-.68,1.46-.18,2.4-.53,2.82-1.03s.62-1.58,.62-3.23v-9.33c0-1.35-.17-2.23-.52-2.65s-1.12-.7-2.31-.83c-.27,0-.4-.22-.4-.67,0-.41,.13-.62,.4-.62,1.67-.42,3.04-.89,4.12-1.4,1.08-.51,1.79-.96,2.12-1.33,.2-.2,.4-.3,.6-.3,.47,0,.7,.13,.7,.4l-.2,3.18c1.35-1.25,2.5-2.12,3.47-2.63,.97-.51,1.93-.76,2.89-.76,.77,0,1.44,.25,1.99,.76,.56,.51,.83,1.09,.83,1.77Z"/>
      <path class="cls-2" d="M180.57,109.51c-.79,2.96-1.41,6.06-1.87,9.29-6.45-.2-11.03-.3-13.76-.3s-7.22,.1-13.59,.3c-.27,0-.4-.24-.4-.71,0-.42,.13-.65,.4-.68,2.04-.24,3.42-.61,4.15-1.14s1.1-1.57,1.1-3.13v-23.78c0-1.18-.15-2.01-.44-2.49-.29-.48-.81-.86-1.55-1.14-.74-.28-1.83-.5-3.26-.67-.27,0-.4-.23-.4-.69s.13-.69,.4-.69c1.13,0,2.47,.05,4.04,.15,1.5,.1,2.76,.15,3.79,.15s2.28-.05,3.76-.15c1.55-.1,2.89-.15,4.01-.15,.27,0,.4,.23,.4,.69s-.14,.69-.4,.69c-1.41,.17-2.49,.39-3.23,.67-.74,.28-1.25,.65-1.54,1.12-.29,.47-.43,1.31-.43,2.5v24.54c0,1.99,.98,2.98,2.93,2.98h5c2.07,0,3.82-.55,5.25-1.65,1.43-1.1,2.84-3.16,4.24-6.17,.07-.13,.23-.2,.48-.2,.22,0,.43,.07,.62,.2,.19,.14,.29,.29,.29,.45Z"/>
      <path class="cls-2" d="M202.51,104.46c0,.47-.3,.71-.91,.71h-13.84c-.1,.91-.15,1.85-.15,2.83,0,2.71,.64,4.79,1.93,6.25s3.12,2.18,5.49,2.18c1.2,0,2.4-.32,3.61-.96,1.21-.64,2.19-1.45,2.93-2.45l.13-.05c.15,0,.3,.09,.44,.28,.14,.19,.21,.4,.21,.66,0,.35-.54,1.09-1.62,2.21s-2.25,1.97-3.51,2.56c-1.26,.59-2.58,.88-3.96,.88-3.03,0-5.58-1.11-7.65-3.33-2.07-2.22-3.11-4.95-3.11-8.18s1.01-6.09,3.04-8.38c2.03-2.29,4.6-3.43,7.71-3.43,2.61,0,4.8,.85,6.58,2.56,1.78,1.71,2.66,3.6,2.66,5.67Zm-4.6-2.22c0-1.26-.43-2.31-1.3-3.14s-1.98-1.25-3.35-1.25-2.42,.54-3.37,1.63c-.95,1.09-1.6,2.51-1.93,4.28l7.02-.2c1.06-.02,1.81-.12,2.26-.3,.45-.18,.67-.52,.67-1.01Z"/>
      <path class="cls-2" d="M222.06,112.28c0,2.05-.81,3.78-2.42,5.18s-3.56,2.1-5.85,2.1c-.81,0-2.05-.18-3.73-.53-1.26-.25-2.12-.38-2.57-.38-.14-1.18-.45-2.97-.93-5.38,0-.25,.24-.38,.73-.38,.4,0,.65,.14,.73,.4,.39,1.25,1.15,2.33,2.3,3.26,1.14,.93,2.32,1.39,3.53,1.39s2.24-.34,2.94-1.03c.7-.69,1.05-1.66,1.05-2.9,0-.79-.29-1.49-.87-2.1-.58-.61-1.84-1.36-3.78-2.25-2.54-1.16-4.22-2.26-5.04-3.28-.82-1.03-1.22-2.26-1.22-3.69,0-1.77,.77-3.29,2.3-4.56s3.34-1.91,5.43-1.91c.87,0,2.1,.15,3.69,.45,.87,.17,1.45,.25,1.72,.25,.05,1.99,.16,3.68,.33,5.08,0,.25-.24,.38-.73,.38-.42,0-.66-.13-.71-.4-.18-1.23-.65-2.23-1.38-2.99-.74-.77-1.62-1.15-2.64-1.15-2.62,0-3.93,1.15-3.93,3.44,0,.77,.31,1.49,.93,2.15,.62,.66,1.97,1.51,4.05,2.55,2.48,1.25,4.11,2.32,4.9,3.23,.79,.91,1.18,1.94,1.18,3.08Z"/>
      <path class="cls-2" d="M242.61,112.28c0,2.05-.81,3.78-2.42,5.18s-3.56,2.1-5.85,2.1c-.81,0-2.05-.18-3.73-.53-1.26-.25-2.12-.38-2.57-.38-.14-1.18-.45-2.97-.93-5.38,0-.25,.24-.38,.73-.38,.4,0,.65,.14,.73,.4,.39,1.25,1.15,2.33,2.3,3.26,1.14,.93,2.32,1.39,3.53,1.39s2.24-.34,2.94-1.03c.7-.69,1.05-1.66,1.05-2.9,0-.79-.29-1.49-.87-2.1-.58-.61-1.84-1.36-3.78-2.25-2.54-1.16-4.22-2.26-5.04-3.28-.82-1.03-1.22-2.26-1.22-3.69,0-1.77,.77-3.29,2.3-4.56s3.34-1.91,5.43-1.91c.87,0,2.1,.15,3.69,.45,.87,.17,1.45,.25,1.72,.25,.05,1.99,.16,3.68,.33,5.08,0,.25-.24,.38-.73,.38-.42,0-.66-.13-.71-.4-.18-1.23-.65-2.23-1.38-2.99-.74-.77-1.62-1.15-2.64-1.15-2.62,0-3.93,1.15-3.93,3.44,0,.77,.31,1.49,.93,2.15,.62,.66,1.97,1.51,4.05,2.55,2.48,1.25,4.11,2.32,4.9,3.23,.79,.91,1.18,1.94,1.18,3.08Z"/>
    </g>
    <g>
      <path class="cls-1" d="M303.99,108.5c0,3.11-1.04,5.61-3.13,7.49-2.09,1.88-4.86,2.82-8.31,2.82-1.13,0-2.73-.05-4.8-.15-1.97-.1-3.47-.15-4.49-.15s-2.41,.05-4.14,.15c-1.8,.1-3.27,.15-4.39,.15-.27,0-.4-.24-.4-.71,0-.42,.13-.65,.4-.68,2.04-.24,3.42-.61,4.15-1.14s1.1-1.57,1.1-3.13v-23.78c0-1.18-.15-2.01-.44-2.49-.29-.48-.81-.86-1.55-1.14-.74-.28-1.83-.5-3.26-.67-.27,0-.4-.23-.4-.69s.13-.69,.4-.69c1.13,0,2.51,.05,4.14,.15,1.56,.1,2.86,.15,3.89,.15s2.37-.05,4.04-.15c1.77-.1,3.21-.15,4.34-.15,3.14,0,5.68,.75,7.62,2.25,1.93,1.5,2.9,3.48,2.9,5.93,0,1.72-.72,3.32-2.15,4.81s-3.2,2.47-5.3,2.94c2.98,.59,5.36,1.68,7.13,3.26s2.66,3.46,2.66,5.63Zm-7.93-16.65c0-2.23-.55-3.86-1.64-4.91s-2.79-1.57-5.1-1.57h-1.01c-2.12,0-3.18,.91-3.18,2.73v11h3.64c2.56,0,4.41-.57,5.57-1.71,1.15-1.14,1.73-2.99,1.73-5.55Zm2.37,16.67c0-2.43-.69-4.33-2.07-5.72-1.38-1.38-3.29-2.07-5.73-2.07h-5.5v12.44c0,1.53,.44,2.58,1.31,3.15,.87,.56,2.37,.85,4.49,.85s4.01-.8,5.4-2.39c1.4-1.59,2.1-3.68,2.1-6.26Z"/>
      <path class="cls-1" d="M332.25,108.04c0,3.35-1.09,6.11-3.27,8.27-2.18,2.16-5.01,3.25-8.48,3.25s-6.3-1.09-8.49-3.26c-2.19-2.17-3.29-4.92-3.29-8.26s1.1-6.2,3.31-8.45c2.21-2.25,5.03-3.37,8.47-3.37s6.28,1.12,8.47,3.36c2.19,2.24,3.29,5.06,3.29,8.46Zm-5.1-.05c0-3.08-.59-5.54-1.78-7.39s-2.82-2.77-4.89-2.77-3.68,.93-4.87,2.78-1.79,4.31-1.79,7.37,.59,5.47,1.77,7.26,2.81,2.69,4.9,2.69,3.72-.89,4.9-2.66c1.18-1.78,1.77-4.2,1.77-7.29Z"/>
      <path class="cls-1" d="M352.8,98.75c0,.67-.21,1.25-.62,1.72-.41,.47-.91,.71-1.5,.71-.74,0-1.47-.24-2.2-.73-.57-.39-1.07-.58-1.49-.58-1.09,0-2.22,.64-3.38,1.92v11.36c0,1.46,.25,2.49,.76,3.07,.5,.58,1.58,.98,3.23,1.2,.27,.03,.4,.26,.4,.68,0,.47-.14,.71-.4,.71-.69,0-1.67-.05-2.93-.15-1.39-.1-2.5-.15-3.32-.15s-1.85,.05-3.04,.15c-1.08,.1-1.96,.15-2.65,.15-.27,0-.4-.24-.4-.71,0-.42,.13-.65,.4-.68,1.46-.18,2.4-.53,2.82-1.03s.62-1.58,.62-3.23v-9.33c0-1.35-.17-2.23-.52-2.65s-1.12-.7-2.31-.83c-.27,0-.4-.22-.4-.67,0-.41,.13-.62,.4-.62,1.67-.42,3.04-.89,4.12-1.4,1.08-.51,1.79-.96,2.12-1.33,.2-.2,.4-.3,.6-.3,.47,0,.7,.13,.7,.4l-.2,3.18c1.35-1.25,2.5-2.12,3.47-2.63,.97-.51,1.93-.76,2.89-.76,.77,0,1.44,.25,1.99,.76,.56,.51,.83,1.09,.83,1.77Z"/>
      <path class="cls-1" d="M379.87,117.12c0,.36-.14,.56-.4,.59-.96,.12-2.07,.35-3.34,.71-1.27,.35-2.26,.71-2.97,1.06-.37,.18-.64,.28-.81,.28-.27,0-.41-.13-.41-.4l.2-2.73c-1.78,1.95-4.06,2.93-6.82,2.93-2.91,0-5.39-1.12-7.44-3.36-2.04-2.24-3.07-4.92-3.07-8.05,0-3.55,1.13-6.43,3.4-8.62,2.26-2.2,5.1-3.29,8.52-3.29,1.95,0,3.75,.61,5.4,1.82v-8.39c0-1.36-.17-2.25-.5-2.67-.34-.42-1.11-.7-2.32-.83-.27-.03-.4-.25-.4-.64,0-.45,.14-.67,.41-.67,1.59-.37,2.96-.82,4.13-1.34s1.95-.99,2.36-1.39c.17-.17,.35-.25,.53-.25,.47,0,.71,.13,.71,.4-.27,3.67-.4,6.59-.4,8.78v22.23c0,1.16,.17,1.94,.5,2.33,.34,.39,1.11,.68,2.32,.84,.27,0,.4,.22,.4,.67Zm-7.73-2.69v-12.95c0-.87-.51-1.7-1.53-2.47-1.02-.77-2.13-1.16-3.32-1.16-4.92,0-7.37,3.46-7.37,10.37,0,2.73,.59,5,1.77,6.8,1.18,1.8,2.73,2.71,4.65,2.71,1.09,0,2.09-.25,2.98-.75,.89-.5,1.83-1.35,2.83-2.54Z"/>
      <path class="cls-1" d="M401.94,104.46c0,.47-.3,.71-.91,.71h-13.84c-.1,.91-.15,1.85-.15,2.83,0,2.71,.64,4.79,1.93,6.25s3.12,2.18,5.49,2.18c1.2,0,2.4-.32,3.61-.96,1.21-.64,2.19-1.45,2.93-2.45l.13-.05c.15,0,.3,.09,.44,.28,.14,.19,.21,.4,.21,.66,0,.35-.54,1.09-1.62,2.21s-2.25,1.97-3.51,2.56c-1.26,.59-2.58,.88-3.96,.88-3.03,0-5.58-1.11-7.65-3.33-2.07-2.22-3.11-4.95-3.11-8.18s1.01-6.09,3.04-8.38c2.03-2.29,4.6-3.43,7.71-3.43,2.61,0,4.8,.85,6.58,2.56,1.78,1.71,2.66,3.6,2.66,5.67Zm-4.6-2.22c0-1.26-.43-2.31-1.3-3.14s-1.98-1.25-3.35-1.25-2.42,.54-3.37,1.63c-.95,1.09-1.6,2.51-1.93,4.28l7.02-.2c1.06-.02,1.81-.12,2.26-.3,.45-.18,.67-.52,.67-1.01Z"/>
      <path class="cls-1" d="M422.6,98.75c0,.67-.21,1.25-.62,1.72-.41,.47-.91,.71-1.5,.71-.74,0-1.47-.24-2.2-.73-.57-.39-1.07-.58-1.49-.58-1.09,0-2.22,.64-3.38,1.92v11.36c0,1.46,.25,2.49,.76,3.07,.5,.58,1.58,.98,3.23,1.2,.27,.03,.4,.26,.4,.68,0,.47-.14,.71-.4,.71-.69,0-1.67-.05-2.93-.15-1.39-.1-2.5-.15-3.32-.15s-1.85,.05-3.04,.15c-1.08,.1-1.96,.15-2.65,.15-.27,0-.4-.24-.4-.71,0-.42,.13-.65,.4-.68,1.46-.18,2.4-.53,2.82-1.03s.62-1.58,.62-3.23v-9.33c0-1.35-.17-2.23-.52-2.65s-1.12-.7-2.31-.83c-.27,0-.4-.22-.4-.67,0-.41,.13-.62,.4-.62,1.67-.42,3.04-.89,4.12-1.4,1.08-.51,1.79-.96,2.12-1.33,.2-.2,.4-.3,.6-.3,.47,0,.7,.13,.7,.4l-.2,3.18c1.35-1.25,2.5-2.12,3.47-2.63,.97-.51,1.93-.76,2.89-.76,.77,0,1.44,.25,1.99,.76,.56,.51,.83,1.09,.83,1.77Z"/>
      <path class="cls-1" d="M454.89,109.51c-.79,2.96-1.41,6.06-1.87,9.29-6.45-.2-11.03-.3-13.76-.3s-7.22,.1-13.59,.3c-.27,0-.4-.24-.4-.71,0-.42,.13-.65,.4-.68,2.04-.24,3.42-.61,4.15-1.14s1.1-1.57,1.1-3.13v-23.78c0-1.18-.15-2.01-.44-2.49-.29-.48-.81-.86-1.55-1.14-.74-.28-1.83-.5-3.26-.67-.27,0-.4-.23-.4-.69s.13-.69,.4-.69c1.13,0,2.47,.05,4.04,.15,1.5,.1,2.76,.15,3.79,.15s2.28-.05,3.76-.15c1.55-.1,2.89-.15,4.01-.15,.27,0,.4,.23,.4,.69s-.14,.69-.4,.69c-1.41,.17-2.49,.39-3.23,.67-.74,.28-1.25,.65-1.54,1.12-.29,.47-.43,1.31-.43,2.5v24.54c0,1.99,.98,2.98,2.93,2.98h5c2.07,0,3.82-.55,5.25-1.65,1.43-1.1,2.84-3.16,4.24-6.17,.07-.13,.23-.2,.48-.2,.22,0,.43,.07,.62,.2,.19,.14,.29,.29,.29,.45Z"/>
      <path class="cls-1" d="M476.84,104.46c0,.47-.3,.71-.91,.71h-13.84c-.1,.91-.15,1.85-.15,2.83,0,2.71,.64,4.79,1.93,6.25s3.12,2.18,5.49,2.18c1.2,0,2.4-.32,3.61-.96,1.21-.64,2.19-1.45,2.93-2.45l.13-.05c.15,0,.3,.09,.44,.28,.14,.19,.21,.4,.21,.66,0,.35-.54,1.09-1.62,2.21s-2.25,1.97-3.51,2.56c-1.26,.59-2.58,.88-3.96,.88-3.03,0-5.58-1.11-7.65-3.33-2.07-2.22-3.11-4.95-3.11-8.18s1.01-6.09,3.04-8.38c2.03-2.29,4.6-3.43,7.71-3.43,2.61,0,4.8,.85,6.58,2.56,1.78,1.71,2.66,3.6,2.66,5.67Zm-4.6-2.22c0-1.26-.43-2.31-1.3-3.14s-1.98-1.25-3.35-1.25-2.42,.54-3.37,1.63c-.95,1.09-1.6,2.51-1.93,4.28l7.02-.2c1.06-.02,1.81-.12,2.26-.3,.45-.18,.67-.52,.67-1.01Z"/>
      <path class="cls-1" d="M496.38,112.28c0,2.05-.81,3.78-2.42,5.18s-3.56,2.1-5.85,2.1c-.81,0-2.05-.18-3.73-.53-1.26-.25-2.12-.38-2.57-.38-.14-1.18-.45-2.97-.93-5.38,0-.25,.24-.38,.73-.38,.4,0,.65,.14,.73,.4,.39,1.25,1.15,2.33,2.3,3.26,1.14,.93,2.32,1.39,3.53,1.39s2.24-.34,2.94-1.03c.7-.69,1.05-1.66,1.05-2.9,0-.79-.29-1.49-.87-2.1-.58-.61-1.84-1.36-3.78-2.25-2.54-1.16-4.22-2.26-5.04-3.28-.82-1.03-1.22-2.26-1.22-3.69,0-1.77,.77-3.29,2.3-4.56s3.34-1.91,5.43-1.91c.87,0,2.1,.15,3.69,.45,.87,.17,1.45,.25,1.72,.25,.05,1.99,.16,3.68,.33,5.08,0,.25-.24,.38-.73,.38-.42,0-.66-.13-.71-.4-.18-1.23-.65-2.23-1.38-2.99-.74-.77-1.62-1.15-2.64-1.15-2.62,0-3.93,1.15-3.93,3.44,0,.77,.31,1.49,.93,2.15,.62,.66,1.97,1.51,4.05,2.55,2.48,1.25,4.11,2.32,4.9,3.23,.79,.91,1.18,1.94,1.18,3.08Z"/>
      <path class="cls-1" d="M516.93,112.28c0,2.05-.81,3.78-2.42,5.18s-3.56,2.1-5.85,2.1c-.81,0-2.05-.18-3.73-.53-1.26-.25-2.12-.38-2.57-.38-.14-1.18-.45-2.97-.93-5.38,0-.25,.24-.38,.73-.38,.4,0,.65,.14,.73,.4,.39,1.25,1.15,2.33,2.3,3.26,1.14,.93,2.32,1.39,3.53,1.39s2.24-.34,2.94-1.03c.7-.69,1.05-1.66,1.05-2.9,0-.79-.29-1.49-.87-2.1-.58-.61-1.84-1.36-3.78-2.25-2.54-1.16-4.22-2.26-5.04-3.28-.82-1.03-1.22-2.26-1.22-3.69,0-1.77,.77-3.29,2.3-4.56s3.34-1.91,5.43-1.91c.87,0,2.1,.15,3.69,.45,.87,.17,1.45,.25,1.72,.25,.05,1.99,.16,3.68,.33,5.08,0,.25-.24,.38-.73,.38-.42,0-.66-.13-.71-.4-.18-1.23-.65-2.23-1.38-2.99-.74-.77-1.62-1.15-2.64-1.15-2.62,0-3.93,1.15-3.93,3.44,0,.77,.31,1.49,.93,2.15,.62,.66,1.97,1.51,4.05,2.55,2.48,1.25,4.11,2.32,4.9,3.23,.79,.91,1.18,1.94,1.18,3.08Z"/>
    </g>
  </g>
</svg>